<svg xmlns="http://www.w3.org/2000/svg" xmlns:xlink="http://www.w3.org/1999/xlink" width="142.094" height="136" viewBox="0 0 142.094 136">
  <defs>
    <linearGradient id="linear-gradient" x1="0.5" x2="0.5" y2="1" gradientUnits="objectBoundingBox">
      <stop offset="0" stop-color="#e42367"/>
      <stop offset="1" stop-color="#492080"/>
    </linearGradient>
  </defs>
  <path id="angel-investor" d="M26.961,89.965c2.969,7.579,7.9,10.166,13.445,10.742a53.733,53.733,0,0,1,26-23.064C57.5,60.031,38.741,69.212,34.066,47.269a.887.887,0,0,0-1.57-.36C24.659,57,30.917,68.628,35.392,72.787c-1.971.264-6.308-1.8-8.632-3.9a.888.888,0,0,0-1.484.675c.176,8.583,3.9,15.339,10.172,19.667a14.668,14.668,0,0,1-7.371-.425.887.887,0,0,0-1.117,1.161Zm104.325,18.486a26.774,26.774,0,1,1-26.808,26.774A26.791,26.791,0,0,1,131.286,108.451Zm-78.4,17.726a2.367,2.367,0,0,1-4.366,1.829A5.664,5.664,0,0,0,44.6,124.64a7.13,7.13,0,0,0-3.135-.075c-2.131.429-4.116,1.868-4,4.253.135,2.789,3.5,3.615,5.751,3.984,5.223.857,10.412,3.184,10.554,9.252.119,4.994-4.114,7.8-8.589,8.512v1.6a2.368,2.368,0,0,1-4.736,0V150.52c-4.093-.752-7.49-3.376-8.526-7.528a2.362,2.362,0,0,1,4.588-1.127c.738,2.955,3.781,4.228,6.6,4.161,2.276-.054,6.012-1.042,5.945-3.862-.077-3.342-3.928-4.269-6.594-4.706-4.732-.776-9.447-2.983-9.71-8.419-.231-4.741,3.28-8.148,7.7-9.074v-1.682a2.368,2.368,0,0,1,4.736,0v1.646q.285.057.567.128a10.3,10.3,0,0,1,7.14,6.12Zm88.477,0a10.305,10.305,0,0,0-7.14-6.12q-.282-.071-.567-.128v-1.646a2.368,2.368,0,0,0-4.736,0v1.682c-4.417.927-7.927,4.333-7.7,9.074.264,5.435,4.978,7.643,9.71,8.419,2.666.437,6.517,1.364,6.594,4.706.067,2.82-3.668,3.808-5.945,3.862-2.82.067-5.863-1.206-6.6-4.161a2.362,2.362,0,0,0-4.588,1.127c1.037,4.152,4.434,6.776,8.526,7.528v1.649a2.368,2.368,0,0,0,4.736,0v-1.6c4.475-.713,8.708-3.518,8.589-8.512-.142-6.068-5.33-8.4-10.554-9.252-2.25-.369-5.616-1.2-5.751-3.984-.116-2.385,1.869-3.824,4-4.253A6.1,6.1,0,0,1,137,128.006a2.367,2.367,0,0,0,4.366-1.829ZM42.808,108.451a26.774,26.774,0,1,0,26.808,26.775A26.791,26.791,0,0,0,42.808,108.451ZM87.047,26A24.644,24.644,0,1,1,62.372,50.644,24.66,24.66,0,0,1,87.047,26ZM74.8,82.237q-1.79.487-3.537,1.117l6.887,12.257,5.508-6.523Zm24.5,0L90.441,89.09l5.508,6.522,6.887-12.257Q101.091,82.723,99.3,82.237Zm-27.975,39.5a31.554,31.554,0,0,0-27.185-17.992A48.988,48.988,0,0,1,65.724,83.135c2.483,5.412,6.934,12.362,9.966,17.758a2.358,2.358,0,0,0,1.539,1.148l-.444,10.879a2.345,2.345,0,0,0,.607,1.672l6.475,7.15H71.324Zm18.9,0H102.77a31.555,31.555,0,0,1,27.185-17.991A48.993,48.993,0,0,0,108.37,83.135c-2.476,5.4-6.937,12.368-9.966,17.758a2.358,2.358,0,0,1-1.539,1.148l.447,10.879a2.35,2.35,0,0,1-.687,1.757Zm2.718-22.366a2.353,2.353,0,0,0-.837,1.895l.447,10.879-5.508,6.082-5.508-6.082.447-10.879a2.353,2.353,0,0,0-.837-1.895l5.9-6.984Zm2.8-20.356-8.7,6.729-8.7-6.728A49.261,49.261,0,0,1,95.746,79.02Zm51.388,10.945a.887.887,0,0,0-1.118-1.161,14.668,14.668,0,0,1-7.371.425c6.272-4.328,10-11.084,10.172-19.667a.888.888,0,0,0-1.484-.675c-2.324,2.1-6.66,4.166-8.632,3.9,4.476-4.159,10.733-15.787,2.9-25.878a.887.887,0,0,0-1.57.36c-4.675,21.943-23.43,12.762-32.342,30.374a53.735,53.735,0,0,1,26,23.064c5.549-.576,10.477-3.163,13.446-10.742Z" transform="translate(-16 -26)" fill-rule="evenodd" fill="url(#linear-gradient)"/>
</svg>
