<svg id="expand-button-black-square-interface-symbol" xmlns="http://www.w3.org/2000/svg" xmlns:xlink="http://www.w3.org/1999/xlink" width="136" height="136" viewBox="0 0 136 136">
  <defs>
    <linearGradient id="linear-gradient" x1="0.5" x2="0.5" y2="1" gradientUnits="objectBoundingBox">
      <stop offset="0" stop-color="#e42367"/>
      <stop offset="1" stop-color="#492080"/>
    </linearGradient>
  </defs>
  <g id="_x32__22_">
    <g id="Group_129456" data-name="Group 129456">
      <path id="Path_191868" data-name="Path 191868" d="M119,0H17A17,17,0,0,0,0,17V119a17,17,0,0,0,17,17H119a17,17,0,0,0,17-17V17A17,17,0,0,0,119,0ZM51,102a4.25,4.25,0,0,1,0,8.5H29.869a4.217,4.217,0,0,1-3.026-1.279A3.786,3.786,0,0,1,25.5,106.25V85A4.25,4.25,0,1,1,34,85l-.094,10.906L54.213,75.6l6.01,6.01L39.831,102Zm3.213-41.595L33.906,40.095,34,51a4.25,4.25,0,0,1-8.5,0V29.75a3.8,3.8,0,0,1,1.343-2.975A4.237,4.237,0,0,1,29.869,25.5H51A4.25,4.25,0,0,1,51,34H39.831l20.4,20.4ZM110.5,106.25a3.8,3.8,0,0,1-1.343,2.975,4.219,4.219,0,0,1-3.026,1.275H85a4.25,4.25,0,0,1,0-8.5H96.169l-20.4-20.4,6.01-6.009L102.089,95.9,102,85a4.25,4.25,0,0,1,8.5,0Zm0-55.25a4.25,4.25,0,0,1-8.5,0l.094-10.906L81.787,60.4l-6.009-6.01L96.169,34H85a4.25,4.25,0,0,1,0-8.5h21.131a4.223,4.223,0,0,1,3.026,1.279A3.785,3.785,0,0,1,110.5,29.75Z" fill="url(#linear-gradient)"/>
    </g>
  </g>
</svg>
