<svg xmlns="http://www.w3.org/2000/svg" xmlns:xlink="http://www.w3.org/1999/xlink" width="132.544" height="136" viewBox="0 0 132.544 136">
  <defs>
    <linearGradient id="linear-gradient" x1="0.5" x2="0.5" y2="1" gradientUnits="objectBoundingBox">
      <stop offset="0" stop-color="#e42367"/>
      <stop offset="1" stop-color="#492080"/>
    </linearGradient>
  </defs>
  <path id="future" d="M115.567,40.578a2.161,2.161,0,0,1,.788-2.955l8.187-4.724a2.162,2.162,0,1,1,2.169,3.742l-8.187,4.724A2.164,2.164,0,0,1,115.567,40.578Zm-61.5,79.808.761-5.82A11.327,11.327,0,0,0,52.5,105.9L34.739,88.287a7.2,7.2,0,0,0-10.133.04,5.032,5.032,0,0,0,.031,7.071l9.486,9.406a2.162,2.162,0,1,1-3.05,3.065l-9.486-9.406a9.378,9.378,0,0,1-.049-13.184,9.221,9.221,0,0,1,2.934-1.991V60.676a6.478,6.478,0,0,0-12.955,0v39.9a11.814,11.814,0,0,0,3.437,8.294l9.658,10.383a12.743,12.743,0,0,1,3.634,8.046Zm-25.2-83.745,8.187,4.724a2.162,2.162,0,1,0,2.169-3.742L31.038,32.9a2.162,2.162,0,1,0-2.169,3.742ZM99.6,24.617a2.164,2.164,0,0,0,2.956-.787l4.727-8.183a2.163,2.163,0,0,0-3.744-2.167l-4.727,8.182A2.161,2.161,0,0,0,99.6,24.617ZM77.79,18.783a2.168,2.168,0,0,0,2.169-2.167V7.167a2.169,2.169,0,0,0-4.337,0v9.449A2.168,2.168,0,0,0,77.79,18.783ZM137.584,54.2a6.494,6.494,0,0,0-6.478,6.473V83.288a9.218,9.218,0,0,1,2.934,1.991,9.378,9.378,0,0,1-.049,13.184l-9.486,9.406a2.162,2.162,0,1,1-3.05-3.065l9.486-9.406a5.032,5.032,0,0,0,.031-7.071,7.2,7.2,0,0,0-10.134-.04L103.082,105.9a11.327,11.327,0,0,0-2.333,8.669l.761,5.82,25.822,6.915a12.743,12.743,0,0,1,3.634-8.046l9.658-10.383a11.814,11.814,0,0,0,3.437-8.294v-39.9a6.494,6.494,0,0,0-6.477-6.473ZM77.79,48.255a14.451,14.451,0,0,0-3.462,28.483V65.7H70.945a.918.918,0,0,1-.728-1.481l6.845-8.854a.919.919,0,0,1,1.455,0l6.845,8.854a.918.918,0,0,1-.728,1.481H81.252V76.738A14.451,14.451,0,0,0,77.79,48.255ZM96.424,93.982a7.212,7.212,0,0,0-3.609,6.347v3.057H62.764v-3.057a7.211,7.211,0,0,0-3.609-6.347,36.455,36.455,0,1,1,37.269,0Zm4.385-14.851-3.305-3.3a23.532,23.532,0,0,0,3.512-8.47h4.672V58.053h-4.672a23.526,23.526,0,0,0-3.513-8.47l3.305-3.3L94.225,39.7,90.92,43a23.56,23.56,0,0,0-8.475-3.511v-4.67H73.134v4.669A23.558,23.558,0,0,0,64.659,43l-3.3-3.3-6.584,6.58,3.3,3.3a23.532,23.532,0,0,0-3.513,8.47H49.891v9.306h4.672a23.534,23.534,0,0,0,3.513,8.47l-3.3,3.3,6.584,6.581,3.3-3.3a23.562,23.562,0,0,0,8.475,3.511v4.669h9.311V85.92a23.558,23.558,0,0,0,8.475-3.511l3.3,3.3ZM53.027,23.83a2.163,2.163,0,0,0,3.744-2.167L52.044,13.48A2.163,2.163,0,0,0,48.3,15.647Zm76.8,108.627-31.075-8.322a1.43,1.43,0,0,0-1.747,1.008l-1.539,5.74a1.43,1.43,0,0,0,1.009,1.746l31.075,8.322a1.431,1.431,0,0,0,1.747-1.008l1.539-5.74A1.429,1.429,0,0,0,129.831,132.457ZM62.764,108.288a5.019,5.019,0,0,0,5.011,5.008H87.8a5.019,5.019,0,0,0,5.011-5.008v-.567H62.764Zm-4.193,16.855a1.431,1.431,0,0,0-1.747-1.008l-31.075,8.322A1.43,1.43,0,0,0,24.74,134.2l1.539,5.74a1.431,1.431,0,0,0,1.747,1.008L59.1,132.63a1.43,1.43,0,0,0,1.009-1.746Zm16.6-1.557h5.243a7.415,7.415,0,0,0,7.252-5.955H67.916a7.413,7.413,0,0,0,7.253,5.955Z" transform="translate(-11.518 -5)" fill="url(#linear-gradient)"/>
</svg>
