<svg xmlns="http://www.w3.org/2000/svg" xmlns:xlink="http://www.w3.org/1999/xlink" width="136" height="136" viewBox="0 0 136 136">
  <defs>
    <linearGradient id="linear-gradient" x1="0.5" x2="0.5" y2="1" gradientUnits="objectBoundingBox">
      <stop offset="0" stop-color="#e42367"/>
      <stop offset="1" stop-color="#492080"/>
    </linearGradient>
  </defs>
  <path id="market-analysis" d="M137.552,42.186h11.615A2.839,2.839,0,0,1,152,45.019v67.512a2.839,2.839,0,0,1-2.833,2.833H137.552a2.839,2.839,0,0,1-2.833-2.833V45.019a2.839,2.839,0,0,1,2.833-2.833ZM33.589,130.919l3.492,3.492a2.839,2.839,0,0,1,0,4.007L25.045,150.453a5.3,5.3,0,0,1-7.5-7.5l12.035-12.035A2.839,2.839,0,0,1,33.589,130.919Zm13.352-5.112a24.7,24.7,0,1,0-4.748-4.748l-6.873,6.873a6.246,6.246,0,0,1,.673.583l3.492,3.492a6.268,6.268,0,0,1,.583.673l6.873-6.873ZM61.868,85.882a20.249,20.249,0,1,1-20.25,20.249A20.239,20.239,0,0,1,61.868,85.882Zm0,3.4a16.853,16.853,0,1,1-16.849,16.849A16.86,16.86,0,0,1,61.868,89.282ZM33.535,16A17.536,17.536,0,1,1,16,33.535,17.535,17.535,0,0,1,33.535,16ZM137.5,27.969l-13.184,10a8.836,8.836,0,0,0-2.047-2.695l13.184-10A8.839,8.839,0,0,0,137.5,27.969ZM143.359,16a5.4,5.4,0,1,1-5.4,5.4A5.4,5.4,0,0,1,143.359,16ZM62.52,44.619a5.4,5.4,0,1,1-5.4,5.4A5.4,5.4,0,0,1,62.52,44.619Zm26.946-18.4a5.4,5.4,0,1,1-5.4,5.4A5.4,5.4,0,0,1,89.466,26.221Zm26.946,10.221a5.4,5.4,0,1,1-5.4,5.4A5.4,5.4,0,0,1,116.413,36.442Zm-8.677,3.924-10.8-4.095a8.747,8.747,0,0,0,1.2-3.171l10.8,4.095a8.743,8.743,0,0,0-1.2,3.171ZM83.291,37.892,70.61,46.55a8.816,8.816,0,0,0-1.915-2.8l12.681-8.658A8.824,8.824,0,0,0,83.291,37.892Zm-45.8-9.98a4.768,4.768,0,0,0-2.26-1.826v-.171a1.7,1.7,0,1,0-3.4,0v.168a4.734,4.734,0,0,0,1.7,9.152,1.333,1.333,0,0,1,0,2.667,1.314,1.314,0,0,1-1.118-.6,1.7,1.7,0,0,0-2.842,1.859,4.765,4.765,0,0,0,2.26,1.826v.171a1.7,1.7,0,1,0,3.4,0v-.168a4.734,4.734,0,0,0-1.7-9.153,1.333,1.333,0,1,1,0-2.667,1.314,1.314,0,0,1,1.118.6,1.7,1.7,0,1,0,2.842-1.859Zm-3.96-8.53A14.153,14.153,0,1,0,47.688,33.535,14.154,14.154,0,0,0,33.535,19.382Zm0,3.4A10.753,10.753,0,1,0,44.288,33.535,10.752,10.752,0,0,0,33.535,22.782ZM56.712,67.971H68.327A2.839,2.839,0,0,1,71.16,70.8v8.805a28.206,28.206,0,0,0-17.281-.421V70.8a2.839,2.839,0,0,1,2.833-2.833ZM83.659,52.406H95.273a2.839,2.839,0,0,1,2.833,2.833v57.291a2.839,2.839,0,0,1-2.833,2.833H88.411A28.121,28.121,0,0,0,80.826,85.4V55.24a2.839,2.839,0,0,1,2.833-2.833Zm26.946,7.388H122.22a2.839,2.839,0,0,1,2.833,2.833v49.9a2.839,2.839,0,0,1-2.833,2.833H110.605a2.839,2.839,0,0,1-2.833-2.833v-49.9A2.839,2.839,0,0,1,110.605,59.794Z" transform="translate(-16 -16)" fill-rule="evenodd" fill="url(#linear-gradient)"/>
</svg>
