<svg xmlns="http://www.w3.org/2000/svg" xmlns:xlink="http://www.w3.org/1999/xlink" width="96.201" height="136" viewBox="0 0 96.201 136">
  <defs>
    <linearGradient id="linear-gradient" x1="0.5" x2="0.5" y2="1" gradientUnits="objectBoundingBox">
      <stop offset="0" stop-color="#e42367"/>
      <stop offset="1" stop-color="#492080"/>
    </linearGradient>
  </defs>
  <path id="mentoring" d="M126.368,33.439l-1.435,6.37c-.008.007-.015.007-.03.015l-.045.023a1.554,1.554,0,0,1-.594.106h-2.58a1.541,1.541,0,0,1-.587-.106.407.407,0,0,0-.053-.023c-.007-.007-.015-.007-.023-.015l-1.414-6.3Zm-4.407,10.233L121,55.734l1.978,2.019,1.979-2.019-.963-12.063ZM93.88,37.279a6.733,6.733,0,0,0-7.665-1.626,7.654,7.654,0,0,0-4.04,4.043,6.743,6.743,0,0,0,1.617,7.68L94.88,58.483l.008-.008c4.333,4.585,8.605,2.425,12.441-1.167.948-.889,1.843-1.845,2.693-2.786V71.147a1.863,1.863,0,0,0,1.858,1.859h22.19a1.863,1.863,0,0,0,1.858-1.859V54.522c.849.941,1.745,1.9,2.685,2.778,3.814,3.569,8.049,5.73,12.344,1.28a1.356,1.356,0,0,0,.106-.1l11.1-11.106a6.742,6.742,0,0,0,1.617-7.68,7.652,7.652,0,0,0-4.039-4.043,6.73,6.73,0,0,0-7.665,1.626l-6.454,6.461L137.08,35.2a7.607,7.607,0,0,0-2.482-1.672,7.523,7.523,0,0,0-2.934-.572h-1.392l-1.753,7.8a3.348,3.348,0,0,1-.91,1.634l1.113,13.892a1.875,1.875,0,0,1-.61,1.529l-3.821,3.893a1.844,1.844,0,0,1-2.618.015l-3.919-3.991a1.869,1.869,0,0,1-.526-1.446l1.113-13.892a3.314,3.314,0,0,1-.91-1.634l-1.753-7.8h-1.392a7.522,7.522,0,0,0-2.934.572,7.716,7.716,0,0,0-2.49,1.672l-8.529,8.539Zm29.1-8.93A12.142,12.142,0,1,0,110.842,16.2a12.136,12.136,0,0,0,12.133,12.144ZM74.736,19.886V1.859A1.858,1.858,0,0,1,76.594,0h26.9a1.856,1.856,0,0,1,1.85,1.859V19.886a1.857,1.857,0,0,1-1.85,1.859h-2.858V27.2a1.858,1.858,0,0,1-2.783,1.6L85.636,21.746H76.594a1.858,1.858,0,0,1-1.858-1.86Zm20.693-9.013a1.858,1.858,0,0,0,1.858,1.859h.053a1.859,1.859,0,0,0,0-3.719h-.053A1.858,1.858,0,0,0,95.429,10.873Zm-7.274,0a1.863,1.863,0,0,0,1.858,1.859h.053a1.859,1.859,0,0,0,0-3.719h-.053a1.863,1.863,0,0,0-1.858,1.859Zm-7.266,0a1.856,1.856,0,0,0,1.85,1.859h.053a1.859,1.859,0,0,0,0-3.719H82.74A1.857,1.857,0,0,0,80.889,10.873Zm61.569,79.166a9.447,9.447,0,1,0,9.447-9.456A9.452,9.452,0,0,0,142.458,90.039Zm-57.86,0a9.447,9.447,0,1,0,9.447-9.456A9.452,9.452,0,0,0,84.6,90.039Zm81.894,17.175a15.532,15.532,0,0,0-10.478-4.006h-8.206a15.6,15.6,0,0,0-8.538,2.507,19.408,19.408,0,0,1,2.2,1.747,18.208,18.208,0,0,1,6.063,13.448v9.954h21.551a1.853,1.853,0,0,0,1.858-1.859V117.033a13.3,13.3,0,0,0-4.446-9.819Zm-62,.249a19.426,19.426,0,0,1,2.2-1.747,15.6,15.6,0,0,0-8.537-2.507H89.938a15.532,15.532,0,0,0-10.478,4.006,13.3,13.3,0,0,0-4.446,9.819v11.972a1.853,1.853,0,0,0,1.858,1.859H98.423v-9.954a18.206,18.206,0,0,1,6.063-13.448ZM138.96,110.2a16.934,16.934,0,0,0-11.448-4.383H118.44a16.935,16.935,0,0,0-11.449,4.383,14.506,14.506,0,0,0-4.853,10.707v13.23A1.853,1.853,0,0,0,104,136h37.958a1.858,1.858,0,0,0,1.858-1.859v-13.23A14.5,14.5,0,0,0,138.96,110.2ZM112.535,91.236a10.441,10.441,0,1,0,10.441-10.451A10.446,10.446,0,0,0,112.535,91.236Z" transform="translate(-74.736)" fill-rule="evenodd" fill="url(#linear-gradient)"/>
</svg>
