<svg xmlns="http://www.w3.org/2000/svg" xmlns:xlink="http://www.w3.org/1999/xlink" width="155.54" height="136" viewBox="0 0 155.54 136">
  <defs>
    <linearGradient id="linear-gradient" x1="0.5" x2="0.5" y2="1" gradientUnits="objectBoundingBox">
      <stop offset="0" stop-color="#e42367"/>
      <stop offset="1" stop-color="#492080"/>
    </linearGradient>
  </defs>
  <path id="trophy" d="M135.2,91.118a20.124,20.124,0,0,0,10.9-3.159,20.586,20.586,0,0,0,9.382-16.436,60.1,60.1,0,0,0-.516-10.862,4.509,4.509,0,0,0-5.1-3.763,26.35,26.35,0,0,0-13.324,5.914q-.279-2.191-.738-4.348a18.776,18.776,0,0,0,9.53-9.505c2.541-5.785,1.744-12.931-2.087-18.649a71.567,71.567,0,0,0-6.817-8.708A4.723,4.723,0,0,0,130,21.2a24.067,24.067,0,0,0-8.032,14.379,26.123,26.123,0,0,0,2.067,15.89c9.537,21.5.779,46.087-19.062,58.1a9.042,9.042,0,0,0-3.274,3.319H82.327V95.217l16.038,7.9a4.761,4.761,0,0,0,4.779-.342,4.217,4.217,0,0,0,1.816-4.206l-3.8-21.723L117.687,61.4a4.167,4.167,0,0,0,1.135-4.413,4.505,4.505,0,0,0-3.653-2.943L92.33,50.776,81.922,28.939c-1.477-3.1-6.826-3.1-8.3,0L63.209,50.776,40.372,54.04a4.5,4.5,0,0,0-3.653,2.943A4.167,4.167,0,0,0,37.853,61.4L54.385,76.848l-3.8,21.723a4.216,4.216,0,0,0,1.816,4.206,4.771,4.771,0,0,0,4.779.342l16.038-7.9v17.666H53.7c-1.687-2.684-4.265-3.9-6.681-5.693-12.8-9.822-19.283-23.969-19.283-37.551,0-17.267,8.4-20.008,5.914-34.113A24.081,24.081,0,0,0,25.625,21.2,4.724,4.724,0,0,0,19.2,21.6a71.285,71.285,0,0,0-6.817,8.7C8.55,36.025,7.745,43.17,10.268,48.913a18.845,18.845,0,0,0,9.561,9.554q-.46,2.158-.738,4.351A26.652,26.652,0,0,0,5.677,56.9a4.846,4.846,0,0,0-3.378.878A4.261,4.261,0,0,0,.577,60.666,61.309,61.309,0,0,0,.057,71.452,20.562,20.562,0,0,0,9.569,87.993a19.663,19.663,0,0,0,10.818,3.129,22.436,22.436,0,0,0,2.765-.221c.577,1.336,1.154,2.669,1.835,3.96a25.831,25.831,0,0,0-14.248,1.983,4.225,4.225,0,0,0-2.011,5.891,70.582,70.582,0,0,0,5.767,9.126A21.706,21.706,0,0,0,32.2,120.886a19.64,19.64,0,0,0,12.5-4.61,5.215,5.215,0,0,1,1.175.932v30.27H41.315a4.33,4.33,0,1,0,0,8.649h72.909a4.33,4.33,0,1,0,0-8.649h-4.557V117.672a3.982,3.982,0,0,0,.173-.8c.355-.215.663-.48,1.012-.7,9.481,7.937,22.9,5.5,30.383-4.286a71.287,71.287,0,0,0,5.834-9.345,4.228,4.228,0,0,0-2.118-5.684c-4.159-1.955-8.879-2.529-14.331-1.893.706-1.331,1.4-2.667,2-4.051A22.018,22.018,0,0,0,135.2,91.118ZM86.883,138.829H68.656a4.33,4.33,0,1,1,0-8.649H86.883a4.33,4.33,0,1,1,0,8.649Z" transform="translate(0 -20.127)" fill="url(#linear-gradient)"/>
</svg>
