<svg xmlns="http://www.w3.org/2000/svg" xmlns:xlink="http://www.w3.org/1999/xlink" width="130.165" height="136" viewBox="0 0 130.165 136">
  <defs>
    <linearGradient id="linear-gradient" x1="0.5" x2="0.5" y2="1" gradientUnits="objectBoundingBox">
      <stop offset="0" stop-color="#e42367"/>
      <stop offset="1" stop-color="#492080"/>
    </linearGradient>
  </defs>
  <path id="handshake" d="M27.146,101.378a1.754,1.754,0,0,1-2.292.887L17.03,98.8a1.713,1.713,0,0,1-.913-.965,1.741,1.741,0,0,1,.027-1.329l17.963-40.7a1.736,1.736,0,0,1,2.291-.888l7.823,3.464a1.74,1.74,0,0,1,.886,2.293Zm83.741-88.137a7.471,7.471,0,1,1-7.461,7.471,7.466,7.466,0,0,1,7.461-7.471Zm0,16.939a14.767,14.767,0,0,1,14.1,10.4,3.377,3.377,0,0,1-3.222,4.377H105.031v-.233l-.025-.231a23.961,23.961,0,0,0-3.826-10.668,14.691,14.691,0,0,1,9.707-3.647Zm-59.613,0a14.69,14.69,0,0,1,9.707,3.647,23.964,23.964,0,0,0-3.826,10.668l-.025.231v.232H40.4a3.377,3.377,0,0,1-3.222-4.377A14.767,14.767,0,0,1,51.274,30.179Zm49.418,14.777a19.723,19.723,0,0,0-39.223,0v3.992a5.285,5.285,0,0,0,5.271,5.278H95.42a5.285,5.285,0,0,0,5.271-5.278V44.956ZM81.08,5.577a9.987,9.987,0,1,1-9.973,9.987A9.98,9.98,0,0,1,81.08,5.577ZM51.274,13.241a7.471,7.471,0,1,1-7.461,7.471A7.466,7.466,0,0,1,51.274,13.241ZM40.58,62.183A2.658,2.658,0,1,0,37.8,64.717,2.66,2.66,0,0,0,40.58,62.183Zm2.2,60.345a4.162,4.162,0,0,1-1.7-5.618l3.894-7.291a4.146,4.146,0,0,1,7.455,3.616L47.3,122.128a4.163,4.163,0,0,1-4.518.4Zm8.642,9.865a4.165,4.165,0,0,0,5.624-1.728l5.665-10.986a4.14,4.14,0,0,0-6.642-4.071L49.72,126.771a4.175,4.175,0,0,0,1.7,5.622Zm11.826,3.9a4.173,4.173,0,0,1-2.177-3.964L66.55,121.7a4.14,4.14,0,0,1,6.977,3.766L68.5,135.143A4.152,4.152,0,0,1,63.246,136.295Zm14.506,5.1a4.117,4.117,0,0,0,2.457-2.006l3.734-6.992a4.176,4.176,0,0,0-1.7-5.618,4.192,4.192,0,0,0-4.879.718l-4.932,9.494a4.132,4.132,0,0,0,5.32,4.4Zm15.514-3.147a4.042,4.042,0,0,1-2.438,1.929,3.753,3.753,0,0,1-2.911-.343L85.6,138.5l2.167-4.058a8.454,8.454,0,0,0,.968-3.266l3.012,1.695a4.013,4.013,0,0,1,1.516,5.376Zm25.5-28a4.038,4.038,0,0,0-1.591-5.407L95.965,92.734c-3.634-2.072-8.15-.245-13.378,1.877-7.678,3.111-17.233,6.987-25.4-3.542a2.906,2.906,0,0,1,.829-4.292A72.555,72.555,0,0,0,73.045,75.424,45.047,45.047,0,0,1,76.4,72.347c-4.029-1.931-8.148-1.048-12.468-.119-4.344.934-8.835,1.9-12.963-.382l-5.019-2.318L33.759,97.139c2.5,1.113,4.017,1.778,4.52,1.974,3.011,1.17,3.83,4.092,4.3,6.5a8.478,8.478,0,0,1,14.462,4.9,8.483,8.483,0,0,1,9.784,6.053,8.488,8.488,0,0,1,10.814,5.792,8.461,8.461,0,0,1,9.312,2.832l11.07,6.2a3.887,3.887,0,0,0,2.988.329,3.94,3.94,0,0,0,2.387-1.9,4.016,4.016,0,0,0-1.579-5.4l-15.68-8.88a2.171,2.171,0,1,1,2.143-3.776l19.186,10.809a3.981,3.981,0,0,0,5.383-1.564,4.015,4.015,0,0,0-1.579-5.4c-5.429-3.043-9.956-5.585-14.613-8.257a2.172,2.172,0,0,1,2.155-3.772c4.645,2.664,9.16,5.2,14.581,8.241a3.872,3.872,0,0,0,2.969.334,3.962,3.962,0,0,0,2.4-1.908Zm2.84-7.269a8.4,8.4,0,0,0-2.283-1.912L98.112,88.959c-5.46-3.116-11.4-.706-17.152,1.624-7.184,2.911-13.439,5.446-19.294-.929A75.115,75.115,0,0,0,76.127,78.48a36.694,36.694,0,0,1,5.3-4.5c8.227-5.651,13.93-3.317,19.448-1.059,4.046,1.656,8.23,3.369,12.62,1.082l4.051-2.172L128.5,100.1Zm23.449-.634-7.976,3.1a1.735,1.735,0,0,1-2.248-.994L118.77,62.961a1.746,1.746,0,0,1,.993-2.251l7.976-3.1a1.736,1.736,0,0,1,2.249.993l16.059,41.485A1.742,1.742,0,0,1,145.055,102.343ZM128.541,64.671a2.658,2.658,0,1,0-2.658,2.662A2.665,2.665,0,0,0,128.541,64.671Z" transform="translate(-15.998 -5.577)" fill-rule="evenodd" fill="url(#linear-gradient)"/>
</svg>
