<svg id="initiative" xmlns="http://www.w3.org/2000/svg" width="47.999" height="47.999" viewBox="0 0 47.999 47.999">
  <path id="Path_2267" data-name="Path 2267" d="M97.289,154.838H95.741a2.325,2.325,0,0,0-2.323,2.323v1.183a2.334,2.334,0,0,0,.245,1.039l.406.813a2.314,2.314,0,0,0-.652,1.611v6.654a12.467,12.467,0,0,0-6.819-3.323l-.923-.132v-2.038l2.374-1.781A9.548,9.548,0,0,0,82.322,144H81.29a9.548,9.548,0,0,0-5.729,17.187l2.374,1.78v2.038l-.923.132a12.466,12.466,0,0,0-6.819,3.323v-6.654a2.314,2.314,0,0,0-.652-1.611l.406-.813a2.335,2.335,0,0,0,.245-1.039v-1.183a2.325,2.325,0,0,0-2.323-2.323H66.323A2.325,2.325,0,0,0,64,157.161v14.033a5.321,5.321,0,0,0,8.728,4.088l2.111-1.759v4.541H88.773v-4.541l2.111,1.759a5.321,5.321,0,0,0,8.728-4.088V157.161A2.325,2.325,0,0,0,97.289,154.838ZM79.483,153.29h-.774a.774.774,0,1,1,.774-.774Zm3.1,8.516H81.032v-6.968H82.58Zm1.548,1.548v1.935l-2.323,1.742-2.323-1.742v-1.935ZM78.5,166.488l2.126,1.594-1.58,1.58-1.035-3.1Zm3.2,6.156h.205l.553,3.871H81.15Zm.4-1.548H81.51l-.569-1.137.864-.864.864.864Zm.883-3.013,2.126-1.594.489.07-1.035,3.1Zm-6.495-8.135a8,8,0,0,1,4.8-14.4h1.032a8,8,0,0,1,4.8,14.4l-2.477,1.858h-.516v-6.968H84.9a2.323,2.323,0,1,0-2.323-2.323v.774H81.032v-.774a2.323,2.323,0,1,0-2.323,2.323h.774v6.968h-.516Zm7.639-6.658v-.774a.774.774,0,1,1,.774.774Zm-18.58,3.871a.775.775,0,0,1,.774-.774h1.548a.775.775,0,0,1,.774.774v1.183a.778.778,0,0,1-.082.346l-.406.812a2.331,2.331,0,0,0-.287-.018H65.548Zm9.29,13.161v1.186l-3.1,2.585a3.773,3.773,0,0,1-6.188-2.9V161.032h2.323a.775.775,0,0,1,.774.774v10.838h1.548v-2l.907-.907a10.915,10.915,0,0,1,5.364-2.926l1.906,5.719,1.417-1.417.444.887-.645,4.515h-3.2v-6.193Zm23.225.872a3.773,3.773,0,0,1-6.188,2.9l-3.1-2.585v-1.186H87.225v6.193h-3.2L83.381,172l.444-.887,1.417,1.417,1.906-5.719a10.914,10.914,0,0,1,5.364,2.926l.907.907v2h1.548V161.806a.775.775,0,0,1,.774-.774h2.323v10.162Zm-2.323-11.71a2.331,2.331,0,0,0-.287.018l-.406-.812a.778.778,0,0,1-.082-.346v-1.183a.775.775,0,0,1,.774-.774h1.548a.775.775,0,0,1,.774.774v2.323Z" transform="translate(-57.807 -130.065)" fill="#492080"/>
  <path id="Path_2268" data-name="Path 2268" d="M97.776,109.977a13.161,13.161,0,0,1,26.282,0l1.546-.085a14.71,14.71,0,0,0-29.374,0Z" transform="translate(-86.918 -86.71)" fill="#492080"/>
  <path id="Path_2269" data-name="Path 2269" d="M224.083,5.192,222.988,4.1l-1,1V0h-1.548V5.1l-1-1-1.095,1.095,2.87,2.87Z" transform="translate(-197.214)" fill="#492080"/>
  <path id="Path_2270" data-name="Path 2270" d="M5.192,202.343,4.1,203.438l1,1H0v1.548H5.1l-1,1,1.095,1.095,2.87-2.87Z" transform="translate(0 -182.762)" fill="#492080"/>
  <path id="Path_2271" data-name="Path 2271" d="M57.548,58.643l4.872,4.872,1.095-1.095-4.872-4.872h2V56H56v4.645h1.548Z" transform="translate(-50.581 -50.581)" fill="#492080"/>
  <path id="Path_2272" data-name="Path 2272" d="M363.438,63.515l4.872-4.872v2h1.548V56h-4.645v1.548h2l-4.872,4.872Z" transform="translate(-327.279 -50.581)" fill="#492080"/>
  <path id="Path_2273" data-name="Path 2273" d="M415.648,205.987h5.1v-1.548h-5.1l1-1-1.095-1.095-2.87,2.87,2.87,2.87,1.095-1.095Z" transform="translate(-372.748 -182.762)" fill="#492080"/>
  <path id="Path_2274" data-name="Path 2274" d="M451.1,337.548V336h-1.548v1.548H448V339.1h1.548v1.548H451.1V339.1h1.548v-1.548Z" transform="translate(-404.646 -303.485)" fill="#492080"/>
  <path id="Path_2275" data-name="Path 2275" d="M451.1,448h-1.548v1.548H448V451.1h1.548v1.548H451.1V451.1h1.548v-1.548H451.1Z" transform="translate(-404.646 -404.646)" fill="#492080"/>
  <path id="Path_2276" data-name="Path 2276" d="M3.1,336H1.548v1.548H0V339.1H1.548v1.548H3.1V339.1H4.645v-1.548H3.1Z" transform="translate(0 -303.485)" fill="#492080"/>
  <path id="Path_2277" data-name="Path 2277" d="M3.1,448H1.548v1.548H0V451.1H1.548v1.548H3.1V451.1H4.645v-1.548H3.1Z" transform="translate(0 -404.646)" fill="#492080"/>
</svg>
