<svg id="Page-1" xmlns="http://www.w3.org/2000/svg" width="48.003" height="48.003" viewBox="0 0 48.003 48.003">
  <g id="_038---Market-Stall" data-name="038---Market-Stall" transform="translate(0)">
    <path id="Shape" d="M46.836,13.226A4.005,4.005,0,0,0,48,10.4a3.547,3.547,0,0,0-.56-1.9L43.455,2.231A4.809,4.809,0,0,0,39.41,0H8.593A4.807,4.807,0,0,0,4.55,2.227L.56,8.5A3.542,3.542,0,0,0,0,10.4a4.011,4.011,0,0,0,1.174,2.834,4.063,4.063,0,0,0,1.226.825V30.4a2.395,2.395,0,0,0-.8,4.653V43.35A2.395,2.395,0,0,0,2.4,48H45.6a2.395,2.395,0,0,0,.8-4.653V35.055a2.395,2.395,0,0,0-.8-4.653V14.058a4.1,4.1,0,0,0,1.234-.832ZM45.705,12.1A2.415,2.415,0,0,1,44,12.8H41.6a2.4,2.4,0,0,1-2.4-2.4h7.2A2.408,2.408,0,0,1,45.705,12.1Zm-8,18.307.687-5.5A.8.8,0,0,0,37.6,24H32.8a.8.8,0,0,0-.794.9l.687,5.5H26.4V27.2a1.6,1.6,0,0,0-1.6-1.6H16V22.4h.8a1.6,1.6,0,0,0,1.6-1.6V19.2a1.6,1.6,0,0,0-1.6-1.6H10.4a1.6,1.6,0,0,0-1.6,1.6v1.6a1.6,1.6,0,0,0,1.6,1.6h.8v3.2h-.8a1.6,1.6,0,0,0-1.6,1.6v3.2H7.2V14.321a4,4,0,0,0,2.4-1.544A3.986,3.986,0,0,0,12.8,14.4H16a3.986,3.986,0,0,0,3.2-1.625A3.986,3.986,0,0,0,22.4,14.4h3.2a3.986,3.986,0,0,0,3.2-1.625A3.986,3.986,0,0,0,32,14.4h3.2a3.986,3.986,0,0,0,3.2-1.625,4,4,0,0,0,2.4,1.544V30.4Zm-4-4.8H36.7l-.6,4.8H34.308ZM15.2,20.8H10.4V19.2h6.4v1.6Zm-2.4,1.6h1.6v3.2H12.8ZM12,27.2H24.8v3.2H10.4V27.2ZM37.6,10.4a2.4,2.4,0,0,1-2.4,2.4H32a2.4,2.4,0,0,1-2.4-2.4Zm-9.6,0a2.4,2.4,0,0,1-2.4,2.4H22.4A2.4,2.4,0,0,1,20,10.4Zm-17.6,0h8A2.4,2.4,0,0,1,16,12.8H12.8A2.4,2.4,0,0,1,10.4,10.4ZM5.9,3.082A3.2,3.2,0,0,1,8.593,1.6H39.41A3.2,3.2,0,0,1,42.1,3.086L45.741,8.8h-6.8l-1.4-3.5a.8.8,0,1,0-1.486.6l1.162,2.9H29.6V7.2a.8.8,0,0,0-1.6,0V8.8H20V7.2a.8.8,0,0,0-1.6,0V8.8H10.782l1.162-2.9a.8.8,0,0,0-1.486-.6l-1.4,3.5h-6.8ZM1.6,10.4H8.8a2.4,2.4,0,0,1-2.4,2.4H4a2.4,2.4,0,0,1-2.4-2.4Zm2.4,4H5.6v16H4ZM44.8,43.2H3.2v-8H44.8Zm.8,3.2H2.4a.8.8,0,0,1,0-1.6H45.6a.8.8,0,0,1,0,1.6Zm.8-13.6a.8.8,0,0,1-.8.8H2.4a.8.8,0,0,1,0-1.6H45.6A.8.8,0,0,1,46.4,32.8ZM44,30.4H42.4v-16H44Z" transform="translate(0)" fill="#492080"/>
  </g>
</svg>
