<svg id="network-2" xmlns="http://www.w3.org/2000/svg" width="48.003" height="48.003" viewBox="0 0 48.003 48.003">
  <g id="Group_128927" data-name="Group 128927" transform="translate(41.603 9.601)">
    <g id="Group_128926" data-name="Group 128926">
      <path id="Path_2236" data-name="Path 2236" d="M446.934,102.4a3.2,3.2,0,1,0,3.2,3.2A3.2,3.2,0,0,0,446.934,102.4Zm0,4.8a1.6,1.6,0,1,1,1.6-1.6A1.6,1.6,0,0,1,446.934,107.2Z" transform="translate(-443.734 -102.4)" fill="#492080"/>
    </g>
  </g>
  <g id="Group_128929" data-name="Group 128929" transform="translate(0 36.002)">
    <g id="Group_128928" data-name="Group 128928">
      <path id="Path_2237" data-name="Path 2237" d="M3.2,384a3.2,3.2,0,1,0,3.2,3.2A3.2,3.2,0,0,0,3.2,384Zm0,4.8a1.6,1.6,0,1,1,1.6-1.6A1.6,1.6,0,0,1,3.2,388.8Z" transform="translate(0 -384)" fill="#492080"/>
    </g>
  </g>
  <g id="Group_128931" data-name="Group 128931" transform="translate(35.202 7.2)">
    <g id="Group_128930" data-name="Group 128930">
      <path id="Path_2238" data-name="Path 2238" d="M383.512,80.2l-6.9-3.332a.8.8,0,0,0-.7,1.441l6.9,3.332a.8.8,0,0,0,.7-1.441Z" transform="translate(-375.463 -76.792)" fill="#492080"/>
    </g>
  </g>
  <g id="Group_128933" data-name="Group 128933" transform="translate(32.802 41.602)">
    <g id="Group_128932" data-name="Group 128932">
      <path id="Path_2239" data-name="Path 2239" d="M353.067,443.733a3.2,3.2,0,1,0,3.2,3.2A3.2,3.2,0,0,0,353.067,443.733Zm0,4.8a1.6,1.6,0,1,1,1.6-1.6A1.6,1.6,0,0,1,353.067,448.533Z" transform="translate(-349.867 -443.733)" fill="#492080"/>
    </g>
  </g>
  <g id="Group_128935" data-name="Group 128935" transform="translate(26.401 39.202)">
    <g id="Group_128934" data-name="Group 128934">
      <path id="Path_2240" data-name="Path 2240" d="M289.645,421.537l-6.9-3.332a.8.8,0,1,0-.7,1.441l6.9,3.332a.8.8,0,1,0,.7-1.441Z" transform="translate(-281.596 -418.124)" fill="#492080"/>
    </g>
  </g>
  <g id="Group_128937" data-name="Group 128937" transform="translate(20.801 21.601)">
    <g id="Group_128936" data-name="Group 128936">
      <path id="Path_2241" data-name="Path 2241" d="M225.067,230.4a3.2,3.2,0,1,0,3.2,3.2A3.2,3.2,0,0,0,225.067,230.4Zm0,4.8a1.6,1.6,0,1,1,1.6-1.6A1.6,1.6,0,0,1,225.067,235.2Z" transform="translate(-221.867 -230.4)" fill="#492080"/>
    </g>
  </g>
  <g id="Group_128939" data-name="Group 128939" transform="translate(16.001 18.402)">
    <g id="Group_128938" data-name="Group 128938">
      <path id="Path_2242" data-name="Path 2242" d="M177.259,200.572l-5.3-4.132a.8.8,0,0,0-.984,1.263l5.3,4.132a.8.8,0,1,0,.984-1.262Z" transform="translate(-170.664 -196.272)" fill="#492080"/>
    </g>
  </g>
  <g id="Group_128941" data-name="Group 128941" transform="translate(29.602 20.801)">
    <g id="Group_128940" data-name="Group 128940">
      <path id="Path_2243" data-name="Path 2243" d="M324.534,221.867a8.8,8.8,0,1,0,8.8,8.8A8.811,8.811,0,0,0,324.534,221.867Zm0,16a7.2,7.2,0,1,1,7.2-7.2A7.208,7.208,0,0,1,324.534,237.868Z" transform="translate(-315.733 -221.867)" fill="#492080"/>
    </g>
  </g>
  <g id="Group_128943" data-name="Group 128943" transform="translate(35.202 24.001)">
    <g id="Group_128942" data-name="Group 128942">
      <path id="Path_2244" data-name="Path 2244" d="M378.667,256a3.2,3.2,0,1,0,3.2,3.2A3.2,3.2,0,0,0,378.667,256Zm0,4.8a1.6,1.6,0,1,1,1.6-1.6A1.6,1.6,0,0,1,378.667,260.8Z" transform="translate(-375.467 -256)" fill="#492080"/>
    </g>
  </g>
  <g id="Group_128945" data-name="Group 128945" transform="translate(33.602 32.002)">
    <g id="Group_128944" data-name="Group 128944">
      <path id="Path_2245" data-name="Path 2245" d="M365.521,341.333h-4.642a2.449,2.449,0,0,0-2.479,2.412v2.109a.8.8,0,0,0,.4.693,8.756,8.756,0,0,0,8.8,0,.8.8,0,0,0,.4-.692v-2.109A2.45,2.45,0,0,0,365.521,341.333Zm.879,4.044a7.254,7.254,0,0,1-6.4,0v-1.631a.849.849,0,0,1,.879-.813h4.642a.849.849,0,0,1,.879.813v1.631Z" transform="translate(-358.4 -341.333)" fill="#492080"/>
    </g>
  </g>
  <g id="Group_128947" data-name="Group 128947" transform="translate(10.401 30.402)">
    <g id="Group_128946" data-name="Group 128946">
      <path id="Path_2246" data-name="Path 2246" d="M119.734,324.267a8.8,8.8,0,1,0,8.8,8.8A8.811,8.811,0,0,0,119.734,324.267Zm0,16a7.2,7.2,0,1,1,7.2-7.2A7.208,7.208,0,0,1,119.734,340.268Z" transform="translate(-110.933 -324.267)" fill="#492080"/>
    </g>
  </g>
  <g id="Group_128949" data-name="Group 128949" transform="translate(16.001 33.602)">
    <g id="Group_128948" data-name="Group 128948">
      <path id="Path_2247" data-name="Path 2247" d="M173.867,358.4a3.2,3.2,0,1,0,3.2,3.2A3.2,3.2,0,0,0,173.867,358.4Zm0,4.8a1.6,1.6,0,1,1,1.6-1.6A1.6,1.6,0,0,1,173.867,363.2Z" transform="translate(-170.667 -358.4)" fill="#492080"/>
    </g>
  </g>
  <g id="Group_128951" data-name="Group 128951" transform="translate(14.401 41.602)">
    <g id="Group_128950" data-name="Group 128950">
      <path id="Path_2248" data-name="Path 2248" d="M160.721,443.733h-4.642a2.449,2.449,0,0,0-2.479,2.412v2.109a.8.8,0,0,0,.4.693,8.756,8.756,0,0,0,8.8,0,.8.8,0,0,0,.4-.692v-2.109A2.449,2.449,0,0,0,160.721,443.733Zm.879,4.044a7.255,7.255,0,0,1-6.4,0v-1.631a.849.849,0,0,1,.879-.813h4.642a.849.849,0,0,1,.879.813v1.631Z" transform="translate(-153.6 -443.733)" fill="#492080"/>
    </g>
  </g>
  <g id="Group_128953" data-name="Group 128953" transform="translate(0 10.401)">
    <g id="Group_128952" data-name="Group 128952">
      <path id="Path_2249" data-name="Path 2249" d="M8.8,110.933a8.8,8.8,0,1,0,8.8,8.8A8.811,8.811,0,0,0,8.8,110.933Zm0,16a7.2,7.2,0,1,1,7.2-7.2A7.208,7.208,0,0,1,8.8,126.934Z" transform="translate(0 -110.933)" fill="#492080"/>
    </g>
  </g>
  <g id="Group_128955" data-name="Group 128955" transform="translate(5.6 13.601)">
    <g id="Group_128954" data-name="Group 128954">
      <path id="Path_2250" data-name="Path 2250" d="M62.934,145.067a3.2,3.2,0,1,0,3.2,3.2A3.2,3.2,0,0,0,62.934,145.067Zm0,4.8a1.6,1.6,0,1,1,1.6-1.6A1.6,1.6,0,0,1,62.934,149.867Z" transform="translate(-59.734 -145.067)" fill="#492080"/>
    </g>
  </g>
  <g id="Group_128957" data-name="Group 128957" transform="translate(4 21.601)">
    <g id="Group_128956" data-name="Group 128956">
      <path id="Path_2251" data-name="Path 2251" d="M49.788,230.4H45.146a2.449,2.449,0,0,0-2.479,2.412v2.109a.8.8,0,0,0,.4.693,8.756,8.756,0,0,0,8.8,0,.8.8,0,0,0,.4-.692v-2.109A2.45,2.45,0,0,0,49.788,230.4Zm.879,4.044a7.254,7.254,0,0,1-6.4,0v-1.631a.849.849,0,0,1,.879-.813h4.642a.849.849,0,0,1,.879.813v1.631Z" transform="translate(-42.667 -230.4)" fill="#492080"/>
    </g>
  </g>
  <g id="Group_128959" data-name="Group 128959" transform="translate(19.201)">
    <g id="Group_128958" data-name="Group 128958">
      <path id="Path_2252" data-name="Path 2252" d="M213.6,0a8.8,8.8,0,1,0,8.8,8.8A8.811,8.811,0,0,0,213.6,0Zm0,16a7.2,7.2,0,1,1,7.2-7.2A7.208,7.208,0,0,1,213.6,16Z" transform="translate(-204.8)" fill="#492080"/>
    </g>
  </g>
  <g id="Group_128961" data-name="Group 128961" transform="translate(24.802 3.2)">
    <g id="Group_128960" data-name="Group 128960">
      <path id="Path_2253" data-name="Path 2253" d="M267.734,34.133a3.2,3.2,0,1,0,3.2,3.2A3.2,3.2,0,0,0,267.734,34.133Zm0,4.8a1.6,1.6,0,1,1,1.6-1.6A1.6,1.6,0,0,1,267.734,38.933Z" transform="translate(-264.534 -34.133)" fill="#492080"/>
    </g>
  </g>
  <g id="Group_128963" data-name="Group 128963" transform="translate(23.201 11.201)">
    <g id="Group_128962" data-name="Group 128962">
      <path id="Path_2254" data-name="Path 2254" d="M254.588,119.467h-4.642a2.449,2.449,0,0,0-2.479,2.412v2.109a.8.8,0,0,0,.4.693,8.756,8.756,0,0,0,8.8,0,.8.8,0,0,0,.4-.692V121.88A2.45,2.45,0,0,0,254.588,119.467Zm.879,4.044a7.254,7.254,0,0,1-6.4,0V121.88a.849.849,0,0,1,.879-.813h4.642a.849.849,0,0,1,.879.813v1.631Z" transform="translate(-247.467 -119.467)" fill="#492080"/>
    </g>
  </g>
  <g id="Group_128965" data-name="Group 128965" transform="translate(13.657 8)">
    <g id="Group_128964" data-name="Group 128964">
      <path id="Path_2255" data-name="Path 2255" d="M152.624,85.613a.8.8,0,0,0-1.128-.087l-5.544,4.744a.8.8,0,1,0,1.04,1.215l5.544-4.744A.8.8,0,0,0,152.624,85.613Z" transform="translate(-145.671 -85.333)" fill="#492080"/>
    </g>
  </g>
  <g id="Group_128967" data-name="Group 128967" transform="translate(32.002 14.402)">
    <g id="Group_128966" data-name="Group 128966">
      <path id="Path_2256" data-name="Path 2256" d="M347.573,160.33l-4.8-6.4a.8.8,0,0,0-1.28.959l4.8,6.4a.8.8,0,0,0,1.28-.959Z" transform="translate(-341.333 -153.61)" fill="#492080"/>
    </g>
  </g>
  <g id="Group_128969" data-name="Group 128969" transform="translate(25.767 31.928)">
    <g id="Group_128968" data-name="Group 128968">
      <path id="Path_2257" data-name="Path 2257" d="M280.742,340.86a.8.8,0,0,0-1.12-.16l-4.469,3.351a.8.8,0,0,0,.96,1.279l4.469-3.351A.8.8,0,0,0,280.742,340.86Z" transform="translate(-274.833 -340.54)" fill="#492080"/>
    </g>
  </g>
  <g id="Group_128971" data-name="Group 128971" transform="translate(4.8 38.402)">
    <g id="Group_128970" data-name="Group 128970">
      <path id="Path_2258" data-name="Path 2258" d="M57.6,409.6H52a.8.8,0,0,0,0,1.6h5.6a.8.8,0,0,0,0-1.6Z" transform="translate(-51.2 -409.6)" fill="#492080"/>
    </g>
  </g>
  <g id="Group_128973" data-name="Group 128973" transform="translate(5.6)">
    <g id="Group_128972" data-name="Group 128972">
      <path id="Path_2259" data-name="Path 2259" d="M62.933,0a3.2,3.2,0,1,0,3.2,3.2A3.2,3.2,0,0,0,62.933,0Zm0,4.8a1.6,1.6,0,1,1,1.6-1.6A1.6,1.6,0,0,1,62.933,4.8Z" transform="translate(-59.733)" fill="#492080"/>
    </g>
  </g>
  <g id="Group_128975" data-name="Group 128975" transform="translate(8.001 4.8)">
    <g id="Group_128974" data-name="Group 128974">
      <path id="Path_2260" data-name="Path 2260" d="M86.134,51.2a.8.8,0,0,0-.8.8v5.6a.8.8,0,0,0,1.6,0V52A.8.8,0,0,0,86.134,51.2Z" transform="translate(-85.334 -51.2)" fill="#492080"/>
    </g>
  </g>
</svg>
