<svg xmlns="http://www.w3.org/2000/svg" xmlns:xlink="http://www.w3.org/1999/xlink" width="617.005" height="399.371" viewBox="0 0 617.005 399.371">
  <defs>
    <clipPath id="clip-path">
      <rect id="Rectangle_39833" data-name="Rectangle 39833" width="617.005" height="399.371" fill="none"/>
    </clipPath>
    <clipPath id="clip-path-3">
      <path id="Path_194630" data-name="Path 194630" d="M1645.539,772.964c-3.3,1.215-5.746,2.169-5.282,4.514a12.733,12.733,0,0,0,2.592,4.831,6.2,6.2,0,0,0,5.684-1.136c1.315-5.2-.343-13.133-1.274-13.9a.781.781,0,0,0-.495-.2c-.99,0-1.833,2.413-1.226,5.9" transform="translate(-1640.2 -767.068)" fill="none"/>
    </clipPath>
  </defs>
  <g id="Group_131589" data-name="Group 131589" transform="translate(0 -0.003)">
    <g id="Group_131582" data-name="Group 131582" transform="translate(0 0.003)">
      <g id="Group_131581" data-name="Group 131581" clip-path="url(#clip-path)">
        <path id="Path_194469" data-name="Path 194469" d="M575.819,397.27S647.05,310.7,621.076,234.018c-21.941-64.779-54.331-60.6-78.362-109.707C526.74,97.052,540.668,55.122,500,19.966,440.054-31.849,339.54,34.466,286.3,26.859,236.2,19.7,186.344.692,137.409,13.073,50.648,35.025,7.126,133.706,66.23,184.077c51.6,43.974,8.849,78.336-20.905,111.238-57.662,63.763-18.161,98.2-18.161,98.2Z" transform="translate(-9.771 -0.004)" fill="#e6f7ff"/>
        <path id="Path_194470" data-name="Path 194470" d="M143.944,1091.066h0a28.853,28.853,0,0,1-28.853-28.853v-39.334H172.8v39.334a28.853,28.853,0,0,1-28.853,28.853" transform="translate(-80.529 -715.711)" fill="#6a8ef5"/>
        <rect id="Rectangle_39821" data-name="Rectangle 39821" width="3.198" height="61.053" transform="translate(31.364 336.894)" fill="#425899"/>
        <rect id="Rectangle_39822" data-name="Rectangle 39822" width="3.198" height="61.053" transform="translate(92.268 336.894)" fill="#425899"/>
        <rect id="Rectangle_39823" data-name="Rectangle 39823" width="3.198" height="61.053" transform="translate(67.796 336.894)" fill="#425899"/>
        <rect id="Rectangle_39824" data-name="Rectangle 39824" width="61.053" height="3.198" transform="translate(31.363 375.355)" fill="#425899"/>
        <path id="Path_194471" data-name="Path 194471" d="M215.611,773.431c-5.39,2.869-1.132,9.918-3.339,16.6s-11.078,6.521-7.728,18.478c2.063,7.365,9.373,2.748,9.206,12.323s-3.793,9.34-.979,14.263c4.905,8.582,21.625,3.781,21.757-5.8s-7.889-12.841-1.113-17.3,9.488-6.484,5.027-12.857c-5.52-7.887-14.08-7.649-11.685-13.806s-4.016-15.7-11.146-11.9" transform="translate(-142.596 -540.566)" fill="#a3cfff"/>
        <path id="Path_194472" data-name="Path 194472" d="M252.624,871.944l1.4.4c9.541-33.25.608-64.558.516-64.87l-1.4.41c.09.308,8.9,31.228-.519,64.057" transform="translate(-176.762 -564.994)" fill="#425899"/>
        <path id="Path_194473" data-name="Path 194473" d="M2.729,741.1c-3.978,7.14,5.928,11.974,8.3,21.091s-8.249,11.738,4.2,22.752c7.668,6.783,9.55,2.891,11.746,17.284,1.934,12.671,12.082,1.241,18.82,8.971,8.694,9.973,24.144-10.111,17.335-20.982s-15.537-8.608-11.152-18.54.187-17.807-9.455-21.734c-11.934-4.861-16.84,5.112-18.618-3.55S7.99,731.655,2.729,741.1" transform="translate(-1.257 -515.212)" fill="#a1d3ff"/>
        <path id="Path_194474" data-name="Path 194474" d="M87.68,850.584c-13.25-43.781-45.6-72.127-45.927-72.407l1.28-1.48c.329.285,33.106,29,46.519,73.321Z" transform="translate(-29.215 -543.457)" fill="#425899"/>
        <path id="Path_194475" data-name="Path 194475" d="M1452.194,1263.29h11.879l1.228-25.827h-14.336Z" transform="translate(-1015.244 -865.856)" fill="#9fd0eb"/>
        <path id="Path_194476" data-name="Path 194476" d="M420.062,1263.29h11.879l1.229-25.827H418.834Z" transform="translate(-293.059 -865.856)" fill="#9fd0eb"/>
        <path id="Path_194477" data-name="Path 194477" d="M429.706,791.809q1.964,6.093,4.3,12.505H734.7s25.449-103.583,0-122.526a16.824,16.824,0,0,0-2.343-1.427c-34.275-17.612-275.2-21.747-303.1.91-.214.168-.41.343-.6.517-10.281,9.438-19.219,47.106,1.045,110.021" transform="translate(-292.157 -465.786)" fill="#a3dfff"/>
        <path id="Path_194478" data-name="Path 194478" d="M1226.1,958.155h74.3l-7.246-72.6c-12.956,5.622-47.451,35.306-67.057,72.6" transform="translate(-857.908 -619.626)" fill="#8cd7ff"/>
        <path id="Path_194479" data-name="Path 194479" d="M458.041,943.849q1.964,6.093,4.3,12.505h71.623c-12.317-22.843-42.184-57.444-71.186-73.371Z" transform="translate(-320.492 -617.827)" fill="#8cd7ff"/>
        <path id="Path_194480" data-name="Path 194480" d="M354.4,882.172h27.339a9.161,9.161,0,0,1,9.083,7.96l8.719,65.929H662.831l8.719-65.929a9.161,9.161,0,0,1,9.082-7.96h27.34a9.161,9.161,0,0,1,9.019,10.771l-15.179,109.793H360.564L345.386,892.943a9.161,9.161,0,0,1,9.019-10.771" transform="translate(-241.566 -617.259)" fill="#a3dfff"/>
        <path id="Path_194481" data-name="Path 194481" d="M511.034,1006.583c-12.866,4.307-10.357,31.547,0,35.736H770.613c11.656-3.008,12.641-39.042-4.17-36.331-102.879,19.344-207.567,1.053-255.41.6" transform="translate(-351.46 -703.791)" fill="#c9ebff"/>
        <rect id="Rectangle_39825" data-name="Rectangle 39825" width="26.118" height="31.545" transform="translate(455.844 167.367)" fill="#cce4ff"/>
        <rect id="Rectangle_39826" data-name="Rectangle 39826" width="15.836" height="20.197" transform="translate(460.985 173.041)" fill="#f2f8ff"/>
        <rect id="Rectangle_39827" data-name="Rectangle 39827" width="26.118" height="31.545" transform="translate(487.931 167.367)" fill="#cce4ff"/>
        <rect id="Rectangle_39828" data-name="Rectangle 39828" width="15.836" height="20.197" transform="translate(493.071 173.041)" fill="#f2f8ff"/>
        <rect id="Rectangle_39829" data-name="Rectangle 39829" width="26.118" height="31.545" transform="translate(455.844 129.709)" fill="#cce4ff"/>
        <rect id="Rectangle_39830" data-name="Rectangle 39830" width="15.836" height="20.197" transform="translate(460.985 135.383)" fill="#f2f8ff"/>
        <rect id="Rectangle_39831" data-name="Rectangle 39831" width="26.118" height="31.545" transform="translate(487.931 129.709)" fill="#cce4ff"/>
        <rect id="Rectangle_39832" data-name="Rectangle 39832" width="15.836" height="20.197" transform="translate(493.071 135.383)" fill="#f2f8ff"/>
      </g>
    </g>
    <g id="Group_131584" data-name="Group 131584" transform="translate(0 0.003)">
      <g id="Group_131583" data-name="Group 131583" clip-path="url(#clip-path)">
        <path id="Path_194482" data-name="Path 194482" d="M1339.446,382.782l28.45-7.693,26.887-24.287,5.225,4.452s-20.732,26.211-25.943,30.89c-4.625,4.153-31.88,15.793-31.88,15.793Z" transform="translate(-937.213 -245.458)" fill="#ffc591"/>
        <path id="Path_194483" data-name="Path 194483" d="M1158.66,322.55c-2.338-10.149,4.98-29.132,4.98-29.132s5.036-16.778-4.3-18.035c0,0-29.872-3.307-34.958,27.323-4.432,26.688-17.2,26.391-30.85,43.014-34.136,42.447,69.2,83.227,65.133-23.171" transform="translate(-760.296 -192.614)" fill="#854030"/>
        <path id="Path_194484" data-name="Path 194484" d="M1218.434,473.048c1.208,6.547,12.982,35.646,12.982,35.646,0,7.108,34.441,7.108,34.441,0,.415-10.866,1.384-31.236,1.238-43.278a32.982,32.982,0,0,0-13.695-16.759c-14.434-3.154-41.238.55-34.966,24.391" transform="translate(-851.887 -313.252)" fill="#648ced"/>
        <path id="Path_194485" data-name="Path 194485" d="M1280.256,443.426s9.689,6.626,6.069,11.582c-3.116,4.267-10.8-.6-10.8-.6s-1.292,6.6-6.459,5.719c-7.183-1.225-8.687-11.805-5.68-15.258s13.364-3.23,16.872-1.448" transform="translate(-882.969 -309.381)" fill="#fff"/>
        <path id="Path_194486" data-name="Path 194486" d="M1276.788,417.6c-1,2.7,1.4,7.994,6.849,9.649,3.462,1.051,6.2-.5,6.676-3.505l.737-3.8,2.139-10.816-12.574-4.192Z" transform="translate(-893.217 -283.333)" fill="#ffc591"/>
        <path id="Path_194487" data-name="Path 194487" d="M1293.208,394.9c.16,4.843,2.36,9.322,10.293,12.781l2.139-10.816-11.684-3.864Z" transform="translate(-904.86 -274.987)" fill="#e87c5d"/>
        <path id="Path_194488" data-name="Path 194488" d="M1283.373,327.771c-9.256,5.734-20.426,2.775-24.917-5.239-7.808-8.9-10.93-20.225-3.436-27.112,8.746-7.986,23.019-5.7,26.638,8.355a19.035,19.035,0,0,1,4.056,6.71,9.237,9.237,0,0,1,.655,2.29,17.023,17.023,0,0,1-3,15" transform="translate(-875.147 -203.508)" fill="#ffc591"/>
        <path id="Path_194489" data-name="Path 194489" d="M1335.272,382.914s-3.789,2.934-10.552,2.151c4.809,3.305,9.938,4.563,10.552-2.151" transform="translate(-926.909 -267.927)" fill="#bd4a31"/>
        <path id="Path_194490" data-name="Path 194490" d="M1253.13,313.35s7.26-6.728,8.6-23.568c3.754,4.108,17.536,7.375,20.027-1.109,3.869-13.179-22.135-18.413-34.646-6.729-9.216,8.606-9.07,29.932,6.019,31.407" transform="translate(-868.231 -192.741)" fill="#854030"/>
        <path id="Path_194491" data-name="Path 194491" d="M1322.242,1253.316l.468,10.137s.907,2.236,6.435,2.248,4.377-2.18,4.377-2.18l.123-10.5Z" transform="translate(-925.176 -876.744)" fill="#ffc3b3"/>
        <path id="Path_194492" data-name="Path 194492" d="M1284.614,741.225c-.3,10.865-.676,23.852-1.085,38.234-.166,5.95-.341,12.139-.519,18.514-.017.623-.034,1.24-.054,1.857-.936,33.366-1.945,59.225-2.621,83.426l-11.451-.026c-3.148-36.633-10.983-51.384-5.338-86.205q-.6-2.058-1.291-4.044c-1.829-5.318-4.036-10.276-6.183-15.177a120.544,120.544,0,0,1-6.812-18.271c-3.329-12.874-4.583-22.564-1.973-28.615,6.094-14.875,38.5-10.783,37.326,10.307" transform="translate(-871.75 -505.218)" fill="#ffc591"/>
        <path id="Path_194493" data-name="Path 194493" d="M1338.733,1273.2c1.19,2.711,4.24,3.754,10.319,4.809,6.553-.479,9.624,6.723,6.341,9.725l-32.375-.079c-.5-2.2-.332-8.286.017-11.413,2.819,1.865,6.089,1.271,9.158.109-2.246-5.536,6.076-6.421,6.54-3.151" transform="translate(-925.5 -889.529)" fill="#fff"/>
        <path id="Path_194494" data-name="Path 194494" d="M1373.538,1281a.47.47,0,0,0-.62-.232l-4.763,2.172a.468.468,0,1,0,.389.852l4.763-2.171a.47.47,0,0,0,.232-.62" transform="translate(-957.109 -896.125)" fill="#648ced"/>
        <path id="Path_194495" data-name="Path 194495" d="M1379.766,1285.232a.469.469,0,0,0-.62-.232l-4.763,2.171a.468.468,0,1,0,.388.852l4.763-2.171a.47.47,0,0,0,.232-.62" transform="translate(-961.467 -899.089)" fill="#648ced"/>
        <path id="Path_194496" data-name="Path 194496" d="M1386.661,1288.093l-4.763,2.172a.468.468,0,1,0,.389.852l4.763-2.172a.469.469,0,0,0-.389-.852" transform="translate(-966.725 -901.249)" fill="#648ced"/>
        <path id="Path_194497" data-name="Path 194497" d="M1347.459,1293.524a6.515,6.515,0,0,0-5.879,6.469l-21.142-.052-.009,3.665,34.688.085c1.084-5.3-.643-10.8-7.659-10.166" transform="translate(-923.908 -905.048)" fill="#648ced"/>
        <path id="Path_194498" data-name="Path 194498" d="M1307.26,909.378l-27.457-1.654c2.148,4.9,4.354,9.858,6.184,15.177l20.7,6.849Z" transform="translate(-895.482 -635.137)" fill="#cc8666"/>
        <path id="Path_194499" data-name="Path 194499" d="M1146.869,750.773c-1.581,7.432-4,20.932-6.186,33.071-.882,4.893-1.722,9.566-2.452,13.531-.727,3.937-1.344,7.178-1.784,9.247-1.984,9.315-38.392,59.124-50.144,77.8-.139-.079-8.024-7.074-7.945-7.212,13.3-23.015,27.268-71.519,37.7-76.318,0,0-.119-.888-.316-2.421-.42-3.261-1.2-9.444-1.993-16.254-1-8.627-2.015-18.257-2.323-24.221-.124-8.269-.789-14.633,3.041-21.2,6.961-12.457,36.732-5.662,32.4,13.971" transform="translate(-754.529 -511.147)" fill="#ffc591"/>
        <path id="Path_194500" data-name="Path 194500" d="M1223.158,904.306c-.882,4.893-1.722,9.565-2.452,13.531l-22.485,1.1c-.42-3.261-1.2-9.444-1.992-16.254Z" transform="translate(-837.004 -631.61)" fill="#cc8666"/>
        <path id="Path_194501" data-name="Path 194501" d="M1071.432,1212.709a6.673,6.673,0,0,1,6.638-.236c3.593,1.882,4.676,5.817,3.935,10.55s-9.866,1.882-11.234-2.281-1.016-6.657.661-8.033" transform="translate(-748.631 -847.826)" fill="#ffc3b3"/>
        <path id="Path_194502" data-name="Path 194502" d="M1065.839,1225.652c-1.421,2.6-.385,5.65,2.489,11.109,4.38,4.9.548,11.727-3.833,10.96l-19.7-25.694c1.438-1.735,6.361-5.32,9.051-6.952.243,3.37,2.71,5.6,5.5,7.321,3.014-5.158,8.795.894,6.488,3.257" transform="translate(-731.047 -850.191)" fill="#fff"/>
        <path id="Path_194503" data-name="Path 194503" d="M1105.351,1253.872a.47.47,0,0,0-.195-.633l-4.627-2.448a.468.468,0,1,0-.438.828l4.627,2.448a.47.47,0,0,0,.633-.195" transform="translate(-769.562 -875.144)" fill="#648ced"/>
        <path id="Path_194504" data-name="Path 194504" d="M1105.8,1261.391a.47.47,0,0,0-.195-.633l-4.627-2.448a.468.468,0,1,0-.438.828l4.627,2.448a.47.47,0,0,0,.633-.195" transform="translate(-769.875 -880.405)" fill="#648ced"/>
        <path id="Path_194505" data-name="Path 194505" d="M1107.728,1268.608l-4.627-2.448a.468.468,0,1,0-.437.828l4.627,2.448a.468.468,0,1,0,.438-.828" transform="translate(-771.362 -885.898)" fill="#648ced"/>
        <path id="Path_194506" data-name="Path 194506" d="M1066.11,1246.545a6.515,6.515,0,0,0-8.712-.708l-12.862-16.779-2.908,2.229,21.1,27.529a12.78,12.78,0,0,0,5.149-4.558c2.033-3.216-1.433-7.385-1.77-7.713" transform="translate(-728.829 -859.976)" fill="#648ced"/>
        <path id="Path_194507" data-name="Path 194507" d="M1100.813,711.318s16.536-41.63,26.127-58.715c6.443-11.543,15.965-22.212,21.82-26.469,8.352-6.072,34.461-8.029,35.449,5.064l9.859,86.558c.125,3.01-9.136,5.373-36.5.211-21.5-4.056-35.145,8.074-56.754-6.649" transform="translate(-770.241 -434.818)" fill="#648ced"/>
        <path id="Path_194508" data-name="Path 194508" d="M1189.269,486.9c-8.417,15.457-14.646,38.448-10.013,41.955,9.757,7.384,36.208-7.188,42.623-7.746l-2.045-5.671c-2.789,2.045-18.457,1.556-27.329,4.317,0,0,7.135-13.14,10.376-23.306,2.981-9.35-6.19-23.249-13.612-9.55" transform="translate(-824.023 -336.669)" fill="#ffc591"/>
        <path id="Path_194509" data-name="Path 194509" d="M1325.76,585.173l7.822-.606s1.23.661.09,1.706-2.754.9-4.338,1.638-2.626,6.138-6.647,5.527c-4.334-2.01,1.585-7.866,3.073-8.265" transform="translate(-924.396 -409.024)" fill="#f0a08b"/>
        <path id="Path_194510" data-name="Path 194510" d="M1341.222,567.7l3.979-.2s.549.808-.054,1.366a12.044,12.044,0,0,1-3.288,1.147l2.741.6a.989.989,0,0,1-.566,1.134,4.091,4.091,0,0,1-2.346.107l1.224,2.143s-1.3.677-1.917.042a24.983,24.983,0,0,1-2.008-3.114Z" transform="translate(-936.893 -397.083)" fill="#ffc591"/>
        <path id="Path_194511" data-name="Path 194511" d="M1315.029,579.168c-2.016,2.988-1.911,4.679-.679,5.679,2.488.625,4.5.877,5.019-.025,1.494-1.956,2.516-7.094,2.682-10.363l-1.651-1.442Z" transform="translate(-919.032 -400.943)" fill="#ffc591"/>
        <path id="Path_194512" data-name="Path 194512" d="M1331.1,561.855l3.5-4.515,4.9-2.96s1.131,1.359-.134,2.238-3.128,2.319-3.128,2.319l-2.715,5.036Z" transform="translate(-931.377 -387.902)" fill="#ffc591"/>
        <path id="Path_194513" data-name="Path 194513" d="M1269.306,333.405c-1.256-7.39,13.126-9.409,13.126-9.409l1.827,15.318s-13.7,1.481-14.953-5.909" transform="translate(-888.082 -226.702)" fill="#231f20"/>
        <path id="Path_194514" data-name="Path 194514" d="M1303.626,318.507c-7.332,1.474-5.244,16.636,2.662,15.228l18.228-2.36c6.142-1.7,4.837-15.656-3.092-15.112Z" transform="translate(-908.987 -221.28)" fill="#231f20"/>
        <path id="Path_194515" data-name="Path 194515" d="M1307.193,335.222c-2.877-.336-4.515-3.729-4.646-6.906-.1-2.555.79-5.742,3.655-6.339l17.643-2.223.016,0c3.924.021,5.394,4.054,5.546,5.3.577,4.733-.961,7.289-2.8,7.78l-18.057,2.336a4.63,4.63,0,0,1-1.355.054Z" transform="translate(-911.389 -223.733)" fill="#fff"/>
        <path id="Path_194516" data-name="Path 194516" d="M1317.46,328.184a.258.258,0,0,1,.023-.508l16.536-2.012a.258.258,0,1,1,.063.511l-16.536,2.012a.258.258,0,0,1-.086,0" transform="translate(-921.687 -227.868)" fill="#53aefa"/>
        <path id="Path_194517" data-name="Path 194517" d="M1268.08,325.253l-7.3,13.752-8.014-3.884-.379-4.455Z" transform="translate(-876.299 -227.581)" fill="#231f20"/>
        <path id="Path_194518" data-name="Path 194518" d="M1225.887,343.275l-10.332.474-1.043,4.171,11.754-.19Z" transform="translate(-849.797 -240.191)" fill="#231f20"/>
        <path id="Path_194519" data-name="Path 194519" d="M1529.554,344.976l8.8-1.695-2.657-6.644-4.767-2.685-1.7,1.257-1.757,6.4Z" transform="translate(-1068.779 -233.668)" fill="#ffc591"/>
        <path id="Path_194520" data-name="Path 194520" d="M1535.714,335.153l-.617.353-7.157,0L1516.519,320.1l4.883-3.845Z" transform="translate(-1061.112 -221.283)"/>
        <path id="Path_194521" data-name="Path 194521" d="M1517.7,297.381l3.776-6.783c.776-1.025-2.611-6.079-3.568-4.477,0,0-8.6,13.851-8.836,14.574-.562,1.374,3.452,3.7,4.123,2.677Z" transform="translate(-1055.865 -199.982)"/>
        <path id="Path_194522" data-name="Path 194522" d="M1555.935,375.4s.883,1.355,1.581,2.224c.281.471,4.942-2.4,4.942-2.4l-2.954-1.453Z" transform="translate(-1088.691 -261.535)"/>
        <path id="Path_194523" data-name="Path 194523" d="M1520.569,334.158s1.716-6.241,3.9-7.478,5.655-.983,5.655-.983.772,1.957-.781,2.783a6.908,6.908,0,0,1-3.694.5s1.966,5.7-.62,7.174-4.46-2-4.46-2" transform="translate(-1063.946 -227.877)" fill="#ffc591"/>
        <path id="Path_194524" data-name="Path 194524" d="M1546.258,332.867c1.19.427-.032,2.083-.032,2.083a3.58,3.58,0,0,1,1.86,1.2c.448.8-.565,2.057-.565,2.057s1.789.68,1.332,1.983-5.695,3.568-6.3,1.995c-.484-1.266.978-2.724.978-2.724s-3.2.51-2.773-.526a9.506,9.506,0,0,1,1.482-2.2s-3,.5-2.6-1.04c.441-1.7,5.423-3.254,6.613-2.827" transform="translate(-1077.267 -232.859)" fill="#ffc591"/>
        <path id="Path_194525" data-name="Path 194525" d="M871.33,351.32l-.637,3.159,2.534.918,1.822-2.648Z" transform="translate(-609.226 -245.82)"/>
        <path id="Path_194526" data-name="Path 194526" d="M462.183,339.113l-2.229,2.326,1.648,2.133,2.957-1.26Z" transform="translate(-321.831 -237.279)"/>
        <path id="Path_194527" data-name="Path 194527" d="M533.144,404.014,500.9,417.778l-21.059-32.97-5.743,2.616s10.265,50.024,20.941,51.4,46.4-10.155,46.4-10.155Z" transform="translate(-331.727 -269.252)" fill="#ffb16d"/>
        <path id="Path_194528" data-name="Path 194528" d="M868.706,1258.071l-23.858-.082a2.849,2.849,0,0,1-1.066-.962c-1.168-17.749-2.908-26.3-2.908-26.3l16.619-.62,3.716,13.213c5.553,3.824,12.162,12.009,7.5,14.748" transform="translate(-588.361 -860.712)"/>
        <path id="Path_194529" data-name="Path 194529" d="M846.721,1315.053l28.285.1c.717,0,.49-3.932-.227-3.935l-28.117.062c-.738,0-.679,3.773.059,3.776" transform="translate(-592.044 -917.461)"/>
        <path id="Path_194530" data-name="Path 194530" d="M745.491,714.767c6.911,21.148,12.632,79,22.48,161.3l-16.937.834c-5-24.8-10.695-37.379-16.4-73.119a313.134,313.134,0,0,1-24-87.492Z" transform="translate(-497.234 -500.125)" fill="#403769"/>
        <path id="Path_194531" data-name="Path 194531" d="M653.964,718.1c-1.615,43.9-15.242,90.427-15.242,90.427-1.979,37.881-.588,43.855-2.339,70.908l-15.3-.256c-1.193-18.457-17.23-101.292-1.849-159.561Z" transform="translate(-428.637 -502.46)" fill="#403769"/>
        <path id="Path_194532" data-name="Path 194532" d="M606.2,1254.757c1.34,7.316,2.3,13.024,1.7,19.639l-37.07.594s-3.657-3.586.974-8.93,13.381-2.213,19.087-11.559Z" transform="translate(-398.456 -877.778)"/>
        <path id="Path_194533" data-name="Path 194533" d="M567.123,1314.182l39.381.135c.717,0,.543-3.932-.175-3.934l-39.215.024c-.738,0-.73,3.773.008,3.775" transform="translate(-396.427 -916.879)"/>
        <path id="Path_194534" data-name="Path 194534" d="M729.869,403.327a15.37,15.37,0,0,0,15.541-7.354l-.553-17.76L734.8,377.2a29.877,29.877,0,0,0-8.35,1.9l-2.3,11.685-.508,2.534c-1.147,2.492-2.541,8.7,6.23,10.007" transform="translate(-505.737 -263.928)" fill="#ff9e48"/>
        <path id="Path_194535" data-name="Path 194535" d="M744.62,390.326a22.469,22.469,0,0,1-17.31,8.565l1.994-10.11Z" transform="translate(-508.9 -272.033)" fill="#bf7736"/>
        <path id="Path_194536" data-name="Path 194536" d="M705.2,288.779a11.583,11.583,0,0,0,.4,2.263c.047.179.1.353.155.531,1.558,4.873,5.966,9.5,9.9,10.221a26.883,26.883,0,0,0,10.6-1.2c.056-.017.113-.038.17-.056a17.766,17.766,0,0,0,5.961-3.159A57.941,57.941,0,0,0,737.7,289.8a41.214,41.214,0,0,0,3.2-6.51,17.851,17.851,0,0,0,.966-3.8c1.338-9.574-5.869-17.542-14.766-19.586-8.032-1.841-14,.222-17.433,7.057a27.061,27.061,0,0,0-2.113,6.1c-.221.952-.5,2.2-.787,3.59-.84,4.051-1.763,9.316-1.564,12.131" transform="translate(-493.408 -181.403)" fill="#ff9e48"/>
        <path id="Path_194537" data-name="Path 194537" d="M748.866,287.135c2.111-3.686-.672-5.192-3.738-2.335.532-2.785,3.737-10.939.932-13.655-3.167-3.152-17.158-1.833-24.645-9.693,0,0,5.643-12.26,24-4.946,20.723,11.079,3.452,30.629,3.452,30.629" transform="translate(-504.776 -177.85)"/>
        <path id="Path_194538" data-name="Path 194538" d="M748.317,237.081c-.771,3.079-22.61.308-22.61.308s-.551-.122-1.433-.394c-3.619-1.117-12.817-4.763-12.43-12.892.57-8.34,4.4-11.827,4.522-11.935,0,.021-.045.134-.092.321-.244.912-.76,3.56.811,5.289a1.157,1.157,0,0,1,.01-.124v-.007c.077-.915.936-6.318,10.087-6.412.157,0,.316,0,.478,0-2.985.964-1.665,8.828-1.665,8.828a2.122,2.122,0,0,1,.108-.2,8.673,8.673,0,0,1,4.937-3.75c.047-.017.1-.033.145-.047-2.014,9.064,22.136,7.879,17.132,21.015" transform="translate(-498.071 -147.8)"/>
        <path id="Path_194539" data-name="Path 194539" d="M623.055,532.392l64.969-.506c-1.82-9.587-3.576-30.413-3.576-30.413s12.9-48.807,8.281-58.779c-2.9-5.781-10.783-8.353-17.191-8.951-4.012,10.41-22.439,12.933-21.935-.632-6.1.511-9.6,1.606-13.776,4.029-3.944,4.42-9.384,14.6-7.7,46.614-4.764,33.911-6.6,34.457-9.068,48.639" transform="translate(-435.953 -303.05)" fill="#53aefa"/>
        <path id="Path_194540" data-name="Path 194540" d="M770.8,323.613c2.546-7.259-8.338-11.167-8.338-11.167l-5.29,14.868s11.083,3.558,13.628-3.7" transform="translate(-529.791 -218.62)" fill="#231f20"/>
        <path id="Path_194541" data-name="Path 194541" d="M711.59,298.941c7.163,2.756,2.436,17.734-5.32,14.946l-18.033-5.531c-5.921-2.775-2.193-16.673,5.734-14.755Z" transform="translate(-479.526 -205.308)" fill="#231f20"/>
        <path id="Path_194542" data-name="Path 194542" d="M710.916,315.851c2.969.156,5.211-2.993,5.891-6.186.547-2.567.191-5.945-2.6-7.043l-17.465-5.292h-.017c-3.974-.655-6.156,3.171-6.523,4.4-1.4,4.688-.285,7.539,1.493,8.354l17.864,5.477a4.759,4.759,0,0,0,1.362.289Z" transform="translate(-482.49 -207.991)" fill="#fff"/>
        <path id="Path_194543" data-name="Path 194543" d="M728.37,308.94a.264.264,0,0,0,.065-.517l-16.382-4.887a.264.264,0,0,0-.153.506l16.382,4.887a.26.26,0,0,0,.088.011" transform="translate(-497.987 -212.378)" fill="#53aefa"/>
        <path id="Path_194544" data-name="Path 194544" d="M780.449,315.066l4.381,12.167,9.658-3.166L795,321.7Z" transform="translate(-546.082 -220.453)" fill="#231f20"/>
        <path id="Path_194545" data-name="Path 194545" d="M801.179,346.86c-1.6,1.928-1.672,4.491-.169,5.727s4.014.674,5.61-1.253,1.672-4.491.17-5.727-4.014-.674-5.61,1.253" transform="translate(-559.713 -241.364)" fill="#ff9e48"/>
        <path id="Path_194546" data-name="Path 194546" d="M627.536,440.021l-26.984,11.387c4.747,1.759,9.318,14.143,5.78,22.695l23.561-5.954c10.37-5.141,9.579-29.351-2.356-28.129" transform="translate(-420.208 -307.853)" fill="#53aefa"/>
        <path id="Path_194547" data-name="Path 194547" d="M721.825,363.918a5.3,5.3,0,0,0,3.928,4.371,7.954,7.954,0,0,0,8.022-2.722c-.413.065-.817.113-1.214.142a15.909,15.909,0,0,1-10.662-3.264,4.984,4.984,0,0,0-.074,1.473" transform="translate(-505.046 -253.604)" fill="#bd4a31"/>
        <path id="Path_194548" data-name="Path 194548" d="M721.779,363.534a9.45,9.45,0,0,0,2.247,1.712,12.708,12.708,0,0,0,7.839,1.227l.666-.763a15.91,15.91,0,0,1-10.662-3.264,2.789,2.789,0,0,0-.091,1.089" transform="translate(-505.016 -253.604)" fill="#fff"/>
        <path id="Path_194549" data-name="Path 194549" d="M460.82,378.593l-8.889-1.18,2.266-6.787,4.6-2.958,1.771,1.156,2.126,6.285Z" transform="translate(-316.217 -257.259)" fill="#f7a594"/>
        <path id="Path_194550" data-name="Path 194550" d="M436.056,369.338l.637.316,7.145-.414,10.505-16.05-5.1-3.555Z" transform="translate(-305.11 -244.642)"/>
        <path id="Path_194551" data-name="Path 194551" d="M465.274,331.19l-4.164-6.552c-.834-.978,2.253-6.22,3.3-4.677,0,0,9.4,13.327,9.668,14.036.641,1.34-3.231,3.891-3.96,2.912Z" transform="translate(-322.541 -223.681)"/>
        <path id="Path_194552" data-name="Path 194552" d="M445.321,410.518s-.8,1.4-1.45,2.312c-.253.486-5.073-2.105-5.073-2.105l2.864-1.622Z" transform="translate(-307.029 -286.251)"/>
        <path id="Path_194553" data-name="Path 194553" d="M470.674,367.93s-2.076-6.131-4.328-7.238-5.7-.653-5.7-.653-.657,2,.941,2.733a6.908,6.908,0,0,0,3.717.285s-1.631,5.807,1.036,7.126,4.336-2.252,4.336-2.252" transform="translate(-322.22 -251.856)" fill="#ffb16d"/>
        <path id="Path_194554" data-name="Path 194554" d="M446.75,367.82c-1.163.5.153,2.078.153,2.078a3.58,3.58,0,0,0-1.788,1.3c-.4.827.684,2.02.684,2.02s-1.746.783-1.215,2.057,5.893,3.231,6.4,1.626c.409-1.292-1.135-2.662-1.135-2.662s3.226.323,2.738-.687a9.5,9.5,0,0,0-1.607-2.108s3.024.329,2.534-1.189c-.54-1.67-5.6-2.933-6.766-2.438" transform="translate(-311.006 -257.29)" fill="#ffb16d"/>
        <path id="Path_194555" data-name="Path 194555" d="M869.74,522.206l-17.708-19.813L835.4,520.137s16.819,14.678,23.609,16.742c9.759,5.862,17.185-6.206,10.728-14.673" transform="translate(-584.533 -351.526)" fill="#ff9e48"/>
        <path id="Path_194556" data-name="Path 194556" d="M802,450.187a126.682,126.682,0,0,1,21.808,22.752c-8.706-.307-16.561,10.221-16.807,17.583,0,0-18.09-15.374-21.384-20.131-5.191-7.5-2.476-26.245,16.383-20.2" transform="translate(-548.073 -314.172)" fill="#53aefa"/>
        <path id="Path_194557" data-name="Path 194557" d="M898.039,420.337l-.471,42.439c-.014,6.522,3.013,19.08,15.853,14.139,7.1-10.993-7.639-58.525-7.639-58.525Z" transform="translate(-628.031 -292.749)" fill="#ff9e48"/>
        <path id="Path_194558" data-name="Path 194558" d="M897.761,390.534s.8-10.735-1.406-11.686-10.71-3.005-10.71-3.005-1.02,3.225,1.2,4.489a7.515,7.515,0,0,0,4.5.892s-.729,4.671.565,6.915,4.422,3.326,5.854,2.395" transform="translate(-619.524 -262.979)" fill="#ff9e48"/>
        <path id="Path_194559" data-name="Path 194559" d="M864.557,386.2c-2.61,1.539-1.282,4.6-1.282,4.6s-2.143,2.963.086,5.307c-1.434,2.3.941,4.661.941,4.661l11.84,2.274,5.795-5.214-2.72-10.557s-12.635-1.83-14.66-1.071" transform="translate(-603.387 -270.1)" fill="#ff9e48"/>
        <path id="Path_194560" data-name="Path 194560" d="M887.138,377.161l.707-.074,5.812-4.176.276-19.181-6.21-.271Z" transform="translate(-620.732 -247.317)"/>
        <path id="Path_194561" data-name="Path 194561" d="M871.021,341.868l-7.025-3.3c-1.228-.38-1.429-6.46.283-5.718,0,0,15.072,6.223,15.682,6.675,1.258.788-.645,5.016-1.785,4.58Z" transform="translate(-603.867 -232.851)"/>
        <path id="Path_194562" data-name="Path 194562" d="M894.455,418.078s.074,1.615.014,2.729c.047.547-5.412.939-5.412.939l1.55-2.9Z" transform="translate(-622.076 -292.531)" fill="#231f20"/>
        <path id="Path_194563" data-name="Path 194563" d="M873.43,386.341s8.565.339,9.523,1.695-2.288,2.919-2.288,2.919,3.238,1.526,2.478,2.914-3.067,1.819-3.067,1.819,3.405,2.066,2.147,3.219-8.03,1.958-8.03,1.958l-6.682-1.251Z" transform="translate(-606.999 -270.325)" fill="#ff9e48"/>
        <path id="Path_194564" data-name="Path 194564" d="M1668.531,1308.022a8.37,8.37,0,0,0,.53-4.89c-.283-.949-5.069-3.919-8.937-1.034-2.755-.971-11.137,1.027-8.394,5.779.921,1.382,14.35.673,16.8.145" transform="translate(-1155.339 -910.221)" fill="#403769"/>
        <path id="Path_194565" data-name="Path 194565" d="M1709.088,1065.134l-3.282,13.471-7.21,29.594-7.186,29.5h-8.015a.572.572,0,0,1,.042-.165l3.625-32.318.7-6.237,1.979-17.922,1.751-15.838.009-.081Z" transform="translate(-1177.874 -745.277)" fill="#ffc591"/>
        <path id="Path_194566" data-name="Path 194566" d="M1681.181,1295.558a13.262,13.262,0,0,1,.451-3.481.726.726,0,0,1,.682-.475s-.139.921,3.64,1.364,4.773-.236,4.773-.236.44.193.167.909-.727,3.1-.727,3.1c-.6.932-8.249.766-8.986-1.178" transform="translate(-1176.326 -903.738)" fill="#f7d8c9"/>
        <path id="Path_194567" data-name="Path 194567" d="M1714.349,1109.994l-7.21,29.594a44.675,44.675,0,0,1-11.534-2.988l.7-6.237,1.979-17.922a51.8,51.8,0,0,1,16.066-2.448" transform="translate(-1186.418 -776.666)" fill="#cc8666"/>
        <path id="Path_194568" data-name="Path 194568" d="M1811.668,1308.022a8.37,8.37,0,0,1-.53-4.89c.283-.949,5.069-3.919,8.937-1.034,2.755-.971,11.137,1.027,8.394,5.779-.921,1.382-14.35.673-16.8.145" transform="translate(-1267.135 -910.221)" fill="#403769"/>
        <path id="Path_194569" data-name="Path 194569" d="M1778.987,1137.7h-8.015l-7.24-29.721-7.15-29.342-3.288-13.5h17.592l.009.081,1.814,16.438,1.913,17.321.622,5.547,3.7,33.009a.58.58,0,0,1,.042.165" transform="translate(-1226.783 -745.277)" fill="#ffc591"/>
        <path id="Path_194570" data-name="Path 194570" d="M1818.232,1295.558a13.258,13.258,0,0,0-.451-3.481.726.726,0,0,0-.682-.475s.139.921-3.64,1.364-4.772-.236-4.772-.236-.44.193-.168.909.727,3.1.727,3.1c.6.932,8.249.766,8.986-1.178" transform="translate(-1265.363 -903.738)" fill="#f7d8c9"/>
        <path id="Path_194571" data-name="Path 194571" d="M1782.9,1135.973a41.828,41.828,0,0,1-11.51,3.453l-7.15-29.342a49.523,49.523,0,0,1,16.126,3.021l1.913,17.321Z" transform="translate(-1234.445 -776.729)" fill="#cc8666"/>
        <path id="Path_194572" data-name="Path 194572" d="M1793.477,887.666c.749,1.616,2.35,2.467,3.575,1.9s1.611-2.339.862-3.955-2.349-2.466-3.575-1.9-1.611,2.339-.862,3.955" transform="translate(-1254.632 -618.212)" fill="#363536"/>
        <path id="Path_194573" data-name="Path 194573" d="M1801.217,904.367c.749,1.617,2.35,2.467,3.575,1.9s1.611-2.338.862-3.955-2.35-2.466-3.575-1.9-1.611,2.338-.862,3.955" transform="translate(-1260.048 -629.898)" fill="#363536"/>
        <path id="Path_194574" data-name="Path 194574" d="M1808.956,921.068c.749,1.617,2.349,2.467,3.575,1.9s1.611-2.338.862-3.955-2.349-2.466-3.575-1.9-1.611,2.338-.862,3.955" transform="translate(-1265.463 -641.583)" fill="#363536"/>
        <path id="Path_194575" data-name="Path 194575" d="M1816.7,937.767c.749,1.617,2.35,2.467,3.575,1.9s1.611-2.338.862-3.955-2.35-2.467-3.575-1.9-1.611,2.338-.862,3.955" transform="translate(-1270.879 -653.268)" fill="#363536"/>
        <path id="Path_194576" data-name="Path 194576" d="M1824.436,954.469c.749,1.617,2.35,2.467,3.575,1.9s1.611-2.338.862-3.955-2.349-2.466-3.575-1.9-1.611,2.338-.862,3.955" transform="translate(-1276.294 -664.954)" fill="#363536"/>
        <path id="Path_194577" data-name="Path 194577" d="M1835.621,976.7c.749,1.616,6.624-1.062,5.875-2.679s-5.5-7.063-6.722-6.5.1,7.558.847,9.175" transform="translate(-1283.446 -676.954)" fill="#363536"/>
        <path id="Path_194578" data-name="Path 194578" d="M1837.494,973.038c.062.026.122.054.184.083.175.083.351.176.527.28a20.5,20.5,0,0,1,4.44,4.024l.192-1.814a8.7,8.7,0,0,1,1.827.836,8.693,8.693,0,0,0-5.407-4.1,5.569,5.569,0,0,0-1.042-.162,4.738,4.738,0,0,0-.768.2c-.395.148-.659.374.049.655" transform="translate(-1285.389 -680.242)" fill="#856aae"/>
        <path id="Path_194579" data-name="Path 194579" d="M1826.341,980.2a8.694,8.694,0,0,1,1.02-1.731l1.2,1.378a21,21,0,0,1,1.259-5.658,6.908,6.908,0,0,1,.353-.714c.034-.059.068-.116.1-.173.418-.635.073-.669-.335-.565a4.737,4.737,0,0,0-.742.279,5.332,5.332,0,0,0-.672.63h0a8.681,8.681,0,0,0-2.18,6.553" transform="translate(-1277.88 -680.594)" fill="#856aae"/>
        <path id="Path_194580" data-name="Path 194580" d="M1833.654,973.292c.939-.281,1.225.336,1.293.543a6.9,6.9,0,0,1,.353-.714c.175.083.351.176.527.28a1.032,1.032,0,0,1,.332-.829,1.132,1.132,0,0,1,.72-.223,5.57,5.57,0,0,0-1.042-.162,7.21,7.21,0,0,0-1.511.475,5.343,5.343,0,0,0-.671.63" transform="translate(-1283.012 -680.242)" fill="#7454a2"/>
        <path id="Path_194581" data-name="Path 194581" d="M1836.885,958.738s1.073-3.287,3.84-3.865c3.149,1.667,3.124,4.268,3.006,4.3s-4.009,1.383-6.669.859c-1.038-.516-.177-1.3-.177-1.3" transform="translate(-1285.038 -668.128)" fill="#856aae"/>
        <path id="Path_194582" data-name="Path 194582" d="M1821.675,965.3s-2.412-2.2-5.013-1.087c-1.629,3.169-.12,5.288,0,5.25s3.776-.668,5.657-2.621c1.255-1.168.532-1.8-.643-1.542" transform="translate(-1270.597 -674.446)" fill="#856aae"/>
        <path id="Path_194583" data-name="Path 194583" d="M1835.119,966.876a3.384,3.384,0,0,0,.516.43c.105.03.406.186.354.361s.09.183.168.207a.389.389,0,0,1,.119.358c-.046.063-.024.292.05.321a5.726,5.726,0,0,1-1.056.013l-1.011.924s.126-.278.029-.43-.283-.3-.326-.516.161-.544.081-.659-.2-.274-.14-.392.142-.28.142-.28a1.489,1.489,0,0,0,1.073-.338" transform="translate(-1283.175 -676.526)" fill="#7454a2"/>
        <path id="Path_194584" data-name="Path 194584" d="M1839.084,964.126c-.026-.036.841-2.291,2.1-1.956s-1.906,2.448-2.2,2.4.1-.445.1-.445" transform="translate(-1286.666 -673.21)" fill="#7454a2"/>
        <path id="Path_194585" data-name="Path 194585" d="M1825.394,971.05c-.026-.054-3.3-.446-3.691,1.278s4.163-.736,4.292-1.116-.6-.162-.6-.162" transform="translate(-1274.633 -679.394)" fill="#7454a2"/>
        <path id="Path_194586" data-name="Path 194586" d="M1839.222,969.5s2.09-.951,2.3-.644-1.191.946-2.3.644" transform="translate(-1286.907 -677.868)" fill="#7454a2"/>
        <path id="Path_194587" data-name="Path 194587" d="M1832.206,968.417c.044-.021-1-.658-1.2-.529s.922.666,1.2.529" transform="translate(-1281.139 -677.222)" fill="#7454a2"/>
        <path id="Path_194588" data-name="Path 194588" d="M1835.49,966.876a4.8,4.8,0,0,1,1.107,1.793,8.048,8.048,0,0,1-1.813.663,18.065,18.065,0,0,1-.368-2.119,2.072,2.072,0,0,0,1.073-.338" transform="translate(-1283.545 -676.526)" fill="#856aae"/>
        <path id="Path_194589" data-name="Path 194589" d="M1781.822,929.072c5.287,3.222,8.2,6.465,13.406,13.48,0,0,4.071,18.045,4.741,18.334a25.8,25.8,0,0,0,4.632.1s-.507-13.541-1.573-21.431-15.37-20.15-15.37-20.15c-5.6-4.084-10.874,5.811-5.836,9.67" transform="translate(-1245.328 -642.63)" fill="#ffc591"/>
        <path id="Path_194590" data-name="Path 194590" d="M1850.334,1050.436c1.179.447,2.45,1.739,3.349,4.677s-.368,4.149-4.486,4.437c-2.09.3-2.316-1.407-.914-2.336,0,0-.539-1.095-1.5-2.971-1.613-3.16,2.368-4.254,3.547-3.807" transform="translate(-1291.935 -734.926)" fill="#ffc591"/>
        <path id="Path_194591" data-name="Path 194591" d="M1863.83,1059.25s3.423,7.129,2.031,6.816c-1.086-.245-3.376-4.259-4.033-5.48s.776-3.564,2-1.336" transform="translate(-1302.61 -740.513)" fill="#ffc591"/>
        <path id="Path_194592" data-name="Path 194592" d="M1852.419,1072.141a.1.1,0,0,1-.043-.192,5.978,5.978,0,0,1,3.458-.3.1.1,0,0,1-.037.2,5.882,5.882,0,0,0-3.334.286.1.1,0,0,1-.043.01" transform="translate(-1296.071 -749.753)" fill="#cc5644"/>
        <path id="Path_194593" data-name="Path 194593" d="M1856.616,1060.543c-.779,0-1.514-1.574-1.7-2.01a3.012,3.012,0,0,1-2.154-.183c-.124-.044-.247-.088-.371-.128a.1.1,0,1,1,.062-.192c.126.041.251.085.377.13a2.761,2.761,0,0,0,2.106.151l.092-.035.038.091c.245.594,1.013,2.11,1.636,1.965a.4.4,0,0,0,.3-.245c.295-.705-.74-2.632-1.165-3.316a.1.1,0,0,1,.172-.106c.064.1,1.574,2.554,1.179,3.5a.629.629,0,0,1-.57.378" transform="translate(-1296.071 -739.319)" fill="#cc5644"/>
        <path id="Path_194594" data-name="Path 194594" d="M1710.162,885.754c-.749,1.617-2.349,2.467-3.574,1.9s-1.611-2.339-.862-3.955,2.35-2.466,3.575-1.9,1.611,2.338.862,3.955" transform="translate(-1193.232 -616.874)" fill="#363536"/>
        <path id="Path_194595" data-name="Path 194595" d="M1702.423,902.455c-.749,1.617-2.349,2.467-3.575,1.9s-1.611-2.338-.862-3.955,2.35-2.466,3.575-1.9,1.611,2.339.862,3.955" transform="translate(-1187.817 -628.56)" fill="#363536"/>
        <path id="Path_194596" data-name="Path 194596" d="M1694.683,919.155c-.749,1.616-2.349,2.467-3.575,1.9s-1.611-2.338-.862-3.955,2.35-2.467,3.575-1.9,1.611,2.339.862,3.955" transform="translate(-1182.401 -640.245)" fill="#363536"/>
        <path id="Path_194597" data-name="Path 194597" d="M1686.943,935.856c-.749,1.617-2.35,2.467-3.575,1.9s-1.611-2.338-.862-3.955,2.349-2.466,3.575-1.9,1.611,2.338.862,3.955" transform="translate(-1176.986 -651.931)" fill="#363536"/>
        <path id="Path_194598" data-name="Path 194598" d="M1679.2,952.556c-.749,1.616-2.35,2.467-3.575,1.9s-1.611-2.338-.862-3.955,2.349-2.467,3.575-1.9,1.611,2.338.862,3.955" transform="translate(-1171.571 -663.616)" fill="#363536"/>
        <path id="Path_194599" data-name="Path 194599" d="M1663.519,972.624c-.749,1.617-6.624-1.062-5.875-2.679s5.5-7.063,6.722-6.5-.1,7.558-.847,9.174" transform="translate(-1159.811 -674.1)" fill="#363536"/>
        <path id="Path_194600" data-name="Path 194600" d="M1675.8,969.522c.03.06.059.12.087.182.08.176.155.361.222.554a20.506,20.506,0,0,1,.8,5.938l1.317-1.263a8.709,8.709,0,0,1,.857,1.817,8.693,8.693,0,0,0-1.489-6.618,5.6,5.6,0,0,0-.692-.8,4.769,4.769,0,0,0-.714-.346c-.4-.141-.745-.14-.385.532" transform="translate(-1172.457 -677.953)" fill="#856aae"/>
        <path id="Path_194601" data-name="Path 194601" d="M1652.258,971.921a8.688,8.688,0,0,1,1.9-.665l.025,1.825a20.989,20.989,0,0,1,4.611-3.512,6.963,6.963,0,0,1,.73-.318c.064-.023.127-.045.19-.066.73-.216.487-.464.109-.648a4.763,4.763,0,0,0-.748-.266,5.341,5.341,0,0,0-.919.048h0a8.679,8.679,0,0,0-5.893,3.6" transform="translate(-1156.089 -677.5)" fill="#856aae"/>
        <path id="Path_194602" data-name="Path 194602" d="M1671.885,968.32c.9.391.72,1.047.638,1.249a6.963,6.963,0,0,1,.73-.318c.08.176.155.361.222.554a1.033,1.033,0,0,1,.789-.42,1.13,1.13,0,0,1,.693.294,5.609,5.609,0,0,0-.692-.8,7.217,7.217,0,0,0-1.461-.611,5.345,5.345,0,0,0-.92.048" transform="translate(-1169.822 -677.5)" fill="#7454a2"/>
        <path id="Path_194603" data-name="Path 194603" d="M1678.3,962.558s2.939-1.819,5.427-.476c1.331,3.3-.365,5.276-.479,5.228s-3.955-1.528-5.65-3.645c-.46-1.064.7-1.107.7-1.107" transform="translate(-1173.746 -672.825)" fill="#856aae"/>
        <path id="Path_194604" data-name="Path 194604" d="M1662.465,954.329s-.427-3.234-3.129-4.064c-3.289,1.372-3.5,3.963-3.388,4.011s3.316,1.924,6.013,1.646c1.713-.083,1.565-1.029.5-1.593" transform="translate(-1158.655 -664.903)" fill="#856aae"/>
        <path id="Path_194605" data-name="Path 194605" d="M1675.541,963.356a3.39,3.39,0,0,0,.117.661c.061.091.19.4.037.5s-.049.2-.005.267a.388.388,0,0,1-.14.35c-.075.018-.207.208-.168.278a5.734,5.734,0,0,1-.816-.671l-1.368.055s.275-.131.3-.31a1.6,1.6,0,0,1,.083-.6c.105-.192.474-.312.487-.451s.022-.34.145-.39.289-.122.289-.122a1.491,1.491,0,0,0,1.038.435" transform="translate(-1170.74 -673.759)" fill="#7454a2"/>
        <path id="Path_194606" data-name="Path 194606" d="M1680.046,965.451c0-.044,2.121-1.208,2.863-.143s-3.035.642-3.227.418.364-.275.364-.275" transform="translate(-1175.249 -675.116)" fill="#7454a2"/>
        <path id="Path_194607" data-name="Path 194607" d="M1666.111,961.25c.014-.058-2.231-2.467-3.645-1.4s3.656,2.123,4,1.915-.354-.511-.354-.511" transform="translate(-1163.057 -671.418)" fill="#7454a2"/>
        <path id="Path_194608" data-name="Path 194608" d="M1679.187,968.423s2.21.621,2.173.991-1.521-.045-2.173-.991" transform="translate(-1174.931 -677.608)" fill="#7454a2"/>
        <path id="Path_194609" data-name="Path 194609" d="M1675.458,961.88c.047.012-.341-1.148-.578-1.18s.275,1.1.578,1.18" transform="translate(-1171.874 -672.204)" fill="#7454a2"/>
        <path id="Path_194610" data-name="Path 194610" d="M1676.051,963.356a4.792,4.792,0,0,1-.311,2.085,8.056,8.056,0,0,1-1.813-.663,18.148,18.148,0,0,1,1.086-1.856,2.07,2.07,0,0,0,1.038.435" transform="translate(-1171.25 -673.759)" fill="#856aae"/>
        <path id="Path_194611" data-name="Path 194611" d="M1711.735,923.319s11.749-3.917,27.418,0c-7.459,14.794-22.5,13.835-27.418,0" transform="translate(-1197.705 -644.831)" fill="#ffc591"/>
        <path id="Path_194612" data-name="Path 194612" d="M1664.965,857.519s-20.136-10.72-22.552-19.738,1.874-27.227,1.874-27.227,4.676-.84,5.514-.608c.267.074.509,2.441.716,5.634.443,6.848.722,17.5.722,17.5,4.181,2.935,8.288,6.067,12.536,8.7a52.472,52.472,0,0,0,6.711,3.578c6.545,3.709,1.723,16.049-5.522,12.165" transform="translate(-1148.684 -566.693)" fill="#ffc591"/>
        <path id="Path_194613" data-name="Path 194613" d="M1733.318,949.187l-2.409-16.2c-2.673-5.057-4.7-10.674-4.014-14.91l-3.407,1.564c-1.949,6.294-4.16,8.655-7.413,8.679-3.411.024-5.679-3.6-6.7-9.191a4.368,4.368,0,0,0-4.637-.63c1.174,5.116-1.253,12.378-3.585,13.033l-3.609,17.27c3.659,3.656,34.791,6.613,35.778.387" transform="translate(-1187.772 -642.381)" fill="#988ced"/>
        <path id="Path_194614" data-name="Path 194614" d="M1665.757,1009.711s-9.868,25.578-15.295,42.99c4.245,7.01,9.846,2.656,13.676,3.108,1.542,3.093,3.887,3.016,9.314,4.376,2.484.623,11.2,1.431,13.523-1.805,6.284,2.693,14.484.944,18.611-3.244,3.166,1.131,9.094-.626,9.094-1.983s-15.657-43.693-15.657-43.693Z" transform="translate(-1154.832 -706.322)" fill="#988ced"/>
        <path id="Path_194615" data-name="Path 194615" d="M1751,911.426c-2.136,2.765-8.412,2.969-9.556-.366l-.116-8.243h10.216Z" transform="translate(-1218.411 -631.704)" fill="#ffc591"/>
        <path id="Path_194616" data-name="Path 194616" d="M1752.175,914.777l.206-5.569h-11.3l.073,5.208c1.095,3.285,9.04,5.247,11.019.361" transform="translate(-1218.239 -636.176)" fill="#ffc591"/>
        <path id="Path_194617" data-name="Path 194617" d="M1701.76,816.114c.123,8.773,7.7,15.779,16.926,15.649s16.6-7.347,16.479-16.119-7.7-15.779-16.927-15.649-16.6,7.347-16.479,16.119" transform="translate(-1190.724 -559.758)" fill="#363536"/>
        <path id="Path_194618" data-name="Path 194618" d="M1698.527,857.822a3.265,3.265,0,1,0,3.219-3.311,3.265,3.265,0,0,0-3.219,3.311" transform="translate(-1188.463 -597.904)" fill="#ffc591"/>
        <path id="Path_194619" data-name="Path 194619" d="M1707.268,829.291c-4.856,6.444,4.384,18.338,14.44,18.2,11.638-.164,18.466-12.663,13.99-18.6-.124-8.829-6.589-13.486-14.44-13.376s-14.114,4.947-13.99,13.776" transform="translate(-1193.647 -570.617)" fill="#ffc591"/>
        <path id="Path_194620" data-name="Path 194620" d="M1794.175,856.665a3.265,3.265,0,1,0,3.219-3.31,3.265,3.265,0,0,0-3.219,3.31" transform="translate(-1255.388 -597.094)" fill="#ffc591"/>
        <path id="Path_194621" data-name="Path 194621" d="M1708.177,816.987s14.618-.684,14.9-6.711c-.152,3.659,10.389,7.4,13.064,7.032s-.8-8.7-13.262-9.215-17.714,8.369-14.7,8.893" transform="translate(-1194.634 -565.41)" fill="#363536"/>
        <path id="Path_194622" data-name="Path 194622" d="M1744.725,875.767a8.336,8.336,0,0,1-.437,1.8c-.817,2.314-3.114,6.043-9.408,6.043s-8.619-3.729-9.455-6.043a8.345,8.345,0,0,1-.451-1.8Z" transform="translate(-1206.968 -612.777)" fill="#d4704d"/>
        <path id="Path_194623" data-name="Path 194623" d="M1744.725,875.767a8.336,8.336,0,0,1-.437,1.8,48.29,48.29,0,0,1-18.863,0,8.345,8.345,0,0,1-.451-1.8Z" transform="translate(-1206.968 -612.777)" fill="#fff"/>
        <path id="Path_194624" data-name="Path 194624" d="M1758.328,973.3a1.277,1.277,0,1,1-1.277-1.278,1.278,1.278,0,0,1,1.277,1.278" transform="translate(-1228.518 -680.13)" fill="#a74638"/>
        <path id="Path_194625" data-name="Path 194625" d="M1757.286,999.208a1.278,1.278,0,1,1-1.277-1.277,1.278,1.278,0,0,1,1.277,1.277" transform="translate(-1227.789 -698.255)" fill="#a74638"/>
        <path id="Path_194626" data-name="Path 194626" d="M1758.328,973.3a1.277,1.277,0,1,1-1.277-1.278,1.278,1.278,0,0,1,1.277,1.278" transform="translate(-1228.518 -680.13)" fill="#fff"/>
        <path id="Path_194627" data-name="Path 194627" d="M1757.286,999.208a1.278,1.278,0,1,1-1.277-1.277,1.278,1.278,0,0,1,1.277,1.277" transform="translate(-1227.789 -698.255)" fill="#fff"/>
        <path id="Path_194628" data-name="Path 194628" d="M1648.534,781.173c1.315-5.2-.343-13.134-1.274-13.9-1.169-.966-2.427,1.638-1.72,5.695-3.3,1.215-5.746,2.169-5.282,4.514a12.736,12.736,0,0,0,2.592,4.831,6.2,6.2,0,0,0,5.685-1.136" transform="translate(-1147.652 -536.72)" fill="#ffc591"/>
      </g>
    </g>
    <g id="Group_131586" data-name="Group 131586" transform="translate(492.549 230.351)">
      <g id="Group_131585" data-name="Group 131585" clip-path="url(#clip-path-3)">
        <path id="Path_194629" data-name="Path 194629" d="M1641.91,790.659l-.031-.017c-.017-.008-1.62-.9-.69-3.393a.1.1,0,0,1,.189.071c-.808,2.163.357,3,.567,3.128,1.694-.322,4.1-.934,4.2-1.3a26.462,26.462,0,0,0-.453-4.43.1.1,0,0,1,.083-.116.1.1,0,0,1,.116.083,27.769,27.769,0,0,1,.448,4.518c-.181.622-3.695,1.316-4.4,1.449Z" transform="translate(-1640.689 -779.336)" fill="#cc5644"/>
      </g>
    </g>
    <g id="Group_131588" data-name="Group 131588" transform="translate(0 0.003)">
      <g id="Group_131587" data-name="Group 131587" clip-path="url(#clip-path)">
        <path id="Path_194631" data-name="Path 194631" d="M1650.279,792.527a7.885,7.885,0,0,1,5.549-.744c2.81.833.754,6.482-1.316,6.615s-2.073-3.435-1.653-4.1c-1.941,1.029-3.448-.872-2.58-1.77" transform="translate(-1154.528 -553.843)" fill="#ffc591"/>
        <path id="Path_194632" data-name="Path 194632" d="M1654.171,798.275a1.555,1.555,0,0,1-1.377-.834,4.719,4.719,0,0,1-.36-3.168,1.992,1.992,0,0,1-2.446-.54,1.133,1.133,0,0,1-.013-1.5l.022-.017a8.056,8.056,0,0,1,5.628-.753.1.1,0,0,1,.067.125.1.1,0,0,1-.125.068,7.8,7.8,0,0,0-5.457.728.931.931,0,0,0,.039,1.233,1.843,1.843,0,0,0,2.431.368l.334-.177-.2.32a4.266,4.266,0,0,0,.254,3.215,1.352,1.352,0,0,0,1.306.733.1.1,0,0,1,.107.094.1.1,0,0,1-.094.107c-.039,0-.078,0-.116,0" transform="translate(-1154.297 -553.616)" fill="#cc5644"/>
        <path id="Path_194633" data-name="Path 194633" d="M1725.11,848.128h-26.19a4.617,4.617,0,0,1-3.9-2.127,15.316,15.316,0,0,1-2.1-6.066l38.306-.107a15.07,15.07,0,0,1-2.272,6.269,4.625,4.625,0,0,1-3.839,2.03" transform="translate(-1184.536 -587.63)" fill="#231f20"/>
        <path id="Path_194634" data-name="Path 194634" d="M1724.288,822.175h-25.258a6.63,6.63,0,0,1-6.611-6.611V813.5a6.63,6.63,0,0,1,6.611-6.611h25.258a6.63,6.63,0,0,1,6.611,6.611v2.06a6.63,6.63,0,0,1-6.611,6.611" transform="translate(-1184.19 -564.586)" fill="#231f20"/>
        <path id="Path_194635" data-name="Path 194635" d="M1695.932,817.839v-2.156a5.607,5.607,0,0,1,5.607-5.607H1726.7a5.607,5.607,0,0,1,5.607,5.607v2.156a5.607,5.607,0,0,1-5.607,5.607h-25.156a5.607,5.607,0,0,1-5.607-5.607" transform="translate(-1186.647 -566.813)" fill="#fff"/>
        <path id="Path_194636" data-name="Path 194636" d="M1737.92,818.088h-26.05a.534.534,0,0,1,0-1.068h26.05a.534.534,0,1,1,0,1.068" transform="translate(-1197.426 -571.672)" fill="#53aefa"/>
        <path id="Path_194637" data-name="Path 194637" d="M582.567,1325.683H0v-1.818H582.567a.909.909,0,1,1,0,1.818" transform="translate(0 -926.312)"/>
      </g>
    </g>
  </g>
</svg>
