<svg id="Group_137142" data-name="Group 137142" xmlns="http://www.w3.org/2000/svg" xmlns:xlink="http://www.w3.org/1999/xlink" width="689.799" height="435.809" viewBox="0 0 689.799 435.809">
  <defs>
    <clipPath id="clip-path">
      <rect id="Rectangle_41885" data-name="Rectangle 41885" width="689.799" height="435.809" fill="none"/>
    </clipPath>
    <clipPath id="clip-path-3">
      <rect id="Rectangle_41868" data-name="Rectangle 41868" width="29.201" height="19.032" transform="translate(591.173 183.477)" fill="none"/>
    </clipPath>
    <clipPath id="clip-path-4">
      <rect id="Rectangle_41869" data-name="Rectangle 41869" width="18.645" height="18.55" transform="translate(627.999 181.053)" fill="none"/>
    </clipPath>
    <clipPath id="clip-path-5">
      <rect id="Rectangle_41870" data-name="Rectangle 41870" width="16.094" height="13.748" transform="translate(625.002 175.786)" fill="none"/>
    </clipPath>
    <clipPath id="clip-path-6">
      <rect id="Rectangle_41871" data-name="Rectangle 41871" width="24.275" height="21.224" transform="translate(589.457 176.936)" fill="none"/>
    </clipPath>
  </defs>
  <g id="Group_137141" data-name="Group 137141" clip-path="url(#clip-path)">
    <rect id="Rectangle_41817" data-name="Rectangle 41817" width="54.223" height="12.845" transform="translate(625.192 378.796)" fill="#daddf3"/>
    <g id="Group_137140" data-name="Group 137140">
      <g id="Group_137139" data-name="Group 137139" clip-path="url(#clip-path)">
        <path id="Path_199254" data-name="Path 199254" d="M625.287,379.443H679.32a.625.625,0,0,0,0-1.25H625.287a.625.625,0,0,0,0,1.25" fill="#b8beee"/>
        <path id="Path_199255" data-name="Path 199255" d="M633.617,390.983v-11.74a.625.625,0,0,0-1.25,0v11.74a.625.625,0,0,0,1.25,0" fill="#b8beee"/>
        <path id="Path_199256" data-name="Path 199256" d="M646.32,390.983v-11.74a.625.625,0,0,0-1.25,0v11.74a.625.625,0,0,0,1.25,0" fill="#b8beee"/>
        <path id="Path_199257" data-name="Path 199257" d="M659.022,390.983v-11.74a.625.625,0,0,0-1.25,0v11.74a.625.625,0,0,0,1.25,0" fill="#b8beee"/>
        <path id="Path_199258" data-name="Path 199258" d="M671.724,390.983v-11.74a.625.625,0,0,0-1.25,0v11.74a.625.625,0,0,0,1.25,0" fill="#b8beee"/>
        <rect id="Rectangle_41818" data-name="Rectangle 41818" width="54.223" height="12.845" transform="translate(622.826 392.157)" fill="#daddf3"/>
        <path id="Path_199259" data-name="Path 199259" d="M622.921,392.8h54.033a.625.625,0,0,0,0-1.25H622.921a.625.625,0,0,0,0,1.25" fill="#b8beee"/>
        <path id="Path_199260" data-name="Path 199260" d="M631.252,404.343V392.6a.625.625,0,0,0-1.25,0v11.74a.625.625,0,0,0,1.25,0" fill="#b8beee"/>
        <path id="Path_199261" data-name="Path 199261" d="M643.954,404.343V392.6a.625.625,0,0,0-1.25,0v11.74a.625.625,0,0,0,1.25,0" fill="#b8beee"/>
        <path id="Path_199262" data-name="Path 199262" d="M656.656,404.343V392.6a.625.625,0,0,0-1.25,0v11.74a.625.625,0,0,0,1.25,0" fill="#b8beee"/>
        <path id="Path_199263" data-name="Path 199263" d="M669.358,404.343V392.6a.625.625,0,0,0-1.25,0v11.74a.625.625,0,0,0,1.25,0" fill="#b8beee"/>
        <rect id="Rectangle_41819" data-name="Rectangle 41819" width="54.223" height="12.845" transform="translate(631.148 405.239)" fill="#daddf3"/>
        <path id="Path_199264" data-name="Path 199264" d="M631.243,405.885h54.033a.625.625,0,0,0,0-1.25H631.243a.625.625,0,0,0,0,1.25" fill="#b8beee"/>
        <path id="Path_199265" data-name="Path 199265" d="M639.573,417.425v-11.74a.625.625,0,0,0-1.25,0v11.74a.625.625,0,0,0,1.25,0" fill="#b8beee"/>
        <path id="Path_199266" data-name="Path 199266" d="M652.276,417.425v-11.74a.625.625,0,0,0-1.25,0v11.74a.625.625,0,0,0,1.25,0" fill="#b8beee"/>
        <path id="Path_199267" data-name="Path 199267" d="M664.978,417.425v-11.74a.625.625,0,0,0-1.25,0v11.74a.625.625,0,0,0,1.25,0" fill="#b8beee"/>
        <path id="Path_199268" data-name="Path 199268" d="M677.68,417.425v-11.74a.625.625,0,0,0-1.25,0v11.74a.625.625,0,0,0,1.25,0" fill="#b8beee"/>
        <rect id="Rectangle_41820" data-name="Rectangle 41820" width="54.223" height="12.845" transform="translate(626.277 418.321)" fill="#daddf3"/>
        <path id="Path_199269" data-name="Path 199269" d="M626.372,418.967h54.033a.625.625,0,0,0,0-1.25H626.372a.625.625,0,0,0,0,1.25" fill="#b8beee"/>
        <path id="Path_199270" data-name="Path 199270" d="M634.7,430.507v-11.74a.625.625,0,0,0-1.25,0v11.74a.625.625,0,0,0,1.25,0" fill="#b8beee"/>
        <path id="Path_199271" data-name="Path 199271" d="M647.4,430.507v-11.74a.625.625,0,0,0-1.25,0v11.74a.625.625,0,0,0,1.25,0" fill="#b8beee"/>
        <path id="Path_199272" data-name="Path 199272" d="M660.107,430.507v-11.74a.625.625,0,0,0-1.25,0v11.74a.625.625,0,0,0,1.25,0" fill="#b8beee"/>
        <path id="Path_199273" data-name="Path 199273" d="M672.809,430.507v-11.74a.625.625,0,0,0-1.25,0v11.74a.625.625,0,0,0,1.25,0" fill="#b8beee"/>
        <rect id="Rectangle_41821" data-name="Rectangle 41821" width="54.223" height="12.845" transform="translate(499.195 378.796)" fill="#daddf3"/>
        <path id="Path_199274" data-name="Path 199274" d="M499.29,379.443h54.033a.625.625,0,0,0,0-1.25H499.29a.625.625,0,0,0,0,1.25" fill="#b8beee"/>
        <path id="Path_199275" data-name="Path 199275" d="M507.62,390.983v-11.74a.625.625,0,0,0-1.25,0v11.74a.625.625,0,0,0,1.25,0" fill="#b8beee"/>
        <path id="Path_199276" data-name="Path 199276" d="M520.322,390.983v-11.74a.625.625,0,0,0-1.25,0v11.74a.625.625,0,0,0,1.25,0" fill="#b8beee"/>
        <path id="Path_199277" data-name="Path 199277" d="M533.024,390.983v-11.74a.625.625,0,0,0-1.25,0v11.74a.625.625,0,0,0,1.25,0" fill="#b8beee"/>
        <path id="Path_199278" data-name="Path 199278" d="M545.726,390.983v-11.74a.625.625,0,0,0-1.25,0v11.74a.625.625,0,0,0,1.25,0" fill="#b8beee"/>
        <rect id="Rectangle_41822" data-name="Rectangle 41822" width="54.223" height="12.845" transform="translate(496.829 392.157)" fill="#daddf3"/>
        <path id="Path_199279" data-name="Path 199279" d="M496.924,392.8h54.033a.625.625,0,0,0,0-1.25H496.924a.625.625,0,0,0,0,1.25" fill="#b8beee"/>
        <path id="Path_199280" data-name="Path 199280" d="M505.254,404.343V392.6a.625.625,0,0,0-1.25,0v11.74a.625.625,0,0,0,1.25,0" fill="#b8beee"/>
        <path id="Path_199281" data-name="Path 199281" d="M517.956,404.343V392.6a.625.625,0,0,0-1.25,0v11.74a.625.625,0,0,0,1.25,0" fill="#b8beee"/>
        <path id="Path_199282" data-name="Path 199282" d="M530.658,404.343V392.6a.625.625,0,0,0-1.25,0v11.74a.625.625,0,0,0,1.25,0" fill="#b8beee"/>
        <path id="Path_199283" data-name="Path 199283" d="M543.36,404.343V392.6a.625.625,0,0,0-1.25,0v11.74a.625.625,0,0,0,1.25,0" fill="#b8beee"/>
        <rect id="Rectangle_41823" data-name="Rectangle 41823" width="54.223" height="12.845" transform="translate(505.151 405.239)" fill="#daddf3"/>
        <path id="Path_199284" data-name="Path 199284" d="M505.246,405.885h54.033a.625.625,0,0,0,0-1.25H505.246a.625.625,0,0,0,0,1.25" fill="#b8beee"/>
        <path id="Path_199285" data-name="Path 199285" d="M513.576,417.425v-11.74a.625.625,0,0,0-1.25,0v11.74a.625.625,0,0,0,1.25,0" fill="#b8beee"/>
        <path id="Path_199286" data-name="Path 199286" d="M526.278,417.425v-11.74a.625.625,0,0,0-1.25,0v11.74a.625.625,0,0,0,1.25,0" fill="#b8beee"/>
        <path id="Path_199287" data-name="Path 199287" d="M538.98,417.425v-11.74a.625.625,0,0,0-1.25,0v11.74a.625.625,0,0,0,1.25,0" fill="#b8beee"/>
        <path id="Path_199288" data-name="Path 199288" d="M551.682,417.425v-11.74a.625.625,0,0,0-1.25,0v11.74a.625.625,0,0,0,1.25,0" fill="#b8beee"/>
        <rect id="Rectangle_41824" data-name="Rectangle 41824" width="54.223" height="12.845" transform="translate(500.28 418.321)" fill="#daddf3"/>
        <path id="Path_199289" data-name="Path 199289" d="M500.375,418.967h54.033a.625.625,0,0,0,0-1.25H500.375a.625.625,0,0,0,0,1.25" fill="#b8beee"/>
        <path id="Path_199290" data-name="Path 199290" d="M508.7,430.507v-11.74a.625.625,0,0,0-1.25,0v11.74a.625.625,0,0,0,1.25,0" fill="#b8beee"/>
        <path id="Path_199291" data-name="Path 199291" d="M521.407,430.507v-11.74a.625.625,0,0,0-1.25,0v11.74a.625.625,0,0,0,1.25,0" fill="#b8beee"/>
        <path id="Path_199292" data-name="Path 199292" d="M534.109,430.507v-11.74a.625.625,0,0,0-1.25,0v11.74a.625.625,0,0,0,1.25,0" fill="#b8beee"/>
        <path id="Path_199293" data-name="Path 199293" d="M546.811,430.507v-11.74a.625.625,0,0,0-1.25,0v11.74a.625.625,0,0,0,1.25,0" fill="#b8beee"/>
        <rect id="Rectangle_41825" data-name="Rectangle 41825" width="52.896" height="37.184" transform="translate(1.974 394.057)" fill="#daddf3"/>
        <rect id="Rectangle_41826" data-name="Rectangle 41826" width="6.043" height="37.184" transform="translate(40.145 394.057)" fill="#f5f5f5"/>
        <rect id="Rectangle_41827" data-name="Rectangle 41827" width="10.173" height="12.795" transform="translate(10.193 394.056)" fill="#fff"/>
        <path id="Path_199294" data-name="Path 199294" d="M30.208,394.628v36.257a.625.625,0,0,0,1.25,0V394.628a.625.625,0,0,0-1.25,0" fill="#b8beee"/>
        <rect id="Rectangle_41828" data-name="Rectangle 41828" width="52.896" height="37.184" transform="translate(36.062 347.264)" fill="#daddf3"/>
        <rect id="Rectangle_41829" data-name="Rectangle 41829" width="6.043" height="37.184" transform="translate(74.233 347.264)" fill="#f5f5f5"/>
        <rect id="Rectangle_41830" data-name="Rectangle 41830" width="10.173" height="12.795" transform="translate(44.281 347.264)" fill="#fff"/>
        <path id="Path_199295" data-name="Path 199295" d="M64.3,347.836v36.257a.625.625,0,0,0,1.25,0V347.836a.625.625,0,0,0-1.25,0" fill="#b8beee"/>
        <rect id="Rectangle_41831" data-name="Rectangle 41831" width="52.896" height="37.184" transform="translate(76.621 309.635)" fill="#daddf3"/>
        <rect id="Rectangle_41832" data-name="Rectangle 41832" width="6.043" height="37.184" transform="translate(114.791 309.635)" fill="#fff"/>
        <rect id="Rectangle_41833" data-name="Rectangle 41833" width="10.173" height="12.795" transform="translate(84.839 309.635)" fill="#fff"/>
        <path id="Path_199296" data-name="Path 199296" d="M104.854,310.207v36.257a.625.625,0,0,0,1.25,0V310.207a.625.625,0,0,0-1.25,0" fill="#b8beee"/>
        <rect id="Rectangle_41834" data-name="Rectangle 41834" width="70.732" height="29.441" transform="translate(193.478 144.559)" fill="#ffb046"/>
        <rect id="Rectangle_41835" data-name="Rectangle 41835" width="72.397" height="29.441" transform="translate(213.656 172.682)" fill="#5950c5"/>
        <rect id="Rectangle_41836" data-name="Rectangle 41836" width="72.397" height="29.441" transform="translate(219.276 202.061)" fill="#ff5c45"/>
        <rect id="Rectangle_41837" data-name="Rectangle 41837" width="72.397" height="29.441" transform="translate(165.882 172.682)" fill="#ff5c45"/>
        <rect id="Rectangle_41838" data-name="Rectangle 41838" width="72.397" height="29.441" transform="translate(152.086 202.061)" fill="#ffb046"/>
        <path id="Path_199297" data-name="Path 199297" d="M241.141,145.7v26.075a.625.625,0,0,0,1.25,0V145.7a.625.625,0,0,0-1.25,0" fill="#ff8500"/>
        <path id="Path_199298" data-name="Path 199298" d="M229.52,145.7v26.075a.625.625,0,0,0,1.25,0V145.7a.625.625,0,0,0-1.25,0" fill="#ff8500"/>
        <path id="Path_199299" data-name="Path 199299" d="M217.9,145.7v26.075a.625.625,0,0,0,1.25,0V145.7a.625.625,0,0,0-1.25,0" fill="#ff8500"/>
        <path id="Path_199300" data-name="Path 199300" d="M206.278,145.7v26.075a.625.625,0,0,0,1.25,0V145.7a.625.625,0,0,0-1.25,0" fill="#ff8500"/>
        <path id="Path_199301" data-name="Path 199301" d="M252.9,145.564v25.029a.625.625,0,0,0,1.25,0V145.564a.625.625,0,0,0-1.25,0" fill="#ff8500"/>
        <path id="Path_199302" data-name="Path 199302" d="M200.676,203.108V231.16a.625.625,0,0,0,1.25,0V203.108a.625.625,0,0,0-1.25,0" fill="#ff8500"/>
        <path id="Path_199303" data-name="Path 199303" d="M189.055,203.108V231.16a.625.625,0,0,0,1.25,0V203.108a.625.625,0,0,0-1.25,0" fill="#ff8500"/>
        <path id="Path_199304" data-name="Path 199304" d="M177.434,203.108V231.16a.625.625,0,0,0,1.25,0V203.108a.625.625,0,0,0-1.25,0" fill="#ff8500"/>
        <path id="Path_199305" data-name="Path 199305" d="M165.813,203.108V231.16a.625.625,0,0,0,1.25,0V203.108a.625.625,0,0,0-1.25,0" fill="#ff8500"/>
        <path id="Path_199306" data-name="Path 199306" d="M212.44,202.962v26.926a.625.625,0,0,0,1.25,0V202.962a.625.625,0,0,0-1.25,0" fill="#ff8500"/>
        <path id="Path_199307" data-name="Path 199307" d="M210.13,172.956v28.052a.625.625,0,0,0,1.25,0V172.956a.625.625,0,0,0-1.25,0" fill="#ff8500"/>
        <path id="Path_199308" data-name="Path 199308" d="M198.509,172.956v28.052a.625.625,0,0,0,1.25,0V172.956a.625.625,0,0,0-1.25,0" fill="#ff8500"/>
        <path id="Path_199309" data-name="Path 199309" d="M186.888,173.547v27.461a.625.625,0,0,0,1.25,0V173.547a.625.625,0,0,0-1.25,0" fill="#ff8500"/>
        <path id="Path_199310" data-name="Path 199310" d="M175.267,173.547v27.461a.625.625,0,0,0,1.25,0V173.547a.625.625,0,0,0-1.25,0" fill="#ff8500"/>
        <path id="Path_199311" data-name="Path 199311" d="M221.893,172.81v26.926a.625.625,0,0,0,1.25,0V172.81a.625.625,0,0,0-1.25,0" fill="#ff8500"/>
        <path id="Path_199312" data-name="Path 199312" d="M267.031,202.745V230.8a.625.625,0,0,0,1.25,0V202.745a.625.625,0,0,0-1.25,0" fill="#ff8500"/>
        <path id="Path_199313" data-name="Path 199313" d="M255.41,202.745V230.8a.625.625,0,0,0,1.25,0V202.745a.625.625,0,0,0-1.25,0" fill="#ff8500"/>
        <path id="Path_199314" data-name="Path 199314" d="M243.789,202.745V230.8a.625.625,0,0,0,1.25,0V202.745a.625.625,0,0,0-1.25,0" fill="#ff8500"/>
        <path id="Path_199315" data-name="Path 199315" d="M232.168,202.745V230.8a.625.625,0,0,0,1.25,0V202.745a.625.625,0,0,0-1.25,0" fill="#ff8500"/>
        <path id="Path_199316" data-name="Path 199316" d="M278.794,202.6v26.926a.625.625,0,0,0,1.25,0V202.6a.625.625,0,0,0-1.25,0" fill="#ff8500"/>
        <path id="Path_199317" data-name="Path 199317" d="M291.673,200.958H152.211a.625.625,0,0,0,0,1.25H291.673a.625.625,0,0,0,0-1.25" fill="#291f4c"/>
        <path id="Path_199318" data-name="Path 199318" d="M285.49,171.874h-119.1a.625.625,0,0,0,0,1.25h119.1a.625.625,0,0,0,0-1.25" fill="#291f4c"/>
        <path id="Path_199319" data-name="Path 199319" d="M74.793,99.482V134.2a.625.625,0,0,0,1.25,0V99.482a.625.625,0,0,0-1.25,0" fill="#291f4c"/>
        <path id="Path_199320" data-name="Path 199320" d="M38.928,202.827V170.846H145.66v66.51H44.312Z" fill="#a1b2e8"/>
        <path id="Path_199321" data-name="Path 199321" d="M57.931,144.559h71.894v26.287H58.142Z" fill="#a1b2e8"/>
        <rect id="Rectangle_41839" data-name="Rectangle 41839" width="16.146" height="17.492" transform="translate(67.346 128.495)" fill="#a1b2e8"/>
        <path id="Path_199322" data-name="Path 199322" d="M58.2,145.464h70.336a.625.625,0,0,0,0-1.25H58.2a.625.625,0,0,0,0,1.25" fill="#291f4c"/>
        <path id="Path_199323" data-name="Path 199323" d="M23.523,202.827S33.8,251.851,50.934,259.494h261.46l25.566-50.078H309.351a16.808,16.808,0,0,0-14.68,8.623l-7.316,13.122H122.361L98.376,202.827Z" fill="#5950c5"/>
        <path id="Path_199324" data-name="Path 199324" d="M78.547,227.983a11.2,11.2,0,1,1-11.2-11.2,11.2,11.2,0,0,1,11.2,11.2" fill="#daddf3"/>
        <path id="Path_199325" data-name="Path 199325" d="M39.436,170.871H145.66a.625.625,0,0,0,0-1.25H39.436a.625.625,0,0,0,0,1.25" fill="#291f4c"/>
        <rect id="Rectangle_41840" data-name="Rectangle 41840" width="3.368" height="3.368" transform="translate(60.177 157.024)" fill="#daddf3"/>
        <rect id="Rectangle_41841" data-name="Rectangle 41841" width="3.933" height="3.933" transform="translate(40.222 179.692)" fill="#daddf3"/>
        <rect id="Rectangle_41842" data-name="Rectangle 41842" width="3.933" height="3.933" transform="translate(46.048 179.692)" fill="#daddf3"/>
        <rect id="Rectangle_41843" data-name="Rectangle 41843" width="3.933" height="3.933" transform="translate(51.873 179.692)" fill="#daddf3"/>
        <rect id="Rectangle_41844" data-name="Rectangle 41844" width="3.933" height="3.933" transform="translate(57.698 179.692)" fill="#daddf3"/>
        <rect id="Rectangle_41845" data-name="Rectangle 41845" width="3.933" height="3.933" transform="translate(63.524 179.692)" fill="#daddf3"/>
        <rect id="Rectangle_41846" data-name="Rectangle 41846" width="3.933" height="3.933" transform="translate(69.349 179.692)" fill="#daddf3"/>
        <rect id="Rectangle_41847" data-name="Rectangle 41847" width="3.933" height="3.933" transform="translate(75.174 179.692)" fill="#daddf3"/>
        <rect id="Rectangle_41848" data-name="Rectangle 41848" width="3.933" height="3.933" transform="translate(81 179.692)" fill="#daddf3"/>
        <rect id="Rectangle_41849" data-name="Rectangle 41849" width="3.933" height="3.933" transform="translate(86.825 179.692)" fill="#daddf3"/>
        <rect id="Rectangle_41850" data-name="Rectangle 41850" width="3.368" height="3.368" transform="translate(81.218 157.024)" fill="#daddf3"/>
        <rect id="Rectangle_41851" data-name="Rectangle 41851" width="13.651" height="3.368" transform="translate(65.697 157.024)" fill="#daddf3"/>
        <rect id="Rectangle_41852" data-name="Rectangle 41852" width="68.908" height="48.44" transform="translate(188.623 356.694)" fill="#daddf3"/>
        <rect id="Rectangle_41853" data-name="Rectangle 41853" width="7.873" height="48.44" transform="translate(238.348 356.694)" fill="#f5f5f5"/>
        <rect id="Rectangle_41854" data-name="Rectangle 41854" width="13.252" height="16.668" transform="translate(199.33 356.694)" fill="#fff"/>
        <path id="Path_199326" data-name="Path 199326" d="M225.592,357.439v47.232a.625.625,0,0,0,1.25,0V357.439a.625.625,0,0,0-1.25,0" fill="#b8beee"/>
        <rect id="Rectangle_41855" data-name="Rectangle 41855" width="92.041" height="49.599" transform="translate(158.139 381.377)" fill="#2b8ce9"/>
        <rect id="Rectangle_41856" data-name="Rectangle 41856" width="10.515" height="49.599" transform="translate(224.557 381.377)" fill="#fff"/>
        <rect id="Rectangle_41857" data-name="Rectangle 41857" width="17.701" height="17.067" transform="translate(172.44 381.377)" fill="#daddf3"/>
        <path id="Path_199327" data-name="Path 199327" d="M207.728,382.187v48.789a.625.625,0,0,0,1.25,0V382.187a.625.625,0,0,0-1.25,0" fill="#291f4c"/>
        <rect id="Rectangle_41858" data-name="Rectangle 41858" width="120.829" height="84.939" transform="translate(69.232 346.037)" fill="#fba308"/>
        <rect id="Rectangle_41859" data-name="Rectangle 41859" width="13.804" height="84.939" transform="translate(89.065 346.037)" fill="#fff"/>
        <rect id="Rectangle_41860" data-name="Rectangle 41860" width="23.238" height="29.227" transform="translate(148.05 346.038)" fill="#fff"/>
        <path id="Path_199328" data-name="Path 199328" d="M123.517,346.037v84.939a.625.625,0,0,0,1.25,0V346.037a.625.625,0,0,0-1.25,0" fill="#291f4c"/>
        <rect id="Rectangle_41861" data-name="Rectangle 41861" width="92.041" height="49.599" transform="translate(30.063 381.377)" fill="#ff5c45"/>
        <rect id="Rectangle_41862" data-name="Rectangle 41862" width="10.515" height="49.599" transform="translate(96.482 381.377)" fill="#fff"/>
        <rect id="Rectangle_41863" data-name="Rectangle 41863" width="17.701" height="17.067" transform="translate(44.364 381.377)" fill="#fff"/>
        <path id="Path_199329" data-name="Path 199329" d="M79.653,382.187v48.789a.625.625,0,0,0,1.25,0V382.187a.625.625,0,0,0-1.25,0" fill="#291f4c"/>
        <path id="Path_199330" data-name="Path 199330" d="M442.442,257.608c0,9.766,8.494,17.683,18.972,17.683s18.972-7.917,18.972-17.683-8.494-17.683-18.972-17.683-18.972,7.917-18.972,17.683" fill="#291f4c"/>
        <rect id="Rectangle_41864" data-name="Rectangle 41864" width="27.254" height="105.39" transform="translate(569.732 130.864)" fill="#5950c5"/>
        <rect id="Rectangle_41865" data-name="Rectangle 41865" width="50.898" height="24.749" transform="translate(619.354 234.366)" fill="#5950c5"/>
        <path id="Path_199331" data-name="Path 199331" d="M685.121,244.538V220.122a14.264,14.264,0,0,0-11.737-13.733l-19.855-4.056L640.24,176.342c-2.747-5.489-7.438-7.322-13.868-7.4l-48.96-.614v84.41h45.633s0-17.615,22.355-17.266,22.909,14.475,22.909,14.475h16.812Z" fill="#ff5c45"/>
        <path id="Path_199332" data-name="Path 199332" d="M667.317,240.426c-5.081-4.737-9.564-6.638-16.529-8.287s-16.547-.779-22.971,2.223a23.792,23.792,0,0,0-12.525,13.346,2.829,2.829,0,0,1-2.712,1.814H573.129v9.593h46.225A2.9,2.9,0,0,0,622.3,256.7c.754-5.613,4.366-19.036,21.666-18.716,23.885.441,21.129,23.263,21.129,23.263h9.151s7.778.918,7.778-6.823Z" fill="#291f4c"/>
        <path id="Path_199333" data-name="Path 199333" d="M620.293,173.43a4.274,4.274,0,0,1,2.531-.377l15.481.354a11.164,11.164,0,0,1,1.523,2.155l13.7,26.771c-3.978.04-11.28-.189-15.258-.148a8.249,8.249,0,0,1-2.817-.3,7.414,7.414,0,0,1-3.406-3.221c-4.506-6.721-7.425-13.646-11.587-20.557a6.82,6.82,0,0,1-1.044-2.37,2.318,2.318,0,0,1,.876-2.31" fill="#daddf3"/>
        <path id="Path_199334" data-name="Path 199334" d="M589.479,196.621q.406-9.636.815-19.272a3.418,3.418,0,0,1,.856-2.573,4.046,4.046,0,0,1,2.657-.625l8.338,0c2.352,0,4.816.023,6.889,1.064a12.348,12.348,0,0,1,4.7,4.72c4.27,6.835,6.768,11.574,10,17.467a3.261,3.261,0,0,1-3.055,4.74c-8.491.088-18.966.68-26.154.238a6.466,6.466,0,0,1-3.693-.993c-1.385-1.111-1.424-3.062-1.351-4.764" fill="#daddf3"/>
        <rect id="Rectangle_41866" data-name="Rectangle 41866" width="107.709" height="13.212" transform="translate(577.412 215.662)" fill="#fca408"/>
        <rect id="Rectangle_41867" data-name="Rectangle 41867" width="173.458" height="105.39" transform="translate(396.274 130.864)" fill="#2b8ce9"/>
        <path id="Path_199335" data-name="Path 199335" d="M624.991,258.427a18.978,18.978,0,1,0,18.972-18.5,18.742,18.742,0,0,0-18.972,18.5" fill="#291f4c"/>
        <path id="Path_199336" data-name="Path 199336" d="M633.4,258.427a10.571,10.571,0,1,0,10.568-10.306A10.439,10.439,0,0,0,633.4,258.427" fill="#5950c5"/>
        <path id="Path_199337" data-name="Path 199337" d="M409.392,258.427a18.978,18.978,0,1,0,18.972-18.5,18.742,18.742,0,0,0-18.972,18.5" fill="#291f4c"/>
        <path id="Path_199338" data-name="Path 199338" d="M417.8,258.427a10.571,10.571,0,1,0,10.568-10.306A10.439,10.439,0,0,0,417.8,258.427" fill="#5950c5"/>
        <path id="Path_199339" data-name="Path 199339" d="M397.042,254.981H574.925a2.488,2.488,0,0,0,2.488-2.487V238.87a2.488,2.488,0,0,0-2.488-2.488H397.042a2.487,2.487,0,0,0-2.487,2.488v13.624a2.487,2.487,0,0,0,2.487,2.487" fill="#291f4c"/>
        <path id="Path_199340" data-name="Path 199340" d="M543.467,243.647h6.969a.762.762,0,0,0,.762-.762v-2.2a.762.762,0,0,0-.762-.762h-6.969a.762.762,0,0,0-.762.762v2.2a.762.762,0,0,0,.762.762" fill="#fca408"/>
        <path id="Path_199341" data-name="Path 199341" d="M502.822,243.647h6.969a.762.762,0,0,0,.762-.762v-2.2a.762.762,0,0,0-.762-.762h-6.969a.762.762,0,0,0-.762.762v2.2a.762.762,0,0,0,.762.762" fill="#fca408"/>
        <path id="Path_199342" data-name="Path 199342" d="M462.176,243.647h6.969a.762.762,0,0,0,.762-.762v-2.2a.762.762,0,0,0-.762-.762h-6.969a.762.762,0,0,0-.762.762v2.2a.762.762,0,0,0,.762.762" fill="#fca408"/>
        <path id="Path_199343" data-name="Path 199343" d="M421.53,243.647H428.5a.762.762,0,0,0,.762-.762v-2.2a.762.762,0,0,0-.762-.762H421.53a.762.762,0,0,0-.762.762v2.2a.762.762,0,0,0,.762.762" fill="#fca408"/>
        <path id="Path_199344" data-name="Path 199344" d="M588.843,221.834h3.516a1.086,1.086,0,0,0,1.086-1.085v-9.134a1.086,1.086,0,0,0-1.086-1.085h-3.516a1.085,1.085,0,0,0-1.085,1.085v9.134a1.085,1.085,0,0,0,1.085,1.085" fill="#291f4c"/>
        <g id="Group_137129" data-name="Group 137129" opacity="0.5">
          <g id="Group_137128" data-name="Group 137128">
            <g id="Group_137127" data-name="Group 137127" clip-path="url(#clip-path-3)">
              <path id="Path_199345" data-name="Path 199345" d="M620.374,191.234l-14.617,11.1c-4.111.065-12.862.624-14.584-.714L615.9,183.477Z" fill="#fff"/>
            </g>
          </g>
        </g>
        <g id="Group_137132" data-name="Group 137132" opacity="0.5">
          <g id="Group_137131" data-name="Group 137131">
            <g id="Group_137130" data-name="Group 137130" clip-path="url(#clip-path-4)">
              <path id="Path_199346" data-name="Path 199346" d="M646.644,189.01,632.7,199.6,628,192.23l14.639-11.178Z" fill="#fff"/>
            </g>
          </g>
        </g>
        <g id="Group_137135" data-name="Group 137135" opacity="0.5">
          <g id="Group_137134" data-name="Group 137134">
            <g id="Group_137133" data-name="Group 137133" clip-path="url(#clip-path-5)">
              <path id="Path_199347" data-name="Path 199347" d="M641.1,178.52l-14.5,11.015-1.595-3,14.719-10.749Z" fill="#fff"/>
            </g>
          </g>
        </g>
        <g id="Group_137138" data-name="Group 137138" opacity="0.5">
          <g id="Group_137137" data-name="Group 137137">
            <g id="Group_137136" data-name="Group 137136" clip-path="url(#clip-path-6)">
              <path id="Path_199348" data-name="Path 199348" d="M613.732,179.933,589.458,198.16l.173-5.137L611.4,176.936Z" fill="#fff"/>
            </g>
          </g>
        </g>
        <path id="Path_199349" data-name="Path 199349" d="M614.864,204.675c-1.221,0-2.442.015-3.663,0a2.635,2.635,0,0,1-2.545-1.774,7.191,7.191,0,0,1-.094-1.967v-2.211a.625.625,0,0,0-1.25,0v2.042a10.464,10.464,0,0,0,.094,2.294,3.8,3.8,0,0,0,2.761,2.735,9.4,9.4,0,0,0,2.323.131h2.374a.625.625,0,0,0,0-1.25" fill="#291f4c"/>
        <path id="Path_199350" data-name="Path 199350" d="M608.5,179.488v-1.882a9.8,9.8,0,0,1,.042-1.968,2.584,2.584,0,0,1,2.344-1.972c.63-.045,1.273-.009,1.9-.009h2.142a.625.625,0,0,0,0-1.25c-1.327,0-2.671-.068-4,.006a3.913,3.913,0,0,0-3.353,2.182,5.684,5.684,0,0,0-.333,2.47v2.423a.625.625,0,0,0,1.25,0" fill="#291f4c"/>
        <path id="Path_199351" data-name="Path 199351" d="M606.185,200.461h4.366a1.347,1.347,0,0,0,1.347-1.348V178.877a1.348,1.348,0,0,0-1.347-1.348h-4.366a1.349,1.349,0,0,0-1.348,1.348v20.236a1.348,1.348,0,0,0,1.348,1.348" fill="#ff5c45"/>
        <path id="Path_199352" data-name="Path 199352" d="M668.11,254.424h18.728a2.866,2.866,0,0,0,2.961-2.76v-8.979a2.865,2.865,0,0,0-2.961-2.76H660.822Z" fill="#291f4c"/>
        <path id="Path_199353" data-name="Path 199353" d="M489.413,346.121a16.178,16.178,0,0,0-13.935,14.357,16.97,16.97,0,0,0,1.923,10.041,13.484,13.484,0,0,0,1.37,1.984l9.574,11.95a3.725,3.725,0,0,0,5.848-.043l6.7-8.626c.633-.813,1.81-2.407,2.836-3.851a16.517,16.517,0,0,0,3.179-9.341v-.077c.044-9.685-7.976-17.447-17.5-16.394m3.227,22.8a6.97,6.97,0,1,1,5.017-5.176,6.852,6.852,0,0,1-5.017,5.176" fill="#b8beee"/>
        <path id="Path_199354" data-name="Path 199354" d="M629.288,115.392a12.555,12.555,0,0,0-10.814,11.141,13.175,13.175,0,0,0,1.492,7.793,10.457,10.457,0,0,0,1.064,1.539l7.429,9.274A2.89,2.89,0,0,0,633,145.1l5.2-6.694c.491-.631,1.4-1.867,2.2-2.988a12.815,12.815,0,0,0,2.466-7.249v-.06c.033-7.515-6.19-13.539-13.578-12.722m2.5,17.7a5.409,5.409,0,1,1,3.893-4.017,5.317,5.317,0,0,1-3.893,4.017" fill="#b8beee"/>
        <path id="Path_199355" data-name="Path 199355" d="M151.742,127.12a12.555,12.555,0,0,0-10.814,11.141,13.175,13.175,0,0,0,1.492,7.793,10.457,10.457,0,0,0,1.064,1.539l7.429,9.274a2.89,2.89,0,0,0,4.538-.034l5.2-6.694c.491-.631,1.4-1.868,2.2-2.988a12.822,12.822,0,0,0,2.466-7.249c0-.02,0-.04,0-.06.033-7.515-6.19-13.539-13.578-12.722m2.5,17.695a5.318,5.318,0,0,1-6.224-6.538,5.217,5.217,0,1,1,6.224,6.538" fill="#b8beee"/>
        <path id="Path_199356" data-name="Path 199356" d="M158.593,267.755c-1.723,10.982,2.636,19.249,10.953,26.624,10.98,9.737,29.076,9.66,29.076,9.66,1.069-5.657,1.456-8.7,2.525-14.358,1.211.922,23.695,25.968,24.531,25.354L191.3,337.994c1.488-6.413,1.271-5.477,2.76-11.89-32.183.453-88.085-21.889-86.842-58.763Z" fill="#daddf3"/>
        <path id="Path_199357" data-name="Path 199357" d="M514.495,267.755c1.723,10.982-2.636,19.249-10.953,26.624-10.98,9.737-29.076,9.66-29.076,9.66-1.069-5.657-1.456-8.7-2.525-14.358-1.211.922-23.7,25.968-24.531,25.354l34.378,22.959-2.759-11.89c32.182.453,88.084-21.889,86.841-58.763Z" fill="#daddf3"/>
        <path id="Path_199358" data-name="Path 199358" d="M330.121,188.89a33.88,33.88,0,0,0,30.993,19.516c5.807-.01,12.761-2.772,17.658-5.892,7.2-4.591,14.4-19.383,10.558-34.72" fill="none" stroke="#b8beee" stroke-linecap="round" stroke-linejoin="round" stroke-width="2" stroke-dasharray="5 10"/>
        <path id="Path_199359" data-name="Path 199359" d="M55.983,281.872c-10.469,1.679-18.633,10.954-19.326,21.959a24.821,24.821,0,0,0,3.524,14.527,19.91,19.91,0,0,0,2.143,2.8l14.833,16.768a5.445,5.445,0,0,0,8.536-.481l9.171-13.074c.867-1.233,2.472-3.643,3.868-5.825a24.152,24.152,0,0,0,3.975-13.868c0-.038,0-.075,0-.113-.627-14.145-12.891-24.908-26.719-22.692m6.338,33.068c-7.062,1.962-13.565-4.233-12.313-11.731a9.919,9.919,0,0,1,6.957-7.917c7.063-1.963,13.566,4.234,12.314,11.732a9.922,9.922,0,0,1-6.958,7.916" fill="#2b8ce9"/>
        <rect id="Rectangle_41872" data-name="Rectangle 41872" width="54.223" height="12.845" transform="translate(532.821 351.949)" fill="#ffb046"/>
        <path id="Path_199360" data-name="Path 199360" d="M532.916,352.6h54.033a.625.625,0,0,0,0-1.25H532.916a.625.625,0,0,0,0,1.25" fill="#ff8500"/>
        <path id="Path_199361" data-name="Path 199361" d="M541.246,364.135v-11.74a.625.625,0,0,0-1.25,0v11.74a.625.625,0,0,0,1.25,0" fill="#ff8500"/>
        <path id="Path_199362" data-name="Path 199362" d="M553.948,364.135v-11.74a.625.625,0,0,0-1.25,0v11.74a.625.625,0,0,0,1.25,0" fill="#ff8500"/>
        <path id="Path_199363" data-name="Path 199363" d="M566.651,364.135v-11.74a.625.625,0,0,0-1.25,0v11.74a.625.625,0,0,0,1.25,0" fill="#ff8500"/>
        <path id="Path_199364" data-name="Path 199364" d="M579.353,364.135v-11.74a.625.625,0,0,0-1.25,0v11.74a.625.625,0,0,0,1.25,0" fill="#ff8500"/>
        <rect id="Rectangle_41873" data-name="Rectangle 41873" width="54.223" height="12.845" transform="translate(539.136 365.335)" fill="#ffb046"/>
        <path id="Path_199365" data-name="Path 199365" d="M539.232,365.982h54.033a.625.625,0,0,0,0-1.25H539.232a.625.625,0,0,0,0,1.25" fill="#ff8500"/>
        <path id="Path_199366" data-name="Path 199366" d="M547.562,377.521v-11.74a.625.625,0,0,0-1.25,0v11.74a.625.625,0,0,0,1.25,0" fill="#ff8500"/>
        <path id="Path_199367" data-name="Path 199367" d="M560.264,377.521v-11.74a.625.625,0,0,0-1.25,0v11.74a.625.625,0,0,0,1.25,0" fill="#ff8500"/>
        <path id="Path_199368" data-name="Path 199368" d="M572.966,377.521v-11.74a.625.625,0,0,0-1.25,0v11.74a.625.625,0,0,0,1.25,0" fill="#ff8500"/>
        <path id="Path_199369" data-name="Path 199369" d="M585.668,377.521v-11.74a.625.625,0,0,0-1.25,0v11.74a.625.625,0,0,0,1.25,0" fill="#ff8500"/>
        <rect id="Rectangle_41874" data-name="Rectangle 41874" width="54.223" height="12.845" transform="translate(533.433 378.721)" fill="#ffb046"/>
        <path id="Path_199370" data-name="Path 199370" d="M533.529,379.368h54.033a.625.625,0,0,0,0-1.25H533.529a.625.625,0,0,0,0,1.25" fill="#ff8500"/>
        <path id="Path_199371" data-name="Path 199371" d="M541.859,390.908v-11.74a.625.625,0,0,0-1.25,0v11.74a.625.625,0,0,0,1.25,0" fill="#ff8500"/>
        <path id="Path_199372" data-name="Path 199372" d="M554.561,390.908v-11.74a.625.625,0,0,0-1.25,0v11.74a.625.625,0,0,0,1.25,0" fill="#ff8500"/>
        <path id="Path_199373" data-name="Path 199373" d="M567.263,390.908v-11.74a.625.625,0,0,0-1.25,0v11.74a.625.625,0,0,0,1.25,0" fill="#ff8500"/>
        <path id="Path_199374" data-name="Path 199374" d="M579.965,390.908v-11.74a.625.625,0,0,0-1.25,0v11.74a.625.625,0,0,0,1.25,0" fill="#ff8500"/>
        <rect id="Rectangle_41875" data-name="Rectangle 41875" width="54.223" height="12.845" transform="translate(524.24 391.595)" fill="#ffb046"/>
        <path id="Path_199375" data-name="Path 199375" d="M524.335,392.242h54.033a.625.625,0,0,0,0-1.25H524.335a.625.625,0,0,0,0,1.25" fill="#ff8500"/>
        <path id="Path_199376" data-name="Path 199376" d="M532.665,403.781v-11.74a.625.625,0,0,0-1.25,0v11.74a.625.625,0,0,0,1.25,0" fill="#ff8500"/>
        <path id="Path_199377" data-name="Path 199377" d="M545.367,403.781v-11.74a.625.625,0,0,0-1.25,0v11.74a.625.625,0,0,0,1.25,0" fill="#ff8500"/>
        <path id="Path_199378" data-name="Path 199378" d="M558.069,403.781v-11.74a.625.625,0,0,0-1.25,0v11.74a.625.625,0,0,0,1.25,0" fill="#ff8500"/>
        <path id="Path_199379" data-name="Path 199379" d="M570.771,403.781v-11.74a.625.625,0,0,0-1.25,0v11.74a.625.625,0,0,0,1.25,0" fill="#ff8500"/>
        <rect id="Rectangle_41876" data-name="Rectangle 41876" width="54.223" height="12.845" transform="translate(530.555 404.981)" fill="#ffb046"/>
        <path id="Path_199380" data-name="Path 199380" d="M530.65,405.628h54.033a.625.625,0,0,0,0-1.25H530.65a.625.625,0,0,0,0,1.25" fill="#ff8500"/>
        <path id="Path_199381" data-name="Path 199381" d="M538.98,417.167v-11.74a.625.625,0,0,0-1.25,0v11.74a.625.625,0,0,0,1.25,0" fill="#ff8500"/>
        <path id="Path_199382" data-name="Path 199382" d="M551.682,417.167v-11.74a.625.625,0,0,0-1.25,0v11.74a.625.625,0,0,0,1.25,0" fill="#ff8500"/>
        <path id="Path_199383" data-name="Path 199383" d="M564.385,417.167v-11.74a.625.625,0,0,0-1.25,0v11.74a.625.625,0,0,0,1.25,0" fill="#ff8500"/>
        <path id="Path_199384" data-name="Path 199384" d="M577.087,417.167v-11.74a.625.625,0,0,0-1.25,0v11.74a.625.625,0,0,0,1.25,0" fill="#ff8500"/>
        <rect id="Rectangle_41877" data-name="Rectangle 41877" width="54.223" height="12.845" transform="translate(524.852 418.367)" fill="#ffb046"/>
        <path id="Path_199385" data-name="Path 199385" d="M524.947,419.014H578.98a.625.625,0,0,0,0-1.25H524.947a.625.625,0,0,0,0,1.25" fill="#ff8500"/>
        <path id="Path_199386" data-name="Path 199386" d="M533.277,430.554v-11.74a.625.625,0,0,0-1.25,0v11.74a.625.625,0,0,0,1.25,0" fill="#ff8500"/>
        <path id="Path_199387" data-name="Path 199387" d="M545.979,430.554v-11.74a.625.625,0,0,0-1.25,0v11.74a.625.625,0,0,0,1.25,0" fill="#ff8500"/>
        <path id="Path_199388" data-name="Path 199388" d="M558.681,430.554v-11.74a.625.625,0,0,0-1.25,0v11.74a.625.625,0,0,0,1.25,0" fill="#ff8500"/>
        <path id="Path_199389" data-name="Path 199389" d="M571.383,430.554v-11.74a.625.625,0,0,0-1.25,0v11.74a.625.625,0,0,0,1.25,0" fill="#ff8500"/>
        <rect id="Rectangle_41878" data-name="Rectangle 41878" width="46.844" height="11.097" transform="translate(597.985 397.017)" fill="#ffb046"/>
        <path id="Path_199390" data-name="Path 199390" d="M598.067,397.661h46.68a.625.625,0,0,0,0-1.25h-46.68a.625.625,0,0,0,0,1.25" fill="#ff8500"/>
        <path id="Path_199391" data-name="Path 199391" d="M605.349,407.545V397.4a.625.625,0,0,0-1.25,0v10.142a.625.625,0,0,0,1.25,0" fill="#ff8500"/>
        <path id="Path_199392" data-name="Path 199392" d="M616.322,407.545V397.4a.625.625,0,0,0-1.25,0v10.142a.625.625,0,0,0,1.25,0" fill="#ff8500"/>
        <path id="Path_199393" data-name="Path 199393" d="M627.3,407.545V397.4a.625.625,0,0,0-1.25,0v10.142a.625.625,0,0,0,1.25,0" fill="#ff8500"/>
        <path id="Path_199394" data-name="Path 199394" d="M638.27,407.545V397.4a.625.625,0,0,0-1.25,0v10.142a.625.625,0,0,0,1.25,0" fill="#ff8500"/>
        <rect id="Rectangle_41879" data-name="Rectangle 41879" width="46.844" height="11.097" transform="translate(603.441 408.582)" fill="#ffb046"/>
        <path id="Path_199395" data-name="Path 199395" d="M603.523,409.226H650.2a.625.625,0,0,0,0-1.25h-46.68a.625.625,0,0,0,0,1.25" fill="#ff8500"/>
        <path id="Path_199396" data-name="Path 199396" d="M610.8,419.11V408.968a.625.625,0,0,0-1.25,0V419.11a.625.625,0,0,0,1.25,0" fill="#ff8500"/>
        <path id="Path_199397" data-name="Path 199397" d="M621.778,419.11V408.968a.625.625,0,0,0-1.25,0V419.11a.625.625,0,0,0,1.25,0" fill="#ff8500"/>
        <path id="Path_199398" data-name="Path 199398" d="M632.752,419.11V408.968a.625.625,0,0,0-1.25,0V419.11a.625.625,0,0,0,1.25,0" fill="#ff8500"/>
        <path id="Path_199399" data-name="Path 199399" d="M643.726,419.11V408.968a.625.625,0,0,0-1.25,0V419.11a.625.625,0,0,0,1.25,0" fill="#ff8500"/>
        <rect id="Rectangle_41880" data-name="Rectangle 41880" width="46.844" height="11.097" transform="translate(598.514 420.147)" fill="#ffb046"/>
        <path id="Path_199400" data-name="Path 199400" d="M598.6,420.791h46.68a.625.625,0,0,0,0-1.25H598.6a.625.625,0,0,0,0,1.25" fill="#ff8500"/>
        <path id="Path_199401" data-name="Path 199401" d="M605.878,430.675V420.533a.625.625,0,0,0-1.25,0v10.142a.625.625,0,0,0,1.25,0" fill="#ff8500"/>
        <path id="Path_199402" data-name="Path 199402" d="M616.851,430.675V420.533a.625.625,0,0,0-1.25,0v10.142a.625.625,0,0,0,1.25,0" fill="#ff8500"/>
        <path id="Path_199403" data-name="Path 199403" d="M627.825,430.675V420.533a.625.625,0,0,0-1.25,0v10.142a.625.625,0,0,0,1.25,0" fill="#ff8500"/>
        <path id="Path_199404" data-name="Path 199404" d="M638.8,430.675V420.533a.625.625,0,0,0-1.25,0v10.142a.625.625,0,0,0,1.25,0" fill="#ff8500"/>
        <rect id="Rectangle_41881" data-name="Rectangle 41881" width="46.844" height="11.097" transform="translate(466.462 396.778)" fill="#ffb046"/>
        <path id="Path_199405" data-name="Path 199405" d="M466.543,397.421h46.681a.625.625,0,0,0,0-1.25H466.543a.625.625,0,0,0,0,1.25" fill="#ff8500"/>
        <path id="Path_199406" data-name="Path 199406" d="M473.825,407.306V397.164a.625.625,0,0,0-1.25,0v10.142a.625.625,0,0,0,1.25,0" fill="#ff8500"/>
        <path id="Path_199407" data-name="Path 199407" d="M484.8,407.306V397.164a.625.625,0,0,0-1.25,0v10.142a.625.625,0,0,0,1.25,0" fill="#ff8500"/>
        <path id="Path_199408" data-name="Path 199408" d="M495.772,407.306V397.164a.625.625,0,0,0-1.25,0v10.142a.625.625,0,0,0,1.25,0" fill="#ff8500"/>
        <path id="Path_199409" data-name="Path 199409" d="M506.746,407.306V397.164a.625.625,0,0,0-1.25,0v10.142a.625.625,0,0,0,1.25,0" fill="#ff8500"/>
        <rect id="Rectangle_41882" data-name="Rectangle 41882" width="46.844" height="11.097" transform="translate(471.918 408.342)" fill="#ffb046"/>
        <path id="Path_199410" data-name="Path 199410" d="M472,408.986h46.68a.625.625,0,0,0,0-1.25H472a.625.625,0,0,0,0,1.25" fill="#ff8500"/>
        <path id="Path_199411" data-name="Path 199411" d="M479.281,418.87V408.728a.625.625,0,0,0-1.25,0V418.87a.625.625,0,0,0,1.25,0" fill="#ff8500"/>
        <path id="Path_199412" data-name="Path 199412" d="M490.255,418.87V408.728a.625.625,0,0,0-1.25,0V418.87a.625.625,0,0,0,1.25,0" fill="#ff8500"/>
        <path id="Path_199413" data-name="Path 199413" d="M501.228,418.87V408.728a.625.625,0,0,0-1.25,0V418.87a.625.625,0,0,0,1.25,0" fill="#ff8500"/>
        <path id="Path_199414" data-name="Path 199414" d="M512.2,418.87V408.728a.625.625,0,0,0-1.25,0V418.87a.625.625,0,0,0,1.25,0" fill="#ff8500"/>
        <rect id="Rectangle_41883" data-name="Rectangle 41883" width="46.844" height="11.097" transform="translate(466.991 419.907)" fill="#ffb046"/>
        <path id="Path_199415" data-name="Path 199415" d="M467.072,420.551h46.68a.625.625,0,0,0,0-1.25h-46.68a.625.625,0,0,0,0,1.25" fill="#ff8500"/>
        <path id="Path_199416" data-name="Path 199416" d="M474.354,430.435V420.293a.625.625,0,0,0-1.25,0v10.142a.625.625,0,0,0,1.25,0" fill="#ff8500"/>
        <path id="Path_199417" data-name="Path 199417" d="M485.328,430.435V420.293a.625.625,0,0,0-1.25,0v10.142a.625.625,0,0,0,1.25,0" fill="#ff8500"/>
        <path id="Path_199418" data-name="Path 199418" d="M496.3,430.435V420.293a.625.625,0,0,0-1.25,0v10.142a.625.625,0,0,0,1.25,0" fill="#ff8500"/>
        <path id="Path_199419" data-name="Path 199419" d="M507.275,430.435V420.293a.625.625,0,0,0-1.25,0v10.142a.625.625,0,0,0,1.25,0" fill="#ff8500"/>
        <path id="Path_199420" data-name="Path 199420" d="M658.668,332.118a28.041,28.041,0,1,1-28.041-28.041,28.041,28.041,0,0,1,28.041,28.041" fill="#ffb046"/>
        <path id="Path_199421" data-name="Path 199421" d="M650.661,332.118a20.034,20.034,0,1,1-16.078-19.645,20.241,20.241,0,0,1,16.078,19.645.625.625,0,0,0,1.25,0A21.286,21.286,0,1,0,634.748,353a21.53,21.53,0,0,0,17.163-20.883.625.625,0,0,0-1.25,0" fill="#ff8500"/>
        <path id="Path_199422" data-name="Path 199422" d="M634.66,337.923a5.679,5.679,0,0,1-3.085,1.6v.59a1.106,1.106,0,0,1-.331.789,1.041,1.041,0,0,1-.777.341.991.991,0,0,1-.754-.329,1.138,1.138,0,0,1-.3-.8V339.6a6.481,6.481,0,0,1-2.886-1.037,4.78,4.78,0,0,1-1.732-1.955,2.355,2.355,0,0,1-.235-.894,1.112,1.112,0,0,1,.341-.814,1.14,1.14,0,0,1,.837-.341,1.121,1.121,0,0,1,.706.236,1.363,1.363,0,0,1,.448.612,2.538,2.538,0,0,0,.966,1.284,4.187,4.187,0,0,0,1.6.7l.1-5.041a8.615,8.615,0,0,1-3.074-1.625,3.324,3.324,0,0,1-1.119-2.616,3.739,3.739,0,0,1,1.131-2.767,5.247,5.247,0,0,1,3.109-1.379v-.494a1.121,1.121,0,0,1,.317-.789.987.987,0,0,1,.743-.342,1.045,1.045,0,0,1,.777.342,1.1,1.1,0,0,1,.33.789v.47a5.381,5.381,0,0,1,2.98,1.084,2.825,2.825,0,0,1,1.072,2.262,1.188,1.188,0,0,1-.33.859,1.068,1.068,0,0,1-.8.342,1.026,1.026,0,0,1-.719-.27,1.077,1.077,0,0,1-.341-.7,1.368,1.368,0,0,0-.577-.883,3.189,3.189,0,0,0-1.331-.554l-.1,4.476q4.265,1.391,4.264,4.453a4.037,4.037,0,0,1-1.225,2.921m-6.595-8.916a4.769,4.769,0,0,0,1.508.882l.023-3.792a2.783,2.783,0,0,0-1.5.648,1.579,1.579,0,0,0-.507,1.189,1.452,1.452,0,0,0,.472,1.073m5.029,7.479a1.945,1.945,0,0,0,.577-1.366,1.7,1.7,0,0,0-.47-1.143,4.237,4.237,0,0,0-1.6-.977l-.023,4.334a3.051,3.051,0,0,0,1.519-.848" fill="#ff8500"/>
        <path id="Path_199423" data-name="Path 199423" d="M606.25,335.036a22.989,22.989,0,0,1,10.861-23.351.625.625,0,0,0-.631-1.079,24.276,24.276,0,0,0-11.435,24.762c.129.792,1.333.456,1.205-.332" fill="#fff"/>
        <path id="Path_199424" data-name="Path 199424" d="M620.3,309.785l1.428-.575a.681.681,0,0,0,.373-.287.626.626,0,0,0-.224-.856A.61.61,0,0,0,621.4,308l-1.427.576a.682.682,0,0,0-.374.287.642.642,0,0,0-.063.481.632.632,0,0,0,.287.374.61.61,0,0,0,.482.063" fill="#fff"/>
        <path id="Path_199425" data-name="Path 199425" d="M652.462,333.087a22.8,22.8,0,0,1-7.664,15.667c-.6.534.283,1.415.884.884a24.052,24.052,0,0,0,8.03-16.551c.047-.8-1.2-.8-1.25,0" fill="#fff"/>
        <path id="Path_199426" data-name="Path 199426" d="M225.312,148.94l-1.548-1.963" fill="none" stroke="#b8beee" stroke-linecap="round" stroke-linejoin="round" stroke-width="2"/>
        <path id="Path_199427" data-name="Path 199427" d="M217.535,139c-13.311-17.357-24.986-35.529-23.75-57.332A72.077,72.077,0,0,1,227.469,25.3,72.274,72.274,0,0,1,285.9,18.184" fill="none" stroke="#b8beee" stroke-linecap="round" stroke-linejoin="round" stroke-width="2" stroke-dasharray="5.06 10.12"/>
        <path id="Path_199428" data-name="Path 199428" d="M290.674,19.866q1.162.459,2.309.963" fill="none" stroke="#b8beee" stroke-linecap="round" stroke-linejoin="round" stroke-width="2"/>
        <path id="Path_199429" data-name="Path 199429" d="M490.139,32.7a12.24,12.24,0,0,0-15.052-1.611A12.843,12.843,0,0,0,470,36.914a10.275,10.275,0,0,0-.543,1.742L466.8,49.932a2.817,2.817,0,0,0,2.753,3.464l8.264-.028c.78,0,2.278-.043,3.617-.1a12.486,12.486,0,0,0,7.048-2.461l.047-.035c5.791-4.49,6.677-12.887,1.611-18.069M478.056,45.251a5.274,5.274,0,1,1,5.423.577,5.184,5.184,0,0,1-5.423-.577" fill="#ff5c45"/>
        <path id="Path_199430" data-name="Path 199430" d="M359.5,25.7l2.393-.723" fill="none" stroke="#b8beee" stroke-linecap="round" stroke-linejoin="round" stroke-width="2"/>
        <path id="Path_199431" data-name="Path 199431" d="M371.835,22.056c17.87-5.02,35.833-8.245,52.688-.487a63.207,63.207,0,0,1,35.189,45.587,63.389,63.389,0,0,1-12.3,49.146" fill="none" stroke="#b8beee" stroke-linecap="round" stroke-linejoin="round" stroke-width="2" stroke-dasharray="5.181 10.362"/>
        <path id="Path_199432" data-name="Path 199432" d="M444.065,120.257q-.849.918-1.737,1.8" fill="none" stroke="#b8beee" stroke-linecap="round" stroke-linejoin="round" stroke-width="2"/>
        <path id="Path_199433" data-name="Path 199433" d="M448.547,111.777A111.772,111.772,0,1,1,336.775,0,111.772,111.772,0,0,1,448.547,111.777" fill="#daddf3"/>
        <path id="Path_199434" data-name="Path 199434" d="M334.178.028c-19.1,1.823-37.205,9.031-51.643,21.782-11.845,10.46-20.946,24.023-27.023,38.563-9.173,21.95-10.618,46.531-6.954,69.858,3.476,22.125,11.625,43.99,25.978,61.406,13.546,16.437,33.011,28.486,54.348,31.076a70.025,70.025,0,0,0,7.94.5.625.625,0,0,0,0-1.25c-21.43-.152-41.8-10.474-56.52-25.724-15.364-15.922-24.571-36.935-29.082-58.388-4.79-22.781-4.727-47.047,2.575-69.3a107.217,107.217,0,0,1,25.029-41.508,87.509,87.509,0,0,1,47.26-24.678c2.682-.474,5.381-.828,8.092-1.087.794-.076.8-1.327,0-1.25" fill="#f5f5f5"/>
        <path id="Path_199435" data-name="Path 199435" d="M333.862.113a80.59,80.59,0,0,0-17.754,14.38A125.761,125.761,0,0,0,300.869,34.06a106.347,106.347,0,0,0-10.462,20.916A126.466,126.466,0,0,0,284.358,82.1a222.832,222.832,0,0,0-1.474,29.5c.091,9.8.507,19.61,1.4,29.366a185.689,185.689,0,0,0,4.571,28.163c2.111,8.421,4.806,16.966,9.323,24.437,7.92,13.1,20.718,22.331,34.536,28.448q2.551,1.13,5.153,2.137c.75.292,1.075-.917.333-1.206-14-5.446-27.4-13.7-36.319-26.045-4.912-6.8-7.939-14.554-10.307-22.556a164.083,164.083,0,0,1-5.443-27.623c-1.09-9.379-1.6-18.821-1.867-28.256a263.634,263.634,0,0,1,.574-28.859,149.393,149.393,0,0,1,4.895-28.347,95.8,95.8,0,0,1,9.05-21.307,126.609,126.609,0,0,1,14.206-20.169,92.644,92.644,0,0,1,17.152-15.84q2.116-1.467,4.35-2.752a.625.625,0,0,0-.631-1.079" fill="#f5f5f5"/>
        <path id="Path_199436" data-name="Path 199436" d="M338.661,222.587c-2.841-28.628-4.5-57.367-5.35-86.12-.865-29.285-.886-58.594-.219-87.883Q333.638,24.61,334.8.653c.039-.8-1.211-.8-1.25,0q-2.09,43.122-2.176,86.311c-.035,29.289.66,58.586,2.333,87.829q1.369,23.931,3.7,47.794c.079.793,1.329.8,1.25,0" fill="#f5f5f5"/>
        <path id="Path_199437" data-name="Path 199437" d="M338.478,223.991a162.67,162.67,0,0,0,37.35-40.965,130.659,130.659,0,0,0,19.115-50.916,142.647,142.647,0,0,0,.919-27.693,180.273,180.273,0,0,0-3.318-26.527c-3.268-16.015-9.01-31.731-18.166-45.348A88.33,88.33,0,0,0,340.529,2.431c-1.723-.852-3.475-1.64-5.248-2.381-.741-.31-1.065.9-.332,1.2a85.887,85.887,0,0,1,35.544,27.96c9.581,12.827,15.824,27.875,19.587,43.37a169.442,169.442,0,0,1,4.129,25.909,158.9,158.9,0,0,1,.217,27.322,126.685,126.685,0,0,1-16.52,51.321,157.68,157.68,0,0,1-35,41.635q-2.615,2.22-5.315,4.335c-.632.5.258,1.376.884.884" fill="#f5f5f5"/>
        <path id="Path_199438" data-name="Path 199438" d="M335.115,1.278c8.59-.009,17.082,2.279,25.037,5.376a121.4,121.4,0,0,1,25.581,13.862,102.971,102.971,0,0,1,20.579,18.646c6.36,7.75,10.689,17.036,13.772,26.526,6.975,21.471,7.189,44.848,3.406,66.954a143.262,143.262,0,0,1-9.337,32.339c-4.245,9.894-9.768,19.57-17.015,27.585a93.847,93.847,0,0,1-23.79,18.6,96.772,96.772,0,0,1-28.328,10.721q-3.466.688-6.984,1.04c-.793.079-.8,1.33,0,1.25a89.339,89.339,0,0,0,28.726-8.234,102.127,102.127,0,0,0,26-17.2c16.2-14.883,25.527-36.357,30.3-57.491,5.018-22.225,5.894-46.044.406-68.264C420.9,62.606,416.942,52.1,410.906,43.218a89.37,89.37,0,0,0-18.768-19.476,126.638,126.638,0,0,0-25.154-15.52c-8.17-3.79-16.865-6.781-25.844-7.837a50.977,50.977,0,0,0-6.025-.357.625.625,0,0,0,0,1.25" fill="#f5f5f5"/>
        <path id="Path_199439" data-name="Path 199439" d="M225.158,116.938H448.547a.625.625,0,0,0,0-1.25H225.158a.625.625,0,0,0,0,1.25" fill="#f5f5f5"/>
        <path id="Path_199440" data-name="Path 199440" d="M241.539,53.869H421.915c2.43,0,4.888.107,7.316,0,.106-.005.212,0,.318,0a.625.625,0,0,0,0-1.25H249.172c-2.43,0-4.887-.107-7.316,0-.1.005-.211,0-.317,0a.625.625,0,0,0,0,1.25" fill="#f5f5f5"/>
        <path id="Path_199441" data-name="Path 199441" d="M250.884,180.008H422.665a.625.625,0,0,0,0-1.25H250.884a.625.625,0,0,0,0,1.25" fill="#f5f5f5"/>
        <path id="Path_199442" data-name="Path 199442" d="M312.1,70.42c2.408-3.221.676-8.373-2.92-10.173s-8.191-.617-11.138,2.12c2.636-2.8,1.255-7.882-2.067-9.812s-7.671-1.2-10.938.823-5.685,5.132-8.03,8.175c.127-2.206-1.986-4.109-4.191-4.255s-4.24,1.181-5.735,2.807a36.828,36.828,0,0,0-6.539,10.779Z" fill="#fff"/>
        <path id="Path_199443" data-name="Path 199443" d="M.6,431.865H686.55a.625.625,0,0,0,0-1.25H.6a.625.625,0,0,0,0,1.25" fill="#291f4c"/>
        <path id="Path_199444" data-name="Path 199444" d="M354.211,435.3s.517-13.495,17.018-15.922l.31-5.821,38.871.1-.644,21.554Z" fill="#5950c5"/>
        <path id="Path_199445" data-name="Path 199445" d="M362.541,420.733a54.709,54.709,0,0,1,7.8,4.016c.686.425,1.315-.656.631-1.079a56.662,56.662,0,0,0-8.1-4.142.629.629,0,0,0-.769.436.642.642,0,0,0,.437.769" fill="#291f4c"/>
        <path id="Path_199446" data-name="Path 199446" d="M366.048,419.442l7.113,4.2a.626.626,0,0,0,.631-1.08l-7.112-4.2a.626.626,0,0,0-.632,1.079" fill="#291f4c"/>
        <path id="Path_199447" data-name="Path 199447" d="M376.937,435.3s.517-13.495,17.018-15.922l.31-5.821,38.871.1-.644,21.554Z" fill="#291f4c"/>
        <path id="Path_199448" data-name="Path 199448" d="M385.267,420.733a54.763,54.763,0,0,1,7.8,4.016c.686.425,1.315-.656.631-1.079a56.66,56.66,0,0,0-8.1-4.142.629.629,0,0,0-.769.436.642.642,0,0,0,.437.769" fill="#5950c5"/>
        <path id="Path_199449" data-name="Path 199449" d="M388.775,419.442l7.113,4.2a.626.626,0,0,0,.63-1.08l-7.112-4.2a.625.625,0,0,0-.631,1.079" fill="#5950c5"/>
        <path id="Path_199450" data-name="Path 199450" d="M436.252,203.313s10.682,23.768,11.718,31.359-13.788,179.534-13.788,179.534l-41.536-.51L400.357,283.2c.882.811-12.666,41.52-12.666,41.52l26.593,88.835H371.009L351.387,350.3a80.628,80.628,0,0,1-2.618-37.092,144.373,144.373,0,0,1,4.115-17.738l27.769-80.011Z" fill="#291f4c"/>
        <path id="Path_199451" data-name="Path 199451" d="M393.247,229.106a19.882,19.882,0,0,0,8.8,11l-.309-.54q-.533,14.97-1.26,29.932-.838,17.867-1.8,35.727-1.011,18.924-2.12,37.843-1.061,18.143-2.213,36.279-.99,15.522-2.083,31.038-.117,1.656-.238,3.311a.63.63,0,0,0,.625.625l36.389.447,5.146.063a.625.625,0,0,0,0-1.25l-36.389-.446-5.146-.064q.312.314.625.625,1.1-15.059,2.05-30.128,1.156-17.91,2.209-35.828,1.119-18.921,2.144-37.848.98-18.093,1.854-36.19.738-15.424,1.339-30.853.061-1.641.12-3.283a.624.624,0,0,0-.31-.539,18.588,18.588,0,0,1-8.226-10.254c-.236-.767-1.443-.44-1.2.332" fill="#5950c5"/>
        <path id="Path_199452" data-name="Path 199452" d="M422.461,106.706a9.381,9.381,0,0,0,4.406-4.275,22.949,22.949,0,0,0,2.043-5.985c.909-4.032,1.429-8.447-.328-12.167-1.543-3.267-4.59-5.455-7.59-7.347a40.6,40.6,0,0,0-11.511-5.4,12.765,12.765,0,0,0-6.978-.089,6.962,6.962,0,0,0-4.773,4.925,11.875,11.875,0,0,0-5.8-1.268,6.651,6.651,0,0,0-5.1,2.82,4.971,4.971,0,0,0,.178,5.75,5.74,5.74,0,0,0-2.46,6.185,5.5,5.5,0,0,0,5.14,4.054" fill="#291f4c"/>
        <path id="Path_199453" data-name="Path 199453" d="M402.86,117.981v15.746h19.09v-23.04Z" fill="#feb091"/>
        <path id="Path_199454" data-name="Path 199454" d="M402.134,123.219s-11.591-1.793-11.605-14.665a142.364,142.364,0,0,1,.907-17.25c.941-8.8,7.549-12.437,16.969-12.245l.936.019c10.08.759,16.417,6.226,15.352,15.668l-1.13,9.1s.828,19.86-21.417,19.391" fill="#feb091"/>
        <path id="Path_199455" data-name="Path 199455" d="M394.044,100.972a1.373,1.373,0,0,0,1.307,1.4,1.319,1.319,0,0,0,1.453-1.2,1.374,1.374,0,0,0-1.3-1.405,1.32,1.32,0,0,0-1.455,1.2" fill="#291f4c"/>
        <path id="Path_199456" data-name="Path 199456" d="M406.807,101.86a1.371,1.371,0,0,0,1.307,1.4,1.319,1.319,0,0,0,1.454-1.2,1.375,1.375,0,0,0-1.306-1.4,1.321,1.321,0,0,0-1.455,1.2" fill="#291f4c"/>
        <path id="Path_199457" data-name="Path 199457" d="M412.791,97.493a4.827,4.827,0,0,0-4.845-.2c-.426.226-.048.874.379.647a4.066,4.066,0,0,1,4.087.2c.406.264.782-.385.379-.648" fill="#291f4c"/>
        <path id="Path_199458" data-name="Path 199458" d="M398.479,96.933a4.827,4.827,0,0,0-4.845-.2c-.426.226-.048.874.379.647a4.066,4.066,0,0,1,4.087.2c.406.264.782-.385.379-.648" fill="#291f4c"/>
        <path id="Path_199459" data-name="Path 199459" d="M398.64,92.18a10.393,10.393,0,0,0-3.664-.013" fill="none" stroke="#291f4c" stroke-linecap="round" stroke-linejoin="round" stroke-width="3"/>
        <path id="Path_199460" data-name="Path 199460" d="M412.537,93.568a10.393,10.393,0,0,0-3.664-.013" fill="none" stroke="#291f4c" stroke-linecap="round" stroke-linejoin="round" stroke-width="3"/>
        <path id="Path_199461" data-name="Path 199461" d="M421.021,102.737a5.485,5.485,0,0,1,4.9-.47,4.667,4.667,0,0,1,2.438,4.488,5.286,5.286,0,0,1-2.908,4.267,5.621,5.621,0,0,1-5.045-.177" fill="#feb091"/>
        <path id="Path_199462" data-name="Path 199462" d="M422.711,107.069a2.389,2.389,0,0,1,1.146-1.408,2.142,2.142,0,0,1,2.07-.08c.429.219.809-.428.379-.647a2.917,2.917,0,0,0-2.781.053,3.121,3.121,0,0,0-1.537,1.883.375.375,0,0,0,.723.2" fill="#fc705f"/>
        <path id="Path_199463" data-name="Path 199463" d="M402.271,123.777a12.673,12.673,0,0,0,9.854-3.207c.359-.325-.173-.854-.53-.531a11.95,11.95,0,0,1-9.324,2.988c-.479-.054-.475.7,0,.75" fill="#fc705f"/>
        <path id="Path_199464" data-name="Path 199464" d="M401.712,100.43l-.558,3c-.042.224-.084.449-.125.673a2.349,2.349,0,0,1-.157.727c-.168.26-.7.1-.975.119a.912.912,0,0,0-.864,1.3,5.466,5.466,0,0,0,.745,1.043l.89,1.152c.3.381.822-.153.53-.53l-.8-1.037c-.212-.275-.61-.619-.691-.963-.076-.324.49-.215.681-.205a1.369,1.369,0,0,0,.869-.188,1.2,1.2,0,0,0,.426-.846c.085-.449.167-.9.251-1.348q.25-1.347.5-2.695c.088-.471-.635-.674-.723-.2" fill="#291f4c"/>
        <path id="Path_199465" data-name="Path 199465" d="M402.075,111.536a.879.879,0,0,1,.378-.41l3.315-1.835a1.552,1.552,0,0,1,1.059-.283,1.182,1.182,0,0,1,.694.59,2.694,2.694,0,0,1-.248,2.967,3.152,3.152,0,0,1-2.821,1.1,3.731,3.731,0,0,1-2.235-1.182.869.869,0,0,1-.142-.949" fill="#fc705f"/>
        <path id="Path_199466" data-name="Path 199466" d="M425.419,101.073a6.2,6.2,0,0,1-2.61,3.437,3.07,3.07,0,0,1-3-.1,4.392,4.392,0,0,1-1.742-3.876,29.89,29.89,0,0,1,.745-4.378,10.693,10.693,0,0,0-.653-6.3,6.754,6.754,0,0,0-4.808-3.886c-1.647-.272-3.321.2-4.99.211s-3.586-.681-4.071-2.278a5.417,5.417,0,0,1-8.182,1.1,9.974,9.974,0,0,1-1.285,4.007,3.4,3.4,0,0,1-3.633,1.562,3.488,3.488,0,0,1-2.131-3.006,7.117,7.117,0,0,1,2.62-5.963,16.271,16.271,0,0,1,6.017-3.006,32.24,32.24,0,0,1,12.342-1.571A19.657,19.657,0,0,1,421.421,81.7a14.2,14.2,0,0,1,4.852,11.091" fill="#291f4c"/>
        <path id="Path_199467" data-name="Path 199467" d="M425.825,131.936,421.95,125.3l-12.18,8.529-6.909-6.209-4,4.8a43.751,43.751,0,0,0-8.252,19.138c-1.167,7.845-.42,14.375-3,20.725-8.079,19.9-8.618,45.823-3.887,46.982h38.059l7.225-73.978V132.66Z" fill="#fff"/>
        <path id="Path_199468" data-name="Path 199468" d="M407.841,144.41s-13.143,61.874-12.7,62.323,6.309,9.237,6.309,9.237l10.289-14.176V143.812l-2.919.692" fill="#fba308"/>
        <path id="Path_199469" data-name="Path 199469" d="M406.035,140.687c.124.371,1.806,3.723,1.806,3.723l3.211.094,3.114-3.594-3.053-4.9-2.621-.261Z" fill="#fba308"/>
        <path id="Path_199470" data-name="Path 199470" d="M425.262,132.4a35.715,35.715,0,0,1-9.625,10.217l.455.059a32.914,32.914,0,0,1-5.7-9.124c-.182-.44-.908-.247-.723.2a33.944,33.944,0,0,0,5.889,9.455.375.375,0,0,0,.454.059,36.671,36.671,0,0,0,9.894-10.486c.256-.411-.393-.788-.648-.379" fill="#291f4c"/>
        <path id="Path_199471" data-name="Path 199471" d="M409.105,133.546q-1.134,2.391-2.269,4.783l-1.134,2.392c-.189.4-.373.8-.567,1.2-.207.424-.424.693-.946.561a4.944,4.944,0,0,1-1.526-.9c-.529-.389-1.031-.816-1.519-1.255a22.714,22.714,0,0,1-2.48-2.56c-.3-.375-.831.158-.53.53a23.174,23.174,0,0,0,2.974,2.994,18.262,18.262,0,0,0,1.527,1.189,3.692,3.692,0,0,0,1.807.81c.73.027,1.1-.494,1.388-1.088q.641-1.344,1.276-2.691,1.323-2.79,2.647-5.58c.205-.434-.441-.815-.648-.379" fill="#291f4c"/>
        <path id="Path_199472" data-name="Path 199472" d="M397.893,133.735s-10.9,2.012-15.51,4.955l-3.62,49.46-15.322,67.992h4.531l13.942-36.875,1.963-6.179,1.851-9.872,9.988-58.856Z" fill="#5950c5"/>
        <path id="Path_199473" data-name="Path 199473" d="M383,138.323a17.843,17.843,0,0,0-9.969,12.393c-1.629,7.681-1.152,33.256-1.152,33.256l-30.339-4.955L334.854,200.8s20.873,5.786,32.586,8.537c15,3.523,15.793.512,15.793.512l3.76-68.865Z" fill="#5950c5"/>
        <path id="Path_199474" data-name="Path 199474" d="M379.022,147.523l.7,34.62a28.276,28.276,0,0,1-.913,6c-.8,3.982-1.739,7.938-2.693,11.886-2.352,9.736-4.876,19.43-7.286,29.151-2.1,8.474-4.528,17.076-5.554,25.767-.056.478.694.474.75,0,.911-7.718,3.02-15.363,4.868-22.894,2.4-9.78,4.936-19.526,7.332-29.307,1-4.082,1.983-8.17,2.863-12.28a48.527,48.527,0,0,0,1.394-7.763c.084-1.857-.075-3.757-.113-5.615q-.113-5.592-.224-11.185-.186-9.191-.37-18.381a.375.375,0,0,0-.75,0" fill="#291f4c"/>
        <path id="Path_199475" data-name="Path 199475" d="M380.408,213.284a2.175,2.175,0,0,0-1.346.493,1.858,1.858,0,0,0-.269,1.694c.345,1.556,2.913,3.74,4.933,3.8l2-6.649-5.32.667" fill="#daddf3"/>
        <path id="Path_199476" data-name="Path 199476" d="M381.388,213.713h27.431a.625.625,0,0,0,0-1.25H381.388a.625.625,0,0,0,0,1.25" fill="#291f4c"/>
        <path id="Path_199477" data-name="Path 199477" d="M343.722,272.406l-47.244,20.569a2.972,2.972,0,0,1-3.911-1.539l-13.079-30.041a2.971,2.971,0,0,1,1.538-3.91l47.245-20.569a2.973,2.973,0,0,1,3.911,1.538l13.078,30.041a2.971,2.971,0,0,1-1.538,3.911" fill="#ff5c45"/>
        <path id="Path_199478" data-name="Path 199478" d="M277.786,195.013l32.2,31.514-14.344,18.189-25.809-28.741Z" fill="#2b8ce9"/>
        <path id="Path_199479" data-name="Path 199479" d="M301.858,236.837a12.5,12.5,0,0,0,5.913,6.344,8.2,8.2,0,0,0,6.949-.437,19.335,19.335,0,0,0,4.121,8.719c.652.784,1.582,1.583,2.569,1.327,1.271-.329,1.488-2.024,1.395-3.335a54.028,54.028,0,0,0-.756-5.93,16.217,16.217,0,0,0-2.152-6.137c-2.155-3.237-8.488-6.66-12.114-8.064" fill="#b55539"/>
        <path id="Path_199480" data-name="Path 199480" d="M282.765,116.67l-7.451,56.9a39.969,39.969,0,0,0,14.3-5.648q-1.32-3.9-2.639-7.8,1.8,3.033,3.6,6.064a40.115,40.115,0,0,0,11.366-11.456,45.632,45.632,0,0,1-19.172-38.056" fill="#291f4c"/>
        <path id="Path_199481" data-name="Path 199481" d="M276.717,84.426c-3.782-3.637-15.655-6.861-20.759-5.645a23.114,23.114,0,0,0-12.7,8.763c-6.341,8.355-7.8,19.418-7.757,29.908s1.356,21.064-.34,31.415l41.374,7.535a2.838,2.838,0,0,0,4-3.067c2.489-22.156,4.122-55.789-3.819-68.909" fill="#291f4c"/>
        <path id="Path_199482" data-name="Path 199482" d="M267.254,121.565V136.9H249.719l-.395-21.294Z" fill="#b55539"/>
        <path id="Path_199483" data-name="Path 199483" d="M268.621,126.432s11.292-1.746,11.306-14.286a138.982,138.982,0,0,0-.884-16.805c-.916-8.576-7.355-12.117-16.531-11.929l-.912.018c-9.82.74-15.993,6.065-14.956,15.264l1.1,8.86s-.807,19.348,20.864,18.891" fill="#b55539"/>
        <path id="Path_199484" data-name="Path 199484" d="M276.5,104.759a1.337,1.337,0,0,1-1.273,1.367,1.283,1.283,0,0,1-1.416-1.17,1.337,1.337,0,0,1,1.272-1.368,1.287,1.287,0,0,1,1.417,1.171" fill="#291f4c"/>
        <path id="Path_199485" data-name="Path 199485" d="M264.069,105.624a1.337,1.337,0,0,1-1.273,1.367,1.283,1.283,0,0,1-1.416-1.17,1.337,1.337,0,0,1,1.272-1.368,1.286,1.286,0,0,1,1.417,1.171" fill="#291f4c"/>
        <path id="Path_199486" data-name="Path 199486" d="M258.423,101.684a4.315,4.315,0,0,1,4.352-.194" fill="none" stroke="#291f4c" stroke-linecap="round" stroke-linejoin="round" stroke-width="1"/>
        <path id="Path_199487" data-name="Path 199487" d="M272.366,101.139a4.313,4.313,0,0,1,4.351-.194" fill="none" stroke="#291f4c" stroke-linecap="round" stroke-linejoin="round" stroke-width="1"/>
        <path id="Path_199488" data-name="Path 199488" d="M272.025,96.193a10.146,10.146,0,0,1,3.57-.013" fill="none" stroke="#291f4c" stroke-linecap="round" stroke-linejoin="round" stroke-width="3"/>
        <path id="Path_199489" data-name="Path 199489" d="M258.486,97.546a10.146,10.146,0,0,1,3.57-.013" fill="none" stroke="#291f4c" stroke-linecap="round" stroke-linejoin="round" stroke-width="3"/>
        <path id="Path_199490" data-name="Path 199490" d="M247.585,107.813c5.1,4.3,12.044-6.79,16.59-11.843,3.327-3.7,7.214-8.845,8.191-13.841,0,0-10.947-6.057-19.854.208s-9.454,17.689-9.454,17.689Z" fill="#291f4c"/>
        <path id="Path_199491" data-name="Path 199491" d="M245.741,106.619a5.34,5.34,0,0,1,4.735.78l.061,7.921a5.479,5.479,0,0,1-4.916-.161,5.153,5.153,0,0,1-2.545-4.339,4.545,4.545,0,0,1,2.665-4.2" fill="#b55539"/>
        <path id="Path_199492" data-name="Path 199492" d="M248.927,110.6a2.66,2.66,0,0,0-3.67-1.667" fill="none" stroke="#8c221f" stroke-linecap="round" stroke-linejoin="round" stroke-width="1"/>
        <path id="Path_199493" data-name="Path 199493" d="M268.488,126.61a11.915,11.915,0,0,1-9.342-3.017" fill="none" stroke="#8c221f" stroke-linecap="round" stroke-linejoin="round" stroke-width="1"/>
        <path id="Path_199494" data-name="Path 199494" d="M268.318,104.427q.238,1.278.476,2.553.121.655.244,1.312a1.261,1.261,0,0,0,.432.9,1.31,1.31,0,0,0,.8.189c.16-.005.7-.117.727.127.015.138-.234.4-.3.486q-.173.225-.347.449l-.824,1.067c-.291.376.236.911.531.53l.867-1.123a5.366,5.366,0,0,0,.727-1.018.9.9,0,0,0-.85-1.283c-.222-.019-.736.126-.911-.041-.132-.125-.138-.539-.168-.7-.046-.242-.091-.486-.136-.729q-.271-1.459-.544-2.917c-.088-.474-.811-.274-.723.2" fill="#291f4c"/>
        <path id="Path_199495" data-name="Path 199495" d="M263.167,113.283a1.2,1.2,0,0,1,.7-.6,1.576,1.576,0,0,1,1.076.288l3.627,2.007.349.774a3.864,3.864,0,0,1-2.64,1.661,3.2,3.2,0,0,1-2.864-1.119,2.735,2.735,0,0,1-.252-3.012" fill="#8c221f"/>
        <path id="Path_199496" data-name="Path 199496" d="M287.766,432.9s4.775-12.632-9.48-21.29l1.98-5.482-35.844-15.041L236.627,411.2Z" fill="#413fa8"/>
        <path id="Path_199497" data-name="Path 199497" d="M298.759,433.619s-1.072-13.462-17.658-15.209l-.549-5.8L241.717,414.3l1.53,21.51Z" fill="#5950c5"/>
        <path id="Path_199498" data-name="Path 199498" d="M284.82,416.467a54.775,54.775,0,0,0-7.643,4.328c-.663.449-.038,1.533.631,1.08a54.785,54.785,0,0,1,7.643-4.329.63.63,0,0,0,.224-.855.639.639,0,0,0-.855-.224" fill="#291f4c"/>
        <path id="Path_199499" data-name="Path 199499" d="M281.178,415.409l-6.817,4.414c-.673.435-.047,1.518.631,1.079l6.817-4.414c.673-.435.047-1.518-.631-1.079" fill="#291f4c"/>
        <path id="Path_199500" data-name="Path 199500" d="M229.962,204.263s-10.19,18.334-10.419,31.814c-.131,7.66,21.153,178.816,21.153,178.816l43.77-2.338L266.379,251.764l18.755,61.674,28.256-40.745-26.667-67.681Z" fill="#291f4c"/>
        <path id="Path_199501" data-name="Path 199501" d="M282.476,402.82c18.167-18.758,41.318-41.761,40.767-79.921a137.586,137.586,0,0,0-10.4-51.538l-27.7,42.077s2.873,9.551,1.349,18.709-23.9,40.114-23.9,40.114Z" fill="#291f4c"/>
        <path id="Path_199502" data-name="Path 199502" d="M272.779,227.959a18.585,18.585,0,0,1-7.782,10.6.624.624,0,0,0-.31.539c.766,9.96,1.714,19.9,2.717,29.843q1.8,17.809,3.815,35.594,2.111,18.85,4.334,37.688,2.119,18.066,4.275,36.127,1.834,15.453,3.634,30.911.19,1.65.379,3.3l.625-.625-14.763.789-23.56,1.258-5.447.291c-.8.043-.806,1.293,0,1.25l14.763-.789,23.56-1.258,5.447-.291c.308-.016.665-.274.625-.625q-1.716-15.008-3.515-30.006-2.115-17.84-4.226-35.678-2.217-18.842-4.358-37.693-2.034-18.018-3.912-36.053c-1.052-10.243-2.053-20.493-2.884-30.757q-.134-1.637-.259-3.275l-.309.54a19.878,19.878,0,0,0,8.356-11.342.625.625,0,0,0-1.205-.332" fill="#5950c5"/>
        <path id="Path_199503" data-name="Path 199503" d="M267.68,137.053a17.315,17.315,0,0,1,12.858,13.467l4.728,12.035a21.765,21.765,0,0,1,1.423,9.89l-.669,7.538,1.607,27.323-57.665-3.043L219.772,157.6l14.5-22.263,15.366-2.528Z" fill="#2b8ce9"/>
        <path id="Path_199504" data-name="Path 199504" d="M246.436,134.012c0-.3,2.693-6.98,2.693-6.98l16.7,6.469,2.07-1.886,2.463,9.367Z" fill="#2b8ce9"/>
        <path id="Path_199505" data-name="Path 199505" d="M246.6,133.872l12.56,5.407c1.037.446,2.866,1.792,3.767.518a19.914,19.914,0,0,0,1.353-2.73l1.614-3.288-.588.075,4.645,5.273c.32.363.849-.17.531-.531q-2.324-2.635-4.646-5.272a.377.377,0,0,0-.589.076l-2.421,4.933-.4.822-1.209.2a5.092,5.092,0,0,1-1.256-.541l-2.721-1.171-10.257-4.416c-.439-.188-.822.458-.379.648" fill="#291f4c"/>
        <path id="Path_199506" data-name="Path 199506" d="M234.529,135.3s-25.24,3.8-13.122,35.38c6,15.637,11.949,27.326,22.447,37.483,6.8,6.585,19.175.66,30.482-2.935,10.421-3.314,25.956-10.61,25.956-10.61-4.712-4.622-7.061-12.533-6.1-20.549l-38.418,7.848Z" fill="#2b8ce9"/>
        <path id="Path_199507" data-name="Path 199507" d="M223.733,177.35c2.107,4.551,4.474,9,6.97,13.346a117.846,117.846,0,0,0,6.86,10.739,39.419,39.419,0,0,0,7.369,8.125,9.293,9.293,0,0,0,6.728,2.246,48.059,48.059,0,0,0,9.239-1.964c8.21-2.35,16.228-5.4,24.165-8.54,5.169-2.043,10.32-4.146,15.417-6.363a.377.377,0,0,0,.076-.589c-5.741-4.945-6.47-13.2-5.992-20.284a.379.379,0,0,0-.475-.362c-10.154,2.294-20.4,4.12-30.584,6.293-2.053.438-4.094.963-6.17,1.281a16.748,16.748,0,0,0-1.693.243c.4-.107.287.372.124-.123a6.585,6.585,0,0,0-.612-1.043c-2.375-4.156-3.841-8.9-5.583-13.345-2.133-5.441-4.257-10.885-6.423-16.313-.177-.443-.9-.25-.723.2,2.368,5.935,4.686,11.889,7.02,17.837,1.774,4.521,3.305,9.2,5.862,13.353a.369.369,0,0,0,.324.186c5.753-.771,11.424-2.272,17.114-3.408,7.19-1.436,14.391-2.821,21.543-4.436l-.474-.362c-.491,7.269.325,15.744,6.211,20.814.026-.2.051-.393.076-.589a364.617,364.617,0,0,1-36.05,13.819,79.941,79.941,0,0,1-10.2,2.653c-2.559.444-4.811.554-7.1-.842a28.615,28.615,0,0,1-7.212-7.094,100.055,100.055,0,0,1-7.009-10.483,170.388,170.388,0,0,1-8.153-15.373c-.2-.437-.85-.057-.648.379" fill="#291f4c"/>
        <path id="Path_199508" data-name="Path 199508" d="M290.083,179.022a2.061,2.061,0,1,1-2.915,0,2.061,2.061,0,0,1,2.915,0" fill="#fff"/>
        <path id="Path_199509" data-name="Path 199509" d="M255.345,181.713a20.451,20.451,0,0,0-7.55,8.828c-.193.437.453.819.648.378a19.757,19.757,0,0,1,7.281-8.558c.4-.262.027-.912-.379-.648" fill="#291f4c"/>
        <path id="Path_199510" data-name="Path 199510" d="M264.951,133.531c2.867,14.748,5,29.713,6.457,44.665.047.476.8.481.75,0-1.467-15.018-3.6-30.051-6.484-44.864-.092-.474-.815-.273-.723.2" fill="#291f4c"/>
        <path id="Path_199511" data-name="Path 199511" d="M278.508,153.545a22.745,22.745,0,0,1,7.816,21.92c-.1.471.628.673.723.2a23.488,23.488,0,0,0-8.009-22.65c-.373-.3-.906.227-.53.53" fill="#291f4c"/>
        <path id="Path_199512" data-name="Path 199512" d="M340.324,182.979l-10.276-3.124-8.529-2.592-2.878,14.71,17.346,5.273Z" fill="#feb091"/>
        <path id="Path_199513" data-name="Path 199513" d="M294.424,177.2c.23.077,15.271-1,15.271-1s7.29-4.451,11.741,0l-.537,5.572s11.511,7.78,10.9,13c0,0-.307,3.3-3.376,2.609,0,0-1.455,3.693-4.042,1.3,0,0-.842,3.915-4.628,1.083-2.52-1.885-10.055-7.76-10.055-7.76L299.116,193.5c-3.233-3.361-5.159-10.3-4.692-16.3" fill="#b55539"/>
        <path id="Path_199514" data-name="Path 199514" d="M329.016,197.153a39.72,39.72,0,0,0-3.329-5.959,26.843,26.843,0,0,0-4.345-5.183c-.6-.532-1.488.349-.884.884a25.8,25.8,0,0,1,4.252,5.082,39.908,39.908,0,0,1,3.227,5.807c.327.733,1.4.1,1.079-.631" fill="#8c221f"/>
        <path id="Path_199515" data-name="Path 199515" d="M313.944,191.542A37.646,37.646,0,0,1,320,198.437c.5.739,1,1.692.573,2.482a1.679,1.679,0,0,1-1.555.781,3.852,3.852,0,0,1-1.717-.6c-3.55-2.034-5.727-5.761-7.743-9.321" fill="#feb091"/>
        <path id="Path_199516" data-name="Path 199516" d="M320.868,199.767a22.287,22.287,0,0,0-8.758-10.7c-.68-.434-1.308.647-.631,1.079a20.878,20.878,0,0,1,8.184,9.949c.289.742,1.5.419,1.205-.332" fill="#8c221f"/>
        <path id="Path_199517" data-name="Path 199517" d="M331.409,180.429c-1.466-1.965-3.27-3.844-5.619-4.546-2.918-.871-6.019.235-8.862,1.327a7.179,7.179,0,0,0-3.307,2.03c-.8,1.042-.827,2.782.28,3.485a3.458,3.458,0,0,0,2.635.119,39.407,39.407,0,0,0,6.911-2.315" fill="#feb091"/>
        <path id="Path_199518" data-name="Path 199518" d="M307.253,194.633a2.308,2.308,0,0,1-1.768-2.1,4.771,4.771,0,0,1,.775-2.8,5.983,5.983,0,0,1,1.832-2.075,3.207,3.207,0,0,1,2.663-.46,2.212,2.212,0,0,1,1.576,2.068,2.033,2.033,0,0,1,2.719,2.94,1.968,1.968,0,0,1,2.274,1.081,3.147,3.147,0,0,1-.106,2.661,8.406,8.406,0,0,1-1.651,2.187,3.541,3.541,0,0,1,1.514,2.032,4.18,4.18,0,0,1-6.312-3.682,3.507,3.507,0,0,1-3.338-2.413" fill="#feb091"/>
        <path id="Path_199519" data-name="Path 199519" d="M308.12,194.681a7.74,7.74,0,0,1,4.445-5.072.63.63,0,0,0,.224-.856.642.642,0,0,0-.855-.224,8.919,8.919,0,0,0-5.019,5.82.625.625,0,0,0,1.2.332" fill="#fc705f"/>
        <path id="Path_199520" data-name="Path 199520" d="M311.33,196.787a4.84,4.84,0,0,1,.482-1.377,5.8,5.8,0,0,1,.409-.664c.038-.053.076-.106.116-.157-.057.072.053-.065.064-.078.09-.109.184-.214.282-.316a4.93,4.93,0,0,1,1.141-.916c.111-.067.225-.129.341-.188.09-.046.263-.127.309-.146a6.121,6.121,0,0,1,.727-.234.625.625,0,1,0-.332-1.206,6.574,6.574,0,0,0-4.744,4.95.641.641,0,0,0,.436.769.633.633,0,0,0,.769-.437" fill="#fc705f"/>
        <path id="Path_199521" data-name="Path 199521" d="M313.575,189.678a3.779,3.779,0,0,1-.25.486,2.75,2.75,0,0,1-.161.237c.053-.069.021-.029-.017.014s-.057.065-.087.1c-.06.062-.126.116-.189.175.1-.091-.017.012-.04.027s-.073.047-.11.069-.077.04-.116.061c-.1.056.05-.011-.019.009-.092.027-.181.056-.275.078-.118.029.062,0-.013,0-.043,0-.086.006-.129.006s-.086-.005-.128-.005c-.074,0,.1.027-.012,0l-.15-.04c-.111-.031.063.039,0,0-.033-.02-.068-.035-.1-.055-.005,0-.126-.086-.05-.03s-.028-.027-.042-.041a1.234,1.234,0,0,1-.1-.1s.076.112,0,0c-.021-.032-.038-.065-.058-.1-.072-.12.031.117-.008-.017-.008-.029-.016-.058-.025-.086-.041-.132,0,.126-.005-.012,0-.046,0-.091,0-.137a.628.628,0,0,0-.625-.625.64.64,0,0,0-.625.625,1.883,1.883,0,0,0,2.075,1.865,2.915,2.915,0,0,0,2.33-1.872.641.641,0,0,0-.224-.855.631.631,0,0,0-.855.224" fill="#fc705f"/>
        <path id="Path_199522" data-name="Path 199522" d="M315.6,193.177a3.779,3.779,0,0,1-.25.486,2.747,2.747,0,0,1-.161.237c.052-.069.02-.029-.017.014s-.057.065-.087.1c-.06.062-.126.116-.189.175.1-.091-.018.012-.04.027s-.073.047-.11.069-.078.04-.116.061c-.1.056.049-.011-.019.009-.092.027-.181.056-.275.078-.118.029.062,0-.013,0-.043,0-.086.006-.129.006s-.086,0-.128,0c-.074,0,.1.027-.012,0l-.15-.04c-.111-.031.063.039,0,0-.033-.02-.068-.035-.1-.055-.005,0-.126-.086-.05-.03s-.028-.027-.043-.041-.1-.1-.094-.1.076.112,0,0c-.021-.032-.038-.065-.058-.1-.072-.12.031.117-.008-.017-.008-.029-.016-.058-.025-.086-.041-.132,0,.126-.005-.012,0-.046,0-.091,0-.137a.628.628,0,0,0-.625-.625.64.64,0,0,0-.625.625,1.883,1.883,0,0,0,2.075,1.865,2.915,2.915,0,0,0,2.33-1.872.641.641,0,0,0-.224-.855.631.631,0,0,0-.855.224" fill="#fc705f"/>
        <path id="Path_199523" data-name="Path 199523" d="M310.147,187.7a1.656,1.656,0,0,1-.06.23c-.005.014-.009.028-.015.041-.016.044-.009.027.022-.049,0,.024-.037.076-.048.1-.027.05-.121.148-.127.2.005-.046.073-.089,0-.008-.024.027-.048.053-.074.079s-.052.05-.079.074c-.076.068-.042.009.009,0-.06.013-.145.1-.2.129-.017.009-.077.053-.1.048.036.009.118-.044.009-.006a1.813,1.813,0,0,1-.23.062c-.115.024.093,0,.014,0-.037,0-.074,0-.111.005s-.073,0-.11,0c-.1-.007-.037-.022.012.005a1.462,1.462,0,0,0-.237-.055c-.023-.007-.088-.016-.1-.036.073.032.089.039.047.02l-.04-.019a1.712,1.712,0,0,1-.212-.122c-.019-.013-.108-.1-.043-.03s-.023-.023-.038-.037-.118-.157-.151-.161c.047.063.057.076.031.038l-.038-.054c-.024-.038-.046-.076-.067-.115a.63.63,0,0,0-.855-.225.639.639,0,0,0-.224.856,2.327,2.327,0,0,0,2.416,1.147,2.3,2.3,0,0,0,1.8-1.776.625.625,0,1,0-1.2-.332" fill="#fc705f"/>
        <path id="Path_199524" data-name="Path 199524" d="M315.446,178.99c.147-.04-.117-.014.032-.011a.625.625,0,0,1,.075,0l-.044,0c.029.013.17.067.04,0,.037.018.073.045.111.062s.029.017-.022-.023l.058.052c.032.03.061.062.09.094-.088-.1.006.016.022.045.026.045.045.15.023.04.011.054.031.1.04.16-.019-.108,0,.047,0,.075s-.01.173,0,.1-.023.1-.029.126c-.012.05-.03.1-.044.147-.037.129.023-.03-.032.081a2.984,2.984,0,0,1-.185.325q-.049.075-.105.147c.054-.07,0,0-.027.028a3.074,3.074,0,0,1-.213.229c-.081.08-.168.153-.254.227.094-.08-.046.033-.055.04-.046.033-.094.065-.141.1-.088.057-.179.109-.271.158-.042.022-.084.043-.127.063s-.161.068-.059.028a3.827,3.827,0,0,1-.654.191.628.628,0,0,0-.437.768.641.641,0,0,0,.769.437,4.078,4.078,0,0,0,2.839-2.1,2.106,2.106,0,0,0,.019-2.035,1.6,1.6,0,0,0-1.747-.749.625.625,0,1,0,.332,1.205" fill="#fc705f"/>
        <path id="Path_199525" data-name="Path 199525" d="M331.093,186.471c-.05.041-.037.03.007,0l-.083.059c-.063.044-.127.085-.193.123s-.119.066-.18.1l-.092.043c-.082.039.094-.033.008,0-.138.045-.272.094-.414.127-.066.015-.133.028-.2.04s-.037,0,.014,0c-.042,0-.084.009-.127.012a3.086,3.086,0,0,1-.408,0l-.1-.007c-.015,0-.127-.013-.043,0s-.05-.009-.068-.012l-.1-.02a2.908,2.908,0,0,1-.39-.114c-.017-.006-.146-.063-.067-.026s-.029-.015-.042-.021c-.068-.034-.135-.071-.2-.109a.625.625,0,1,0-.63,1.079,3.7,3.7,0,0,0,4.2-.377.627.627,0,0,0,0-.884.642.642,0,0,0-.884,0" fill="#fc705f"/>
        <path id="Path_199526" data-name="Path 199526" d="M324.947,198.31c-.973-1.852-2.167-3.566-3.276-5.336a47.437,47.437,0,0,0-3.837-5.081c-.515-.619-1.4.27-.884.884a46.88,46.88,0,0,1,3.741,4.986c1.078,1.716,2.232,3.381,3.177,5.178.374.712,1.453.081,1.079-.631" fill="#8c221f"/>
        <path id="Path_199527" data-name="Path 199527" d="M318.411,182.707a25.342,25.342,0,0,0,7.741-2.183.629.629,0,0,0,.224-.855.639.639,0,0,0-.855-.225,23.463,23.463,0,0,1-7.11,2.013.644.644,0,0,0-.625.625.629.629,0,0,0,.625.625" fill="#fc705f"/>
        <path id="Path_199528" data-name="Path 199528" d="M327.868,63.588c-8.136.9-14.781,7.745-15.729,16.2a19.153,19.153,0,0,0,2.17,11.334,15.346,15.346,0,0,0,1.547,2.239l10.806,13.488a4.2,4.2,0,0,0,6.6-.049l7.564-9.736c.715-.918,2.043-2.716,3.2-4.346a18.634,18.634,0,0,0,3.588-10.544c0-.029,0-.058,0-.087.049-10.931-9-19.693-19.749-18.5m3.642,25.737c-5.519,1.247-10.3-3.775-9.053-9.51a7.66,7.66,0,0,1,5.663-5.842c5.52-1.248,10.3,3.775,9.053,9.51a7.659,7.659,0,0,1-5.663,5.842" fill="#5950c5"/>
        <path id="Path_199529" data-name="Path 199529" d="M448.259,199.644l-3.292-64.494-18.142-2.915h-.483s-2.17,14.044-3.012,27.527c-.471,7.534-1.963,35.763-1.544,59.5a261.072,261.072,0,0,1-2,35.682h37.367Z" fill="#5950c5"/>
        <path id="Path_199530" data-name="Path 199530" d="M409.916,188.141l-15.643-30.625a3.864,3.864,0,0,0-3.552-2.1l-31.688.925a3.862,3.862,0,0,0-3.274,5.716l22.811,41.62a3.861,3.861,0,0,0,3.258,2l31.5,1.054a3.862,3.862,0,0,0,3.529-5.69Z" fill="#2b8ce9"/>
        <path id="Path_199531" data-name="Path 199531" d="M408.494,186.492l-1.751-4.563c7.506-.49,15.629,7.268,15.629,7.268l3.6.049.371,17.719s-20.428-.906-23.348-2.172a3.9,3.9,0,0,1-2.446-4.114c-2.1-1.729-.931-3.346-.931-3.346a2.612,2.612,0,0,1-.8-3.336s-5.292-.506-5.165-4.479c.106-3.338,14.842-3.026,14.842-3.026" fill="#feb091"/>
        <path id="Path_199532" data-name="Path 199532" d="M409.717,186.224l-8.268-.715c-.8-.069-.8,1.181,0,1.25l8.268.715c.8.069.8-1.181,0-1.25" fill="#fc705f"/>
        <path id="Path_199533" data-name="Path 199533" d="M401.86,193.518l-3.452-.286a.627.627,0,0,0-.625.625.642.642,0,0,0,.625.625l3.452.286a.628.628,0,0,0,.625-.625.641.641,0,0,0-.625-.625" fill="#fc705f"/>
        <path id="Path_199534" data-name="Path 199534" d="M351.839,161.187a5.657,5.657,0,0,1,2.764-4.272,16.043,16.043,0,0,1,7.464-1.6l25.191.194c-.665.092-5.107-.121-7.256,1.439a5.444,5.444,0,0,0-2.6,4.235,13.682,13.682,0,0,0,.97,5.6c1.508,4.208,3.958,8,6.238,11.846s4.437,7.866,5.262,12.26.144,9.268-2.751,12.676h-25.56c2.894-3.408,3.575-8.283,2.75-12.676s-2.982-8.414-5.261-12.26-4.73-7.638-6.239-11.846a13.681,13.681,0,0,1-.969-5.6" fill="#fff"/>
        <path id="Path_199535" data-name="Path 199535" d="M386.055,191.167H366.924a.375.375,0,0,0,0,.75h19.131a.375.375,0,0,0,0-.75" fill="#291f4c"/>
        <path id="Path_199536" data-name="Path 199536" d="M386.076,195.121H366.945a.375.375,0,0,0,0,.75h19.131a.375.375,0,0,0,0-.75" fill="#291f4c"/>
        <path id="Path_199537" data-name="Path 199537" d="M384.823,187.093H365.692a.375.375,0,0,0,0,.75h19.131a.375.375,0,0,0,0-.75" fill="#291f4c"/>
        <path id="Path_199538" data-name="Path 199538" d="M383.315,182.669H364.184a.375.375,0,0,0,0,.75h19.131a.375.375,0,0,0,0-.75" fill="#291f4c"/>
        <path id="Path_199539" data-name="Path 199539" d="M381.442,178.245H362.311a.375.375,0,0,0,0,.75h19.131a.375.375,0,0,0,0-.75" fill="#291f4c"/>
        <path id="Path_199540" data-name="Path 199540" d="M378.419,174.055H359.288a.375.375,0,0,0,0,.75h19.131a.375.375,0,0,0,0-.75" fill="#291f4c"/>
        <path id="Path_199541" data-name="Path 199541" d="M375.4,169.865H356.264a.375.375,0,0,0,0,.75H375.4a.375.375,0,0,0,0-.75" fill="#291f4c"/>
        <path id="Path_199542" data-name="Path 199542" d="M374.41,165.676H355.279a.375.375,0,0,0,0,.75H374.41a.375.375,0,0,0,0-.75" fill="#291f4c"/>
        <path id="Path_199543" data-name="Path 199543" d="M373.64,161.591H354.509a.375.375,0,0,0,0,.75H373.64a.375.375,0,0,0,0-.75" fill="#291f4c"/>
        <path id="Path_199544" data-name="Path 199544" d="M468.98,192.582c-.865-10.5-1.6-23.523-6.859-40.338s-18.4-17.295-18.4-17.295l3.242,50.888-23.631,3.372,4.556,24.7s29-4.046,28.733-4.535c0,0,13.407-4.111,12.362-16.794" fill="#5950c5"/>
        <path id="Path_199545" data-name="Path 199545" d="M443.343,155.314c.738,9.93,1.874,19.839,3.027,29.728.091-.121.183-.241.275-.362l-20.507,3.651-2.909.518a.382.382,0,0,0-.262.461L426.95,210.9l.573,3.108a.382.382,0,0,0,.461.262l25.173-3.973,3.56-.561c.476-.076.274-.8-.2-.724l-25.173,3.973-3.56.562q.229.132.461.262-1.99-10.8-3.982-21.593l-.573-3.109q-.132.231-.262.462l20.507-3.651,2.908-.517a.375.375,0,0,0,.276-.362c-1.153-9.889-2.289-19.8-3.027-29.728-.036-.478-.786-.482-.75,0" fill="#291f4c"/>
        <path id="Path_199546" data-name="Path 199546" d="M54.41,96.74c2.408-3.221.676-8.373-2.92-10.173s-8.191-.617-11.138,2.12c2.636-2.794,1.255-7.882-2.067-9.812s-7.671-1.2-10.938.823-5.685,5.132-8.03,8.175c.127-2.206-1.987-4.109-4.191-4.255s-4.24,1.181-5.735,2.807A36.829,36.829,0,0,0,2.852,97.2Z" fill="#daddf3"/>
        <path id="Path_199547" data-name="Path 199547" d="M135.66,43.681c1.766-2.362.5-6.139-2.141-7.459s-6.006-.452-8.167,1.554c1.934-2.049.921-5.779-1.515-7.194s-5.624-.879-8.02.6a23.586,23.586,0,0,0-5.888,5.994,3.233,3.233,0,0,0-3.072-3.12,5.5,5.5,0,0,0-4.206,2.059,27.019,27.019,0,0,0-4.794,7.9Z" fill="#fff"/>
        <path id="Path_199548" data-name="Path 199548" d="M597.833,23.715c1.766-2.362.5-6.139-2.141-7.459s-6.006-.452-8.167,1.554c1.933-2.048.921-5.778-1.515-7.194s-5.624-.879-8.02.6a23.566,23.566,0,0,0-5.888,5.993,3.233,3.233,0,0,0-3.073-3.12,5.5,5.5,0,0,0-4.205,2.059,27.019,27.019,0,0,0-4.794,7.9Z" fill="#fff"/>
        <path id="Path_199549" data-name="Path 199549" d="M545.48,95.119c2.408-3.221.676-8.373-2.92-10.173s-8.191-.617-11.138,2.12c2.636-2.795,1.255-7.882-2.067-9.812s-7.671-1.2-10.938.823-5.685,5.131-8.03,8.175c.127-2.206-1.987-4.109-4.191-4.256s-4.24,1.182-5.735,2.808a36.839,36.839,0,0,0-6.539,10.778Z" fill="#daddf3"/>
        <path id="Path_199550" data-name="Path 199550" d="M675.517,91.124c2-2.68.563-6.967-2.43-8.465s-6.815-.513-9.267,1.764c2.194-2.325,1.044-6.557-1.72-8.163s-6.382-1-9.1.684-4.73,4.27-6.681,6.8a3.67,3.67,0,0,0-3.487-3.541,6.238,6.238,0,0,0-4.772,2.336,30.632,30.632,0,0,0-5.441,8.969Z" fill="#daddf3"/>
        <path id="Path_199551" data-name="Path 199551" d="M207.8,88.194c2-2.68.563-6.967-2.43-8.465s-6.815-.513-9.267,1.764c2.194-2.325,1.044-6.557-1.719-8.163s-6.383-1-9.1.684-4.73,4.27-6.681,6.8a3.67,3.67,0,0,0-3.487-3.541,6.238,6.238,0,0,0-4.772,2.336A30.631,30.631,0,0,0,164.9,88.58Z" fill="#daddf3"/>
        <path id="Path_199552" data-name="Path 199552" d="M184.538,10.445a12.242,12.242,0,0,0-1.037,15.1,12.842,12.842,0,0,0,6.016,4.862,10.187,10.187,0,0,0,1.761.476l11.369,2.228a2.819,2.819,0,0,0,3.358-2.882l-.342-8.258c-.032-.779-.13-2.274-.243-3.61a12.5,12.5,0,0,0-2.727-6.95l-.037-.045c-4.706-5.616-13.131-6.183-18.118-.924m13,11.6a5.274,5.274,0,1,1,.37-5.441,5.132,5.132,0,0,1-.37,5.441" fill="#ffb046"/>
      </g>
    </g>
  </g>
</svg>
