<svg id="Group_137126" data-name="Group 137126" xmlns="http://www.w3.org/2000/svg" xmlns:xlink="http://www.w3.org/1999/xlink" width="673.832" height="445.498" viewBox="0 0 673.832 445.498">
  <defs>
    <clipPath id="clip-path">
      <rect id="Rectangle_41816" data-name="Rectangle 41816" width="673.832" height="445.498" fill="none"/>
    </clipPath>
  </defs>
  <g id="Group_137125" data-name="Group 137125" clip-path="url(#clip-path)">
    <path id="Path_199161" data-name="Path 199161" d="M603.942,422.676c.422-1.394.872-2.764,1.274-4.174A289.429,289.429,0,0,0,615.882,327c-3.665-86.887-45.113-175.05-118.041-227.644C411.652,37.2,286.488,35.94,195.391,87.3,78.483,153.216,28.614,301.276,64.222,422.676Z" fill="#7db6f9"/>
    <path id="Path_199162" data-name="Path 199162" d="M187.911,196.3a45.945,45.945,0,0,0,1.861,6.924c.354,1.158.645,2.526-.088,3.489-.19.25-.438.452-.629.7-1.08,1.4.043,3.443,1.4,4.583s3.072,2.151,3.463,3.876a9.324,9.324,0,0,1-.1,2.853,12.032,12.032,0,0,0,2.542,7.908,35.793,35.793,0,0,0,5.988,5.983,3.9,3.9,0,0,0,1.373-3.4,12.155,12.155,0,0,0-1.022-3.665,144.852,144.852,0,0,1-7.275-25.1c-.681-3.509-1.21-7.26.155-10.563.309-.749.945-1.576,1.737-1.4a1.453,1.453,0,0,1,.747.5,5.878,5.878,0,0,1,1.063,2.555q.633,2.647,1.267,5.292a57.78,57.78,0,0,1,1.164,5.711,43.219,43.219,0,0,0,.647,4.486,24.693,24.693,0,0,0,3.564,7.212l6.315,9.886c2.272,3.556,4.576,7.186,5.658,11.265a20.594,20.594,0,0,1-.119,10.927c-1.2,4.162.31,8.489,3.2,11.721s6.864,5.236,10.742,7.166l20.6,10.25a11.865,11.865,0,0,0,3.3,1.249c3.354.55,6.527-1.8,9.923-1.954,3.847-.178,7.242,2.452,9.852,5.285s4.94,6.093,8.344,7.894c4.013,2.125,8.811,1.858,13.276,2.678,5.028.923,10.147,3.707,11.949,8.49a4.445,4.445,0,0,0,1,1.875c1.07.942,2.7.356,4.116.165s3.344.868,2.732,2.155c-.762,1.6-2.643,1.371-3.829,2.687-1.311,1.455-.678,3.9.732,5.255a6.249,6.249,0,0,0,2.972,1.592c.869.191,1.775.2,2.636.42,4.651,1.21,6.2,8.058,10.925,8.918a24.209,24.209,0,0,1,3.119.373,11.043,11.043,0,0,1,3.218,2.306,10.044,10.044,0,0,0,5.353,2.152,1.089,1.089,0,0,0,.96-.243,1.174,1.174,0,0,0,.165-.808c-.068-2.263.362-4.694,1.94-6.316a5.673,5.673,0,0,1,6.674-.945,4.391,4.391,0,0,1,2.248,4.705c-.165.612-.5,1.173-.614,1.794-.408,2.126,1.655,3.826,2.59,5.78a10.824,10.824,0,0,1,.822,3.952,67.834,67.834,0,0,1-.427,13.677,5.224,5.224,0,0,1-.967,2.8,6.317,6.317,0,0,1-1.936,1.291,18.938,18.938,0,0,0-7.193,6.681c-2.179,3.486-5,6.558-6.2,10.491s-1.026,8.509,1.447,11.792a3.6,3.6,0,0,1,1.012,1.985,2.805,2.805,0,0,1-.69,1.6c-2.17,2.948-5.37,5.678-5.317,9.339a9.292,9.292,0,0,0,.8,3.317,22.558,22.558,0,0,0,4.734,7.244c1.993,2.046,4.389,3.727,6.04,6.058a24.732,24.732,0,0,1,2.849,6.173l1.875,5.291H528.89c.1-.185.185-.38.294-.561a42.285,42.285,0,0,1,4.595-5.666,56.433,56.433,0,0,0,12.487-24.685,26.094,26.094,0,0,0,.751-7.628,2.157,2.157,0,0,0-.753-1.75c-.589-.366-1.346-.126-2.038-.089a5.313,5.313,0,0,1-4.15-2.35,34.529,34.529,0,0,0-3.009-3.93c-4.458-4.187-12.312-1.448-17.359-4.9-3.234-2.214-7.6-3.278-10.856-5.467a15.076,15.076,0,0,0-3.377-1.953c-1.685-.582-3.523-.409-5.3-.524s-3.718-.647-4.688-2.143c-.791-1.218-.75-2.77-.821-4.221-.261-5.286-2.346-10.289-4.4-15.167-1.153-2.736-2.458-5.652-5.006-7.178a12.7,12.7,0,0,0-4.438-1.4,61.733,61.733,0,0,0-16.193-.611,11.974,11.974,0,0,1-4.1-.039,10.268,10.268,0,0,1-3.294-1.752,86.343,86.343,0,0,1-7.026-5.565,39.471,39.471,0,0,1-5.448-6.791,28.077,28.077,0,0,0-2.836-3.721c-4.172-4.219-10.832-4.238-16.763-4.425a118.294,118.294,0,0,1-14.432-1.344,12.661,12.661,0,0,1-2.819-.673c-2.377-.96-4.113-3.241-6.6-3.876a5.578,5.578,0,0,0-5.908,2.318c-1.418,2.2-1.395,5.543-3.745,6.7-2.013.99-4.655-.741-4.936-2.967-.211-1.672.609-3.3.7-4.986s-1.229-3.727-2.84-3.231c-.918.283-1.411,1.248-2.1,1.916-2.717,2.629-7.915.339-10.676,2.922a10.1,10.1,0,0,0-1.823,2.965c-1.574,3.1-4.061,5.613-6.509,8.076a2.441,2.441,0,0,1-.975.7,2.243,2.243,0,0,1-1.331-.133,13.051,13.051,0,0,1-4.7-2.768c-2.691-2.476-6.807-2.745-10.443-2.366a11.054,11.054,0,0,0-5.174,1.605c-.621.427-1.17.958-1.818,1.342a6.575,6.575,0,0,1-3.718.766,12.018,12.018,0,0,1-9.156-5.645,7.052,7.052,0,0,1-1.1-2.581,12.73,12.73,0,0,1,.162-3.485c.442-4.14-.535-8.329-.131-12.473.316-3.241,1.457-6.606.313-9.655-1.044-2.782-3.837-4.609-6.73-5.289a27.105,27.105,0,0,0-8.872-.1,27.775,27.775,0,0,1-8.875-.067,3.647,3.647,0,0,1-1.785-.818,1.514,1.514,0,0,1-.349-1.807c-.421-1.994,1.006-3.717,2.27-5.314a21.128,21.128,0,0,0,4.348-10.231,15.685,15.685,0,0,1,.862-4.382c.544-1.214,1.5-2.209,2.042-3.424a5.75,5.75,0,0,0-.359-5.274,3,3,0,0,0-.908-.984,3.464,3.464,0,0,0-1.6-.437,11.292,11.292,0,0,0-5.539.965,16.622,16.622,0,0,1-3.3,1.42c-.57.12-1.163.136-1.72.309-1.889.584-2.8,2.737-3.068,4.7s-.161,4.037-1.051,5.8a7.516,7.516,0,0,1-4.22,3.453,22.287,22.287,0,0,1-5.473,1.027c-3.959.4-7.834.18-11.813.276a5.111,5.111,0,0,1-4.712-1.869c-2.207-2.076-4.5-4.278-5.438-7.158a17.566,17.566,0,0,1-.657-3.777,121.845,121.845,0,0,1-.615-18.366c3.128-3.644,2.143-9.579,3.653-14.138,2.007-6.057,7.366-10.725,13.485-12.534a22.748,22.748,0,0,1,8.593-.827c5.951.57,11.525,3.469,17.495,3.79l-1.077-3.724a1.837,1.837,0,0,1-.1-.892c.149-.686.969-.954,1.66-1.079a73.411,73.411,0,0,1,11.8-.84,6.489,6.489,0,0,1,3.415.565c.844.492,1.425,1.342,2.238,1.884,2.365,1.578,5.719.085,8.322,1.227a6.156,6.156,0,0,1,2.631,2.463c2.928,4.679,1.679,11,4.258,15.882,1.472,2.787,4.037,4.8,6.529,6.734a1.452,1.452,0,0,0,.651.346,1.3,1.3,0,0,0,.946-.365c2.347-1.855,2.808-5.23,2.6-8.215a27.728,27.728,0,0,0-1.028-5.794c-.946-3.262-2.483-6.324-3.517-9.559s-1.543-6.8-.4-10c2.321-1.8,4.415-3.689,6.737-5.494a66.6,66.6,0,0,1,6.826-4.863c3.449-2.046,7.24-3.454,10.745-5.4a3.192,3.192,0,0,0,1.8-1.862,3.863,3.863,0,0,0-.868-2.589,11.544,11.544,0,0,1-1.487-4.5,3.314,3.314,0,0,1,.11-1.551,4.6,4.6,0,0,1,1.08-1.409,11.678,11.678,0,0,0,3.055-6.34,8.455,8.455,0,0,1,.78-3.353,6.207,6.207,0,0,1,2.717-2.033c2.944-1.445,5.969-2.914,9.234-3.223a1.32,1.32,0,0,0,1.195-1.487c-.1-.744-.494-1.421-.631-2.16a4.354,4.354,0,0,1,1.264-3.623,12.854,12.854,0,0,1,3.235-2.29l9.3-5.237a7.437,7.437,0,0,1,4.257-1.352c.17,1.03-.553,1.964-1.141,2.826s-1.069,2.046-.463,2.9a2.485,2.485,0,0,0,2.617.584c2.936-.68,5.245-2.893,7.953-4.215a25.524,25.524,0,0,1,5.189-1.7,6.081,6.081,0,0,0,2-.738,2.022,2.022,0,0,0,.978-1.787c-.113-1.1-1.408-1.711-2.513-1.635a27.094,27.094,0,0,0-3.21.814,11.405,11.405,0,0,1-4.309-.277,17.276,17.276,0,0,1-6.195-2.042,4.822,4.822,0,0,1-1.656-1.649c-1.338-2.418.61-5.722-.788-8.1a3.35,3.35,0,0,0-3.593-1.511,11.136,11.136,0,0,1-1.982.586c-.69.038-1.495-.5-1.349-1.178.118-.544.742-.791,1.283-.921,5.478-1.321,11.357.116,16.806-1.32,1.047-.276,1.8-1.187,2.7-1.793,1.047-.707,2.547-1.387,3.445-.5a2.82,2.82,0,0,1,.407,2.444q-.43,2.973-.861,5.946a4.555,4.555,0,0,0,.1,2.452,3.452,3.452,0,0,0,2.122,1.718c2.976,1.044,6.3-.039,9.4.577,2.373.471,4.439,1.906,6.739,2.659,1.091.357,2.482.477,3.206-.415a2.359,2.359,0,0,0,.39-1.817,5.572,5.572,0,0,0-2.529-3.666,16.517,16.517,0,0,0-4.191-1.827l-5.662-1.866A2.492,2.492,0,0,1,422.373,121l-2.664-5.189a10.813,10.813,0,0,0-6.052-6.012l-4.531-2.408c-1.791-.953-3.66-1.974-4.764-3.677-5.035-1.355-9.429-4.316-13.437-7.65-1.865-1.551-3.569-3.285-5.348-4.933-.927-.859-2.211-1.751-3.346-1.195a5.5,5.5,0,0,0-1.248,1.132,5.487,5.487,0,0,1-5.173,1.019,19.269,19.269,0,0,1-4.919-2.44,67.284,67.284,0,0,0-13.854-6.332,6.956,6.956,0,0,0-3.233-.482,4.952,4.952,0,0,0-3.5,3.036,14.63,14.63,0,0,0-.927,4.714,5.932,5.932,0,0,0,.019,1.694,5.187,5.187,0,0,0,1.37,2.325,13.981,13.981,0,0,1,2.806,3.62c.6,1.414.371,3.338-.966,4.092a10.179,10.179,0,0,1-2.165.608,4.248,4.248,0,0,0-2.922,3.408c-.234,1.7.573,3.541-.17,5.086a2.9,2.9,0,0,1-4.619.561,14.08,14.08,0,0,1-.972-1.673c-1.308-2.124-4.354-3.256-4.537-5.743a4.6,4.6,0,0,0-.162-1.638,2.418,2.418,0,0,0-1.935-1.069c-3-.487-6.08-.178-9.1-.492a22.293,22.293,0,0,1-11.666-4.833,6.954,6.954,0,0,0-1.959-1.3,4.914,4.914,0,0,0-2.017-.181,13.4,13.4,0,0,0-9.529,5.177c-.721.947-1.407,2.063-2.546,2.41s-2.648-.856-2.028-1.872a35.685,35.685,0,0,1,8.484-5.023c1.036-.434,2.218-.944,2.564-2.013a3.051,3.051,0,0,0-1.264-3.038,14.973,14.973,0,0,1-2.643-2.265c-.682-.944-.763-2.491.23-3.1,3.661-2.246,5.8-5.924,10.025-6.716a61,61,0,0,1,12.847-.588,3.907,3.907,0,0,0,2.115-.341,5.09,5.09,0,0,0,1.259-1.342,8.21,8.21,0,0,1,6.774-3.041c1.232-1.305.069-3.924,1.508-5a3.13,3.13,0,0,1,1.807-.432c5.663-.183,11.828-.13,16.3,3.351a1.6,1.6,0,0,1,.761,1.138c0,.541-.5.932-.756,1.407-.742,1.353.536,2.909,1.756,3.854A37.458,37.458,0,0,0,378.7,85.341a4.151,4.151,0,0,0-2.768-3.105,16.973,16.973,0,0,0-4.288-.765,4.3,4.3,0,0,1-1.578-.409c-1.709-.935-1.565-3.4-1.185-5.306a15.134,15.134,0,0,1,5.9.106c.588-2.378-1.658-4.555-3.951-5.417s-4.876-1.04-6.908-2.408c-.913-.614-1.671-1.444-2.613-2.012-1.987-1.2-4.461-1.067-6.78-1.1A41.085,41.085,0,0,1,343.6,63.3c-1.554-.452-3.082-.995-4.654-1.385a24.585,24.585,0,0,0-10.411-.3,6.574,6.574,0,0,0-2.524.9c-.6.406-1.065.973-1.631,1.421-1.826,1.448-4.4,1.476-6.7,1.079s-4.568-1.154-6.9-1.036a9.409,9.409,0,0,0-6.979,3.738,6.758,6.758,0,0,1-1.348,1.585c-1.046.745-2.461.566-3.734.395a60.1,60.1,0,0,0-13.458-.281c-3.3.3-6.992.776-9.6-1.268a3.508,3.508,0,0,0-3.01-2.965,11.946,11.946,0,0,0-4.516.374,47.444,47.444,0,0,1-12.3.785c-1.868-.124-4.079-.992-4.487-2.819a263.23,263.23,0,0,0-41.028,15.966c2.5,1.87,3.794,6.261,3.668,9.382a29.064,29.064,0,0,1-2.359,9.023q-2.808,7.385-5.614,14.768c-2.022,5.317-4.089,10.716-7.538,15.239-1.82,2.386-3.995,4.486-5.773,6.9a53.077,53.077,0,0,0-4.287,7.357c-2.5,4.863-5.034,9.851-5.722,15.274-.962,7.587,1.785,15.1,4.484,22.256,2.043,5.415-.085,10.884.727,16.614" fill="#476b9e"/>
    <path id="Path_199163" data-name="Path 199163" d="M373.114,255.626a1.6,1.6,0,0,0-.51-1.207,8.732,8.732,0,0,0-4.772-2.812,23.608,23.608,0,0,1-3.886-.733A11.928,11.928,0,0,1,361.118,249a30.7,30.7,0,0,0-11.778-5.642,19.783,19.783,0,0,1-3.106-.853c-1.573-.655-2.881-1.827-4.429-2.54a15.524,15.524,0,0,0-6.385-1.041q-2.658-.025-5.314.093a9.756,9.756,0,0,0-3.635.657,10.292,10.292,0,0,0-3.505,3.21l-1.15,1.442c-.245.308-.491.757-.236,1.055a.82.82,0,0,0,.673.192c2.138-.081,4.175-.536,6.364-.546a1.758,1.758,0,0,1,.957.177,3.319,3.319,0,0,1,.658.763,3.138,3.138,0,0,0,1.683.888c5.115,1.29,10.948-1.5,15.613.964a15.294,15.294,0,0,1,1.823,1.2l8.5,6.177a3.306,3.306,0,0,0,2.332.91l10.849.488c.842.038,1.956-.132,2.082-.965" fill="#476b9e"/>
    <path id="Path_199164" data-name="Path 199164" d="M353.368,265.765c.564,2.782,3.831,3.333,6.165,3.6,5.6.631,1.42-4.5-1.281-5.6-1.858-.756-5.508-1.076-4.884,2" fill="#476b9e"/>
    <path id="Path_199165" data-name="Path 199165" d="M401.363,261.463a37.133,37.133,0,0,0-4.763-1.215c-3.024-.763-5.871-2.239-8.967-2.619a25.854,25.854,0,0,0-3.6-.105c-1.247.021-3.543.427-3.353,2.167.159,1.447,2.26,1.9,2.6,3.352.134.571-.015,1.178.108,1.752.243,1.135,1.415,1.766,2.4,2.384a16.165,16.165,0,0,0,2.274,1.362,3.044,3.044,0,0,0,2.568.038,14.336,14.336,0,0,0,1.623-1.388c1.227-.911,2.909-.771,4.432-.647a62.071,62.071,0,0,0,6.324.194,2.029,2.029,0,0,0,1.7-.593,1.626,1.626,0,0,0,.094-1.4,5.584,5.584,0,0,0-3.437-3.286" fill="#476b9e"/>
    <rect id="Rectangle_41756" data-name="Rectangle 41756" width="668.455" height="1" transform="translate(0.308 422.176)" fill="#162e4c"/>
    <path id="Path_199166" data-name="Path 199166" d="M33.363,445.5a5.744,5.744,0,0,1-3.668-1.315,5.908,5.908,0,0,1-7.337,0,5.911,5.911,0,0,1-7.337,0,5.778,5.778,0,0,1-7.337,0A5.774,5.774,0,0,1,0,443.872l.695-.718a4.775,4.775,0,0,0,6.642,0l.347-.336.348.336a4.775,4.775,0,0,0,6.642,0l.347-.336.348.336a4.775,4.775,0,0,0,6.642,0l.347-.336.348.336a4.774,4.774,0,0,0,6.641,0l.348-.336.348.336a4.773,4.773,0,0,0,6.64,0l.7.719a5.749,5.749,0,0,1-4.016,1.625" fill="#7db6f9"/>
    <path id="Path_199167" data-name="Path 199167" d="M249.816,445.5a5.749,5.749,0,0,1-3.67-1.315,5.91,5.91,0,0,1-7.336,0,5.778,5.778,0,0,1-7.337,0,5.779,5.779,0,0,1-7.338,0,5.773,5.773,0,0,1-7.683-.312l.7-.718a4.775,4.775,0,0,0,6.642,0l.346-.336.349.336a4.774,4.774,0,0,0,6.641,0l.348-.336.348.336a4.774,4.774,0,0,0,6.641,0l.348-.336.348.336a4.774,4.774,0,0,0,6.641,0l.347-.336.349.336a4.774,4.774,0,0,0,6.641,0l.7.72a5.758,5.758,0,0,1-4.016,1.624" fill="#7db6f9"/>
    <path id="Path_199168" data-name="Path 199168" d="M178.055,435.608a5.746,5.746,0,0,1-3.669-1.314,5.91,5.91,0,0,1-7.337,0,5.912,5.912,0,0,1-7.337,0,5.912,5.912,0,0,1-7.337,0,5.777,5.777,0,0,1-7.684-.31l.7-.72a4.776,4.776,0,0,0,6.642,0l.347-.336.348.335a4.776,4.776,0,0,0,6.642,0l.347-.336.348.335a4.775,4.775,0,0,0,6.641,0l.348-.336.348.336a4.776,4.776,0,0,0,6.641,0l.348-.336.348.336a4.776,4.776,0,0,0,6.641,0l.7.719a5.755,5.755,0,0,1-4.016,1.624" fill="#7db6f9"/>
    <path id="Path_199169" data-name="Path 199169" d="M69.585,445.5a5.751,5.751,0,0,1-3.669-1.315,5.773,5.773,0,0,1-7.336,0,5.773,5.773,0,0,1-7.684-.311l.695-.718a4.774,4.774,0,0,0,6.641,0l.348-.336.348.336a4.773,4.773,0,0,0,6.64,0l.348-.336.348.336a4.774,4.774,0,0,0,6.641,0l.7.719a5.749,5.749,0,0,1-4.016,1.625" fill="#7db6f9"/>
    <path id="Path_199170" data-name="Path 199170" d="M50.968,435.608a5.746,5.746,0,0,1-3.669-1.314,5.91,5.91,0,0,1-7.337,0,5.777,5.777,0,0,1-7.684-.31l.695-.72a4.775,4.775,0,0,0,6.641,0l.348-.336.348.336a4.776,4.776,0,0,0,6.641,0l.348-.336.348.336a4.776,4.776,0,0,0,6.641,0l.7.719a5.755,5.755,0,0,1-4.016,1.624" fill="#7db6f9"/>
    <path id="Path_199171" data-name="Path 199171" d="M215.949,435.608a5.746,5.746,0,0,1-3.669-1.314,5.91,5.91,0,0,1-7.337,0,5.776,5.776,0,0,1-7.684-.311l.695-.719a4.775,4.775,0,0,0,6.641,0l.348-.336.348.336a4.776,4.776,0,0,0,6.641,0l.348-.336.348.336a4.776,4.776,0,0,0,6.641,0l.7.719a5.755,5.755,0,0,1-4.016,1.624" fill="#7db6f9"/>
    <path id="Path_199172" data-name="Path 199172" d="M141.37,445.5a5.751,5.751,0,0,1-3.669-1.315,5.773,5.773,0,0,1-7.336,0,5.773,5.773,0,0,1-7.684-.311l.695-.718a4.774,4.774,0,0,0,6.641,0l.348-.336.348.336a4.773,4.773,0,0,0,6.64,0l.348-.336.348.336a4.774,4.774,0,0,0,6.641,0l.7.719a5.749,5.749,0,0,1-4.016,1.625" fill="#7db6f9"/>
    <path id="Path_199173" data-name="Path 199173" d="M281.527,445.5a5.751,5.751,0,0,1-3.669-1.314,5.778,5.778,0,0,1-7.337,0,5.776,5.776,0,0,1-7.684-.311l.7-.72a4.773,4.773,0,0,0,6.641,0l.348-.336.348.336a4.774,4.774,0,0,0,6.641,0l.348-.336.348.336a4.774,4.774,0,0,0,6.641,0l.7.719a5.749,5.749,0,0,1-4.016,1.625" fill="#7db6f9"/>
    <path id="Path_199174" data-name="Path 199174" d="M673.832,444.755h-2.69v-1h2.69Zm-11.69,0h-7v-1h7Zm-16,0h-7v-1h7Zm-16,0h-7v-1h7Zm-16,0h-7v-1h7Zm-16,0h-7v-1h7Zm-16,0h-7v-1h7Zm-16,0h-7v-1h7Zm-16,0h-7v-1h7Zm-16,0h-7v-1h7Zm-16,0h-7v-1h7Zm-16,0h-7v-1h7Zm-16,0h-7v-1h7Zm-16,0h-7v-1h7Zm-16,0h-7v-1h7Zm-16,0h-7v-1h7Zm-16,0h-7v-1h7Zm-16,0h-7v-1h7Zm-16,0h-7v-1h7Zm-16,0h-7v-1h7Zm-16,0h-7v-1h7Z" fill="#7db6f9"/>
    <path id="Path_199175" data-name="Path 199175" d="M214.551,184.7l-1-.087.052-.571,1,.093Zm.358-3.54-.994-.113q.17-1.5.368-2.987l.99.133q-.2,1.475-.364,2.967m.794-5.925-.989-.153q.234-1.494.5-2.971l.985.178q-.264,1.464-.495,2.946m1.058-5.88-.98-.2q.3-1.48.64-2.943l.975.225q-.334,1.451-.635,2.919m1.344-5.821-.969-.249q.376-1.464.791-2.908l.961.276q-.409,1.429-.783,2.881m1.646-5.74-.953-.3q.453-1.438.95-2.855l.943.33q-.489,1.4-.94,2.825m1.963-5.623-.933-.357q.537-1.408,1.118-2.795l.922.386q-.574,1.372-1.107,2.766m2.3-5.5-.91-.414q.624-1.372,1.292-2.722l.9.443q-.66,1.335-1.278,2.693m2.644-5.343-.881-.472q.713-1.329,1.47-2.634l.865.5q-.748,1.29-1.454,2.6m2.995-5.159-.848-.53q.8-1.278,1.646-2.531l.828.56q-.836,1.237-1.626,2.5m3.338-4.947-.809-.587q.885-1.22,1.818-2.414l.789.615q-.924,1.181-1.8,2.386m3.671-4.7-.766-.642q.966-1.152,1.976-2.279l.744.668q-1,1.114-1.954,2.253m3.982-4.439-.721-.693q1.039-1.082,2.124-2.139l.7.716q-1.074,1.045-2.1,2.116m4.272-4.162-.674-.739q1.107-1.011,2.259-2l.651.761q-1.141.974-2.236,1.974m4.532-3.877-.625-.78q1.169-.937,2.38-1.85l.6.8q-1.2.9-2.356,1.831m4.763-3.578-.562-.827q1.236-.843,2.53-1.648l.53.848q-1.277.795-2.5,1.627m128.919-2.983q-1.3-.714-2.636-1.391l.453-.892q1.347.684,2.664,1.406Zm-123.86-.168-.5-.869q1.3-.741,2.65-1.446l.462.886c-.886.464-1.76.941-2.615,1.429m118.545-2.534q-1.347-.633-2.716-1.232l.4-.916q1.381.6,2.741,1.243Zm-113.263-.232-.431-.9q1.348-.648,2.738-1.262l.4.915q-1.377.606-2.712,1.248m107.8-2.156q-1.38-.556-2.781-1.081l.35-.936q1.413.528,2.806,1.09Zm-102.335-.254-.378-.927q1.389-.562,2.811-1.093l.349.938q-1.409.523-2.782,1.082m96.744-1.834q-1.407-.484-2.834-.936l.3-.954q1.437.456,2.858.945Zm-91.148-.252-.321-.947q1.414-.483,2.862-.936l.3.954q-1.434.45-2.84.929M361.066,98.5q-1.431-.414-2.878-.8l.256-.967q1.459.387,2.9.805Zm-79.756-.232-.274-.962q1.441-.411,2.906-.791l.252.968q-1.453.376-2.884.785m73.983-1.3q-1.447-.35-2.913-.667l.213-.978q1.475.321,2.935.672Zm-68.2-.2-.228-.974q1.457-.343,2.938-.655l.207.978q-1.467.311-2.917.651m62.36-1.067q-1.464-.285-2.94-.54l.17-.985q1.486.256,2.961.544Zm-56.51-.169-.186-.983q1.471-.279,2.964-.527l.164.987q-1.479.246-2.942.523m50.621-.85q-1.475-.224-2.961-.418l.13-.991q1.5.195,2.981.421Zm-44.723-.134-.144-.989q1.486-.217,2.988-.4l.123.992q-1.49.185-2.967.4m38.8-.641q-1.485-.165-2.975-.3l.09-1q1.5.135,2.994.3Zm-32.852-.1-.1-1q1.5-.155,3-.282l.084,1q-1.5.127-2.982.282m26.9-.44q-1.492-.1-2.985-.182l.051-1q1.5.078,3,.184Zm-20.931-.062-.065-1q1.5-.1,3.01-.166l.045,1q-1.5.069-2.99.165m14.957-.244q-1.5-.047-2.993-.066l.015-1q1.5.02,3.009.067Zm-8.977-.027-.025-1q1.5-.039,3.012-.048l.006,1q-1.5.009-2.993.048" fill="#fff"/>
    <path id="Path_199176" data-name="Path 199176" d="M262.729,267.217q-.624-1.371-1.23-2.742l.914-.4q.6,1.365,1.226,2.732Zm-2.436-5.494q-.6-1.383-1.177-2.765l.922-.386q.578,1.377,1.173,2.755Zm-2.326-5.541q-.568-1.4-1.12-2.79l.93-.367q.549,1.389,1.116,2.779ZM359.2,251q-.321-1.465-.653-2.918l.974-.223q.335,1.456.656,2.927Zm-103.445-.414q-.541-1.41-1.063-2.819l.938-.348q.519,1.4,1.058,2.809Zm102.107-5.419q-.351-1.46-.717-2.907l.969-.245q.367,1.453.721,2.918Zm-104.2-.232q-.51-1.421-1-2.842l.945-.326q.488,1.414,1,2.832Zm102.734-5.573q-.384-1.453-.781-2.892l.963-.266q.4,1.443.785,2.9Zm-104.7-.123q-.476-1.433-.932-2.865l.954-.3q.453,1.427.927,2.854Zm103.1-5.649q-.417-1.441-.848-2.872l.957-.289q.434,1.436.851,2.883ZM249.867,233.5q-.439-1.443-.86-2.886l.959-.281q.42,1.437.858,2.875Zm103.2-5.642q-.449-1.433-.914-2.85l.951-.312q.467,1.424.918,2.863Zm-104.889-.143q-.4-1.454-.787-2.908l.967-.255q.383,1.448.783,2.9Zm103.027-5.545q-.486-1.424-.984-2.828l.944-.335q.5,1.412.987,2.839Zm-104.563-.28q-.365-1.465-.709-2.927l.973-.23q.342,1.457.707,2.915Zm102.562-5.364q-.522-1.407-1.054-2.8l.934-.358q.535,1.4,1.057,2.814Zm-103.941-.5q-.324-1.473-.628-2.945l.979-.2q.3,1.467.626,2.933Zm101.8-5.088q-.555-1.4-1.125-2.775l.924-.382q.573,1.386,1.131,2.786Zm-103.014-.812q-.282-1.48-.543-2.962l.984-.174q.261,1.475.542,2.948ZM344.779,205.4q-.594-1.38-1.2-2.743l.914-.407q.609,1.371,1.2,2.756ZM243.007,204.19q-.24-1.489-.456-2.976l.991-.145q.213,1.48.453,2.962Zm99.338-4.258q-.629-1.364-1.272-2.709l.9-.431q.646,1.35,1.279,2.72Zm-100.205-1.7q-.193-1.5-.365-2.989l.994-.113q.171,1.485.364,2.974Zm97.624-3.7q-.666-1.347-1.347-2.674l.89-.455q.684,1.332,1.354,2.683Zm-98.306-2.286q-.147-1.5-.27-3l1-.083q.123,1.491.27,2.982Zm95.574-3.041q-.7-1.324-1.423-2.632l.877-.482q.723,1.313,1.429,2.645Zm-96.066-2.96q-.1-1.5-.172-3.005l1-.05q.073,1.5.173,2.99Zm93.182-2.284q-.742-1.3-1.5-2.587l.861-.509q.762,1.292,1.508,2.6Zm-93.478-3.729q-.05-1.5-.073-3.008l1-.015q.024,1.494.073,2.991Zm90.439-1.426q-.781-1.28-1.578-2.541l.846-.534q.8,1.268,1.586,2.554Zm-89.535-4.59h-1q0-1.5.028-3.008l1,.017q-.025,1.5-.028,2.992m86.341-.468q-.819-1.257-1.656-2.491l.829-.561q.84,1.242,1.665,2.5Zm-3.352-4.957q-.858-1.229-1.734-2.439l.81-.586q.879,1.217,1.744,2.452Zm-82.88-.556-1-.035q.053-1.5.133-3.006l1,.054q-.079,1.491-.131,2.987m79.371-4.291q-.9-1.2-1.813-2.379l.791-.612q.918,1.187,1.823,2.392ZM242,162.262l-1-.069q.105-1.5.237-3l1,.087q-.131,1.491-.235,2.981m75.391-3.045q-.939-1.168-1.892-2.317l.769-.638q.96,1.154,1.9,2.329ZM242.521,156.3l-.994-.106q.159-1.5.343-2.988l.992.122q-.182,1.485-.341,2.972m71.045-1.688q-.977-1.137-1.97-2.251l.747-.665q1,1.12,1.981,2.264Zm-70.311-4.247-.991-.141q.21-1.486.448-2.974l.988.158q-.235,1.478-.445,2.957m66.333-.219q-1.017-1.1-2.048-2.18l.722-.691q1.038,1.085,2.06,2.193Zm-4.136-4.323q-1.055-1.062-2.123-2.1l.7-.716q1.076,1.045,2.137,2.117ZM244.2,144.464l-.984-.175q.261-1.476.553-2.956l.981.193q-.289,1.469-.55,2.938m56.969-2.808q-1.092-1.023-2.2-2.026l.671-.741q1.114,1.006,2.211,2.039ZM245.351,138.6l-.978-.21q.316-1.467.657-2.934l.975.227q-.341,1.46-.654,2.917m51.382-.953q-1.129-.985-2.272-1.944l.642-.766q1.152.966,2.286,1.956Zm-4.571-3.839q-1.161-.937-2.336-1.852l.613-.789q1.184.921,2.352,1.864Zm-45.452-1.029-.969-.244q.366-1.455.76-2.909l.965.261q-.39,1.445-.756,2.892m40.745-2.631q-1.194-.893-2.4-1.762l.583-.812q1.218.873,2.421,1.773Zm-39.181-3.138-.961-.279q.417-1.438.862-2.88l.955.3q-.441,1.43-.856,2.863m34.336-.341q-1.227-.848-2.472-1.671l.551-.833q1.252.828,2.489,1.681Zm-4.977-3.293q-1.26-.8-2.536-1.575l.52-.855q1.282.78,2.552,1.586Zm-27.6-2.078-.951-.31q.466-1.426.96-2.849l.945.327q-.489,1.417-.954,2.832m22.5-1.023q-1.293-.751-2.6-1.476l.487-.874q1.313.729,2.614,1.486Zm-5.225-2.9q-1.32-.7-2.654-1.374l.451-.893q1.344.68,2.672,1.384Zm-15.313-1.721-.94-.344q.515-1.407,1.056-2.813l.934.359q-.54,1.4-1.05,2.8m9.976-.976q-1.346-.648-2.707-1.27l.416-.909q1.369.627,2.725,1.28Zm-5.439-2.488q-1.372-.6-2.758-1.165l.381-.925q1.395.573,2.775,1.174Z" fill="#fff"/>
    <path id="Path_199177" data-name="Path 199177" d="M372.538,388.669q-.053-1.5-.117-2.993l1-.042q.063,1.5.117,3Zm-.252-5.983q-.074-1.494-.156-2.986l1-.055q.084,1.494.156,2.992Zm-.333-5.968q-.093-1.489-.2-2.979l1-.068q.1,1.491.2,2.985Zm-.411-5.968q-.114-1.494-.236-2.987l1-.082q.123,1.5.237,2.994Zm-.495-5.971q-.133-1.5-.276-2.985l1-.1q.143,1.494.277,2.991Zm-.57-5.967q-.153-1.491-.318-2.98l.995-.109q.164,1.491.317,2.987Zm-.654-5.957q-.172-1.49-.357-2.976l.992-.122q.184,1.49.359,2.982Zm-.734-5.949q-.193-1.488-.4-2.97l.989-.136q.205,1.486.4,2.977Zm-.814-5.937q-.215-1.485-.436-2.965l.989-.149q.222,1.483.437,2.971Zm-.893-5.928q-.232-1.48-.476-2.958l.987-.162q.243,1.48.478,2.965Zm-.973-5.913q-.252-1.479-.516-2.952l.985-.175q.261,1.477.517,2.959Zm-1.053-5.9q-.276-1.476-.557-2.945l.982-.189q.283,1.473.557,2.951Zm-1.133-5.886q-.292-1.47-.6-2.937l.978-.2q.3,1.47.6,2.944Zm-1.213-5.869q-.312-1.467-.635-2.928l.976-.216q.324,1.464.638,2.935Zm-1.292-5.853q-.333-1.461-.676-2.919l.973-.229q.345,1.461.678,2.926Zm-1.373-5.833q-.351-1.458-.716-2.91l.97-.242q.363,1.455.719,2.916Zm-1.452-5.815q-.375-1.452-.756-2.9l.967-.255q.383,1.449.758,2.9Zm-1.532-5.794q-.395-1.446-.8-2.889l.963-.268q.4,1.444.8,2.895Zm-1.611-5.772q-.414-1.441-.836-2.877l.958-.283q.426,1.44.838,2.885Zm-1.693-5.748q-.435-1.436-.876-2.867l.954-.295q.444,1.434.878,2.872Zm-1.771-5.726q-.453-1.43-.915-2.854l.951-.308q.462,1.426.918,2.859Zm-1.852-5.7c-.314-.949-.635-1.895-.956-2.84l.946-.322q.484,1.42.959,2.847ZM348.5,259.56q-.5-1.418-1-2.827l.943-.335q.5,1.413,1,2.832Zm-2.012-5.645q-.514-1.41-1.036-2.812l.937-.349q.523,1.405,1.038,2.818ZM344.4,248.3q-.535-1.4-1.077-2.8l.931-.362q.545,1.4,1.079,2.8Zm-2.176-5.585q-.551-1.4-1.115-2.781l.925-.376q.566,1.39,1.121,2.787Zm-2.251-5.553q-.576-1.386-1.158-2.764l.923-.39q.584,1.381,1.159,2.771Zm-2.335-5.521q-.594-1.377-1.2-2.746l.917-.4q.6,1.373,1.2,2.754Zm-2.414-5.484q-.615-1.368-1.237-2.729l.908-.416q.626,1.363,1.24,2.735Zm-2.5-5.449q-.633-1.359-1.277-2.709l.9-.43q.646,1.354,1.281,2.716Zm-2.576-5.409q-.654-1.35-1.318-2.69l.9-.445q.664,1.346,1.322,2.7Zm-2.659-5.371q-.675-1.34-1.359-2.669l.889-.458q.686,1.333,1.363,2.677Zm-2.74-5.329q-.695-1.329-1.4-2.648l.883-.471q.705,1.323,1.4,2.656Zm-2.822-5.287q-.715-1.317-1.441-2.625l.875-.486q.727,1.313,1.445,2.635Zm-2.9-5.241q-.735-1.307-1.483-2.6l.868-.5q.748,1.3,1.486,2.611Zm-2.987-5.194q-.756-1.295-1.525-2.579l.861-.513q.765,1.29,1.527,2.587Zm-3.07-5.146q-.78-1.282-1.567-2.554l.851-.526q.789,1.275,1.57,2.56Zm-3.154-5.1q-.8-1.269-1.607-2.528l.841-.54q.81,1.262,1.612,2.535Zm-3.236-5.042q-.819-1.256-1.649-2.5l.832-.555q.831,1.248,1.655,2.508Zm-3.321-4.988q-.842-1.24-1.692-2.472l.822-.568q.855,1.233,1.7,2.479Zm-3.4-4.93q-.861-1.227-1.732-2.443l.812-.582q.873,1.22,1.739,2.45Zm-3.489-4.87q-.885-1.212-1.777-2.412l.8-.6q.9,1.2,1.782,2.419ZM292.792,154q-.906-1.2-1.821-2.379l.792-.611q.918,1.188,1.825,2.387Zm-3.66-4.743q-.928-1.179-1.862-2.347l.781-.625q.938,1.171,1.868,2.354Zm-3.747-4.675q-.948-1.163-1.9-2.312l.77-.64q.959,1.153,1.911,2.319Zm-3.83-4.606q-.969-1.143-1.947-2.275l.756-.654q.981,1.136,1.955,2.283Zm-3.918-4.532q-.993-1.124-1.991-2.237l.743-.668q1,1.116,2,2.244Zm-4-4.455q-1.014-1.105-2.035-2.2l.73-.682q1.024,1.1,2.042,2.2Zm-4.094-4.375q-1.032-1.084-2.078-2.156l.718-.7q1.047,1.074,2.084,2.164Zm-124.2-1.918-.543-.84c.037-.024.928-.6,2.621-1.546l.489.872c-1.662.932-2.558,1.508-2.567,1.514m120.02-2.373q-1.055-1.063-2.12-2.113l.7-.712q1.07,1.053,2.13,2.121Zm-114.821-.56-.463-.887c.81-.422,1.71-.878,2.693-1.358l.439.9c-.975.477-1.868.928-2.669,1.347m5.373-2.628-.418-.908q1.3-.6,2.751-1.229l.4.917q-1.437.622-2.731,1.22M261.1,118.114q-1.077-1.041-2.165-2.068l.687-.726q1.09,1.029,2.174,2.075ZM161.4,116.752l-.377-.926q1.349-.552,2.8-1.11l.359.934q-1.44.553-2.782,1.1m5.586-2.147-.34-.941q1.383-.5,2.843-.994l.32.947q-1.451.492-2.823.988m89.757-.6q-1.1-1.019-2.21-2.021l.672-.741q1.111,1,2.217,2.028Zm-84.091-1.314-.3-.953q1.41-.446,2.88-.878l.281.959q-1.458.429-2.86.872M178.393,111l-.264-.965q1.433-.39,2.914-.763l.243.97q-1.472.371-2.893.758m73.866-.451q-1.452-.388-2.9-.741l.238-.972q1.452.357,2.915.748ZM184.2,109.54l-.225-.974q1.45-.334,2.943-.645l.2.978q-1.482.309-2.921.641m62.259-.415q-1.467-.327-2.924-.617l.2-.981q1.468.292,2.946.622Zm-56.406-.808-.183-.982q1.462-.276,2.965-.526l.163.986q-1.489.249-2.945.522m50.544-.363q-1.482-.261-2.949-.49l.154-.988q1.478.229,2.969.494Zm-44.644-.621-.145-.989q1.478-.216,2.985-.4l.123.992q-1.5.188-2.963.4m38.735-.295q-1.489-.2-2.966-.362l.11-.994q1.486.165,2.989.365Zm-32.8-.445-.1-1q1.485-.154,3-.28l.082,1q-1.5.125-2.977.278m26.864-.215q-1.5-.133-2.981-.232l.067-1q1.493.1,3,.234Zm-20.906-.278-.061-1q1.491-.091,3.008-.153l.039,1q-1.5.062-2.986.152m14.941-.122q-1.5-.069-2.987-.1l.023-1q1.5.036,3.009.1Zm-8.966-.118-.02-1q1.329-.025,2.673-.025h.338l0,1h-.334q-1.335,0-2.653.025" fill="#fff"/>
    <path id="Path_199178" data-name="Path 199178" d="M253.967,110.486l-.969-.249c.012-.044.283-1.092.892-2.921l.949.316c-.6,1.792-.869,2.844-.872,2.854m1.869-5.673-.938-.349c.323-.862.69-1.8,1.1-2.814l.926.38c-.41,1-.774,1.931-1.092,2.783m2.269-5.533-.914-.407q.59-1.32,1.272-2.74l.9.435q-.677,1.4-1.258,2.712m2.6-5.386-.888-.46q.676-1.3,1.429-2.659l.873.486q-.746,1.341-1.414,2.633m2.908-5.222-.86-.513q.759-1.271,1.587-2.568l.842.539q-.82,1.283-1.569,2.542m3.215-5.034L266,83.074q.842-1.229,1.744-2.465l.807.592q-.9,1.221-1.725,2.437m3.526-4.818-.787-.617q.921-1.173,1.9-2.344l.765.644q-.971,1.155-1.88,2.317m3.838-4.567-.743-.669q1-1.111,2.06-2.206l.719.7q-1.047,1.08-2.036,2.179m4.151-4.282-.691-.722q1.078-1.035,2.218-2.048l.664.748q-1.125,1-2.191,2.022m4.457-3.957-.635-.772q1.158-.951,2.371-1.869l.6.8q-1.2.9-2.34,1.843m4.752-3.591-.57-.821q1.23-.855,2.515-1.671l.535.844q-1.268.805-2.48,1.648m5.027-3.191-.5-.866q1.3-.75,2.644-1.456l.465.886q-1.329.7-2.609,1.436m5.275-2.759-.426-.9q1.354-.636,2.757-1.227l.388.922q-1.383.581-2.719,1.21m5.488-2.305-.348-.937q1.4-.522,2.852-.993l.309.951q-1.431.465-2.813.979" fill="#fff"/>
    <path id="Path_199179" data-name="Path 199179" d="M58.393,404.922l-1-.027q.036-1.33.083-2.662l1,.034q-.045,1.328-.083,2.655m.2-5.649-1-.042q.064-1.5.137-3l1,.049q-.074,1.5-.135,2.993m.291-5.985-1-.055q.084-1.5.179-3l1,.063q-.1,1.494-.179,2.99m.379-5.979-1-.07q.1-1.5.222-2.994l1,.077q-.115,1.492-.22,2.987m.462-5.972-1-.084q.126-1.494.263-2.99l1,.092q-.138,1.491-.264,2.982m.549-5.963-.995-.1q.147-1.494.305-2.985l.994.105q-.157,1.49-.3,2.978m.631-5.952-.995-.113q.169-1.491.35-2.98l.992.121q-.18,1.485-.347,2.972m.717-5.942-.992-.127q.191-1.488.392-2.974l.99.134q-.2,1.482-.39,2.967m.8-5.93-.99-.141q.21-1.485.434-2.967l.989.149q-.223,1.479-.433,2.959m.888-5.915-.989-.155q.233-1.48.477-2.96l.986.163q-.243,1.474-.474,2.952m.974-5.9-.986-.169q.255-1.479.52-2.952l.984.177q-.266,1.47-.518,2.944m1.056-5.884-.982-.184q.274-1.473.561-2.943l.983.191q-.287,1.467-.562,2.936m1.146-5.867-.981-.2q.3-1.469.606-2.934l.978.206q-.307,1.461-.6,2.926m1.228-5.847-.976-.214q.318-1.464.649-2.924l.975.221q-.329,1.457-.648,2.917m1.318-5.827-.974-.228q.341-1.458.692-2.913l.973.235q-.353,1.45-.691,2.906m1.4-5.806-.971-.242q.363-1.453.737-2.9l.968.25q-.374,1.444-.734,2.894m1.491-5.782-.967-.257q.385-1.447.78-2.89l.965.265q-.395,1.439-.778,2.882m1.579-5.758-.963-.271q.408-1.441.825-2.877l.96.28q-.417,1.432-.822,2.868m1.667-5.73-.957-.287q.429-1.433.869-2.862l.955.294q-.438,1.425-.867,2.855m1.755-5.7-.953-.3q.453-1.434.918-2.861l.951.31q-.465,1.422-.916,2.853m1.853-5.7-.947-.319q.479-1.425.964-2.845l.945.325q-.484,1.416-.962,2.839m1.946-5.669-.943-.333q.5-1.418,1.009-2.829l.941.34q-.509,1.408-1.007,2.822m2.038-5.635-.938-.348q.522-1.41,1.056-2.812l.936.355q-.534,1.4-1.054,2.8m2.13-5.6-.932-.364q.546-1.4,1.1-2.794l.927.371q-.555,1.389-1.1,2.787m2.223-5.563-.925-.38q.57-1.39,1.151-2.775l.922.387q-.579,1.38-1.148,2.768m2.319-5.526-.918-.4q.593-1.38,1.2-2.754l.916.4q-.6,1.371-1.195,2.748m2.413-5.484-.912-.411q.618-1.371,1.247-2.734l.908.419q-.629,1.359-1.243,2.726m2.51-5.44-.9-.427q.644-1.361,1.295-2.711l.9.435q-.651,1.347-1.291,2.7m2.606-5.394-.9-.443q.667-1.349,1.344-2.688l.893.451q-.677,1.336-1.341,2.68m2.705-5.346-.889-.459q.691-1.337,1.4-2.662l.883.467q-.7,1.323-1.389,2.654m2.8-5.294-.879-.477q.717-1.322,1.443-2.634l.875.484q-.725,1.31-1.439,2.627m2.9-5.24-.871-.493q.741-1.308,1.494-2.608l.865.5q-.75,1.294-1.488,2.6m3-5.182-.859-.51q.765-1.295,1.544-2.578l.855.519q-.774,1.279-1.54,2.569m3.106-5.124-.85-.526q.791-1.28,1.6-2.546l.843.535q-.8,1.263-1.589,2.537m3.208-5.058-.84-.544q.819-1.262,1.647-2.513l.834.552q-.827,1.248-1.641,2.5M118,207.285l-.828-.561q.845-1.246,1.7-2.479l.823.57q-.854,1.23-1.694,2.47m3.413-4.922-.816-.578q.87-1.227,1.753-2.442l.808.587q-.877,1.212-1.745,2.433m3.518-4.846-.8-.6q.9-1.208,1.8-2.4l.8.6q-.906,1.191-1.8,2.4m3.622-4.77-.789-.613q.921-1.187,1.856-2.363l.784.622q-.933,1.171-1.851,2.354m3.727-4.687-.775-.63q.948-1.167,1.91-2.321l.768.641q-.957,1.149-1.9,2.31m3.832-4.6-.761-.648q.977-1.145,1.964-2.276l.754.658q-.985,1.127-1.957,2.266m3.939-4.508-.746-.668q1-1.121,2.016-2.228l.739.675q-1.011,1.1-2.009,2.221m4.044-4.418-.729-.683q1.029-1.1,2.07-2.181l.72.694q-1.035,1.078-2.061,2.17m4.149-4.316-.713-.7q1.057-1.074,2.123-2.13l.7.711q-1.062,1.053-2.114,2.12M152.5,166l-.695-.718q1.083-1.045,2.176-2.076l.685.728q-1.087,1.024-2.166,2.066m4.349-4.1-.676-.736q1.1-1.014,2.219-2.011l.666.745q-1.11.993-2.209,2m4.443-3.976-.656-.754q1.13-.985,2.271-1.953l.646.761q-1.136.966-2.261,1.946m4.547-3.861-.637-.771q1.155-.956,2.323-1.894l.627.779q-1.163.935-2.313,1.886m4.651-3.742-.618-.787q1.182-.926,2.374-1.833l.606.8q-1.187.9-2.362,1.824m4.75-3.617-.6-.8q1.206-.893,2.425-1.769l.584.813q-1.214.872-2.414,1.76m4.851-3.487-.572-.821q1.231-.858,2.473-1.7l.561.827q-1.236.839-2.462,1.7m4.948-3.356-.549-.835q1.256-.826,2.523-1.634l.537.844q-1.262.8-2.511,1.625m5.044-3.216-.525-.85q1.278-.792,2.569-1.563l.514.858q-1.285.768-2.558,1.555m5.139-3.074-.5-.865q1.3-.755,2.615-1.489l.489.872q-1.308.732-2.6,1.482m5.227-2.928-.476-.879q1.323-.717,2.66-1.414l.463.887q-1.331.693-2.647,1.406m5.314-2.776-.449-.893q1.344-.678,2.7-1.337l.437.9q-1.35.657-2.689,1.331m5.4-2.622-.423-.9q1.364-.641,2.742-1.259l.41.912q-1.371.617-2.729,1.252m5.478-2.465-.4-.917q1.377-.6,2.769-1.173l.383.923q-1.385.574-2.755,1.167m5.526-2.293-.369-.929q1.395-.555,2.8-1.091l.355.935q-1.4.532-2.788,1.085m5.591-2.129-.342-.94q1.411-.513,2.833-1.007l.328.944q-1.414.492-2.819,1m5.652-1.964-.314-.949q1.427-.471,2.861-.924l.3.954q-1.43.45-2.848.919m5.708-1.8-.287-.958q1.438-.429,2.888-.839l.272.962q-1.441.408-2.873.835m5.757-1.628-.258-.966q1.449-.389,2.91-.754l.244.97q-1.453.365-2.9.75m5.8-1.46-.23-.973q1.458-.346,2.929-.67l.217.976q-1.464.324-2.916.667" fill="#fff"/>
    <path id="Path_199180" data-name="Path 199180" d="M170.993,419.162l-1-.048q.071-1.509.161-3l1,.059q-.09,1.486-.161,2.989m.359-5.974-1-.073q.111-1.508.239-3l1,.087q-.129,1.482-.237,2.983m.514-5.963-.995-.1q.15-1.5.319-2.99l.994.114q-.168,1.476-.318,2.974m.675-5.946-.992-.126q.19-1.5.4-2.979l.99.141q-.21,1.471-.4,2.964m.84-5.924-.988-.155q.234-1.494.485-2.967l.987.169q-.252,1.467-.484,2.953M373.706,390.6l-.994-.106q.072-.672.151-1.339l-.885.292q-.473-1.428-.952-2.84l.947-.323q.459,1.35.909,2.713.092-.752.193-1.495l.99.134q-.2,1.467-.359,2.964M174.39,389.457l-.982-.182q.274-1.488.571-2.952l.98.2q-.294,1.458-.569,2.937m200.122-4.773-.986-.166q.252-1.5.549-2.966l.98.2q-.294,1.447-.543,2.932m-4.468-.907q-.5-1.418-1.012-2.819l.939-.343q.514,1.407,1.017,2.828Zm-194.471-.184-.977-.213q.321-1.478.66-2.932l.975.226q-.339,1.449-.658,2.919M375.7,378.841l-.973-.234q.357-1.479.763-2.919l.963.271q-.4,1.42-.753,2.882m-7.712-.689q-.533-1.406-1.076-2.794l.931-.364q.545,1.394,1.08,2.8Zm-191.056-.386-.971-.242q.366-1.467.751-2.912l.967.258q-.384,1.437-.747,2.9m200.39-4.656-.95-.312q.475-1.446,1.005-2.848l.936.353q-.522,1.381-.991,2.807m-11.518-.532q-.567-1.392-1.142-2.768l.921-.387q.58,1.381,1.147,2.778Zm-187.333-.593-.963-.272q.414-1.457.844-2.887l.957.288q-.428,1.423-.838,2.871m200.961-4.437-.918-.4c.4-.929.832-1.852,1.274-2.743l.9.445c-.435.876-.856,1.783-1.252,2.7m-15.947-.492q-.6-1.377-1.208-2.738l.912-.409q.613,1.367,1.214,2.75Zm-183.293-.8-.953-.3q.458-1.443.935-2.859l.947.32q-.474,1.408-.929,2.841m201.882-4.031-.871-.491c.494-.877,1.019-1.751,1.56-2.6l.842.539c-.53.83-1.046,1.688-1.531,2.549m-21.041-.628q-.633-1.362-1.279-2.707l.9-.432q.648,1.35,1.284,2.717ZM182.1,360.587l-.943-.334q.505-1.426,1.029-2.827l.936.35q-.519,1.393-1.022,2.811m203.181-3.366-.811-.587c.6-.82,1.217-1.627,1.848-2.4l.773.634c-.619.755-1.228,1.546-1.81,2.35M358.439,356.2q-.666-1.344-1.35-2.671l.889-.457q.686,1.334,1.357,2.683Zm-174.247-1.218-.93-.366q.554-1.407,1.123-2.789l.924.381q-.567,1.374-1.117,2.774m204.846-2.348-.735-.68c.681-.734,1.395-1.461,2.122-2.158l.692.722c-.713.684-1.413,1.4-2.079,2.116M355.7,350.878q-.7-1.326-1.422-2.632l.877-.482q.722,1.314,1.428,2.645Zm-169.232-1.423-.918-.4q.6-1.389,1.219-2.75l.91.413q-.615,1.354-1.211,2.735m206.851-.922-.647-.763c.764-.648,1.56-1.284,2.363-1.889l.6.8c-.789.594-1.568,1.217-2.318,1.853m-40.5-2.9q-.742-1.3-1.5-2.591l.861-.507q.761,1.293,1.505,2.6Zm45.242-.671-.555-.832c.831-.554,1.694-1.1,2.563-1.607l.508.861c-.854.5-1.7,1.035-2.516,1.578m-209.121-.958-.9-.427q.648-1.368,1.312-2.708l.9.445q-.662,1.33-1.305,2.69m214.236-2.062-.463-.886c.877-.457,1.79-.9,2.714-1.329l.418.908c-.909.418-1.807.858-2.669,1.307m-53.389-1.467q-.781-1.283-1.575-2.546l.848-.532q.8,1.269,1.58,2.557Zm58.79-1.019-.375-.927q1.38-.558,2.824-1.069l.334.942q-1.422.5-2.783,1.054M191.6,338.646l-.889-.459q.7-1.344,1.407-2.66l.879.476q-.707,1.307-1.4,2.643m222.593-1.178-.295-.956q.85-.261,1.721-.508l.027-.5,1,.048-.066,1.22-.345.1q-1.035.288-2.04.6M346.6,335.409q-.814-1.257-1.648-2.495l.83-.558q.836,1.245,1.658,2.509Zm-152.165-2.027-.871-.49q.741-1.32,1.5-2.609l.861.507q-.752,1.281-1.489,2.592m222.323-.835-1-.029q.043-1.5.053-2.989l1,.006q-.009,1.5-.053,3.012m-73.495-2.1q-.857-1.23-1.727-2.442l.812-.584q.875,1.218,1.735,2.455Zm-145.8-2.221-.853-.521q.789-1.293,1.591-2.554l.843.537q-.8,1.252-1.581,2.538m218.332-1.682q-.025-1.5-.091-2.985l1-.043q.064,1.494.091,3.011Zm-76.023-.953q-.9-1.2-1.806-2.385l.793-.61q.914,1.189,1.816,2.4Zm-139.1-2.415-.834-.55q.834-1.266,1.681-2.5l.824.566q-.84,1.224-1.671,2.48m135.453-2.326q-.935-1.17-1.883-2.323l.771-.636q.955,1.158,1.894,2.336Zm79.412-.271q-.106-1.5-.253-2.975l1-.1q.145,1.491.255,3Zm-211.479-2.334-.814-.58q.88-1.236,1.769-2.435l.8.6q-.883,1.193-1.758,2.419m410.865-.829-.36-.4.74-.671.368.409Zm-282.6-1.181q-.972-1.14-1.96-2.258l.75-.662q.994,1.125,1.972,2.272Zm280.219-1.426q-1.02-1.094-2.057-2.174l.721-.692q1.043,1.084,2.068,2.185Zm-197.6-.169q-.195-1.486-.434-2.952l.987-.161q.242,1.48.439,2.983Zm-207.324-1.2-.793-.609q.924-1.2,1.856-2.369l.781.624q-.925,1.16-1.844,2.354m120.743-1.686q-1.011-1.105-2.037-2.189l.726-.688q1.033,1.09,2.049,2.2Zm280.028-1.261q-1.053-1.064-2.124-2.112l.7-.715q1.077,1.055,2.136,2.124Zm-397.042-1.73-.769-.637q.967-1.17,1.939-2.3l.759.651q-.968,1.125-1.929,2.287m202.627-.005q-.293-1.469-.636-2.913l.973-.231q.348,1.463.644,2.948Zm-89.718-1.341q-1.043-1.065-2.105-2.11l.7-.713q1.068,1.052,2.119,2.123ZM604.106,306.3q-1.086-1.034-2.187-2.051l.678-.734q1.107,1.023,2.2,2.06Zm-388.865-2.076-.746-.665q1.01-1.135,2.021-2.23l.734.679q-1,1.088-2.009,2.216M320,303.228q-1.082-1.029-2.18-2.036l.675-.738q1.105,1.014,2.195,2.049Zm92.59-.273c-.266-.96-.553-1.911-.854-2.853l.951-.306q.461,1.433.866,2.892Zm187.109-.728q-1.114-1-2.245-1.987l.659-.754q1.133.992,2.255,2Zm-380.4-2.4-.722-.692q1.052-1.1,2.1-2.155l.711.7q-1.041,1.05-2.088,2.143m96.305-.63q-1.119-.99-2.254-1.959l.648-.76q1.143.975,2.268,1.97Zm279.578-.907q-1.143-.969-2.3-1.923l.637-.771q1.161.958,2.31,1.931ZM410.765,297.28q-.518-1.4-1.09-2.775l.922-.385q.584,1.392,1.106,2.815Zm-187.251-1.7-.7-.716q1.091-1.064,2.177-2.079l.683.729q-1.079,1.011-2.163,2.066m87.548-.26q-1.155-.949-2.324-1.878l.621-.783q1.178.933,2.338,1.889Zm279.494-.842q-1.17-.936-2.353-1.858l.613-.789q1.19.926,2.365,1.866Zm-182.089-2.689c-.42-.891-.867-1.786-1.329-2.661l.885-.467c.469.888.923,1.8,1.348,2.7ZM306.379,291.6q-1.188-.909-2.392-1.8l.593-.806q1.212.893,2.407,1.806Zm-78.5-.117-.67-.743q1.132-1.023,2.252-2l.657.754q-1.113.969-2.239,1.987m357.944-.694q-1.194-.9-2.4-1.793l.592-.8q1.215.893,2.414,1.8Zm-284.262-2.738q-1.221-.864-2.457-1.709l.564-.826q1.243.849,2.471,1.72Zm-69.171-.5-.643-.766q1.173-.984,2.324-1.916l.629.778q-1.143.926-2.31,1.9m348.6-.315q-1.219-.871-2.451-1.729l.573-.82q1.234.859,2.46,1.736Zm-175.3-.706c-.5-.841-1.024-1.691-1.569-2.526l.837-.547c.554.847,1.09,1.711,1.593,2.567Zm-109.071-1.854q-1.251-.82-2.518-1.622l.533-.846q1.276.807,2.533,1.632Zm279.455-.866q-1.243-.84-2.495-1.665l.549-.835q1.258.828,2.506,1.672Zm-339.029-.023L236.43,283q1.214-.945,2.394-1.828l.6.8q-1.172.881-2.378,1.818m165.391-2.233c-.575-.8-1.181-1.592-1.8-2.367l.781-.624c.628.787,1.244,1.6,1.828,2.4Zm-110.882-.079q-1.278-.777-2.575-1.534l.5-.864q1.3.762,2.591,1.544Zm279.511-.961q-1.265-.809-2.536-1.6l.528-.849q1.278.795,2.547,1.607Zm-329.23-.317-.584-.812q1.255-.9,2.462-1.736l.569.822q-1.2.83-2.447,1.726m44.54-1.746q-1.3-.734-2.628-1.445l.475-.88q1.329.715,2.644,1.453Zm279.6-1.106q-1.281-.775-2.575-1.536l.508-.862q1.3.763,2.585,1.542ZM398.727,276.9c-.642-.732-1.318-1.469-2.011-2.191l.721-.692c.7.733,1.391,1.481,2.042,2.224Zm-151.967-.113-.553-.834q1.3-.863,2.531-1.639l.535.845q-1.219.772-2.513,1.628m34.334-1.188q-1.327-.684-2.669-1.351l.444-.9q1.35.669,2.684,1.358ZM560.8,274.3q-1.3-.742-2.613-1.471l.486-.874q1.316.73,2.623,1.477Zm-308.981-.715-.518-.855q1.365-.825,2.6-1.532l.5.867q-1.225.7-2.581,1.52m23.913-.642q-1.349-.641-2.712-1.261l.414-.911q1.373.625,2.727,1.269Zm118.872-.33q-1.069-1.017-2.2-2l.656-.754q1.148,1,2.232,2.033Zm160.955-1.224q-1.318-.711-2.648-1.407l.465-.886q1.334.7,2.658,1.413Zm-298.544-.784-.477-.879c1-.539,1.894-1.006,2.68-1.4l.451.892c-.778.393-1.667.856-2.654,1.39m13.271-.14q-1.368-.6-2.751-1.173l.384-.923q1.391.579,2.767,1.179ZM390.121,268.7q-1.152-.921-2.362-1.813l.592-.8q1.229.9,2.395,1.838Zm160.128-.1q-1.334-.679-2.679-1.343l.443-.9q1.348.668,2.69,1.349Zm-285.483-.442q-.783-.313-1.573-.619c-.165.071-.442.193-.823.367l-.417-.909c1.222-.559,1.225-.56,1.456-.444.548.21,1.139.441,1.728.676Zm280.109-2.212q-1.35-.648-2.711-1.279l.422-.907q1.365.633,2.721,1.284Zm-159.548-.784q-1.221-.828-2.5-1.627l.532-.848q1.291.81,2.526,1.648Zm154.113-1.743q-1.367-.616-2.739-1.216l.4-.916q1.379.6,2.749,1.22Zm-159.161-1.421q-1.278-.738-2.606-1.451l.473-.881q1.342.72,2.633,1.467Zm153.669-.977q-1.382-.584-2.767-1.151l.379-.926q1.392.571,2.776,1.156Zm-158.926-1.839q-1.323-.654-2.694-1.284l.418-.908q1.383.635,2.719,1.3Zm153.38-.432q-1.392-.551-2.791-1.087l.357-.934q1.406.538,2.8,1.092ZM369.6,256.7q-1.357-.576-2.763-1.132l.368-.93q1.416.559,2.786,1.142Zm153.209-.084q-1.4-.518-2.814-1.023l.335-.941q1.418.506,2.827,1.027Zm-5.639-2.013q-1.418-.487-2.838-.959l.315-.949q1.426.473,2.848.962Zm-153.125-.1q-1.386-.507-2.818-.992l.322-.948q1.44.49,2.84,1Zm147.44-1.791q-1.425-.455-2.857-.894l.293-.956q1.437.441,2.869.9ZM361.721,252.5l-.351-.937q1.406-.528,2.825-1.031l.334.942q-1.411.5-2.808,1.026m144.038-1.54q-1.437-.425-2.876-.83l.272-.962q1.446.408,2.887.833Zm-138.4-.461-.319-.949q1.425-.477,2.858-.933l.3.953q-1.425.453-2.842.929M500,249.335q-1.446-.39-2.894-.765l.25-.968q1.455.375,2.9.767Zm-126.946-.644-.287-.958q1.439-.431,2.887-.838l.271.963q-1.441.405-2.871.833m121.15-.853q-1.451-.357-2.908-.7l.229-.973q1.461.342,2.92.7Zm-115.395-.768-.256-.966q1.452-.384,2.911-.745l.24.97q-1.451.36-2.895.741m109.572-.6q-1.459-.326-2.924-.633l.207-.979q1.467.311,2.934.636Zm-103.767-.839-.225-.975q1.463-.337,2.934-.654l.211.978q-1.465.315-2.92.651m97.913-.394q-1.467-.291-2.936-.567l.184-.983q1.475.276,2.947.569Zm-92.068-.862-.2-.981q1.473-.293,2.952-.565l.18.984q-1.473.27-2.937.562m86.191-.239q-1.475-.258-2.948-.5l.162-.988q1.479.243,2.958.5ZM396.34,243.3l-.166-.986q1.479-.251,2.967-.478l.152.988q-1.48.228-2.953.476m74.409-.124q-1.479-.224-2.958-.432l.139-.99q1.485.208,2.97.434Zm-68.5-.785-.136-.99q1.485-.207,2.978-.393l.123.993q-1.485.185-2.965.39m62.579-.044q-1.483-.19-2.965-.363l.115-.994q1.488.174,2.977.365Zm-5.934-.693q-1.486-.154-2.973-.293l.092-1q1.491.14,2.984.295Zm-50.71,0-.109-.994q1.491-.165,2.988-.31l.1,1q-1.488.146-2.974.309m44.76-.549q-1.49-.12-2.978-.223l.069-1q1.494.1,2.989.224Zm-38.806-.027-.082-1q1.494-.125,3-.229l.068,1q-1.494.1-2.982.227m32.848-.384q-1.491-.084-2.982-.151l.045-1q1.5.066,2.993.152Zm-26.879-.031-.057-1q1.5-.085,3-.149l.043,1q-1.5.063-2.987.148m20.915-.236q-1.492-.048-2.984-.079l.02-1q1.5.032,3,.08Zm-14.938-.022-.031-1q1.5-.045,3-.071l.018,1q-1.5.025-2.991.071m8.969-.1q-.942-.008-1.882-.007l-1.1,0-.006-1,1.11,0q.943,0,1.89.007Z" fill="#fff"/>
    <path id="Path_199181" data-name="Path 199181" d="M336.285,422.713q-.07-.957-.147-1.912l1-.081q.076.959.148,1.92Zm-.406-4.89q-.141-1.49-.3-2.969l.994-.107q.158,1.488.3,2.982Zm-.633-5.944q-.177-1.488-.372-2.97l.992-.13q.2,1.486.372,2.982Zm-.781-5.935q-.215-1.484-.448-2.96l.989-.156q.232,1.483.449,2.972Zm-.933-5.913q-.252-1.478-.523-2.948l.984-.18q.271,1.476.525,2.959Zm-1.083-5.888q-.289-1.464-.6-2.921l.979-.207q.309,1.464.6,2.935Zm-1.234-5.837q-.327-1.457-.673-2.907l.972-.232q.35,1.457.677,2.919Zm-1.386-5.8q-.363-1.449-.749-2.889l.967-.258q.385,1.447.753,2.9Zm-1.537-5.771q-.4-1.439-.825-2.869l.959-.283q.425,1.438.829,2.883ZM326.6,371q-.441-1.428-.9-2.848l.951-.309q.463,1.428.9,2.862Zm-1.841-5.686q-.479-1.418-.976-2.825l.943-.333q.5,1.414.981,2.838Zm-1.992-5.638q-.514-1.4-1.05-2.8l.934-.358q.537,1.4,1.056,2.813Zm-2.135-5.587q-.555-1.391-1.124-2.774l.923-.382q.574,1.389,1.13,2.786Zm-2.284-5.532q-.591-1.375-1.2-2.745l.914-.4q.609,1.374,1.2,2.755Zm-2.427-5.474q-.626-1.361-1.268-2.714l.9-.429q.645,1.359,1.272,2.725Zm-2.571-5.414q-.657-1.344-1.335-2.682l.893-.451q.68,1.342,1.341,2.694Zm-2.7-5.347q-.691-1.329-1.4-2.649l.881-.474q.713,1.328,1.408,2.661Zm-2.838-5.282q-.725-1.311-1.467-2.615l.869-.495q.745,1.31,1.473,2.626Zm-2.967-5.212q-.758-1.293-1.533-2.58l.858-.516q.777,1.291,1.538,2.591Zm-3.094-5.142q-.787-1.275-1.593-2.543l.844-.537q.809,1.273,1.6,2.554Zm-3.218-5.069q-.818-1.257-1.652-2.507l.832-.555q.837,1.256,1.658,2.517Zm-3.332-4.995q-.848-1.238-1.711-2.47l.818-.574q.867,1.236,1.717,2.479Zm-3.447-4.92q-.874-1.218-1.766-2.432l.807-.591q.893,1.217,1.771,2.44Zm-3.558-4.844q-.9-1.2-1.811-2.384l.793-.61q.916,1.194,1.817,2.393Zm-3.647-4.75q-.924-1.174-1.862-2.345l.78-.626q.942,1.173,1.869,2.353Zm-3.747-4.673q-.946-1.156-1.91-2.307l.768-.641q.966,1.155,1.915,2.315Zm-3.841-4.6q-.972-1.139-1.955-2.269l.754-.656q.987,1.134,1.961,2.276Zm-3.932-4.517q-.995-1.119-2-2.231l.742-.671q1.01,1.115,2.006,2.238Zm-4.019-4.443q-1.014-1.1-2.041-2.192L267.7,271q1.03,1.1,2.047,2.2Zm-4.1-4.366q-1.034-1.08-2.081-2.154l.717-.7q1.05,1.077,2.087,2.161Z" fill="#fff"/>
    <path id="Path_199182" data-name="Path 199182" d="M515.588,422.831q-.465-1.434-.948-2.836l.945-.325q.486,1.41.954,2.851ZM394.094,422.7q-.066-1.383-.111-2.754l1-.033q.045,1.365.109,2.74Zm119.547-5.522q-.517-1.416-1.051-2.8l.934-.361q.537,1.392,1.056,2.816Zm-119.733-.239q-.025-1.509-.027-3.007h1q0,1.49.027,2.991ZM511.49,411.6q-.57-1.395-1.156-2.757l.918-.395q.591,1.369,1.163,2.774ZM394.9,410.939l-1-.016q.023-1.511.073-3.007l1,.033q-.049,1.488-.073,2.99m114.222-4.829q-.624-1.371-1.264-2.707l.9-.433q.645,1.346,1.273,2.727ZM395.1,404.96l-1-.05q.076-1.509.179-3l1,.069q-.1,1.485-.179,2.985m111.442-4.238q-.68-1.344-1.376-2.651l.883-.471q.7,1.317,1.386,2.671Zm-111.031-1.728-1-.087q.131-1.5.29-3l.994.105q-.157,1.482-.288,2.977m108.223-3.545q-.736-1.314-1.49-2.589l.861-.508q.759,1.284,1.5,2.607Zm-107.589-2.4-.992-.124q.188-1.5.4-2.983l.99.145q-.216,1.474-.4,2.962M500.7,390.3q-.8-1.279-1.607-2.518l.838-.547q.816,1.248,1.618,2.536ZM397.01,387.131l-.986-.164q.249-1.491.526-2.965l.983.186q-.276,1.464-.523,2.943m100.414-1.824q-.854-1.24-1.723-2.438l.81-.587q.875,1.209,1.737,2.458Zm-99.308-4.052-.979-.205q.309-1.475.648-2.933l.975.226q-.338,1.449-.644,2.912m95.8-.782q-.912-1.2-1.841-2.351l.78-.627q.936,1.164,1.856,2.371Zm-3.74-4.656q-.972-1.149-1.957-2.255l.746-.665q.993,1.115,1.975,2.275Zm-90.712-.372-.969-.247q.372-1.459.776-2.9l.963.269q-.4,1.433-.77,2.882m86.74-4.087q-1.031-1.1-2.072-2.151l.711-.7q1.05,1.061,2.09,2.17ZM401.069,369.7l-.957-.29q.437-1.441.9-2.867l.951.312q-.464,1.415-.9,2.845m80.942-2.586q-1.084-1.043-2.181-2.039l.674-.739q1.1,1,2.2,2.057Zm-79.08-3.084-.943-.333q.5-1.42,1.035-2.825l.935.356q-.529,1.392-1.027,2.8m74.663-.935q-1.14-.984-2.285-1.92l.633-.774q1.155.943,2.306,1.937Zm-4.622-3.778q-1.194-.922-2.387-1.795l.59-.807q1.2.881,2.408,1.811Zm-67.922-.868-.926-.377q.567-1.395,1.168-2.774l.916.4q-.594,1.366-1.158,2.751m63.1-2.657q-1.242-.858-2.481-1.664l.547-.837q1.246.813,2.5,1.678Zm-60.719-2.818-.906-.421q.633-1.366,1.3-2.716l.9.441q-.658,1.34-1.288,2.7m55.714-.441q-1.289-.791-2.566-1.528l.5-.866q1.29.744,2.589,1.541Zm-5.174-2.986q-1.33-.72-2.645-1.387l.453-.891q1.327.672,2.669,1.4Zm-47.9-1.933-.887-.463q.7-1.335,1.427-2.653l.875.484q-.724,1.308-1.415,2.632m42.573-.771q-1.371-.649-2.717-1.245l.4-.914q1.357.6,2.741,1.256Zm-5.465-2.415q-1.407-.576-2.781-1.1l.355-.935q1.384.525,2.8,1.107Zm-34.216-2.044-.863-.505q.76-1.3,1.551-2.582l.851.524q-.785,1.273-1.539,2.563m28.627-.076q-1.443-.5-2.835-.948l.3-.952q1.4.447,2.86.955Zm-5.695-1.818q-1.482-.429-2.884-.792l.252-.968c.941.245,1.913.511,2.909.8Zm-5.788-1.5q-1.53-.351-2.924-.628l.2-.981q1.407.282,2.953.634Zm-5.868-1.168c-1.08-.181-2.07-.327-2.958-.445l.13-.991c.9.119,1.9.266,2.994.45Zm-8.139-.522-.838-.547.568-.865.277.006c.033,0,.831.021,2.291.153l-.09,1c-.938-.085-1.6-.122-1.949-.138Z" fill="#fff"/>
    <path id="Path_199183" data-name="Path 199183" d="M408.224,58.725c0,16.874-21.429,48.321-24.854,48.321s-24.853-30.691-24.853-48.321a24.854,24.854,0,1,1,49.707,0" fill="#e8615b"/>
    <path id="Path_199184" data-name="Path 199184" d="M395.749,59.009A12.38,12.38,0,1,1,383.37,46.63a12.379,12.379,0,0,1,12.379,12.379" fill="#fff"/>
    <path id="Path_199185" data-name="Path 199185" d="M383.37,71.889a12.879,12.879,0,1,1,0-25.759v1a11.879,11.879,0,1,0,11.879,11.88h1A12.894,12.894,0,0,1,383.37,71.889" fill="#162e4c"/>
    <path id="Path_199186" data-name="Path 199186" d="M288.039,218.689c0,16.874-21.429,48.322-24.854,48.322s-24.853-30.692-24.853-48.322a24.854,24.854,0,1,1,49.707,0" fill="#e8615b"/>
    <path id="Path_199187" data-name="Path 199187" d="M275.564,218.973a12.38,12.38,0,1,1-12.379-12.379,12.379,12.379,0,0,1,12.379,12.379" fill="#fff"/>
    <path id="Path_199188" data-name="Path 199188" d="M263.185,231.852a12.88,12.88,0,0,1,0-25.759v1a11.88,11.88,0,1,0,11.88,11.88h1a12.894,12.894,0,0,1-12.88,12.879" fill="#162e4c"/>
    <path id="Path_199189" data-name="Path 199189" d="M435.68,298.309c0,13.3-16.887,38.08-19.586,38.08s-19.586-24.186-19.586-38.08a19.586,19.586,0,0,1,39.172,0" fill="#e8615b"/>
    <path id="Path_199190" data-name="Path 199190" d="M425.849,298.533a9.755,9.755,0,1,1-9.756-9.756,9.756,9.756,0,0,1,9.756,9.756" fill="#fff"/>
    <path id="Path_199191" data-name="Path 199191" d="M416.094,308.788a10.255,10.255,0,1,1,0-20.511v1a9.255,9.255,0,1,0,9.256,9.256h1a10.268,10.268,0,0,1-10.256,10.255" fill="#162e4c"/>
    <path id="Path_199192" data-name="Path 199192" d="M273.069,72.282c0,13.3-16.887,38.08-19.586,38.08S233.9,86.176,233.9,72.282a19.586,19.586,0,1,1,39.172,0" fill="#e8615b"/>
    <path id="Path_199193" data-name="Path 199193" d="M263.239,72.506a9.756,9.756,0,1,1-9.756-9.756,9.756,9.756,0,0,1,9.756,9.756" fill="#fff"/>
    <path id="Path_199194" data-name="Path 199194" d="M253.483,82.762a10.256,10.256,0,1,1,0-20.511v1a9.256,9.256,0,1,0,9.255,9.256h1a10.267,10.267,0,0,1-10.255,10.255" fill="#162e4c"/>
    <path id="Path_199195" data-name="Path 199195" d="M226.809,159.859c0,8.661-11,24.8-12.756,24.8s-12.756-15.752-12.756-24.8a12.756,12.756,0,0,1,25.512,0" fill="#e8615b"/>
    <path id="Path_199196" data-name="Path 199196" d="M220.406,160.005a6.354,6.354,0,1,1-6.354-6.354,6.354,6.354,0,0,1,6.354,6.354" fill="#fff"/>
    <path id="Path_199197" data-name="Path 199197" d="M214.053,166.858a6.854,6.854,0,0,1,0-13.708v1A5.854,5.854,0,1,0,219.907,160h1a6.862,6.862,0,0,1-6.854,6.854" fill="#162e4c"/>
    <path id="Path_199198" data-name="Path 199198" d="M372.811,227.8c0,8.661-11,24.8-12.756,24.8S347.3,236.849,347.3,227.8a12.756,12.756,0,1,1,25.512,0" fill="#e8615b"/>
    <path id="Path_199199" data-name="Path 199199" d="M366.408,227.946a6.354,6.354,0,1,1-6.354-6.354,6.354,6.354,0,0,1,6.354,6.354" fill="#fff"/>
    <path id="Path_199200" data-name="Path 199200" d="M360.055,234.8a6.854,6.854,0,0,1,0-13.708v1a5.854,5.854,0,1,0,5.854,5.854h1a6.862,6.862,0,0,1-6.854,6.854" fill="#162e4c"/>
    <path id="Path_199201" data-name="Path 199201" d="M385.881,366.56c0,8.661-11,24.8-12.756,24.8s-12.756-15.752-12.756-24.8a12.756,12.756,0,1,1,25.512,0" fill="#e8615b"/>
    <path id="Path_199202" data-name="Path 199202" d="M379.478,366.706a6.354,6.354,0,1,1-6.354-6.354,6.354,6.354,0,0,1,6.354,6.354" fill="#fff"/>
    <path id="Path_199203" data-name="Path 199203" d="M373.124,373.56a6.854,6.854,0,0,1,0-13.708v1a5.854,5.854,0,1,0,5.854,5.854h1a6.862,6.862,0,0,1-6.854,6.854" fill="#162e4c"/>
    <rect id="Rectangle_41757" data-name="Rectangle 41757" width="174.617" height="8.989" transform="translate(467.219 400.67)" fill="#fff"/>
    <path id="Path_199204" data-name="Path 199204" d="M461.42,402.536H645.631a3.952,3.952,0,0,0,3.952-3.952v-71.33a3.953,3.953,0,0,0-3.952-3.952H461.42a3.952,3.952,0,0,0-3.952,3.952v71.33a3.952,3.952,0,0,0,3.952,3.952" fill="#2f4a7f"/>
    <path id="Path_199205" data-name="Path 199205" d="M424.844,365.107h18.55a1.456,1.456,0,0,1,1.456,1.456v18.78a1.455,1.455,0,0,1-1.456,1.455h-33.4a1.459,1.459,0,0,1-1.389-1.895,46.8,46.8,0,0,1,8.674-16.269,9.861,9.861,0,0,1,7.565-3.527" fill="#fff"/>
    <path id="Path_199206" data-name="Path 199206" d="M440.466,363.753l-14.15,24.569H416.228l14.149-24.569Z" fill="#d9ebff"/>
    <path id="Path_199207" data-name="Path 199207" d="M424.023,363.753h2.948l-14.15,24.569h-2.948Z" fill="#d9ebff"/>
    <path id="Path_199208" data-name="Path 199208" d="M446.067,363.753h2.948l-14.15,24.569h-2.948Z" fill="#d9ebff"/>
    <path id="Path_199209" data-name="Path 199209" d="M402.531,412.742h50.613V357.664c-14.623-.279-27.221,1.488-32.962,5.1-6.912,4.253-17.673,21.053-17.651,49.974m6.074-27.839a46.811,46.811,0,0,1,8.674-16.27,9.863,9.863,0,0,1,7.565-3.526h18.55a1.455,1.455,0,0,1,1.456,1.455v18.78a1.456,1.456,0,0,1-1.456,1.456h-33.4a1.459,1.459,0,0,1-1.389-1.895" fill="#efac37"/>
    <rect id="Rectangle_41758" data-name="Rectangle 41758" width="33.588" height="1" transform="translate(419.556 362.622)" fill="#162e4c"/>
    <rect id="Rectangle_41759" data-name="Rectangle 41759" width="1" height="21.691" transform="translate(436.872 365.107)" fill="#162e4c"/>
    <rect id="Rectangle_41760" data-name="Rectangle 41760" width="8.294" height="8.294" transform="translate(401.787 405.511)" fill="#162e4c"/>
    <path id="Path_199210" data-name="Path 199210" d="M418.066,412.742h-1A16.256,16.256,0,0,1,433.3,396.505H444.35V386h1v11.505H433.3a15.255,15.255,0,0,0-15.237,15.237" fill="#162e4c"/>
    <path id="Path_199211" data-name="Path 199211" d="M440.241,390.913h-4.678a1.271,1.271,0,0,1,0-2.542h4.678a1.271,1.271,0,1,1,0,2.542m-4.678-1.542a.271.271,0,0,0,0,.542h4.678a.271.271,0,1,0,0-.542Z" fill="#162e4c"/>
    <path id="Path_199212" data-name="Path 199212" d="M403.4,402.269h.9a.871.871,0,0,0,.872-.872v-3.732a.871.871,0,0,0-.872-.872h-.9a.871.871,0,0,0-.872.872V401.4a.871.871,0,0,0,.872.872" fill="#e8615b"/>
    <path id="Path_199213" data-name="Path 199213" d="M419.05,412.742c-.251-6.181,3.506-11.66,9.115-12.767,6.28-1.239,12.5,3.472,13.891,10.523a14.621,14.621,0,0,1,.263,2.244Z" fill="#ce7602"/>
    <path id="Path_199214" data-name="Path 199214" d="M421.764,414.5c1.092,5.531,5.97,9.226,10.9,8.254s8.036-6.244,6.944-11.775-5.97-9.226-10.9-8.254-8.035,6.244-6.943,11.775" fill="#162e4c"/>
    <path id="Path_199215" data-name="Path 199215" d="M427.029,413.463a3.75,3.75,0,1,0,2.845-4.824,3.974,3.974,0,0,0-2.845,4.824" fill="#fff"/>
    <path id="Path_199216" data-name="Path 199216" d="M430.8,416.171a3.369,3.369,0,0,1-3.175-2.825,3.61,3.61,0,0,1,.409-2.539,2.92,2.92,0,0,1,4.365-.862,3.609,3.609,0,0,1,1.344,2.193,3.3,3.3,0,0,1-2.394,3.979,2.853,2.853,0,0,1-.549.054m-.228-5.858a1.832,1.832,0,0,0-.36.036,1.975,1.975,0,0,0-1.317.966,2.616,2.616,0,0,0-.29,1.837,2.14,2.14,0,1,0,4.157-.821,2.615,2.615,0,0,0-.966-1.588,2.019,2.019,0,0,0-1.224-.43" fill="#162e4c"/>
    <rect id="Rectangle_41761" data-name="Rectangle 41761" width="4.324" height="30.091" transform="translate(453.144 367.765)" fill="#162e4c"/>
    <path id="Path_199217" data-name="Path 199217" d="M595.53,407.781h-36.3v-5.244h1v4.244h34.3v-4.244h1Z" fill="#162e4c"/>
    <rect id="Rectangle_41762" data-name="Rectangle 41762" width="50.046" height="2.266" transform="translate(495.86 402.537)" fill="#162e4c"/>
    <rect id="Rectangle_41763" data-name="Rectangle 41763" width="1" height="59.432" transform="translate(641.839 333.204)" fill="#162e4c"/>
    <rect id="Rectangle_41764" data-name="Rectangle 41764" width="1" height="59.432" transform="translate(625.69 333.204)" fill="#162e4c"/>
    <rect id="Rectangle_41765" data-name="Rectangle 41765" width="1" height="59.432" transform="translate(609.543 333.204)" fill="#162e4c"/>
    <rect id="Rectangle_41766" data-name="Rectangle 41766" width="1" height="59.432" transform="translate(593.395 333.204)" fill="#162e4c"/>
    <rect id="Rectangle_41767" data-name="Rectangle 41767" width="1" height="59.432" transform="translate(577.247 333.204)" fill="#162e4c"/>
    <rect id="Rectangle_41768" data-name="Rectangle 41768" width="1" height="59.432" transform="translate(561.1 333.204)" fill="#162e4c"/>
    <rect id="Rectangle_41769" data-name="Rectangle 41769" width="1" height="59.432" transform="translate(544.951 333.204)" fill="#162e4c"/>
    <rect id="Rectangle_41770" data-name="Rectangle 41770" width="1" height="59.432" transform="translate(528.804 333.204)" fill="#162e4c"/>
    <rect id="Rectangle_41771" data-name="Rectangle 41771" width="1" height="59.432" transform="translate(512.656 333.204)" fill="#162e4c"/>
    <rect id="Rectangle_41772" data-name="Rectangle 41772" width="1" height="59.432" transform="translate(496.508 333.204)" fill="#162e4c"/>
    <rect id="Rectangle_41773" data-name="Rectangle 41773" width="1" height="59.432" transform="translate(480.36 333.204)" fill="#162e4c"/>
    <rect id="Rectangle_41774" data-name="Rectangle 41774" width="1" height="59.432" transform="translate(464.212 333.204)" fill="#162e4c"/>
    <path id="Path_199218" data-name="Path 199218" d="M642.337,410.159H466.719v-7.622h1v6.622H641.337v-6.622h1Z" fill="#162e4c"/>
    <path id="Path_199219" data-name="Path 199219" d="M471.314,414.5c1.092,5.531,5.97,9.226,10.9,8.254s8.035-6.244,6.943-11.775-5.97-9.226-10.9-8.254-8.036,6.244-6.944,11.775" fill="#162e4c"/>
    <path id="Path_199220" data-name="Path 199220" d="M476.579,413.463a3.75,3.75,0,1,0,2.845-4.824,3.974,3.974,0,0,0-2.845,4.824" fill="#fff"/>
    <path id="Path_199221" data-name="Path 199221" d="M480.35,416.171a3.369,3.369,0,0,1-3.175-2.825,3.61,3.61,0,0,1,.409-2.539,2.921,2.921,0,0,1,4.366-.862,3.612,3.612,0,0,1,1.343,2.193,3.3,3.3,0,0,1-2.393,3.979,2.855,2.855,0,0,1-.55.054m-.228-5.858a1.833,1.833,0,0,0-.36.036,1.975,1.975,0,0,0-1.317.966,2.616,2.616,0,0,0-.29,1.837,2.14,2.14,0,1,0,4.157-.821,2.612,2.612,0,0,0-.966-1.588,2.019,2.019,0,0,0-1.224-.43" fill="#162e4c"/>
    <path id="Path_199222" data-name="Path 199222" d="M600.645,414.5c1.092,5.531,5.97,9.226,10.9,8.254s8.035-6.244,6.943-11.775-5.97-9.226-10.9-8.254-8.035,6.244-6.943,11.775" fill="#162e4c"/>
    <path id="Path_199223" data-name="Path 199223" d="M605.91,413.463a3.75,3.75,0,1,0,2.845-4.824,3.974,3.974,0,0,0-2.845,4.824" fill="#fff"/>
    <path id="Path_199224" data-name="Path 199224" d="M609.679,416.171a3.371,3.371,0,0,1-3.175-2.826,3.3,3.3,0,0,1,2.394-3.978,2.962,2.962,0,0,1,2.382.578,3.611,3.611,0,0,1,1.344,2.193,3.3,3.3,0,0,1-2.394,3.979,2.865,2.865,0,0,1-.551.054m-2.194-3.019a2.14,2.14,0,1,0,4.158-.821,2.616,2.616,0,0,0-.967-1.589,1.965,1.965,0,0,0-1.585-.394,2.3,2.3,0,0,0-1.606,2.8" fill="#162e4c"/>
    <path id="Path_199225" data-name="Path 199225" d="M620.657,414.5c1.092,5.531,5.97,9.226,10.9,8.254s8.035-6.244,6.943-11.775-5.97-9.226-10.9-8.254-8.035,6.244-6.943,11.775" fill="#162e4c"/>
    <path id="Path_199226" data-name="Path 199226" d="M625.922,413.463a3.75,3.75,0,1,0,2.845-4.824,3.974,3.974,0,0,0-2.845,4.824" fill="#fff"/>
    <path id="Path_199227" data-name="Path 199227" d="M629.692,416.171a3.37,3.37,0,0,1-3.174-2.825,3.61,3.61,0,0,1,.409-2.539,2.921,2.921,0,0,1,4.366-.862,3.612,3.612,0,0,1,1.343,2.193,3.3,3.3,0,0,1-2.393,3.979,2.857,2.857,0,0,1-.551.054m-.227-5.858a1.833,1.833,0,0,0-.36.036,1.975,1.975,0,0,0-1.317.966,2.616,2.616,0,0,0-.29,1.837,2.14,2.14,0,1,0,4.157-.821,2.6,2.6,0,0,0-.965-1.588,2.022,2.022,0,0,0-1.225-.43" fill="#162e4c"/>
    <path id="Path_199228" data-name="Path 199228" d="M98.772,380.418V341.9H91.38v-25.1H83.25V292.557h2.956v-6.738h-55.6v6.738h2.674v87.861Z" fill="#fff"/>
    <rect id="Rectangle_41775" data-name="Rectangle 41775" width="49.968" height="1" transform="translate(33.282 292.057)" fill="#162e4c"/>
    <rect id="Rectangle_41776" data-name="Rectangle 41776" width="49.968" height="1" transform="translate(33.282 316.294)" fill="#162e4c"/>
    <rect id="Rectangle_41777" data-name="Rectangle 41777" width="59.266" height="1" transform="translate(33.282 341.404)" fill="#162e4c"/>
    <rect id="Rectangle_41778" data-name="Rectangle 41778" width="10.104" height="5.641" transform="translate(69.703 300.175)" fill="#2f4a7f"/>
    <rect id="Rectangle_41779" data-name="Rectangle 41779" width="2.656" height="5.641" transform="translate(84.217 323.924)" fill="#2f4a7f"/>
    <rect id="Rectangle_41780" data-name="Rectangle 41780" width="2.656" height="5.641" transform="translate(36.726 323.924)" fill="#2f4a7f"/>
    <rect id="Rectangle_41781" data-name="Rectangle 41781" width="2.656" height="5.641" transform="translate(55.722 323.924)" fill="#2f4a7f"/>
    <rect id="Rectangle_41782" data-name="Rectangle 41782" width="2.656" height="5.641" transform="translate(46.224 323.924)" fill="#2f4a7f"/>
    <rect id="Rectangle_41783" data-name="Rectangle 41783" width="2.656" height="3.47" transform="translate(36.726 347.518)" fill="#2f4a7f"/>
    <rect id="Rectangle_41784" data-name="Rectangle 41784" width="5.609" height="8.047" transform="translate(39.844 372.371)" fill="#2f4a7f"/>
    <rect id="Rectangle_41785" data-name="Rectangle 41785" width="2.656" height="3.47" transform="translate(46.224 347.518)" fill="#2f4a7f"/>
    <rect id="Rectangle_41786" data-name="Rectangle 41786" width="2.656" height="3.47" transform="translate(55.722 347.518)" fill="#2f4a7f"/>
    <rect id="Rectangle_41787" data-name="Rectangle 41787" width="2.656" height="3.47" transform="translate(65.221 347.518)" fill="#2f4a7f"/>
    <rect id="Rectangle_41788" data-name="Rectangle 41788" width="2.656" height="3.47" transform="translate(74.719 347.518)" fill="#2f4a7f"/>
    <rect id="Rectangle_41789" data-name="Rectangle 41789" width="2.656" height="3.47" transform="translate(84.217 347.518)" fill="#2f4a7f"/>
    <rect id="Rectangle_41790" data-name="Rectangle 41790" width="2.656" height="5.641" transform="translate(74.719 323.924)" fill="#2f4a7f"/>
    <rect id="Rectangle_41791" data-name="Rectangle 41791" width="2.656" height="5.641" transform="translate(65.221 323.924)" fill="#2f4a7f"/>
    <rect id="Rectangle_41792" data-name="Rectangle 41792" width="10.104" height="5.641" transform="translate(53.214 300.175)" fill="#2f4a7f"/>
    <rect id="Rectangle_41793" data-name="Rectangle 41793" width="10.104" height="5.641" transform="translate(36.726 300.175)" fill="#2f4a7f"/>
    <path id="Path_199229" data-name="Path 199229" d="M27.81,380.418h-1V322.8h6.473v1H27.81Z" fill="#162e4c"/>
    <path id="Path_199230" data-name="Path 199230" d="M60.567,285.819h-1V283H41.054v2.817h-1V282H60.567Z" fill="#162e4c"/>
    <rect id="Rectangle_41794" data-name="Rectangle 41794" width="1" height="18.809" transform="translate(72.695 267.01)" fill="#162e4c"/>
    <path id="Path_199231" data-name="Path 199231" d="M33.782,380.418h-1V293.057H30.108v-7.738H65.485v1H31.108v5.738h2.674Z" fill="#162e4c"/>
    <rect id="Rectangle_41795" data-name="Rectangle 41795" width="21.541" height="7.314" transform="translate(274.502 354.367)" fill="#fff"/>
    <path id="Path_199232" data-name="Path 199232" d="M279.541,354.367h11.465l-3.795-20.654h-7.67Z" fill="#fff"/>
    <rect id="Rectangle_41796" data-name="Rectangle 41796" width="11.993" height="1" transform="translate(279.277 353.867)" fill="#162e4c"/>
    <rect id="Rectangle_41797" data-name="Rectangle 41797" width="151.277" height="49.461" transform="translate(108.318 338.131)" fill="#efac37"/>
    <rect id="Rectangle_41798" data-name="Rectangle 41798" width="50.425" height="16.297" transform="translate(209.17 338.13)" fill="#e8615b"/>
    <rect id="Rectangle_41799" data-name="Rectangle 41799" width="50.426" height="16.297" transform="translate(108.319 321.833)" fill="#e8615b"/>
    <rect id="Rectangle_41800" data-name="Rectangle 41800" width="50.426" height="16.297" transform="translate(158.744 321.833)" fill="#e8615b"/>
    <rect id="Rectangle_41801" data-name="Rectangle 41801" width="50.426" height="16.297" transform="translate(57.893 370.389)" fill="#e8615b"/>
    <rect id="Rectangle_41802" data-name="Rectangle 41802" width="50.426" height="16.297" transform="translate(130.329 305.513)" fill="#efac37"/>
    <rect id="Rectangle_41803" data-name="Rectangle 41803" width="50.426" height="16.297" transform="translate(57.893 354.26)" fill="#efac37"/>
    <rect id="Rectangle_41804" data-name="Rectangle 41804" width="50.426" height="15.962" transform="translate(108.319 354.427)" fill="#e8615b"/>
    <rect id="Rectangle_41805" data-name="Rectangle 41805" width="151.277" height="1" transform="translate(108.319 353.927)" fill="#162e4c"/>
    <rect id="Rectangle_41806" data-name="Rectangle 41806" width="100.851" height="1" transform="translate(108.319 338.014)" fill="#162e4c"/>
    <rect id="Rectangle_41807" data-name="Rectangle 41807" width="201.703" height="1" transform="translate(57.893 369.89)" fill="#162e4c"/>
    <rect id="Rectangle_41808" data-name="Rectangle 41808" width="1" height="48.373" transform="translate(208.67 338.13)" fill="#162e4c"/>
    <rect id="Rectangle_41809" data-name="Rectangle 41809" width="1" height="64.693" transform="translate(158.244 321.81)" fill="#162e4c"/>
    <rect id="Rectangle_41810" data-name="Rectangle 41810" width="50.425" height="1" transform="translate(130.329 321.31)" fill="#162e4c"/>
    <path id="Path_199233" data-name="Path 199233" d="M237.732,369.516l-4.969,4.594a44.668,44.668,0,0,1-30.324,11.87H70.619a3.6,3.6,0,0,1-3.344-2.264l-.547-1.366a6.056,6.056,0,0,0-5.623-3.808H13.137l19.587,44.135H271.5l41.159-60.995H257.747a29.482,29.482,0,0,0-20.015,7.834" fill="#2f4a7f"/>
    <path id="Path_199234" data-name="Path 199234" d="M21.717,397.874l2.428,5.47h260.4l3.692-5.47Z" fill="#e8615b"/>
    <rect id="Rectangle_41811" data-name="Rectangle 41811" width="65.34" height="1" transform="translate(206.9 385.255)" fill="#162e4c"/>
    <rect id="Rectangle_41812" data-name="Rectangle 41812" width="11.974" height="1" transform="translate(67.208 275.1)" fill="#162e4c"/>
    <rect id="Rectangle_41813" data-name="Rectangle 41813" width="11.974" height="1" transform="translate(67.208 277.849)" fill="#162e4c"/>
    <rect id="Rectangle_41814" data-name="Rectangle 41814" width="11.974" height="1" transform="translate(67.208 280.927)" fill="#162e4c"/>
    <path id="Path_199235" data-name="Path 199235" d="M403.274,169.665l-16.235,40.769a3.237,3.237,0,0,0,1.878,4.23l7.832,2.914a6.792,6.792,0,0,0,6.628-1.076l41.008-33.022Z" fill="#2f4a7f"/>
    <path id="Path_199236" data-name="Path 199236" d="M500.172,171.042,520.55,145.92c2.868-3.44,7.134-1.966,11.962-.023l-2.7,39.683Z" fill="#fff"/>
    <path id="Path_199237" data-name="Path 199237" d="M500.6,198.911l-4.346,7.194,8.129,2.415,15.777-11.1Z" fill="#2f4a7f"/>
    <path id="Path_199238" data-name="Path 199238" d="M531.622,195.629a3.429,3.429,0,0,0,2.832-3.719c-.743-6.37-6.686-11.268-16.953-14.941l-130.389-44.59c-14.593-4.309-26.627-3.306-37.508,2.535-10.785.2-15.131,13.24,1.449,18.552L475,195.119c14.487,5.674,35.764,4.246,56.618.51" fill="#fff"/>
    <path id="Path_199239" data-name="Path 199239" d="M524.562,180.626a50,50,0,0,0-7.228-3.186l-17.324-5.924.324-.947,17.33,5.927a50.917,50.917,0,0,1,7.38,3.254Z" fill="#162e4c"/>
    <path id="Path_199240" data-name="Path 199240" d="M385.907,138.359a.75.75,0,0,1-.232-.037.772.772,0,0,1-.5-.954.731.731,0,0,1,.922-.488l.047.016a.75.75,0,0,1-.232,1.463" fill="#162e4c"/>
    <path id="Path_199241" data-name="Path 199241" d="M504.17,178.408a.749.749,0,0,1-.24-.039l-.1-.032a.75.75,0,0,1,.478-1.422l.1.032a.75.75,0,0,1-.239,1.461m-2.957-1a.749.749,0,0,1-.24-.039l-.1-.032a.75.75,0,0,1,.478-1.422l.1.032a.75.75,0,0,1-.239,1.461m-2.956-1a.773.773,0,0,1-.24-.039l-.1-.032a.75.75,0,1,1,.478-1.422l.1.032a.75.75,0,0,1-.239,1.461m-2.957-1a.734.734,0,0,1-.243-.041l-.1-.032a.75.75,0,1,1,.484-1.419l.1.033a.749.749,0,0,1-.242,1.459m-2.956-1a.74.74,0,0,1-.24-.039l-.1-.032a.75.75,0,1,1,.478-1.422l.1.032a.75.75,0,0,1-.239,1.461m-2.957-1a.768.768,0,0,1-.24-.039l-.1-.032a.75.75,0,1,1,.478-1.422l.1.032a.75.75,0,0,1-.239,1.461m-2.957-1a.766.766,0,0,1-.239-.039l-.1-.032a.75.75,0,0,1,.479-1.422l.1.032a.75.75,0,0,1-.24,1.461m-2.957-1a.74.74,0,0,1-.239-.04l-.1-.032a.75.75,0,0,1,.479-1.422l.1.033a.75.75,0,0,1-.24,1.461m-2.956-1a.739.739,0,0,1-.239-.04l-.1-.032a.75.75,0,0,1,.479-1.422l.1.033a.75.75,0,0,1-.24,1.461m-2.957-1a.766.766,0,0,1-.239-.039l-.1-.032a.75.75,0,0,1,.479-1.422l.1.032a.75.75,0,0,1-.24,1.461m-2.956-1a.767.767,0,0,1-.239-.039l-.1-.032a.75.75,0,0,1,.479-1.422l.1.032a.75.75,0,0,1-.24,1.461m-2.957-1a.767.767,0,0,1-.239-.039l-.1-.033a.75.75,0,0,1,.479-1.421l.1.032a.75.75,0,0,1-.24,1.461m-2.957-1a.752.752,0,0,1-.241-.04l-.1-.033a.749.749,0,1,1,.483-1.419l.094.032a.75.75,0,0,1-.241,1.46m-2.956-1a.738.738,0,0,1-.239-.039l-.1-.032a.75.75,0,0,1,.479-1.422l.1.032a.75.75,0,0,1-.239,1.461m-2.957-1a.75.75,0,0,1-.245-.041l-.1-.033a.75.75,0,1,1,.491-1.417l.094.032a.75.75,0,0,1-.245,1.459m-2.956-1a.767.767,0,0,1-.239-.039l-.1-.033a.75.75,0,1,1,.479-1.421l.1.032a.75.75,0,0,1-.239,1.461m-2.957-1a.75.75,0,0,1-.245-.041l-.1-.033a.75.75,0,0,1,.49-1.418l.1.033a.75.75,0,0,1-.245,1.459m-2.956-1a.738.738,0,0,1-.239-.039l-.1-.032a.75.75,0,1,1,.479-1.422l.1.032a.75.75,0,0,1-.239,1.461m-2.957-1a.752.752,0,0,1-.241-.04l-.1-.032a.75.75,0,1,1,.482-1.42l.1.032a.75.75,0,0,1-.241,1.46m-2.956-1a.766.766,0,0,1-.239-.039l-.1-.032a.75.75,0,1,1,.478-1.422l.1.032a.75.75,0,0,1-.239,1.461m-2.957-1a.725.725,0,0,1-.241-.04l-.1-.032a.75.75,0,1,1,.482-1.42l.1.033a.749.749,0,0,1-.241,1.459m-2.956-1a.739.739,0,0,1-.239-.039l-.1-.032a.75.75,0,1,1,.478-1.422l.1.032a.75.75,0,0,1-.239,1.461m-2.957-1a.752.752,0,0,1-.241-.04l-.1-.032a.75.75,0,1,1,.482-1.42l.1.032a.75.75,0,0,1-.241,1.46m-2.956-1a.777.777,0,0,1-.24-.039l-.095-.032a.75.75,0,1,1,.478-1.422l.1.032a.75.75,0,0,1-.239,1.461m-2.957-1a.737.737,0,0,1-.242-.041l-.094-.032a.75.75,0,0,1,.482-1.42l.1.033a.75.75,0,0,1-.241,1.46m-2.956-1a.746.746,0,0,1-.24-.04l-.1-.032a.75.75,0,0,1,.478-1.422l.1.033a.75.75,0,0,1-.239,1.461m-2.957-1a.757.757,0,0,1-.242-.04l-.094-.032a.75.75,0,1,1,.482-1.42l.1.032a.75.75,0,0,1-.241,1.46m-2.956-1a.732.732,0,0,1-.243-.04l-.1-.033a.75.75,0,1,1,.484-1.419l.1.033a.749.749,0,0,1-.242,1.459m-2.957-1a.753.753,0,0,1-.242-.04l-.094-.033a.75.75,0,0,1,.482-1.42l.1.033a.75.75,0,0,1-.241,1.46m-2.957-1a.732.732,0,0,1-.242-.041l-.1-.033a.749.749,0,1,1,.484-1.418l.1.032a.75.75,0,0,1-.243,1.46m-2.957-1a.725.725,0,0,1-.241-.04l-.094-.032a.75.75,0,1,1,.482-1.42l.1.032a.75.75,0,0,1-.242,1.46m-2.956-1a.766.766,0,0,1-.239-.039l-.1-.032a.75.75,0,0,1,.479-1.422l.1.032a.75.75,0,0,1-.24,1.461m-2.957-1a.752.752,0,0,1-.241-.04l-.1-.033a.749.749,0,0,1,.483-1.419l.1.032a.75.75,0,0,1-.242,1.46m-2.956-1a.738.738,0,0,1-.239-.039l-.1-.032a.75.75,0,0,1,.479-1.422l.1.032a.75.75,0,0,1-.24,1.461m-2.957-1a.725.725,0,0,1-.241-.04l-.1-.032a.75.75,0,0,1,.483-1.42l.094.032a.75.75,0,0,1-.241,1.46m-2.956-1a.767.767,0,0,1-.239-.039l-.1-.032a.75.75,0,0,1,.479-1.422l.095.032a.75.75,0,0,1-.239,1.461m-2.957-1a.752.752,0,0,1-.241-.04l-.1-.032a.75.75,0,0,1,.483-1.42l.094.032a.75.75,0,0,1-.241,1.46m-2.956-1a.74.74,0,0,1-.239-.04l-.1-.032a.75.75,0,1,1,.479-1.422l.1.033a.75.75,0,0,1-.239,1.461m-2.957-1a.725.725,0,0,1-.241-.04l-.1-.032a.75.75,0,1,1,.483-1.42l.094.033a.749.749,0,0,1-.241,1.459m-2.956-1a.767.767,0,0,1-.239-.039l-.1-.032a.75.75,0,1,1,.479-1.422l.1.032a.75.75,0,0,1-.239,1.461" fill="#162e4c"/>
    <path id="Path_199242" data-name="Path 199242" d="M507.078,179.393a.75.75,0,0,1-.232-.037.772.772,0,0,1-.505-.954.728.728,0,0,1,.922-.487l.047.015a.75.75,0,0,1-.232,1.463" fill="#162e4c"/>
    <path id="Path_199243" data-name="Path 199243" d="M527.723,191.376,507.2,183.971,545.913,169l11.912,3.944Z" fill="#2f4a7f"/>
    <path id="Path_199244" data-name="Path 199244" d="M349.605,134.914a73.3,73.3,0,0,1,15.9,1.013l-1.592-3.178a35.06,35.06,0,0,0-8.266-.531,39.383,39.383,0,0,0-6.038,2.7" fill="#162e4c"/>
    <path id="Path_199245" data-name="Path 199245" d="M423.933,155.328l104.06-44.261a8.518,8.518,0,0,1,6.44-.14l10.528,4.034a1.885,1.885,0,0,1,.356,3.339l-78.684,51.366Z" fill="#2f4a7f"/>
    <rect id="Rectangle_41815" data-name="Rectangle 41815" width="1" height="177.599" transform="translate(364.137 135.484) rotate(-71.292)" fill="#162e4c"/>
    <path id="Path_199246" data-name="Path 199246" d="M398.528,181.584l13.641,27.84-4.122,3.319-14.034-19.821Z" fill="#efac37"/>
    <path id="Path_199247" data-name="Path 199247" d="M483.477,130l39.143,3.116,6.577-4.294-27.8-6.442Z" fill="#efac37"/>
    <path id="Path_199248" data-name="Path 199248" d="M509.287,159.8l22.093,2.751,1.156-17.007-4.645-1.448a8.138,8.138,0,0,0-8.915,2.867Z" fill="#efac37"/>
    <path id="Path_199249" data-name="Path 199249" d="M509.287,159.805l21.792,7.189.3-4.438-19.405-6.312Z" fill="#2f4a7f"/>
    <path id="Path_199250" data-name="Path 199250" d="M129.922,159.169c-12.095-25.179-37.87-26.172-46.99-8.526-32.715-7.931-36.482,17.448-36.482,17.448s-19.666-9.963-33.111,5.75H171.757c-12-17.329-28.61-21.741-41.835-14.672" fill="#d9ebff"/>
    <path id="Path_199251" data-name="Path 199251" d="M534.477,57.666c4.8-26.541,43.482-30.212,55.905-9.193,35.024-8.491,40.778,11.69,40.778,11.69s21.054-10.668,35.448,6.156h-169.6c9.329-13.735,23.31-16.221,37.469-8.653" fill="#d9ebff"/>
    <path id="Path_199252" data-name="Path 199252" d="M83.688,36.522H298.711c-16.369-10.509-33.513-14.89-43.854-7.476C235.9,12.565,220.221,7.122,212.031,17.572,198.879-6.32,173.82-5.109,161.7,16.717c-3.234-5.253-17.63-14.408-37.994,10.105-6.9-7.8-21.041-3.192-40.013,9.7" fill="#d9ebff"/>
    <path id="Path_199253" data-name="Path 199253" d="M31.869,29.92c9.16-5.962,23.847-11.119,40.329,6.6H3.654C14.32,26.281,25.266,23.5,31.869,29.92" fill="#d9ebff"/>
  </g>
</svg>
