<svg xmlns="http://www.w3.org/2000/svg" xmlns:xlink="http://www.w3.org/1999/xlink" width="111.542" height="121.661" viewBox="0 0 111.542 121.661">
  <defs>
    <linearGradient id="linear-gradient" x1="0.5" x2="0.5" y2="1" gradientUnits="objectBoundingBox">
      <stop offset="0" stop-color="#e42367"/>
      <stop offset="1" stop-color="#492080"/>
    </linearGradient>
  </defs>
  <path id="relations" d="M162.151,110.746,144.689,82.392a1.848,1.848,0,0,0-2.537-.6l-7.861,4.835a1.847,1.847,0,0,0-.6,2.532L151.15,117.51a1.845,1.845,0,0,0,2.537.6l7.861-4.835a1.821,1.821,0,0,0,.824-1.142,1.841,1.841,0,0,0-.22-1.389ZM84.157,52.321c1.273-3.037.887-7.083-.84-8.841a6.431,6.431,0,0,0-5.024-1.915,6.436,6.436,0,0,0-5.037,1.915c-1.729,1.759-2.115,5.8-.842,8.841a6.307,6.307,0,0,0,11.742,0ZM106.584,49.7a9.445,9.445,0,0,0,9.173-6.243c1.945-4.641,1.318-10.868-1.371-13.6a10.094,10.094,0,0,0-7.795-2.991c-3.414,0-5.752.9-7.813,2.991-2.689,2.731-3.316,8.961-1.373,13.6A9.454,9.454,0,0,0,106.584,49.7Zm22.422,2.622a6.309,6.309,0,0,0,11.745,0c1.273-3.037.885-7.083-.842-8.841a7.56,7.56,0,0,0-10.058,0c-1.729,1.759-2.115,5.807-.845,8.841Zm1.668,11.862a20.213,20.213,0,0,1,2.593,9.944v2.317H149.51v-.76c0-6.344-4.755-11.506-10.6-11.506h-8.063C130.789,64.178,130.731,64.181,130.675,64.181Zm-21.737,6.336-2-7.136a4.755,4.755,0,0,1,.725-4.123l1.7-2.383H103.8l1.708,2.391a4.757,4.757,0,0,1,.731,4.1l-1.977,7.213,2.319,4.309Zm10.3-12.4-9.872,18.326H130.08V74.127A17.187,17.187,0,0,0,119.241,58.118Zm-25.318,0A17.189,17.189,0,0,0,83.081,74.127v2.317h20.714ZM79.9,74.124a20.194,20.194,0,0,1,2.6-9.944c-.058,0-.114-.005-.173-.005H74.255c-5.845,0-10.6,5.162-10.6,11.506v.76H79.9Zm-2.519,57.992,6.8-11.782a.02.02,0,0,0,.005-.011,3.238,3.238,0,0,0-5.619-3.22l-6.8,11.782a3.253,3.253,0,0,0,1.188,4.423A3.253,3.253,0,0,0,77.377,132.117Zm8.329,5.173a6.386,6.386,0,0,0-.369.755l-.048-.029a3.239,3.239,0,0,1-5.768-2.93l.037-.088c.428-.959.555-1.233.592-1.31l6.785-11.758c.146-.231,1.023-1.544,1.14-1.711a3.271,3.271,0,0,1,4.253-.925,3.25,3.25,0,0,1,1.193,4.418Zm8.382,4.816,8.233-14.3a3.24,3.24,0,0,0-5.619-3.228l-.414.717a.009.009,0,0,0,0,.005l-7.816,13.578a3.24,3.24,0,0,0,5.619,3.228Zm8.972-9.2a4.02,4.02,0,0,1,4.713-1.142,3.246,3.246,0,0,1,1.2,4.418l-4.952,8.6a3.249,3.249,0,0,1-4.426,1.193c-1.4-.808-2.439-2.1-.571-6.047ZM62.17,117.154a1.843,1.843,0,0,1-2.534.611l-7.877-4.809a1.85,1.85,0,0,1-.611-2.532L68.514,82.012a1.846,1.846,0,0,1,2.537-.611l7.877,4.806a1.85,1.85,0,0,1,.611,2.532Zm64.551-2.128,13.132,8.961c.762.693,1.466,1.719.659,2.789a3.037,3.037,0,0,1-3.945.7c-2.2-1.408-4.453-2.8-6.631-4.147q-1.658-1.024-3.315-2.056a1.594,1.594,0,1,0-1.687,2.7q1.662,1.036,3.329,2.062c1.926,1.188,3.911,2.418,5.855,3.653,1.3,1.084,1.589,2.335.813,3.523a4.672,4.672,0,0,1-6.033,1.209l-8.015-5.621a1.595,1.595,0,1,0-1.83,2.611l8.06,5.653a2.466,2.466,0,0,1,.3,3.536,4.621,4.621,0,0,1-6.256,1.18l-5.058-3.685a1.594,1.594,0,1,0-1.876,2.577l5.074,3.7c1.634,1.366.866,2.343.614,2.667-1.132,1.445-4.288,2.285-6.859.369l-.2-.154c-2.12-1.581-3.626-2.673-4.639-3.358l3.525-6.121a6.328,6.328,0,0,0-6.126-9.529,6.425,6.425,0,0,0-8.722-7.914,6.414,6.414,0,0,0-9.466-3.751,6.343,6.343,0,0,0-2.84-3.43,6.437,6.437,0,0,0-8.78,2.359l-3.3,5.722a35.2,35.2,0,0,1-4.891-6.852L80.432,93.391l7.505,2.882a1.587,1.587,0,0,0,.63.106,24.412,24.412,0,0,1,6.846.7,26.314,26.314,0,0,0-4.227,4.859,5.645,5.645,0,0,0,4.524,8.849c4.45.1,6.636-2.149,8.953-4.53.236-.242.478-.491.728-.741a7.075,7.075,0,0,0,6.389-.9Zm20.183,1.668a2.542,2.542,0,0,1-.606,2.1,6.642,6.642,0,0,1-4.941,2.356L128.531,112.4l-15.86-11.046a1.6,1.6,0,0,0-1.921.074c-1.719,1.408-3.268,1.65-5.021.786a1.593,1.593,0,0,0-1.807.279c-.555.531-1.057,1.047-1.544,1.544-2.128,2.189-3.531,3.624-6.6,3.565a2.456,2.456,0,0,1-1.969-3.852,21.452,21.452,0,0,1,4.569-4.984l.027-.019c4.928-3.879,12.863-7.213,17.861-5.744l7.757,2.277a6.187,6.187,0,0,0,3.509.027c.956-.266,2.115-.616,3.236-.954.675-.2,1.363-.412,2.006-.6Z" transform="translate(-50.879 -26.86)" fill-rule="evenodd" fill="url(#linear-gradient)"/>
</svg>
