<svg xmlns="http://www.w3.org/2000/svg" xmlns:xlink="http://www.w3.org/1999/xlink" width="167.204" height="136.002" viewBox="0 0 167.204 136.002">
  <defs>
    <linearGradient id="linear-gradient" x1="0.5" x2="0.5" y2="1" gradientUnits="objectBoundingBox">
      <stop offset="0" stop-color="#e42367"/>
      <stop offset="1" stop-color="#492080"/>
    </linearGradient>
  </defs>
  <g id="mentorship" transform="translate(-2.74 -8.384)">
    <path id="Path_42" data-name="Path 42" d="M39.4,53.449A10.034,10.034,0,0,0,49.428,43.392V42.37H29.37v1.022A10.052,10.052,0,0,0,39.4,53.449Z" transform="translate(46.943 59.911)" fill="url(#linear-gradient)"/>
    <path id="Path_43" data-name="Path 43" d="M58.966,41.476A4.009,4.009,0,0,0,54.96,37.47H31.366a4.006,4.006,0,0,0,0,8.012H54.96A4.009,4.009,0,0,0,58.966,41.476Z" transform="translate(43.4 51.273)" fill="url(#linear-gradient)"/>
    <path id="Path_44" data-name="Path 44" d="M20.253,28.206h6.023a2.763,2.763,0,0,0,0-5.526H20.253a2.763,2.763,0,0,0,0,5.526Z" transform="translate(26.001 25.201)" fill="url(#linear-gradient)"/>
    <path id="Path_45" data-name="Path 45" d="M47.093,22.68a2.763,2.763,0,0,0,0,5.526h6.023a2.763,2.763,0,0,0,0-5.526Z" transform="translate(73.314 25.201)" fill="url(#linear-gradient)"/>
    <path id="Path_46" data-name="Path 46" d="M43.757,23.468a2.756,2.756,0,0,0,2.6,1.823,2.807,2.807,0,0,0,.939-.166l5.664-2.044a2.762,2.762,0,0,0-1.879-5.194l-5.664,2.044A2.767,2.767,0,0,0,43.757,23.468Z" transform="translate(72.008 16.456)" fill="url(#linear-gradient)"/>
    <path id="Path_47" data-name="Path 47" d="M44.224,22.737a2.776,2.776,0,0,0,1.768-.635l4.614-3.868a2.765,2.765,0,0,0-3.564-4.227l-4.614,3.868a2.763,2.763,0,0,0-.332,3.9,2.8,2.8,0,0,0,2.127.967Z" transform="translate(68.226 8.761)" fill="url(#linear-gradient)"/>
    <path id="Path_48" data-name="Path 48" d="M39.561,20.507a2.8,2.8,0,0,0,3.785-1.022l3.011-5.222A2.772,2.772,0,1,0,41.55,11.5l-3.011,5.222A2.767,2.767,0,0,0,39.561,20.507Z" transform="translate(62.446 3.034)" fill="url(#linear-gradient)"/>
    <path id="Path_49" data-name="Path 49" d="M36.44,19.789a3.077,3.077,0,0,0,.47.055,2.729,2.729,0,0,0,2.708-2.293l1.05-5.912a2.764,2.764,0,0,0-5.443-.967l-1.05,5.912a2.8,2.8,0,0,0,2.265,3.2Z" transform="translate(55.345 0.022)" fill="url(#linear-gradient)"/>
    <path id="Path_50" data-name="Path 50" d="M33.3,19.839a1.292,1.292,0,0,0,.47-.055,2.761,2.761,0,0,0,2.238-3.2l-1.05-5.912a2.764,2.764,0,1,0-5.443.967l1.05,5.912A2.779,2.779,0,0,0,33.3,19.839Z" transform="translate(47.126)" fill="url(#linear-gradient)"/>
    <path id="Path_51" data-name="Path 51" d="M26.482,22.112a2.775,2.775,0,0,0,3.9-.359,2.763,2.763,0,0,0-.332-3.9l-4.614-3.868a2.765,2.765,0,1,0-3.564,4.227Z" transform="translate(31.983 8.751)" fill="url(#linear-gradient)"/>
    <path id="Path_52" data-name="Path 52" d="M20.185,23.081l5.636,2.044a2.806,2.806,0,0,0,.939.166,2.762,2.762,0,0,0,.939-5.36l-5.636-2.044a2.762,2.762,0,0,0-1.879,5.194Z" transform="translate(27.533 16.456)" fill="url(#linear-gradient)"/>
    <path id="Path_53" data-name="Path 53" d="M78.666,42.24H73.251v1.381a15.555,15.555,0,1,1-31.109,0V42.24H36.727A17.722,17.722,0,0,0,18.99,59.977V84.7H96.4V59.977A17.739,17.739,0,0,0,78.666,42.24Z" transform="translate(28.645 59.682)" fill="url(#linear-gradient)"/>
    <path id="Path_54" data-name="Path 54" d="M80.722,54.878A14.9,14.9,0,0,0,81,51.922V38.8A16.779,16.779,0,0,1,74.865,39.9,17.614,17.614,0,0,1,59.283,30.51a11.962,11.962,0,0,1-1.989,2.625,13.4,13.4,0,0,1-9.836,4.255,10.244,10.244,0,0,1-1.3-.083V51.922a17.405,17.405,0,0,0,34.562,2.956ZM69.478,44.462a2.763,2.763,0,1,1-2.763,2.763A2.771,2.771,0,0,1,69.478,44.462ZM54.946,47.225a2.763,2.763,0,1,1,2.763,2.763A2.771,2.771,0,0,1,54.946,47.225Zm2.4,10.471a2.75,2.75,0,0,1,3.813-.856,4.061,4.061,0,0,0,4.863,0,2.763,2.763,0,1,1,2.956,4.669,9.583,9.583,0,0,1-10.775,0,2.75,2.75,0,0,1-.856-3.813Z" transform="translate(76.54 39.004)" fill="url(#linear-gradient)"/>
    <path id="Path_55" data-name="Path 55" d="M74.7,45.31H71.831v1.077A13.23,13.23,0,0,1,49.01,55.532v23.76H88.38V58.986A13.689,13.689,0,0,0,74.7,45.31Z" transform="translate(81.564 65.093)" fill="url(#linear-gradient)"/>
    <path id="Path_56" data-name="Path 56" d="M49.71,46.09a7.682,7.682,0,0,0,15.223.028,23.381,23.381,0,0,1-7.625,1.3A22.293,22.293,0,0,1,49.71,46.09Z" transform="translate(82.798 66.468)" fill="url(#linear-gradient)"/>
    <path id="Path_57" data-name="Path 57" d="M55.539,34.078c-6.714,0-12.129,6.051-12.129,13.538a14.539,14.539,0,0,0,2.072,7.46V45.3A5.215,5.215,0,0,1,51.339,40.1l.332.028a5.107,5.107,0,0,0,.635.028,7.955,7.955,0,0,0,5.829-2.487,7.474,7.474,0,0,0,1.188-1.547l.249-.47a5.232,5.232,0,0,1,9.172.138A12.592,12.592,0,0,0,79.685,42.7a11.487,11.487,0,0,0,4.144-.746l.387-.166a5.246,5.246,0,0,1,7.128,4.89v8.371a14.514,14.514,0,0,0,2.072-7.432V45.13c0-10.692-7.763-19.34-17.323-19.34H65.789c-5.636,0-10.25,5.111-10.25,11.438Z" transform="translate(71.693 30.684)" fill="url(#linear-gradient)"/>
    <path id="Path_58" data-name="Path 58" d="M42.069,37.289a10.579,10.579,0,0,1-1.3.083,13.484,13.484,0,0,1-9.836-4.227,12.89,12.89,0,0,1-1.989-2.625,17.614,17.614,0,0,1-15.582,9.393A17.376,17.376,0,0,1,7.23,38.808V51.932a14.9,14.9,0,0,0,.276,2.956,17.39,17.39,0,0,0,34.535-2.956V37.289ZM15.988,47.207a2.763,2.763,0,1,1,2.763,2.763A2.771,2.771,0,0,1,15.988,47.207ZM30.023,61.491a10.064,10.064,0,0,1-5.387,1.658,10.064,10.064,0,0,1-5.387-1.658A2.763,2.763,0,0,1,22.2,56.822a4.061,4.061,0,0,0,4.863,0,2.8,2.8,0,0,1,3.813.856A2.75,2.75,0,0,1,30.023,61.491Zm.5-11.521a2.763,2.763,0,1,1,2.763-2.763A2.771,2.771,0,0,1,30.52,49.97Z" transform="translate(7.915 39.022)" fill="url(#linear-gradient)"/>
    <path id="Path_59" data-name="Path 59" d="M19.317,46.387V45.31h-2.9A13.689,13.689,0,0,0,2.74,58.986V79.292H42.11V55.532a13.116,13.116,0,0,1-9.559,4.117A13.277,13.277,0,0,1,19.317,46.387Z" transform="translate(0 65.093)" fill="url(#linear-gradient)"/>
    <path id="Path_60" data-name="Path 60" d="M26,46.09a22.729,22.729,0,0,1-15.223.028A7.682,7.682,0,0,0,26,46.09Z" transform="translate(14.173 66.468)" fill="url(#linear-gradient)"/>
    <path id="Path_61" data-name="Path 61" d="M6.552,46.687A5.246,5.246,0,0,1,13.68,41.8l.387.166a11.38,11.38,0,0,0,4.144.746A12.592,12.592,0,0,0,29.152,35.8a5.232,5.232,0,0,1,9.172-.138l.249.47a6.625,6.625,0,0,0,1.188,1.547,7.955,7.955,0,0,0,5.829,2.487,4.683,4.683,0,0,0,.635-.028l.332-.028a5.245,5.245,0,0,1,5.857,5.194v9.78a14.278,14.278,0,0,0,2.072-7.46c0-7.487-5.415-13.538-12.129-13.538v3.15c0-6.327-4.641-11.438-10.25-11.438H21.8C12.216,25.8,4.48,34.448,4.48,45.14v2.487a14.108,14.108,0,0,0,2.072,7.432Z" transform="translate(3.067 30.701)" fill="url(#linear-gradient)"/>
    <path id="Path_62" data-name="Path 62" d="M23.823,37.334a25.976,25.976,0,0,0,8.951,23.539,20.451,20.451,0,0,1,6.741,10.72H60.1a20.431,20.431,0,0,1,6.631-10.913A26.055,26.055,0,1,0,23.823,37.334ZM47.555,23.382a2.752,2.752,0,1,1,.608,5.47A12.225,12.225,0,0,0,37.5,39.212a2.764,2.764,0,0,1-2.735,2.376,1.957,1.957,0,0,1-.387-.028A2.79,2.79,0,0,1,32,38.439,17.824,17.824,0,0,1,47.555,23.382Z" transform="translate(36.715 11.625)" fill="url(#linear-gradient)"/>
  </g>
</svg>
