<svg xmlns="http://www.w3.org/2000/svg" xmlns:xlink="http://www.w3.org/1999/xlink" width="157.705" height="136" viewBox="0 0 157.705 136">
  <defs>
    <linearGradient id="linear-gradient" x1="0.5" x2="0.5" y2="1" gradientUnits="objectBoundingBox">
      <stop offset="0" stop-color="#e42367"/>
      <stop offset="1" stop-color="#492080"/>
      <stop offset="1" stop-color="#545454"/>
    </linearGradient>
  </defs>
  <path id="target" d="M78.923,65.451c-4.137-3.959-6.011-9.589-5.7-17.165l4.3-2.844,5.247,3.472a2.264,2.264,0,0,0,2.5,0l5.246-3.472,5.247,3.472a2.264,2.264,0,0,0,2.5,0l5.248-3.472,4.259,2.818a29.813,29.813,0,0,1-5.591,17.192Zm-6.888,8.685h36.881a2.082,2.082,0,1,0,0-4.164H72.035a2.082,2.082,0,1,0,0,4.164Zm60.36,71.16v3.373a2.262,2.262,0,0,1-4.524,0V145.3A35.122,35.122,0,0,1,95.123,112.57H91.747a2.261,2.261,0,1,1,0-4.521h3.376a35,35,0,0,1,12.1-24.276c-1.725-1.905-3.414-3.619-5.044-5.116H78.942c-10.205,9.415-21.879,26.42-29.172,42.407A33.233,33.233,0,0,1,67.32,133.335H97.466a5.058,5.058,0,0,1,5.053,5.05v6a5.015,5.015,0,0,1-.844,2.789,5.015,5.015,0,0,1,.844,2.789v6a5.014,5.014,0,0,1-.844,2.789,5.016,5.016,0,0,1,.844,2.789v6a5.057,5.057,0,0,1-5.053,5.049H67.176c-.246.331-.5.656-.759.977,7.1.865,15.378.868,24.058.868,13.463,0,26.174,0,34.928-3.337,9.228-3.518,13.343-10.392,13.343-22.289a37.385,37.385,0,0,0-.286-4.445,34.968,34.968,0,0,1-6.066.926ZM98,138.387a.529.529,0,0,0-.529-.528H70.113a32.841,32.841,0,0,1,2.638,7.058H97.466a.529.529,0,0,0,.529-.528ZM97.466,156.5a.529.529,0,0,0,.529-.528v-6a.529.529,0,0,0-.529-.528H73.543a33.142,33.142,0,0,1-.022,7.058Zm2.19-43.926a30.6,30.6,0,0,0,28.213,28.194v-3.24A27.358,27.358,0,0,1,102.9,112.57Zm9.34,0h-1.557a22.841,22.841,0,0,0,20.433,20.419v-1.557a2.262,2.262,0,0,1,4.524,0v1.557a22.654,22.654,0,0,0,3.3-.575c-4-12.36-11.621-26.733-20.73-39.106a22.749,22.749,0,0,0-7.527,14.74h1.557a2.261,2.261,0,1,1,0,4.521ZM97.466,168.075a.529.529,0,0,0,.529-.528v-6a.529.529,0,0,0-.529-.528H72.7a32.816,32.816,0,0,1-2.693,7.058ZM69.2,152.868A28.594,28.594,0,1,1,40.6,124.295,28.584,28.584,0,0,1,69.2,152.868Zm-8.292,0a20.3,20.3,0,1,0-20.3,20.288,20.295,20.295,0,0,0,20.3-20.288Zm-20.737-2.942a2.624,2.624,0,0,1-2.341-1.508,1.841,1.841,0,0,1,.422-1.867,3.524,3.524,0,0,1,2.634-.925,3.706,3.706,0,0,1,2.779,1.411,2.262,2.262,0,0,0,3.513-2.85,8.242,8.242,0,0,0-4.309-2.808v-1.816a2.262,2.262,0,0,0-4.524,0v1.878A7.626,7.626,0,0,0,35,143.4a6.4,6.4,0,0,0-1.454,6.491,7.074,7.074,0,0,0,6,4.514c2.434.333,4.033,1.34,4.277,2.692a2.412,2.412,0,0,1-1.293,2.487,4.584,4.584,0,0,1-3.863.191,2.336,2.336,0,0,1-1.422-1.365,2.262,2.262,0,0,0-4.347,1.244,6.787,6.787,0,0,0,4.01,4.287,8.8,8.8,0,0,0,1.426.46v1.772a2.262,2.262,0,0,0,4.524,0V164.3a8.924,8.924,0,0,0,1.814-.725,6.889,6.889,0,0,0,3.6-7.274c-.61-3.378-3.644-5.759-8.116-6.371Zm127.285-41.878H160.61A30.6,30.6,0,0,0,132.4,79.855V73.183a2.262,2.262,0,0,0-4.524,0v6.672a30.6,30.6,0,0,0-28.213,28.194H102.9A27.358,27.358,0,0,1,127.873,83.1v7.628a2.262,2.262,0,0,0,4.524,0V83.1a27.358,27.358,0,0,1,24.968,24.95H149.9a2.261,2.261,0,1,0,0,4.521h7.469a27.358,27.358,0,0,1-24.97,24.952v3.242a30.6,30.6,0,0,0,28.213-28.194h6.842a2.261,2.261,0,1,0,0-4.521Z" transform="translate(-12.008 -45.442)" fill="url(#linear-gradient)"/>
</svg>
