<svg id="Group_129068" data-name="Group 129068" xmlns="http://www.w3.org/2000/svg" xmlns:xlink="http://www.w3.org/1999/xlink" width="301.454" height="222.398" viewBox="0 0 301.454 222.398">
  <defs>
    <clipPath id="clip-path">
      <rect id="Rectangle_38860" data-name="Rectangle 38860" width="301.454" height="222.398" fill="none"/>
    </clipPath>
    <clipPath id="clip-path-3">
      <rect id="Rectangle_38832" data-name="Rectangle 38832" width="243.16" height="79.973" fill="none"/>
    </clipPath>
    <clipPath id="clip-path-4">
      <rect id="Rectangle_38833" data-name="Rectangle 38833" width="30.347" height="30.347" fill="none"/>
    </clipPath>
    <clipPath id="clip-path-6">
      <rect id="Rectangle_38837" data-name="Rectangle 38837" width="28.733" height="30.346" fill="none"/>
    </clipPath>
    <clipPath id="clip-path-8">
      <rect id="Rectangle_38841" data-name="Rectangle 38841" width="25.058" height="30.346" fill="none"/>
    </clipPath>
    <clipPath id="clip-path-10">
      <rect id="Rectangle_38845" data-name="Rectangle 38845" width="40.982" height="4.003" fill="none"/>
    </clipPath>
    <clipPath id="clip-path-11">
      <rect id="Rectangle_38858" data-name="Rectangle 38858" width="71.909" height="8.632" fill="none"/>
    </clipPath>
  </defs>
  <g id="Group_129067" data-name="Group 129067" clip-path="url(#clip-path)">
    <g id="Group_129048" data-name="Group 129048">
      <g id="Group_129047" data-name="Group 129047" clip-path="url(#clip-path)">
        <g id="Group_129043" data-name="Group 129043" transform="translate(26.775 42.715)" opacity="0.5">
          <g id="Group_129042" data-name="Group 129042">
            <g id="Group_129041" data-name="Group 129041" clip-path="url(#clip-path-3)">
              <path id="Path_3630" data-name="Path 3630" d="M284.321,65.664v79.973c-27.373-4.534-71.634-7.474-121.58-7.474s-94.206,2.94-121.58,7.474V65.664c27.373,4.534,71.634,7.474,121.58,7.474s94.206-2.94,121.58-7.474" transform="translate(-41.161 -65.664)" fill="#b1dcfb"/>
            </g>
          </g>
        </g>
        <g id="Group_129046" data-name="Group 129046" transform="translate(130.602 64)" opacity="0.5">
          <g id="Group_129045" data-name="Group 129045">
            <g id="Group_129044" data-name="Group 129044" clip-path="url(#clip-path-4)">
              <path id="Path_3631" data-name="Path 3631" d="M218.234,98.385v5.467a9.705,9.705,0,1,1-7.052,16.374L207.32,124.1a15.173,15.173,0,1,0,10.914-25.715" transform="translate(-203.059 -98.385)" fill="#60a2f4"/>
              <path id="Path_3632" data-name="Path 3632" d="M215.944,98.385v5.467h0a9.7,9.7,0,0,0-7.05,16.374l-3.861,3.874a15.173,15.173,0,0,1,10.912-25.715Z" transform="translate(-200.77 -98.385)" fill="#f7f7f7"/>
            </g>
          </g>
        </g>
      </g>
    </g>
    <rect id="Rectangle_38835" data-name="Rectangle 38835" width="29.339" height="1.981" transform="translate(133.237 97.825)" fill="#f7f7f7"/>
    <rect id="Rectangle_38836" data-name="Rectangle 38836" width="18.605" height="1.981" transform="translate(133.237 101.336)" fill="#f7f7f7"/>
    <g id="Group_129053" data-name="Group 129053">
      <g id="Group_129052" data-name="Group 129052" clip-path="url(#clip-path)">
        <g id="Group_129051" data-name="Group 129051" transform="translate(178.578 63.999)" opacity="0.5">
          <g id="Group_129050" data-name="Group 129050">
            <g id="Group_129049" data-name="Group 129049" clip-path="url(#clip-path-6)">
              <path id="Path_3633" data-name="Path 3633" d="M296.611,98.384v5.471a9.717,9.717,0,0,1,0,19.4v5.471c7.93,0,14.363-6.791,14.363-15.17s-6.427-15.176-14.363-15.176" transform="translate(-282.241 -98.384)" fill="#f99595"/>
              <path id="Path_3634" data-name="Path 3634" d="M282.392,106.7a10.1,10.1,0,0,0-.182,13.531,8.954,8.954,0,0,0,6.681,3.031v5.471a13.977,13.977,0,0,1-10.337-4.632,15.575,15.575,0,0,1-4.033-10.538c0-8.385,6.434-15.176,14.37-15.176v5.471a8.908,8.908,0,0,0-6.5,2.843" transform="translate(-274.521 -98.384)" fill="#f7f7f7"/>
            </g>
          </g>
        </g>
      </g>
    </g>
    <rect id="Rectangle_38839" data-name="Rectangle 38839" width="27.779" height="1.981" transform="translate(181.073 97.825)" fill="#f7f7f7"/>
    <rect id="Rectangle_38840" data-name="Rectangle 38840" width="17.616" height="1.981" transform="translate(181.073 101.336)" fill="#f7f7f7"/>
    <g id="Group_129058" data-name="Group 129058">
      <g id="Group_129057" data-name="Group 129057" clip-path="url(#clip-path)">
        <g id="Group_129056" data-name="Group 129056" transform="translate(220.952 63.999)" opacity="0.5">
          <g id="Group_129055" data-name="Group 129055">
            <g id="Group_129054" data-name="Group 129054" clip-path="url(#clip-path-8)">
              <path id="Path_3635" data-name="Path 3635" d="M358.921,98.384v5.471c4.43,0,8.014,4.345,8.014,9.706a10.769,10.769,0,0,1-2.231,6.707l3.266,3.779a16.912,16.912,0,0,0,3.48-10.486c0-8.385-5.607-15.176-12.529-15.176" transform="translate(-346.392 -98.384)" fill="#fcc13d"/>
              <path id="Path_3636" data-name="Path 3636" d="M361.238,124.047a11.081,11.081,0,0,1-18.058.052,16.917,16.917,0,0,1-3.519-10.538c0-8.385,5.607-15.176,12.529-15.176v5.471a7.366,7.366,0,0,0-5.666,2.843,11.219,11.219,0,0,0-.156,13.531,7.1,7.1,0,0,0,11.605.039Z" transform="translate(-339.661 -98.384)" fill="#f7f7f7"/>
            </g>
          </g>
        </g>
      </g>
    </g>
    <rect id="Rectangle_38843" data-name="Rectangle 38843" width="24.225" height="1.981" transform="translate(223.128 97.825)" fill="#f7f7f7"/>
    <rect id="Rectangle_38844" data-name="Rectangle 38844" width="15.362" height="1.981" transform="translate(223.128 101.336)" fill="#f7f7f7"/>
    <g id="Group_129066" data-name="Group 129066">
      <g id="Group_129065" data-name="Group 129065" clip-path="url(#clip-path)">
        <path id="Path_3637" data-name="Path 3637" d="M136.444,152.637v4c-9.622-.227-14.12-.374-31.675-.374s-33.113.147-42.734.374v-4c9.622.227,25.179.374,42.734.374s22.054-.147,31.675-.374" transform="translate(-21.68 -53.346)" fill="#f7f7f7"/>
        <path id="Path_3638" data-name="Path 3638" d="M154.4,137.163v4c-5.858-.227-4.273-.373-14.962-.373s-20.162.146-26.02.373v-4c5.858.227,15.331.374,26.02.374s9.1-.147,14.962-.374" transform="translate(-39.64 -47.938)" fill="#f7f7f7"/>
        <path id="Path_3639" data-name="Path 3639" d="M154.4,121.69v4c-5.858-.227-4.273-.374-14.962-.374s-20.162.147-26.02.374v-4c5.858.227,15.331.374,26.02.374s9.1-.147,14.962-.374" transform="translate(-39.64 -42.53)" fill="#f7f7f7"/>
        <path id="Path_3640" data-name="Path 3640" d="M80.047,140.722l-.589.01a1.6,1.6,0,0,1-1.623-1.572l-.021-1.331,3.783-.061.021,1.331a1.6,1.6,0,0,1-1.572,1.623" transform="translate(-27.195 -48.149)" fill="#262528"/>
        <path id="Path_3641" data-name="Path 3641" d="M80.929,137.014l-3.629.059a1.2,1.2,0,0,1-1.221-1.183l-.071-4.374,6.033-.1.07,4.374a1.2,1.2,0,0,1-1.183,1.222" transform="translate(-26.564 -45.93)" fill="#9f98a2"/>
        <path id="Path_3642" data-name="Path 3642" d="M81.695,134.592l-6.113.1a.727.727,0,0,1-.023-1.454l6.113-.1a.727.727,0,1,1,.023,1.453" transform="translate(-26.157 -46.531)" fill="#bdb6bf"/>
        <path id="Path_3643" data-name="Path 3643" d="M78.659,134.683l-1.28.021a.727.727,0,1,1-.023-1.454l1.28-.02a.727.727,0,1,1,.023,1.453" transform="translate(-26.785 -46.563)" fill="#d7d3d9"/>
        <path id="Path_3644" data-name="Path 3644" d="M81.749,137.979l-6.113.1a.727.727,0,0,1-.023-1.454l6.113-.1a.727.727,0,1,1,.023,1.453" transform="translate(-26.176 -47.715)" fill="#bdb6bf"/>
        <path id="Path_3645" data-name="Path 3645" d="M78.434,138.085H78.36a.727.727,0,0,1-.023-1.454h.074a.727.727,0,1,1,.023,1.453" transform="translate(-27.128 -47.752)" fill="#d7d3d9"/>
        <path id="Path_3646" data-name="Path 3646" d="M84.373,111.728c-.071-4.38-3.969-7.868-8.708-7.791s-8.523,3.688-8.453,8.068a7.748,7.748,0,0,0,3.608,6.337h0a2.515,2.515,0,0,1,1.14,2.015l.018,1.068a.946.946,0,0,0,1,.891l5.986-.1a.946.946,0,0,0,.966-.922l-.017-1.077a2.5,2.5,0,0,1,1.056-2.037h0a7.747,7.747,0,0,0,3.409-6.456" transform="translate(-23.49 -36.325)" fill="#eec542"/>
        <path id="Path_3647" data-name="Path 3647" d="M83.441,113.841a6.2,6.2,0,1,1-6.3-6.1,6.2,6.2,0,0,1,6.3,6.1" transform="translate(-24.829 -37.655)" fill="#f3d372"/>
        <path id="Path_3648" data-name="Path 3648" d="M77.906,126.7l-.144-8.941a1.2,1.2,0,0,0-2.4.039l.011.669a1.2,1.2,0,0,0,1.217,1.179l2.067-.028" transform="translate(-26.34 -40.746)" fill="none" stroke="#fff" stroke-width="0.379"/>
        <path id="Path_3649" data-name="Path 3649" d="M81.362,126.64l-.144-8.941a1.2,1.2,0,0,1,2.4-.038l.011.669a1.2,1.2,0,0,1-1.179,1.216l-2.226.042" transform="translate(-28.036 -40.71)" fill="none" stroke="#fff" stroke-width="0.379"/>
        <path id="Path_3650" data-name="Path 3650" d="M72.448,109.551a6.755,6.755,0,0,1,2.038-1.73" transform="translate(-25.32 -37.683)" fill="none" stroke="#fff" stroke-linecap="round" stroke-linejoin="round" stroke-width="2.255"/>
        <path id="Path_3651" data-name="Path 3651" d="M70.4,118.418a6.733,6.733,0,0,1-.163-1.375" transform="translate(-24.546 -40.906)" fill="none" stroke="#fff" stroke-linecap="round" stroke-linejoin="round" stroke-width="1.55"/>
        <path id="Path_3652" data-name="Path 3652" d="M90.782,116.71a6.733,6.733,0,0,1-.219,1.821" transform="translate(-31.651 -40.789)" fill="none" stroke="#fff" stroke-linecap="round" stroke-linejoin="round" stroke-width="1.55"/>
        <g id="Group_129061" data-name="Group 129061" transform="translate(73.781 69.095)" opacity="0.5">
          <g id="Group_129060" data-name="Group 129060">
            <g id="Group_129059" data-name="Group 129059" clip-path="url(#clip-path-10)">
              <path id="Path_3653" data-name="Path 3653" d="M154.4,106.217v4c-5.858-.227-4.273-.374-14.962-.374s-20.162.147-26.02.374v-4c5.858.227,15.331.374,26.02.374s9.1-.147,14.962-.374" transform="translate(-113.421 -106.217)" fill="#60a2f4"/>
            </g>
          </g>
        </g>
        <path id="Path_3654" data-name="Path 3654" d="M447.85,169.258l-19.782.043a2.381,2.381,0,0,1-.007-4.762l19.782-.043a2.381,2.381,0,0,1,.006,4.762" transform="translate(-148.774 -57.49)" fill="#b1dcfb"/>
        <path id="Path_3655" data-name="Path 3655" d="M232.86,4.762l-40.455.043A2.381,2.381,0,0,1,192.4.043L232.854,0a2.381,2.381,0,0,1,.006,4.762" transform="translate(-66.411 0)" fill="#b1dcfb"/>
        <path id="Path_3656" data-name="Path 3656" d="M391.8,13.406l-3.776.005a1.8,1.8,0,0,1-1.8-1.793l-.005-3.545a1.8,1.8,0,0,1,1.794-1.8l3.776-.005a1.8,1.8,0,0,1,1.8,1.794l.005,3.544a1.8,1.8,0,0,1-1.794,1.8" transform="translate(-134.982 -2.191)" fill="#b1dcfb"/>
        <path id="Path_3657" data-name="Path 3657" d="M18.666,222.941l-3.776.005a1.8,1.8,0,0,1-1.8-1.794l-.005-3.544a1.8,1.8,0,0,1,1.794-1.8l3.776-.005a1.8,1.8,0,0,1,1.8,1.794l0,3.544a1.8,1.8,0,0,1-1.793,1.8" transform="translate(-4.574 -75.422)" fill="#b1dcfb"/>
        <path id="Path_3658" data-name="Path 3658" d="M11.5,266.566l-3.317,0a1.579,1.579,0,0,1-1.581-1.576l0-3.113a1.578,1.578,0,0,1,1.576-1.58l3.317,0a1.578,1.578,0,0,1,1.581,1.576l0,3.114a1.578,1.578,0,0,1-1.576,1.58" transform="translate(-2.307 -90.972)" fill="#fff"/>
        <path id="Path_3659" data-name="Path 3659" d="M219.044,46.979l-3.317,0a1.579,1.579,0,0,1-1.581-1.576l0-3.113a1.577,1.577,0,0,1,1.576-1.58l3.318,0a1.578,1.578,0,0,1,1.58,1.576l0,3.114a1.579,1.579,0,0,1-1.576,1.58" transform="translate(-74.841 -14.228)" fill="#fff"/>
        <path id="Path_3660" data-name="Path 3660" d="M41.263,54.138H21.554a2.345,2.345,0,0,1,0-4.69H41.263a2.345,2.345,0,0,1,0,4.69" transform="translate(-6.714 -17.282)" fill="#fff"/>
        <path id="Path_3661" data-name="Path 3661" d="M291.313,61.019H271.605a2.345,2.345,0,1,1,0-4.69h19.708a2.345,2.345,0,0,1,0,4.69" transform="translate(-94.105 -19.687)" fill="#60a2f4"/>
        <path id="Path_3662" data-name="Path 3662" d="M369.323,248.987a81.262,81.262,0,0,1-11.756-4.892l-.286-2.3-1.806,1.12c-4.269-2.578-7.481-5.715-5.864-8.864,1.646-3.195,5.332-3.783,9.082-2.195l.274,2.795,1.863-1.657c4.281,2.766,8.133,8.321,8.493,16" transform="translate(-122.038 -80.734)" fill="#fc8d2a"/>
        <path id="Path_3663" data-name="Path 3663" d="M351.67,236.6s16.241,1.762,20.67,20.622" transform="translate(-122.906 -82.691)" fill="none" stroke="#080808" stroke-width="0.879"/>
        <path id="Path_3664" data-name="Path 3664" d="M374.957,228.642S369.2,221.784,362,214.1l1.371-3.389s-2.206.252-4.018.492c-6.275-7.562-3.143-12.865-1.795-14.351,1.194-1.315,7.361-4.812,13.671,1.377l-.383,3.338h3.115c.338.492.669,1.012.995,1.572,7.39,12.574,0,25.507,0,25.507" transform="translate(-124.272 -68.036)" fill="#fc8d2a"/>
        <path id="Path_3665" data-name="Path 3665" d="M361.042,198.019s14.193,11.1,15.336,25.1,1.175,23.909,1.175,23.909" transform="translate(-126.182 -69.206)" fill="none" stroke="#080808" stroke-width="0.879"/>
        <path id="Path_3666" data-name="Path 3666" d="M404.246,233.4l-2.109-.36.572,1.663c-7.8,6.452-8.727,5.79-11.865,9.825,0,0-3.549-12.933,4.47-20.2l2.349.8-.309-2.361c9.962-6.412,15.128,3.235,6.893,10.631" transform="translate(-136.324 -77.121)" fill="#fc8d2a"/>
        <path id="Path_3667" data-name="Path 3667" d="M406.313,224.156S390.881,230.3,389.6,253.732" transform="translate(-136.161 -78.341)" fill="none" stroke="#080808" stroke-width="0.879"/>
        <path id="Path_3668" data-name="Path 3668" d="M392.73,264.421H364.537s-1.246,10.773,1.235,19.763V296.6a3.115,3.115,0,0,0,1.777,2.806,3.656,3.656,0,0,0,1.555.394,2.261,2.261,0,0,0,1.268-.371c1.069-.708,1.692-2.406,1.864-5.069a12.529,12.529,0,0,0,13.625-.48c.126,2.938.76,4.795,1.886,5.549a2.289,2.289,0,0,0,1.269.371,3.658,3.658,0,0,0,1.56-.394,3.119,3.119,0,0,0,1.772-2.806V281.092h-.018a63.223,63.223,0,0,0,.4-16.671m-22.672,34.532a2.229,2.229,0,0,1-2.263-.063,2.553,2.553,0,0,1-1.451-2.292V286.019a16.142,16.142,0,0,0,5.343,7.955c-.154,3.252-.931,4.515-1.629,4.978m21.718-2.355a2.548,2.548,0,0,1-1.446,2.292,2.24,2.24,0,0,1-2.269.063c-.737-.492-1.554-1.863-1.64-5.527,2.72-2.32,4.372-5.886,5.355-9.739Z" transform="translate(-127.294 -92.413)" fill="#070707"/>
        <rect id="Rectangle_38846" data-name="Rectangle 38846" width="31.243" height="4.763" transform="translate(235.717 169.628)" fill="#2a2832"/>
        <path id="Path_3669" data-name="Path 3669" d="M139.1,273.1a36.131,36.131,0,0,0-6.673-5.628v-1.444l-1.014.706c-3.768-2.986-3.59-5.972.092-6.393a5.148,5.148,0,0,1,2.986.507l-.086,1.406,1.5-.345c1.795,1.849,3.035,5.4,3.191,11.19" transform="translate(-44.966 -90.973)" fill="#60a2f4"/>
        <path id="Path_3670" data-name="Path 3670" d="M159.6,253.011a13.36,13.36,0,0,1-1.876,2l-2.193-.657.345,2.2a107.481,107.481,0,0,1-9.239,6.3c-.237-5.369.825-11.788,5.444-14.6l1.617.776-.5-1.358a10.182,10.182,0,0,1,1.056-.388c6.468-1.957,7.886,2.156,5.347,5.724" transform="translate(-51.239 -86.248)" fill="#60a2f4"/>
        <path id="Path_3671" data-name="Path 3671" d="M138.993,246a40.569,40.569,0,0,1-6.56-4.194v-1.757l-1.235.679c-1.875-1.795-3.11-3.8-2.2-5.6,1.025-2.026,3.326-2.183,5.488-.889l.092,1.7,1.272-.663c2.253,2.1,3.951,5.87,3.148,10.721" transform="translate(-44.976 -81.576)" fill="#60a2f4"/>
        <path id="Path_3672" data-name="Path 3672" d="M159.863,237.99l-2.188-.658v1.5c-3.52,1.267-7.843,2.506-7.843,2.506.781-4.092,2.679-7.762,6.57-8.943l.868.83.588-1.143c.269-.038.544-.059.83-.075,5.438-.269,4.716,4.485,1.175,5.983" transform="translate(-52.365 -81.081)" fill="#60a2f4"/>
        <path id="Path_3673" data-name="Path 3673" d="M140.554,228.576s-3.709-4.124-8.075-8.474l.61-2.226-2.334.533c-.043-.043-.092-.086-.135-.129-5.121-4.943-2.6-11.681,5.034-8.716a8.708,8.708,0,0,1,1.935,1.035l-.275,1.886,1.886-.4c3.638,4.36,2.679,12,1.353,16.494" transform="translate(-44.715 -72.987)" fill="#60a2f4"/>
        <path id="Path_3674" data-name="Path 3674" d="M163.445,218.372a7.727,7.727,0,0,1-1.86,2.367l-2.032.221.211,1.213a39.928,39.928,0,0,1-7.638,3.913s.087-6.225,4.258-10.2a2.381,2.381,0,0,1,.178-.162l1.687.566-.146-1.693c3.655-2.048,7.045.114,5.342,3.779" transform="translate(-53.167 -74.722)" fill="#60a2f4"/>
        <path id="Path_3675" data-name="Path 3675" d="M150.044,281.32H129.158l3.368,21.476v7.967a1.716,1.716,0,0,0,.518,1.166,1.9,1.9,0,0,0,1.343.459c.081,0,.163,0,.249-.009,1.713-.127,1.653-3.494,1.605-6.2-.005-.28-.01-.55-.012-.808h7.916c0,.258-.007.528-.012.808-.048,2.7-.109,6.071,1.6,6.2.085.006.168.009.248.009a1.9,1.9,0,0,0,1.343-.459,1.716,1.716,0,0,0,.518-1.166v-7.645ZM135.7,306.191c.04,2.215.1,5.563-1.106,5.652a1.525,1.525,0,0,1-1.179-.3,1.181,1.181,0,0,1-.35-.775v-5.39h2.623c0,.262.007.535.012.817m11.26,5.345a1.527,1.527,0,0,1-1.184.307c-1.205-.089-1.146-3.437-1.107-5.652.005-.282.01-.556.012-.817h2.623v5.39a1.178,1.178,0,0,1-.345.771" transform="translate(-45.14 -98.319)" fill="#070707"/>
        <rect id="Rectangle_38847" data-name="Rectangle 38847" width="23.178" height="3.369" transform="translate(82.805 181.316)" fill="#252728"/>
        <path id="Path_3676" data-name="Path 3676" d="M160.194,217s-14.419,5.929-15.16,26.951,0,24.255,0,24.255" transform="translate(-50.573 -75.84)" fill="none" stroke="#252728" stroke-width="0.829"/>
        <path id="Path_3677" data-name="Path 3677" d="M130.262,262.434a13.31,13.31,0,0,1,9.4,11.409" transform="translate(-45.526 -91.719)" fill="none" stroke="#252728" stroke-width="0.829"/>
        <path id="Path_3678" data-name="Path 3678" d="M158.937,248.762s-14.089,7.187-14.232,22.1" transform="translate(-50.573 -86.941)" fill="none" stroke="#252728" stroke-width="0.829"/>
        <path id="Path_3679" data-name="Path 3679" d="M130.262,236.678a14.913,14.913,0,0,1,9.724,14.149" transform="translate(-45.526 -82.717)" fill="none" stroke="#252728" stroke-width="0.829"/>
        <path id="Path_3680" data-name="Path 3680" d="M132.058,211.613s11.439,7.942,9.934,21.176" transform="translate(-46.153 -73.957)" fill="none" stroke="#252728" stroke-width="0.829"/>
        <path id="Path_3681" data-name="Path 3681" d="M160.371,235.228s-14.419,1.438-15.16,16.889" transform="translate(-50.75 -82.211)" fill="none" stroke="#252728" stroke-width="0.829"/>
        <path id="Path_3682" data-name="Path 3682" d="M33.993,158.092H6.617a6.617,6.617,0,0,1,0-13.234H33.993a6.617,6.617,0,1,1,0,13.234" transform="translate(0 -50.627)" fill="#ff901b"/>
        <path id="Path_3683" data-name="Path 3683" d="M20.834,154.15a1.693,1.693,0,1,1-1.7-1.687,1.693,1.693,0,0,1,1.7,1.687" transform="translate(-6.098 -53.285)" fill="#fff"/>
        <path id="Path_3684" data-name="Path 3684" d="M32,154.115a1.693,1.693,0,1,1-1.7-1.688,1.693,1.693,0,0,1,1.7,1.688" transform="translate(-10 -53.272)" fill="#fff"/>
        <path id="Path_3685" data-name="Path 3685" d="M43.161,154.08a1.693,1.693,0,1,1-1.7-1.688,1.693,1.693,0,0,1,1.7,1.688" transform="translate(-13.901 -53.26)" fill="#fff"/>
        <path id="Path_3686" data-name="Path 3686" d="M421.2,129.8H399.461a3.483,3.483,0,0,1-3.483-3.483v-18.64a2.718,2.718,0,0,1,2.718-2.718H421.2a2.718,2.718,0,0,1,2.718,2.718v19.405A2.718,2.718,0,0,1,421.2,129.8" transform="translate(-138.392 -36.684)" fill="#60a2f4"/>
        <path id="Path_3687" data-name="Path 3687" d="M413.864,125.57c2.37.04,4.771.073,6.951-.078.69-.047,1.287-1.144.448-1.49a1.549,1.549,0,0,0,.865-.751.741.741,0,0,0-.42-.98c.822.2,1.146-1.1.5-1.522a1.922,1.922,0,0,0,.694-1.112,1.113,1.113,0,0,0-.5-1.149,1.774,1.774,0,0,0-.854-.148l-2.958-.022a6.824,6.824,0,0,0-.436-4.579c-.236-.409-.871-.9-1.375-.584-.472.293-.341,1.025-.317,1.488a5.21,5.21,0,0,1-2.689,4.754s.112,4.087.087,6.173" transform="translate(-144.612 -39.512)" fill="#f9f9f9"/>
        <rect id="Rectangle_38848" data-name="Rectangle 38848" width="3.583" height="6.167" transform="translate(264.81 79.885)" fill="#f9f9f9"/>
        <path id="Path_3688" data-name="Path 3688" d="M135.225,38.7H109.84a4.611,4.611,0,0,1-4.611-4.611V14.638a4.611,4.611,0,0,1,4.611-4.611h25.385a4.612,4.612,0,0,1,4.611,4.611V34.09a4.612,4.612,0,0,1-4.611,4.611" transform="translate(-36.777 -3.504)" fill="#f99595"/>
        <rect id="Rectangle_38849" data-name="Rectangle 38849" width="4.137" height="5.443" transform="translate(74.083 23.105)" fill="#f7f7f7"/>
        <rect id="Rectangle_38850" data-name="Rectangle 38850" width="4.137" height="9.145" transform="translate(80.486 19.403)" fill="#f7f7f7"/>
        <rect id="Rectangle_38851" data-name="Rectangle 38851" width="4.137" height="11.974" transform="translate(86.89 16.574)" fill="#f7f7f7"/>
        <rect id="Rectangle_38852" data-name="Rectangle 38852" width="4.137" height="16.22" transform="translate(93.292 12.328)" fill="#f7f7f7"/>
        <path id="Path_3689" data-name="Path 3689" d="M334.166,38.977l21.143.147a4.8,4.8,0,0,0,4.837-4.77l.145-20.746a4.8,4.8,0,0,0-4.77-4.836l-21.143-.148a4.8,4.8,0,0,0-4.837,4.77L329.4,34.139a4.8,4.8,0,0,0,4.77,4.837" transform="translate(-115.122 -3.014)" fill="#ff901b"/>
        <path id="Path_3690" data-name="Path 3690" d="M335.981,27.846l-.006.87a.789.789,0,0,0,.648.783l1.025.187a5.3,5.3,0,0,0,.521,1.281l-.6.855a.787.787,0,0,0,.081,1.01l.61.619a.787.787,0,0,0,1.009.095l.838-.579a5.331,5.331,0,0,0,1.274.539l.173,1.024a.787.787,0,0,0,.773.659l.883.007a.789.789,0,0,0,.783-.649l.187-1.022a5.275,5.275,0,0,0,1.281-.52l.849.6a.788.788,0,0,0,1.011-.081l.619-.61a.787.787,0,0,0,.095-1.009l-.592-.857a5.337,5.337,0,0,0,.539-1.274L349,29.6a.787.787,0,0,0,.659-.773l.007-.87a.787.787,0,0,0-.649-.782L348,26.992a5.317,5.317,0,0,0-.521-1.281l.6-.849a.787.787,0,0,0-.081-1.01l-.61-.619a.786.786,0,0,0-1.009-.1l-.854.566a5.3,5.3,0,0,0-1.274-.538l-.172-1.025a.787.787,0,0,0-.773-.659l-.885-.007a.788.788,0,0,0-.766.649l-.184,1.048a5.34,5.34,0,0,0-1.282.52l-.848-.6a.789.789,0,0,0-1.011.064l-.619.61a.788.788,0,0,0-.095,1.01l.592.857a5.346,5.346,0,0,0-.539,1.274l-1.027.173a.788.788,0,0,0-.66.77m4.494.479v-.013a2.357,2.357,0,1,1,0,.013" transform="translate(-117.421 -7.505)" fill="#fff"/>
        <path id="Path_3691" data-name="Path 3691" d="M357.236,38.172l0,.435a.393.393,0,0,0,.324.391l.513.094a2.687,2.687,0,0,0,.26.641l-.3.428a.393.393,0,0,0,.04.5l.305.31a.394.394,0,0,0,.5.047l.419-.289a2.665,2.665,0,0,0,.637.269l.087.512a.394.394,0,0,0,.386.33l.442,0a.393.393,0,0,0,.391-.324l.094-.511a2.687,2.687,0,0,0,.641-.26l.424.3a.394.394,0,0,0,.505-.04l.309-.305a.394.394,0,0,0,.048-.5l-.3-.429a2.639,2.639,0,0,0,.269-.637l.513-.087a.393.393,0,0,0,.329-.386l0-.435a.393.393,0,0,0-.324-.391l-.511-.094a2.662,2.662,0,0,0-.26-.641l.3-.424a.394.394,0,0,0-.041-.505l-.305-.31a.4.4,0,0,0-.5-.047l-.427.283a2.666,2.666,0,0,0-.637-.269l-.087-.512a.394.394,0,0,0-.386-.33l-.443,0a.393.393,0,0,0-.383.324l-.092.524a2.614,2.614,0,0,0-.641.26l-.425-.3a.393.393,0,0,0-.5.033l-.31.305a.394.394,0,0,0-.047.5l.3.429a2.665,2.665,0,0,0-.269.637l-.514.087a.393.393,0,0,0-.329.385m2.247.239V38.4a1.178,1.178,0,1,1,0,.006" transform="translate(-124.85 -12.227)" fill="#fff"/>
        <path id="Path_3692" data-name="Path 3692" d="M356.009,19.838l0,.554a.5.5,0,0,0,.413.5l.653.119a3.361,3.361,0,0,0,.332.816l-.385.545a.5.5,0,0,0,.051.644l.389.394a.5.5,0,0,0,.643.06l.533-.369a3.415,3.415,0,0,0,.812.343l.11.652a.5.5,0,0,0,.492.42l.563,0a.5.5,0,0,0,.5-.413l.119-.651a3.411,3.411,0,0,0,.816-.332l.541.385a.5.5,0,0,0,.644-.052l.394-.388a.5.5,0,0,0,.061-.643l-.377-.546a3.366,3.366,0,0,0,.343-.812l.652-.109a.5.5,0,0,0,.42-.493l0-.553a.5.5,0,0,0-.413-.5l-.651-.12a3.419,3.419,0,0,0-.331-.816l.384-.541a.5.5,0,0,0-.052-.644l-.388-.394a.5.5,0,0,0-.643-.061l-.544.361a3.362,3.362,0,0,0-.812-.343l-.11-.653a.5.5,0,0,0-.492-.42l-.565,0a.5.5,0,0,0-.488.413l-.117.667a3.364,3.364,0,0,0-.816.332l-.541-.386a.5.5,0,0,0-.644.042l-.394.389a.5.5,0,0,0-.061.643l.377.546a3.378,3.378,0,0,0-.343.812l-.654.11a.5.5,0,0,0-.42.49m2.863.305v-.008a1.5,1.5,0,1,1,0,.008" transform="translate(-124.421 -5.515)" fill="#fff"/>
        <rect id="Rectangle_38853" data-name="Rectangle 38853" width="13.059" height="17.782" transform="translate(55.393 128.899)" fill="#455157"/>
        <path id="Path_3693" data-name="Path 3693" d="M84.705,208.931a3.253,3.253,0,1,1-3.253-3.253,3.253,3.253,0,0,1,3.253,3.253" transform="translate(-27.33 -71.883)" fill="#e5b498"/>
        <path id="Path_3694" data-name="Path 3694" d="M101.577,210.665a3.253,3.253,0,1,0,3.405-3.093,3.254,3.254,0,0,0-3.405,3.093" transform="translate(-35.499 -72.544)" fill="#e5b498"/>
        <path id="Path_3695" data-name="Path 3695" d="M81.488,322.841,82.053,328l4.513-.407-.284-6.383Z" transform="translate(-28.479 -112.262)" fill="#ebba9a"/>
        <path id="Path_3696" data-name="Path 3696" d="M54.107,321.528l.043,5.822,4.511.358.732-6.18Z" transform="translate(-18.91 -112.372)" fill="#ebba9a"/>
        <path id="Path_3697" data-name="Path 3697" d="M60.867,334.256a15.047,15.047,0,0,0-.9-2.963,7.5,7.5,0,0,1-1.669-1.519,2.364,2.364,0,0,0-.742-.749,1.444,1.444,0,0,0-.716-.066c-1.3.1-2.608.163-3.912.224a17.443,17.443,0,0,1-.223,3.23,4.846,4.846,0,0,0-.124,2.048Z" transform="translate(-18.35 -114.964)"/>
        <path id="Path_3698" data-name="Path 3698" d="M69.568,222.606l-.042-.048a6.207,6.207,0,0,0-6.465-1.887c-5.9,1.9-5.677,11.029-6.16,16.395q-.766,8.514-1.609,17.019c-1.067,10.773-1.537,22.435-2.789,33.184a17.287,17.287,0,0,0,4.444.809c1.8.18,2.394,0,2.969-.466,1.507-9.782,3.493-20.451,5.244-30.182.921-5.116,1.629-7.595,2.616-12.7.738-3.808.953-7.725,1.871-11.494.418-1.715,1.533-3.344,1.684-5.049a7.751,7.751,0,0,0-1.763-5.584" transform="translate(-18.349 -77.028)" fill="#304573"/>
        <line id="Line_86" data-name="Line 86" x1="2.277" y1="0.45" transform="translate(42.987 187.585)" fill="none" stroke="#122b72" stroke-linecap="round" stroke-linejoin="round" stroke-width="0.734"/>
        <line id="Line_87" data-name="Line 87" x1="2.692" y2="1.33" transform="translate(42.549 188.029)" fill="none" stroke="#122b72" stroke-linecap="round" stroke-linejoin="round" stroke-width="0.734"/>
        <path id="Path_3699" data-name="Path 3699" d="M81.11,334.525a.908.908,0,0,0,.1.02q.392,0,.785,0c.067,0,.132,0,.2,0q.468.012.938.036c2.437.131,4.937.506,7.338.5a6.527,6.527,0,0,0,2.473-.365c1.946-.815-.473-1.76-1.263-2.185a26.554,26.554,0,0,0-2.433-1.237,18.44,18.44,0,0,1-3.219-1.744,14.964,14.964,0,0,1-4.265.518c-.736-.017-1.726,4.133-.65,4.449" transform="translate(-28.181 -115.178)"/>
        <path id="Path_3700" data-name="Path 3700" d="M83.579,234.1c-.4-2.387-2.4-10.6-5.136-10.985a5.978,5.978,0,0,0-5.268,2,8.715,8.715,0,0,0-1.608,4.313,44.234,44.234,0,0,0,.1,8.042c.265,4.179,1.308,12.059,1.308,12.059s4.1,30.4,4.014,38.974c1.633,2.153,6.933.169,6.947-.081.383-6.762.239-17.978.24-23.2,0-5.626.349-25.547-.6-31.114" transform="translate(-24.958 -77.959)" fill="#344b7e"/>
        <path id="Path_3701" data-name="Path 3701" d="M72.685,253.667l-1.2-12.7" transform="translate(-24.984 -84.218)" fill="none" stroke="#122b72" stroke-width="0.734"/>
        <path id="Path_3702" data-name="Path 3702" d="M63.041,236.582a36.775,36.775,0,0,0,5.773,1.1,25.023,25.023,0,0,0,10.922-1.426c-.086-1.255-.191-2.314-.323-3.09-.4-2.387-2.4-10.6-5.136-10.985a6.033,6.033,0,0,0-2.471.2,6.193,6.193,0,0,0-6.3-1.715c-5.218,1.686-5.646,9.026-6.011,14.411a12.23,12.23,0,0,0,3.55,1.5" transform="translate(-20.792 -77.028)" fill="#1e3356"/>
        <path id="Path_3703" data-name="Path 3703" d="M77.905,171c.027.241.044.479.055.708q.074,1.374.147,2.748a25.012,25.012,0,0,1,.148,2.821c-.081,1.316-.364,2.578-1.59,3.221a2.932,2.932,0,0,1-2.443.011,2.726,2.726,0,0,1-1.59-1.332,4.072,4.072,0,0,1-.152-1.383c.007-1.529-.027-3.059.035-4.588a7.669,7.669,0,0,1,.391-2.954c.58-1.246,2.07-2.471,3.454-1.926A2.93,2.93,0,0,1,77.905,171" transform="translate(-25.33 -58.781)" fill="#e5b498"/>
        <path id="Path_3704" data-name="Path 3704" d="M85.372,169.335l.011-.018c-.04-.054-.077-.1-.11-.14-.232-.388-.407-.833-.606-1.235a3.21,3.21,0,0,1-.2.3,2.153,2.153,0,0,0-.107.523,5.487,5.487,0,0,0-.047,1.108.721.721,0,0,0,.109.4c.2.26.881.021,1.149-.018.089-.013.194-.038.224-.122.091-.254-.272-.6-.424-.8" transform="translate(-29.464 -58.695)" fill="#e5b498"/>
        <path id="Path_3705" data-name="Path 3705" d="M71.57,161.241a7.513,7.513,0,0,1,4.176-1.268c1.911-.028,2.968.777,3.406,1.877a14.491,14.491,0,0,1,.95,5.316,19.567,19.567,0,0,1-.185,2.71,1.607,1.607,0,0,1-1.381,1.574,16.38,16.38,0,0,1-2.5.217,8.11,8.11,0,0,1-2.361-.134,4.111,4.111,0,0,1-2.358-2.722c-.116-.313-.353-1.349-.427-1.671-.459-1.971-.089-5.341.684-5.9" transform="translate(-24.704 -55.909)" fill="#e5b498"/>
        <path id="Path_3706" data-name="Path 3706" d="M81.5,157.378a2.368,2.368,0,0,0-2.152-1.436" transform="translate(-27.733 -54.501)" fill="none" stroke="#1f2326" stroke-linecap="round" stroke-linejoin="round" stroke-width="0.734"/>
        <path id="Path_3707" data-name="Path 3707" d="M83.539,157.962a.549.549,0,0,0-.691.181" transform="translate(-28.955 -55.187)" fill="none" stroke="#1f2326" stroke-linecap="round" stroke-linejoin="round" stroke-width="0.734"/>
        <path id="Path_3708" data-name="Path 3708" d="M75.148,168.589a.311.311,0,0,0,.181-.1c.12-.155.09-.7.116-.9q.112-.868.224-1.736c.047-.364.008-.674.308-.9a1.588,1.588,0,0,1,.956-.288c1.194,0,1.5.136,1.326-1.153a5.808,5.808,0,0,1-.112-1.859,1.223,1.223,0,0,1,.4-.74c.373-.429.78-.574.879-1.056a4.657,4.657,0,0,0-5.884-3.226,9.042,9.042,0,0,0-3.427,1.5,3.55,3.55,0,0,0-1.017,1.278.808.808,0,0,0-.1.394.833.833,0,0,0,.08.3c-.733,1.123-.282,2.623-.062,3.836a11.716,11.716,0,0,0,.754,2.473c.168.4.357.787.562,1.167.083.154.486,1.079.608,1.085a32.662,32.662,0,0,0,3.666-.04,3.366,3.366,0,0,0,.536-.031" transform="translate(-24.004 -54.678)" fill="#1f2326"/>
        <path id="Path_3709" data-name="Path 3709" d="M80.017,169.587a1.035,1.035,0,0,0,1.652.03,1.717,1.717,0,0,0,.288-.947,1.959,1.959,0,0,0-.122-.878,1.214,1.214,0,0,0-.9-.678c-1.315-.278-1.59,1.715-.919,2.473" transform="translate(-27.842 -58.396)" fill="#e5b498"/>
        <path id="Path_3710" data-name="Path 3710" d="M81.055,168.3a.3.3,0,0,1,.418-.18.709.709,0,0,1,.328.395,2.576,2.576,0,0,1,.207.847.3.3,0,1,0-.193.565" transform="translate(-28.328 -58.747)" fill="none" stroke="#1f2326" stroke-linecap="round" stroke-width="0.466"/>
        <path id="Path_3711" data-name="Path 3711" d="M83.816,165.634a2.105,2.105,0,0,1,.972-.151" transform="translate(-29.293 -57.833)" fill="none" stroke="#1f2326" stroke-linecap="round" stroke-width="0.466"/>
        <path id="Path_3712" data-name="Path 3712" d="M84.894,167.736a.418.418,0,1,1-.464-.366.418.418,0,0,1,.464.366" transform="translate(-29.379 -58.494)" fill="#1f2326"/>
        <path id="Path_3713" data-name="Path 3713" d="M83.85,173.386c.151,0,.487-.043.63-.062" transform="translate(-29.305 -60.576)" fill="none" stroke="#1f2326" stroke-linecap="round" stroke-width="0.466"/>
        <path id="Path_3714" data-name="Path 3714" d="M61.8,215.118h-4.01a4.119,4.119,0,0,1,0-8.237H61.8a4.119,4.119,0,0,1,0,8.237" transform="translate(-18.757 -72.303)" fill="#dd7314"/>
        <path id="Path_3715" data-name="Path 3715" d="M59.444,185.126c-3.031,3.523-5.788,11.22-6.075,15.81a5.027,5.027,0,0,0,.808,3.257,3.055,3.055,0,0,0,2.97,1.291,4.331,4.331,0,0,0,2.616-2.34,38.231,38.231,0,0,0,2.768-7.848c.429-2.078,1.365-4.033,1.738-6.154.232-1.32,1.469-7.512-1.551-6.7a3.723,3.723,0,0,0-1.36.8,15.905,15.905,0,0,0-1.914,1.882" transform="translate(-18.648 -63.737)" fill="#dd7314"/>
        <path id="Path_3716" data-name="Path 3716" d="M70.482,180.692l1.125-1.78,6.043-.187,1.453,2.061Z" transform="translate(-24.633 -62.463)" fill="#fff"/>
        <path id="Path_3717" data-name="Path 3717" d="M78.836,207.993,77.611,184.06c-.172,0,.014-1.849-.58-2.2a16.076,16.076,0,0,0-3.781-.987l-6.354.058a17.038,17.038,0,0,0-2.779.7,2.979,2.979,0,0,0-2.058,2.476l-.884,12.235-1.216,11.451-2.867,8.647a14.438,14.438,0,0,0,3.582,2.581c.4.2.814.384,1.229.554,0,0,5.873,2.363,11.347,1.149,1.024-.133,2.036-.315,3.025-.537a20.452,20.452,0,0,0,4.563-1.633Z" transform="translate(-19.953 -63.212)" fill="#ff901b"/>
        <path id="Path_3718" data-name="Path 3718" d="M97.739,215.118h-4.01a4.119,4.119,0,0,1,0-8.237h4.01a4.119,4.119,0,0,1,0,8.237" transform="translate(-31.318 -72.303)" fill="#ff901b"/>
        <path id="Path_3719" data-name="Path 3719" d="M89.346,185.4c1.523,2.242,2.429,5.188,3.361,7.722.922,2.509,2.5,5.793,2.439,8.508a3.4,3.4,0,0,1-1.238,2.665,3.684,3.684,0,0,1-3.035.452c-3.046-.725-3.891-3.328-4.844-5.907a35.448,35.448,0,0,1-2.157-9.994c-.079-1.373-.606-7.832,2.417-6.608a3.937,3.937,0,0,1,1.308,1,16.59,16.59,0,0,1,1.75,2.166" transform="translate(-29.283 -63.636)" fill="#ff901b"/>
        <path id="Path_3720" data-name="Path 3720" d="M88.524,209.59a37.1,37.1,0,0,1-3.119-8.211" transform="translate(-29.848 -70.381)" fill="none" stroke="#d87012" stroke-width="0.807"/>
        <path id="Path_3721" data-name="Path 3721" d="M85.743,203.867l-1.033-1.643" transform="translate(-29.606 -70.676)" fill="none" stroke="#d87012" stroke-width="0.807"/>
        <path id="Path_3722" data-name="Path 3722" d="M349.493,219.18c-5.559,1.1-5.709,7.485-5.227,12.058,1.021,9.656,3.827,32.516,3.827,32.516l5.343,28.046,3.736.208-1.983-28.378s.947-20.674,1.9-27.877c1.54-10.086-.208-18.033-7.593-16.573" transform="translate(-120.257 -76.541)" fill="#2354c1"/>
        <path id="Path_3723" data-name="Path 3723" d="M359.483,329.751a15.046,15.046,0,0,1-4.031-.036h-.006a.845.845,0,0,0-.815.38c-.107.166-.211.321-.314.45a3.662,3.662,0,0,1-2.134,1.285c-.031.011-.057.028-.088.038-1.013.127-1.938.645-2.053,1.615h9.341a6.7,6.7,0,0,0,.1-3.733" transform="translate(-122.338 -115.23)"/>
        <rect id="Rectangle_38854" data-name="Rectangle 38854" width="9.516" height="1.228" transform="translate(227.702 218.107)" fill="#9f98a2"/>
        <path id="Path_3724" data-name="Path 3724" d="M347.548,219.519c-5.656-.325-7.4,5.822-8.073,10.37-1.425,9.6-3.754,32.537-3.754,32.537l2.06,29.581,3.9-.154,2.177-29.271s4.185-18.383,6.905-25.119c4.01-9.382,4.3-17.514-3.213-17.945" transform="translate(-117.332 -76.716)" fill="#365fe5"/>
        <path id="Path_3725" data-name="Path 3725" d="M338.193,329.737a15.04,15.04,0,0,1-4.031-.036,1.214,1.214,0,0,0-1.066.221,16.2,16.2,0,0,1-5.108,1.781,5.907,5.907,0,0,0-2.717.874,1.122,1.122,0,0,0-.46.892h13.283a6.7,6.7,0,0,0,.1-3.733" transform="translate(-113.518 -115.217)"/>
        <rect id="Rectangle_38855" data-name="Rectangle 38855" width="13.567" height="1.228" transform="translate(210.982 218.107)" fill="#9f98a2"/>
        <path id="Path_3726" data-name="Path 3726" d="M354.343,170.558a7.724,7.724,0,0,0-.135-1.9,4.949,4.949,0,0,0,2.9.084,8.424,8.424,0,0,0,1.376-.526c.159-.074.444-.307.707-.453a7.121,7.121,0,0,0,.788,6.192,7.313,7.313,0,0,1-3.595,1.53c-1.116.19-3.783.366-3.143-1.51.21-.615.661-1.086.839-1.723a7.729,7.729,0,0,0,.263-1.693" transform="translate(-123.421 -58.632)" fill="#e5b498"/>
        <path id="Path_3727" data-name="Path 3727" d="M357.4,169.266a4.944,4.944,0,0,1-2.719-.126,8.051,8.051,0,0,1-.127,3.592c-.016.057-.036.112-.057.167.11-.013.22-.033.33-.053a6.635,6.635,0,0,0,2.572-3.58" transform="translate(-123.894 -59.113)" fill="#ae6e59"/>
        <path id="Path_3728" data-name="Path 3728" d="M350.5,164.941a1.278,1.278,0,0,0,.228.032c.234.01.207-.284.193-.453-.035-.448-.036-.917-.11-1.36a4.418,4.418,0,0,0-.362.56c-.174.244-.351.485-.527.729a.248.248,0,0,0-.055.109c-.013.1.083.17.17.214a2.081,2.081,0,0,0,.462.169" transform="translate(-122.278 -57.023)" fill="#e5b498"/>
        <path id="Path_3729" data-name="Path 3729" d="M359.3,161.595a6.983,6.983,0,0,0,.574-2.937,4.969,4.969,0,0,0-1.084-3.017A4.39,4.39,0,0,0,354.5,154.2a4.154,4.154,0,0,0-1.131.453,4.06,4.06,0,0,0-2,2.544c-.032.232.016.455-.029.691-.066.35-.14.7-.194,1.049a10.681,10.681,0,0,0-.136,2.121,6.986,6.986,0,0,0,.467,2.434,3.146,3.146,0,0,0,1.475,1.609,3.684,3.684,0,0,0,3.722-.317,7.3,7.3,0,0,0,2.624-3.195" transform="translate(-122.674 -53.856)" fill="#e5b498"/>
        <path id="Path_3730" data-name="Path 3730" d="M351.535,167.282l.488.217" transform="translate(-122.859 -58.464)" fill="none" stroke="#373b44" stroke-linecap="round" stroke-width="0.472"/>
        <path id="Path_3731" data-name="Path 3731" d="M328.98,186.727a1.233,1.233,0,0,1,.789-.917c.412-.144,1.109-.145,1.246-.559.068-.208.137-.285-.029-.426a1.031,1.031,0,0,0-.608-.213,1.811,1.811,0,0,0-1.665.926c-.1.181-.24.418-.437.361a.338.338,0,0,1-.193-.208,1.9,1.9,0,0,1,.4-1.661,2.814,2.814,0,0,1,.913-1.041,2.712,2.712,0,0,1,1.533-.206,5.834,5.834,0,0,1,3.052.781c.234.164.447.356.68.521a7.488,7.488,0,0,0,2,.894l-.652,2.261a.125.125,0,0,1-.185.1c-1.28-.312-2.758-.574-4.042-.775a9.608,9.608,0,0,0-2.8.157" transform="translate(-114.635 -63.875)" fill="#e5b498"/>
        <path id="Path_3732" data-name="Path 3732" d="M347.671,187.829a20.3,20.3,0,0,0-2.124-.851c-1.268-.435-2.6-.791-3.877-1.128-.483-.128-2.333-.591-2.829-.671a3.827,3.827,0,0,0-1.779,3.552,75.616,75.616,0,0,0,6.627,3.749,19.4,19.4,0,0,0,2.791,1.178,6.347,6.347,0,0,0,3.126.2,2.013,2.013,0,0,0,1.3-.74,1.368,1.368,0,0,0,.155-.777,5.5,5.5,0,0,0-3.387-4.517" transform="translate(-117.801 -64.719)" fill="#c47a7a"/>
        <path id="Path_3733" data-name="Path 3733" d="M316.053,198.734a3.863,3.863,0,0,1-.273-3.238,1.412,1.412,0,0,1,.8-.9,1.245,1.245,0,0,1,1.293.533,5.96,5.96,0,0,1,.633,1.347,6.272,6.272,0,0,0,.8,1.393,3.538,3.538,0,0,1,.85,1.421,1.4,1.4,0,0,1-.388,1.218c-1.173,1.156-3.147-.766-3.716-1.775" transform="translate(-110.28 -67.996)" fill="#e5b498"/>
        <path id="Path_3734" data-name="Path 3734" d="M327.8,195.31l-7.092,3.438-9.382-8.516,7.093-3.437Z" transform="translate(-108.807 -65.283)" fill="#e1ab3d"/>
        <path id="Path_3735" data-name="Path 3735" d="M327.243,195.387l-6.091,2.953-8.106-7.359,6.091-2.952Z" transform="translate(-109.407 -65.715)" fill="#fff"/>
        <path id="Path_3736" data-name="Path 3736" d="M320.847,190.181l-5.062,2.454-.494-.448,5.062-2.454Z" transform="translate(-110.192 -66.31)" fill="#ccdbf5"/>
        <path id="Path_3737" data-name="Path 3737" d="M324.822,193.789l-5.062,2.454-.494-.448,5.062-2.454Z" transform="translate(-111.581 -67.571)" fill="#ccdbf5"/>
        <path id="Path_3738" data-name="Path 3738" d="M326.139,194.985l-5.062,2.454-.494-.448,5.062-2.454Z" transform="translate(-112.042 -67.989)" fill="#ccdbf5"/>
        <path id="Path_3739" data-name="Path 3739" d="M327.456,196.18l-5.062,2.454-.494-.448,5.062-2.454Z" transform="translate(-112.502 -68.407)" fill="#ccdbf5"/>
        <path id="Path_3740" data-name="Path 3740" d="M328.773,197.376l-5.062,2.454-.494-.448,5.062-2.454Z" transform="translate(-112.962 -68.825)" fill="#ccdbf5"/>
        <path id="Path_3741" data-name="Path 3741" d="M330.09,198.571l-5.062,2.454-.494-.448,5.062-2.454Z" transform="translate(-113.422 -69.243)" fill="#ccdbf5"/>
        <path id="Path_3742" data-name="Path 3742" d="M318.685,188.211l-4.256,2.063-1.81-1.644,4.256-2.062Z" transform="translate(-109.258 -65.204)" fill="#373b44"/>
        <path id="Path_3743" data-name="Path 3743" d="M317.272,198.109a2.117,2.117,0,0,0-.193.263c-.536.862.5,1.662,1.162,2.126a16.828,16.828,0,0,0,5.071,2.067c.982.286,3.826-.414,3.04-1.957-.536-1.053-2.123-1.659-3.166-1.94a2.856,2.856,0,0,1-2.414-1.752c-.18-.487-.253-1.008-.412-1.5a.742.742,0,0,0-.181-.333.283.283,0,0,0-.351-.039.385.385,0,0,0-.111.183c-.3.847.241,1.474-.8,1.971-.346.165-.726.256-1.062.442a2.115,2.115,0,0,0-.582.473" transform="translate(-110.765 -68.149)" fill="#e5b498"/>
        <path id="Path_3744" data-name="Path 3744" d="M356.776,211.943s.241-.1.425-.187c1.013-.52,1.355-1.839,1.455-3,.231-2.669-.617-5.182-.514-8,.109-2.986.806-6.056,1.226-9.27a25.643,25.643,0,0,0-.12-8.718,15.736,15.736,0,0,0-2.432-6.237,4.756,4.756,0,0,0-2.68-1.353,6.433,6.433,0,0,0-3.383.091,7.831,7.831,0,0,0-3.8,2.67,13.035,13.035,0,0,0-1.573,3.9,46.054,46.054,0,0,0-1.86,8.548c-.349,2.953.076,2.007-.075,4.91s.686,5.216-.807,7.636a21.409,21.409,0,0,0-2.283,3.765,3.611,3.611,0,0,0,.818,4.016c-.066.517-.144,1.03-.191,1.541,2.31,1.123,5.369,1.367,7.839,1.59a39.851,39.851,0,0,0,6.8.031,4.932,4.932,0,0,0,1.162-.137Z" transform="translate(-118.862 -61.158)" fill="#f99595"/>
        <path id="Path_3745" data-name="Path 3745" d="M360.3,231.624a30.925,30.925,0,0,1-9.745-.436" transform="translate(-122.515 -80.799)" fill="none" stroke="#373b44" stroke-linecap="round" stroke-width="0.286"/>
        <path id="Path_3746" data-name="Path 3746" d="M343.306,189.257a2.057,2.057,0,0,0-.646-.806,1.775,1.775,0,0,0-1.067-.245c-1.622.072-2.906,1.4-3.773,2.77a16.244,16.244,0,0,1-2.771,3.98c-2.156,1.84-9.419,1.315-11.831.778a2.584,2.584,0,0,0-1.955,3.5c3.234,1.421,12.985,6.606,16.515,4.925a7.365,7.365,0,0,0,2.9-2.759,22.69,22.69,0,0,0,1.179-2.08,20.207,20.207,0,0,0,1.947-4.9,7.775,7.775,0,0,0-.5-5.163" transform="translate(-112.209 -65.776)" fill="#efafaf"/>
        <path id="Path_3747" data-name="Path 3747" d="M352.168,180.319a3.418,3.418,0,0,0-4.225-.453,5.281,5.281,0,0,0-1.54,2.244,21.8,21.8,0,0,0-1.226,2.967c-.346,1.053-.611,2.13-.935,3.189-.531,1.736-1.224,3.426-1.622,5.2a9.2,9.2,0,0,0,.181,5.361c.952,2.412,4.126,1.131,5.541-.211a10.5,10.5,0,0,0,2.344-4.4q.818-2.394,1.635-4.788a18.888,18.888,0,0,0,1.082-4.856,5.576,5.576,0,0,0-1.235-4.25" transform="translate(-119.635 -62.678)" fill="#efafaf"/>
        <path id="Path_3748" data-name="Path 3748" d="M344.158,191.529a39.322,39.322,0,0,1,3.989-10.945" transform="translate(-120.281 -63.113)" fill="none" stroke="#d18484" stroke-width="1"/>
        <path id="Path_3749" data-name="Path 3749" d="M353.506,191.593q-1.045,2.811-2.089,5.622a14.034,14.034,0,0,1-1.924,4.178,22.2,22.2,0,0,1-2.983,3.225,4.369,4.369,0,0,1-3.51,1.01" transform="translate(-119.876 -66.96)" fill="none" stroke="#d18484" stroke-width="1"/>
        <path id="Path_3750" data-name="Path 3750" d="M359.512,192.358a3.939,3.939,0,0,0-1.5,1.525" transform="translate(-125.124 -67.228)" fill="none" stroke="#d18484" stroke-width="1"/>
        <path id="Path_3751" data-name="Path 3751" d="M326.3,188.032l-.836.454.424-.851,5.042-5.222a.286.286,0,0,1,.412.4Z" transform="translate(-113.748 -63.722)" fill="#373b44"/>
        <path id="Path_3752" data-name="Path 3752" d="M351.057,159.356a4.8,4.8,0,0,1-.752-.737c-1.4-1.756-.493-3.7.627-5.263a6.81,6.81,0,0,1,5.721-2.579,4.7,4.7,0,0,1,3.181,1.319,2.8,2.8,0,0,1,.807,1.384c.037.166.155,1.472-.114,1.5,2.066-.2,1.962,4.29,1.942,5.521q-.075,4.714-.15,9.428a5.267,5.267,0,0,1-.768,3.243,3.116,3.116,0,0,1-3.025,1,4.675,4.675,0,0,1-2.722-1.83,5.611,5.611,0,0,1-1.284-2.865c-.02-1.1.128-2.23.125-3.338a7.459,7.459,0,0,0-1.74-5.335,22.543,22.543,0,0,0-1.847-1.449" transform="translate(-122.18 -52.692)" fill="#1f2326"/>
        <path id="Path_3753" data-name="Path 3753" d="M275.011,295.468l.6,10.773,4.091-.214-.142-10.91Z" transform="translate(-96.114 -103.142)" fill="#ebba9a"/>
        <path id="Path_3754" data-name="Path 3754" d="M271.115,310.342l-7.457,4.126a1.548,1.548,0,0,0-.621,1.607H276.19l-.489-5.8Z" transform="translate(-91.919 -108.439)"/>
        <rect id="Rectangle_38856" data-name="Rectangle 38856" width="13.552" height="1.717" transform="translate(170.951 207.636)" fill="#bdb6bf"/>
        <path id="Path_3755" data-name="Path 3755" d="M295.489,295.468l.6,10.773,4.091-.214-.142-10.91Z" transform="translate(-103.271 -103.142)" fill="#ebba9a"/>
        <path id="Path_3756" data-name="Path 3756" d="M291.593,310.342l-7.457,4.126a1.548,1.548,0,0,0-.621,1.607h13.153l-.489-5.8Z" transform="translate(-99.076 -108.439)"/>
        <rect id="Rectangle_38857" data-name="Rectangle 38857" width="13.552" height="1.717" transform="translate(184.272 207.636)" fill="#bdb6bf"/>
        <path id="Path_3757" data-name="Path 3757" d="M275.466,217.886l15.7,1.451,2.082,53.5h-8.6l-2.785-40.353-3.732,17.244L279.4,273.49l-7.323.025-2.527-26.274Z" transform="translate(-94.206 -76.15)" fill="#fc8d2a"/>
        <line id="Line_88" data-name="Line 88" x2="3.51" y2="2.325" transform="translate(184.144 154.01)" fill="none" stroke="#e56e0c" stroke-width="1"/>
        <path id="Path_3758" data-name="Path 3758" d="M277.691,192.6l.1,5.251-2.456.038.181-5.652Z" transform="translate(-96.228 -67.186)" fill="#eaa99b"/>
        <path id="Path_3759" data-name="Path 3759" d="M276.882,179.1s-3.936,2.829-3.372,11.824l3.654-.993Z" transform="translate(-95.571 -62.592)" fill="#60a2f4"/>
        <path id="Path_3760" data-name="Path 3760" d="M286.364,174.548a28.761,28.761,0,0,1,8.429,1.657l-.17,30.489-16.686-1.555.176-26.666a1.356,1.356,0,0,1,.559-1.129l4.615-2.4a29.816,29.816,0,0,1,3.078-.4" transform="translate(-97.137 -61.003)" fill="#60a2f4"/>
        <line id="Line_89" data-name="Line 89" y1="5.881" transform="translate(180.916 121.637)" fill="none" stroke="#2c5796" stroke-width="0.729"/>
        <path id="Path_3761" data-name="Path 3761" d="M300.809,192.611l1.073,15.081s1.185,3.033,3.282-.122.3-15.478.3-15.478Z" transform="translate(-105.131 -67.135)" fill="#ebba9a"/>
        <path id="Path_3762" data-name="Path 3762" d="M299.784,190.508s-1.358-12.814,1.547-13.468c3.011-.678,5.851,7.95,5.851,15.084Z" transform="translate(-104.662 -61.861)" fill="#60a2f4"/>
        <path id="Path_3763" data-name="Path 3763" d="M300.469,194.424l-1.121-.4-.21-6.051" transform="translate(-104.547 -65.694)" fill="none" stroke="#2c5796" stroke-width="0.729"/>
        <path id="Path_3764" data-name="Path 3764" d="M286.984,192.785s-.6-2.659-2.8-2.918-2.839,1.83-2.426,3.206,1.84,3.616,4,2.471,1.222-2.758,1.222-2.758" transform="translate(-98.432 -66.35)" fill="#ebba9a"/>
        <path id="Path_3765" data-name="Path 3765" d="M282.291,189.885a11.772,11.772,0,0,0-3.757,1.248.549.549,0,0,0-.228.531.446.446,0,0,0,.5.442l2.973-.675Z" transform="translate(-97.264 -66.363)" fill="#ebba9a"/>
        <path id="Path_3766" data-name="Path 3766" d="M297.862,209.254l-9.886-12.131,1.222-2.758,9.616,7.413Z" transform="translate(-100.646 -67.929)" fill="#ebba9a"/>
        <line id="Line_90" data-name="Line 90" x2="2.003" y2="1.544" transform="translate(196.165 132.305)" fill="none" stroke="#dca686" stroke-width="0.637"/>
        <path id="Path_3767" data-name="Path 3767" d="M269.073,197.4l4.158,14.975a.943.943,0,0,0,1.01.764l10.106-1.61a1.157,1.157,0,0,0,.764-1.5l-4.28-14.956a.941.941,0,0,0-1.008-.755l-9.983,1.59a1.155,1.155,0,0,0-.766,1.491" transform="translate(-94.022 -67.908)" fill="#121314"/>
        <path id="Path_3768" data-name="Path 3768" d="M269.088,197.351l-.528.832,15.745,14.75.565-.894Z" transform="translate(-93.86 -68.973)" fill="#121314"/>
        <path id="Path_3769" data-name="Path 3769" d="M268.341,198.54l4.158,14.975a.943.943,0,0,0,1.01.764l10.106-1.61a1.158,1.158,0,0,0,.764-1.5l-4.28-14.956a.941.941,0,0,0-1.008-.755l-9.983,1.59a1.156,1.156,0,0,0-.766,1.491" transform="translate(-93.766 -68.308)" fill="#455157"/>
        <path id="Path_3770" data-name="Path 3770" d="M269.068,206.249l.946,3.1a.712.712,0,0,0,.76.556,1.936,1.936,0,0,0,1.3-2.465l-.267-1.039a1.627,1.627,0,0,0-1.581-1.344l-.527.031a.866.866,0,0,0-.634,1.163" transform="translate(-94.022 -71.664)" fill="#ebba9a"/>
        <path id="Path_3771" data-name="Path 3771" d="M287.216,167.279l.142,4.089c.047,1.436.783,2.21,1.918,2.21a1.733,1.733,0,0,0,1.927-1.821l-.065-6.395Z" transform="translate(-100.38 -57.793)" fill="#ebba9a"/>
        <path id="Path_3772" data-name="Path 3772" d="M287.193,171.362a5.332,5.332,0,0,0,4.508-4.585c.152-1.215-4.114.652-4.114.652Z" transform="translate(-100.372 -58.144)" fill="#dca686"/>
        <path id="Path_3773" data-name="Path 3773" d="M285.437,175.676l1.63-.92,2.877.1,1.686.286s.629,3.065-3.636,3.236c-3.41.137-2.556-2.7-2.556-2.7" transform="translate(-99.725 -61.076)" fill="#ebba9a"/>
        <path id="Path_3774" data-name="Path 3774" d="M283.844,157.335s-2.823-2.969-1.28-5.093,3.891.271,3.891.271Z" transform="translate(-98.593 -52.9)" fill="#1f2326"/>
        <path id="Path_3775" data-name="Path 3775" d="M289.131,152.22s8.566-.073,4.3,6.74l-.746-3.136Z" transform="translate(-101.049 -53.2)" fill="#1f2326"/>
        <path id="Path_3776" data-name="Path 3776" d="M284.6,154.719s-1.515,1.119.051,4.314l.745-3.663Z" transform="translate(-99.235 -54.073)" fill="#1f2326"/>
        <path id="Path_3777" data-name="Path 3777" d="M285.469,162.158a1.309,1.309,0,0,1-1.22,1.456,1.459,1.459,0,0,1-1.307-1.5,1.309,1.309,0,0,1,1.22-1.456,1.46,1.46,0,0,1,1.307,1.5" transform="translate(-98.886 -56.151)" fill="#d19b7e"/>
        <path id="Path_3778" data-name="Path 3778" d="M287.6,164.217h0a3.777,3.777,0,0,1-3.2-3.636l.012-3.549a3.478,3.478,0,0,1,3.264-3.763,4.181,4.181,0,0,1,3.822,4l-.039,2.763a3.916,3.916,0,0,1-3.856,4.181" transform="translate(-99.394 -53.566)" fill="#ebba9a"/>
        <path id="Path_3779" data-name="Path 3779" d="M284.488,155.828s-.05-.94,1.576-.922,3.687.481,4.717,2.268l-.159,2.543,1.553-1.38-.482-3.894-4.185-2.223-2.72,1.626Z" transform="translate(-99.426 -53.199)" fill="#1f2326"/>
        <path id="Path_3780" data-name="Path 3780" d="M296.42,163.009a1.3,1.3,0,0,1-1.208,1.441,1.445,1.445,0,0,1-1.295-1.481,1.3,1.3,0,0,1,1.208-1.442,1.444,1.444,0,0,1,1.294,1.481" transform="translate(-102.722 -56.453)" fill="#ebba9a"/>
        <path id="Path_3781" data-name="Path 3781" d="M287.075,152.15a1.313,1.313,0,0,1,1.09-1.568c1.2-.351,2.382.053,4.829,2.415Z" transform="translate(-100.321 -52.589)" fill="#1f2326"/>
        <path id="Path_3782" data-name="Path 3782" d="M284.684,163.94a.528.528,0,0,1,.347-.473,4.561,4.561,0,0,1,1.337-.209,6.728,6.728,0,0,1,2.484.7.518.518,0,0,0,.68-.232,8.631,8.631,0,0,0,.976-5.386l.842.864-.23,1.53s-.82,1.57.22,2.478c0,0-.2,3.475-3.1,3.67a4.059,4.059,0,0,1-2.5-.758,2.594,2.594,0,0,1-1.054-2.184" transform="translate(-99.493 -55.338)" fill="#1f2326"/>
        <path id="Path_3783" data-name="Path 3783" d="M293.317,159.141a1.952,1.952,0,0,1-.969-2.728c.874-1.952,1.566.8,1.566.8Z" transform="translate(-102.092 -54.421)" fill="#1f2326"/>
        <path id="Path_3784" data-name="Path 3784" d="M290.912,160.972c-.021.3-.181.52-.356.494s-.3-.29-.278-.589.181-.52.356-.494.3.29.278.589" transform="translate(-101.449 -56.052)" fill="#1f2326"/>
        <path id="Path_3785" data-name="Path 3785" d="M286.64,160.328c-.021.3-.181.52-.356.494s-.3-.29-.278-.59.181-.519.356-.494.3.29.278.589" transform="translate(-99.956 -55.827)" fill="#1f2326"/>
        <path id="Path_3786" data-name="Path 3786" d="M289.017,166.892a2.485,2.485,0,0,1-3.057-.461Z" transform="translate(-99.941 -58.166)" fill="#fff"/>
        <path id="Path_3787" data-name="Path 3787" d="M288,161.409s-1.112,1.656-.3,1.953,1.38.244.826-.325a1.965,1.965,0,0,1-.528-1.628" transform="translate(-100.446 -56.411)" fill="#d19b7e"/>
        <path id="Path_3788" data-name="Path 3788" d="M285.289,159.079s1.037-.244,1.545.223c0,0-.407-1.057-1.545-.223" transform="translate(-99.706 -55.485)" fill="#1f2326"/>
        <path id="Path_3789" data-name="Path 3789" d="M289.961,159.781a2.061,2.061,0,0,1,1.4.183s-.2-.935-1.4-.183" transform="translate(-101.339 -55.74)" fill="#1f2326"/>
        <path id="Path_3790" data-name="Path 3790" d="M242.3,301.5v18.678c0,4.193-28.325,7.594-63.278,7.594s-63.268-3.4-63.268-7.594V301.5Z" transform="translate(-40.456 -105.371)" fill="#e2a213"/>
        <path id="Path_3791" data-name="Path 3791" d="M242.3,297.419c0,4.2-28.328,7.6-63.272,7.6s-63.273-3.4-63.273-7.6,28.328-7.6,63.273-7.6,63.272,3.4,63.272,7.6" transform="translate(-40.455 -101.291)" fill="#fcc13d"/>
        <g id="Group_129064" data-name="Group 129064" transform="translate(104.848 191.812)" opacity="0.2">
          <g id="Group_129063" data-name="Group 129063">
            <g id="Group_129062" data-name="Group 129062" clip-path="url(#clip-path-11)">
              <path id="Path_3792" data-name="Path 3792" d="M233.088,299.181c0,2.383-16.1,4.316-35.954,4.316s-35.954-1.933-35.954-4.316,16.1-4.316,35.954-4.316,35.954,1.933,35.954,4.316" transform="translate(-161.179 -294.865)" fill="#3a3429"/>
            </g>
          </g>
        </g>
        <path id="Path_3793" data-name="Path 3793" d="M175.6,282.137c2.53-4.38,6.774-9.479,13.426-11.515L183.691,249.6s-4.838,10.3-12.739,31.511c-.419,1.124,1.047,2.125,2.137,2.125h.714a2.1,2.1,0,0,0,1.8-1.1" transform="translate(-59.721 -87.234)" fill="#e28bd9"/>
        <path id="Path_3794" data-name="Path 3794" d="M183.691,249.6s-4.838,10.3-12.739,31.51c-.331.889.517,1.7,1.425,2,2.875-10.345,7.595-19.866,12.367-29.363Z" transform="translate(-59.721 -87.234)" fill="#f9acac"/>
        <path id="Path_3795" data-name="Path 3795" d="M173.182,285.34a2.3,2.3,0,0,0,.712.126h.714a2.1,2.1,0,0,0,1.8-1.1c2.531-4.38,6.774-9.479,13.426-11.515l-4.286-16.873c-4.772,9.5-9.492,19.018-12.367,29.363" transform="translate(-60.526 -89.462)" fill="#f99595"/>
        <path id="Path_3796" data-name="Path 3796" d="M249.434,282.137c-2.531-4.38-6.774-9.479-13.426-11.515l5.339-21.021s4.838,10.3,12.739,31.511c.419,1.124-1.047,2.125-2.137,2.125h-.714a2.1,2.1,0,0,1-1.8-1.1" transform="translate(-82.483 -87.234)" fill="#f77c7c"/>
        <path id="Path_3797" data-name="Path 3797" d="M218.988,288.329H206.31a1.1,1.1,0,0,1-1.045-.932l-.7-3.43a1.17,1.17,0,0,1,1.045-1.461h14.07a1.17,1.17,0,0,1,1.044,1.461l-.7,3.43a1.1,1.1,0,0,1-1.045.932" transform="translate(-71.486 -98.734)" fill="#344b7e"/>
        <path id="Path_3798" data-name="Path 3798" d="M188.712,213.571s1.946,19.963,7.96,32.612a24.913,24.913,0,0,1,20.873,0s6.9-10.673,8.314-34.193c.816-13.553-.159-29.026-4.176-42.358H193.626c-3.735,10.86-6.393,25.445-4.914,43.939" transform="translate(-65.808 -59.285)" fill="#fff"/>
        <path id="Path_3799" data-name="Path 3799" d="M224.943,185.513a100.721,100.721,0,0,0-3.318-15.816H193.568c-3.735,10.86-6.394,25.444-4.915,43.939a149.908,149.908,0,0,0,2.4,14.9c16.724-7,28.967-23.854,33.894-43.019" transform="translate(-65.788 -59.308)" fill="#fff"/>
        <path id="Path_3800" data-name="Path 3800" d="M207.845,135.754a73.608,73.608,0,0,0-11.413,21.63h28.057c-2.571-8.531-6.385-16.187-11.785-21.894a3.145,3.145,0,0,0-4.859.264" transform="translate(-68.652 -46.995)" fill="#e28bd9"/>
        <path id="Path_3801" data-name="Path 3801" d="M210.625,134.5a3.217,3.217,0,0,0-2.78,1.263,73.611,73.611,0,0,0-11.414,21.63h16.431a7.5,7.5,0,0,0,.978-2.4,40.4,40.4,0,0,0-3.215-20.5" transform="translate(-68.652 -47.004)" fill="#f99595"/>
        <path id="Path_3802" data-name="Path 3802" d="M208.682,151.959c1.969-3.328,2.716-6.653,1.669-7.427s-3.493,1.3-5.462,4.625-2.716,6.653-1.669,7.427,3.493-1.3,5.462-4.625" transform="translate(-70.858 -50.456)" fill="#f9acac"/>
        <path id="Path_3803" data-name="Path 3803" d="M220.331,135.5a3.155,3.155,0,0,0-2.08-1,40.392,40.392,0,0,1,3.215,20.5,7.48,7.48,0,0,1-.977,2.4h11.627c-2.571-8.531-6.385-16.187-11.785-21.894" transform="translate(-76.277 -47.009)" fill="#f77c7c"/>
        <path id="Path_3804" data-name="Path 3804" d="M216.84,276.634a70.3,70.3,0,0,0-2.215-40.875,75.713,75.713,0,0,0-1.944,40.814,2.1,2.1,0,0,0,4.159.061" transform="translate(-73.675 -82.396)" fill="#e28bd9"/>
        <path id="Path_3805" data-name="Path 3805" d="M214.428,236.584a76.207,76.207,0,0,0-2.583,36.016c3.514-11.52,3.613-23.77,2.583-36.016" transform="translate(-73.675 -82.684)" fill="#f99595"/>
        <path id="Path_3806" data-name="Path 3806" d="M215.184,235.759s-.074.189-.2.537c1.03,12.246.931,24.5-2.583,36.016q.349,2.1.835,4.261a2.1,2.1,0,0,0,4.16.061,70.3,70.3,0,0,0-2.215-40.875" transform="translate(-74.234 -82.396)" fill="#f77c7c"/>
        <path id="Path_3807" data-name="Path 3807" d="M223.635,198.027a12.1,12.1,0,1,1-12.1-12.1,12.1,12.1,0,0,1,12.1,12.1" transform="translate(-69.704 -64.982)" fill="#60a2f4"/>
        <path id="Path_3808" data-name="Path 3808" d="M221.924,200.014a8.4,8.4,0,1,1-8.4-8.4,8.4,8.4,0,0,1,8.4,8.4" transform="translate(-71.691 -66.969)" fill="#344b7e"/>
        <path id="Path_3809" data-name="Path 3809" d="M215.375,191.665c-2.322,4.708-4.379,9.47-6.707,14.132a8.41,8.41,0,0,0,3.839,2.313c1.948-5.244,4.237-10.264,6.64-15.232a8.356,8.356,0,0,0-3.771-1.213" transform="translate(-72.928 -66.986)" fill="#47649f"/>
        <path id="Path_3810" data-name="Path 3810" d="M221.209,193.529c-2.4,4.969-4.692,9.989-6.64,15.232a8.387,8.387,0,0,0,6.64-15.232" transform="translate(-74.99 -67.637)" fill="#344b7e"/>
        <path id="Path_3811" data-name="Path 3811" d="M213.526,191.617a8.389,8.389,0,0,0-6.095,14.162c2.328-4.661,4.384-9.423,6.707-14.132-.2-.014-.405-.031-.612-.031" transform="translate(-71.691 -66.969)" fill="#344b7e"/>
        <path id="Path_3812" data-name="Path 3812" d="M198.972,171.711a.757.757,0,1,1-.757-.757.757.757,0,0,1,.757.757" transform="translate(-69.011 -59.747)" fill="#344b7e"/>
        <path id="Path_3813" data-name="Path 3813" d="M203.66,171.711a.757.757,0,1,1-.757-.757.757.757,0,0,1,.757.757" transform="translate(-70.649 -59.747)" fill="#344b7e"/>
        <path id="Path_3814" data-name="Path 3814" d="M208.347,171.711a.757.757,0,1,1-.757-.757.757.757,0,0,1,.757.757" transform="translate(-72.287 -59.747)" fill="#344b7e"/>
        <path id="Path_3815" data-name="Path 3815" d="M213.035,171.711a.757.757,0,1,1-.757-.757.757.757,0,0,1,.757.757" transform="translate(-73.925 -59.747)" fill="#344b7e"/>
        <path id="Path_3816" data-name="Path 3816" d="M217.722,171.711a.757.757,0,1,1-.757-.757.757.757,0,0,1,.757.757" transform="translate(-75.564 -59.747)" fill="#344b7e"/>
        <path id="Path_3817" data-name="Path 3817" d="M222.41,171.711a.757.757,0,1,1-.757-.757.757.757,0,0,1,.757.757" transform="translate(-77.202 -59.747)" fill="#344b7e"/>
        <path id="Path_3818" data-name="Path 3818" d="M227.1,171.711a.757.757,0,1,1-.757-.757.757.757,0,0,1,.757.757" transform="translate(-78.84 -59.747)" fill="#344b7e"/>
        <path id="Path_3819" data-name="Path 3819" d="M231.785,171.711a.757.757,0,1,1-.757-.757.757.757,0,0,1,.757.757" transform="translate(-80.478 -59.747)" fill="#344b7e"/>
        <path id="Path_3820" data-name="Path 3820" d="M236.472,171.711a.757.757,0,1,1-.757-.757.757.757,0,0,1,.757.757" transform="translate(-82.117 -59.747)" fill="#344b7e"/>
        <path id="Path_3821" data-name="Path 3821" d="M242.361,230.553c0,1.222-.569,2.214-1.27,2.214s-1.27-.991-1.27-2.214.569-2.214,1.27-2.214,1.27.991,1.27,2.214" transform="translate(-83.815 -79.803)" fill="#c5d9ef"/>
        <path id="Path_3822" data-name="Path 3822" d="M243.3,230.553c0,1.222-.569,2.214-1.27,2.214s-1.27-.991-1.27-2.214.569-2.214,1.27-2.214,1.27.991,1.27,2.214" transform="translate(-84.143 -79.803)" fill="#60a2f4"/>
        <path id="Path_3823" data-name="Path 3823" d="M263.813,192.665s-2.648-7.576-8.366-5.819c-7.5,2.3,2.885,30.353-13.378,29.07" transform="translate(-84.602 -65.209)" fill="none" stroke="#455157" stroke-width="1"/>
      </g>
    </g>
  </g>
</svg>
