<svg id="Group_129012" data-name="Group 129012" xmlns="http://www.w3.org/2000/svg" xmlns:xlink="http://www.w3.org/1999/xlink" width="299.116" height="310.876" viewBox="0 0 299.116 310.876">
  <defs>
    <clipPath id="clip-path">
      <rect id="Rectangle_38821" data-name="Rectangle 38821" width="299.116" height="310.876" fill="none"/>
    </clipPath>
    <clipPath id="clip-path-3">
      <rect id="Rectangle_38807" data-name="Rectangle 38807" width="4.126" height="4.126" fill="none"/>
    </clipPath>
    <clipPath id="clip-path-4">
      <rect id="Rectangle_38808" data-name="Rectangle 38808" width="2.4" height="2.4" fill="none"/>
    </clipPath>
    <clipPath id="clip-path-5">
      <rect id="Rectangle_38809" data-name="Rectangle 38809" width="15.616" height="9.253" fill="none"/>
    </clipPath>
    <clipPath id="clip-path-6">
      <rect id="Rectangle_38810" data-name="Rectangle 38810" width="11.377" height="16.015" fill="none"/>
    </clipPath>
    <clipPath id="clip-path-11">
      <rect id="Rectangle_38815" data-name="Rectangle 38815" width="40.539" height="8.998" fill="none"/>
    </clipPath>
    <clipPath id="clip-path-14">
      <rect id="Rectangle_38818" data-name="Rectangle 38818" width="28.72" height="15.96" fill="none"/>
    </clipPath>
    <clipPath id="clip-path-15">
      <rect id="Rectangle_38819" data-name="Rectangle 38819" width="31.664" height="2.566" fill="none"/>
    </clipPath>
  </defs>
  <g id="Group_129011" data-name="Group 129011" clip-path="url(#clip-path)">
    <g id="Group_128989" data-name="Group 128989">
      <g id="Group_128988" data-name="Group 128988" clip-path="url(#clip-path)">
        <path id="Path_2278" data-name="Path 2278" d="M244.5,450.615c0,1.833-11.682,3.319-26.094,3.319s-26.094-1.486-26.094-3.319S204,447.3,218.407,447.3s26.094,1.486,26.094,3.319" transform="translate(-63.511 -147.719)" fill="#e0e0e0"/>
        <path id="Path_2279" data-name="Path 2279" d="M144.87,126.231a28.3,28.3,0,0,1,6.906-3l1.423-6.836,11.549-.2,1.662,6.781a28.3,28.3,0,0,1,7.008,2.757l5.837-3.826,8.31,8.024-3.618,5.966a28.278,28.278,0,0,1,3,6.907l6.835,1.423.2,11.549-6.781,1.662a28.329,28.329,0,0,1-2.757,7.007l3.825,5.837-8.022,8.31-5.967-3.618a28.316,28.316,0,0,1-6.907,3l-1.423,6.835-11.549.2-1.662-6.781a28.329,28.329,0,0,1-7.007-2.757L139.9,179.3l-8.31-8.023,3.618-5.967a28.282,28.282,0,0,1-3-6.907l-6.835-1.423-.2-11.549,6.781-1.663a28.332,28.332,0,0,1,2.756-7.006l-3.825-5.837,8.022-8.31Zm6.156,15.385a12.391,12.391,0,1,0,17.521-.308,12.39,12.39,0,0,0-17.521.308" transform="translate(-41.336 -38.372)" fill="#f5f5f5"/>
        <path id="Path_2280" data-name="Path 2280" d="M246.424,158.3a21.567,21.567,0,0,1,5.626-1.139l2.149-4.87,8.642,1.687L263,159.3a21.584,21.584,0,0,1,4.786,3.17l4.96-1.924,4.919,7.3-3.646,3.873a21.569,21.569,0,0,1,1.138,5.628l4.87,2.148-1.686,8.642-5.32.161a21.586,21.586,0,0,1-3.169,4.785l1.923,4.96-7.3,4.919-3.873-3.646a21.559,21.559,0,0,1-5.627,1.138l-2.149,4.87-8.642-1.686-.161-5.321a21.581,21.581,0,0,1-4.785-3.17l-4.96,1.924-4.919-7.3L233,185.9a21.577,21.577,0,0,1-1.139-5.627l-4.87-2.148,1.686-8.643,5.32-.161a21.586,21.586,0,0,1,3.17-4.785l-1.924-4.961,7.3-4.919Zm2.143,12.449a9.446,9.446,0,1,0,13.111,2.558,9.446,9.446,0,0,0-13.111-2.558" transform="translate(-74.965 -50.295)" fill="#ebebeb"/>
        <path id="Path_2281" data-name="Path 2281" d="M301.219,22.068a1.275,1.275,0,0,1,.158.117c.1.078.248.206.451.357a16.516,16.516,0,0,0,1.836,1.227,15.318,15.318,0,0,0,3.2,1.386,14.117,14.117,0,0,0,4.558.6,46.611,46.611,0,0,0,5.571-.671,23.416,23.416,0,0,1,6.458-.207,21.557,21.557,0,0,1,6.854,1.992,19.638,19.638,0,0,1,10,11.206,18.692,18.692,0,0,1,1.047,7.054c-.084,2.282-.4,4.424-.46,6.44a15.4,15.4,0,0,0,.718,5.517,15.08,15.08,0,0,0,4.459,6.655c.354.324.708.564,1,.793.307.2.56.388.776.52l.492.3a1.205,1.205,0,0,1,.164.108,1.154,1.154,0,0,1-.175-.088l-.5-.279c-.22-.126-.478-.3-.791-.5-.3-.224-.655-.459-1.016-.78a14.61,14.61,0,0,1-2.4-2.556,14.839,14.839,0,0,1-2.152-4.115,15.494,15.494,0,0,1-.753-5.574c.049-2.03.362-4.177.439-6.441a18.528,18.528,0,0,0-1.049-6.973A19.469,19.469,0,0,0,330.2,27.07a21.422,21.422,0,0,0-6.78-1.984,23.334,23.334,0,0,0-6.407.186,46.008,46.008,0,0,1-5.594.646,14.16,14.16,0,0,1-4.6-.639,15.272,15.272,0,0,1-5.024-2.7c-.2-.158-.34-.291-.438-.375a1.226,1.226,0,0,1-.143-.135" transform="translate(-99.477 -7.288)" fill="#e0e0e0"/>
        <path id="Path_2282" data-name="Path 2282" d="M318.326,0a24.937,24.937,0,0,1,2.133,2.17A23.587,23.587,0,0,1,322.637,5a13.557,13.557,0,0,1,1.924,4.317,9.346,9.346,0,0,1,.206,1.34c.026.464.029.934.019,1.411q-.027,1.435-.056,2.98c-.044,2.058-.111,4.258-.072,6.569a21.085,21.085,0,0,0,1.364,7.061,18.73,18.73,0,0,0,4.127,6.5,17.126,17.126,0,0,0,6.493,4.108,15.248,15.248,0,0,0,7.11.748c2.285-.309,4.392-.988,6.429-1.344a15.866,15.866,0,0,1,2.978-.283,14.183,14.183,0,0,1,2.744.3,14.734,14.734,0,0,1,4.4,1.731,13.753,13.753,0,0,1,2.813,2.2,13.213,13.213,0,0,1,1.447,1.733l.32.493c.071.111.1.171.1.171s-.044-.052-.121-.159l-.338-.479a14.252,14.252,0,0,0-1.472-1.7,13.887,13.887,0,0,0-2.815-2.155,14.733,14.733,0,0,0-4.368-1.683,14.066,14.066,0,0,0-2.712-.285,15.7,15.7,0,0,0-2.944.294c-2.02.36-4.124,1.046-6.435,1.365a15.43,15.43,0,0,1-7.211-.745,17.311,17.311,0,0,1-6.582-4.158,18.891,18.891,0,0,1-4.174-6.577,21.215,21.215,0,0,1-1.366-7.137c-.032-2.32.041-4.519.094-6.578q.035-1.543.069-2.978c.013-.479.012-.945-.011-1.4a9.35,9.35,0,0,0-.194-1.316,13.524,13.524,0,0,0-1.874-4.284,24.228,24.228,0,0,0-2.137-2.844c-.638-.741-1.165-1.289-1.522-1.66l-.41-.42c-.091-.1-.134-.149-.134-.149" transform="translate(-105.127 0)" fill="#e0e0e0"/>
        <path id="Path_2283" data-name="Path 2283" d="M324.814,16.882c.048.041-1.292,1.723-2.993,3.758s-3.12,3.652-3.168,3.611,1.291-1.723,2.993-3.758,3.12-3.651,3.168-3.611" transform="translate(-105.234 -5.575)" fill="#e0e0e0"/>
        <path id="Path_2284" data-name="Path 2284" d="M320.907,10.511c.045.044-2.293,2.487-5.221,5.456s-5.339,5.341-5.384,5.3,2.293-2.487,5.221-5.456,5.339-5.341,5.383-5.3" transform="translate(-102.476 -3.471)" fill="#e0e0e0"/>
        <path id="Path_2285" data-name="Path 2285" d="M316.24,4.6c.045.045-2.792,2.954-6.335,6.5s-6.453,6.382-6.5,6.337,2.792-2.954,6.336-6.5,6.452-6.382,6.5-6.337" transform="translate(-100.199 -1.519)" fill="#e0e0e0"/>
        <path id="Path_2286" data-name="Path 2286" d="M356.819,50.356c.041.048-1.613,1.539-3.7,3.331s-3.8,3.205-3.844,3.158,1.613-1.539,3.7-3.331,3.8-3.205,3.844-3.158" transform="translate(-115.349 -16.63)" fill="#e0e0e0"/>
        <path id="Path_2287" data-name="Path 2287" d="M351.809,41.6a2.84,2.84,0,0,1-.384.431c-.258.268-.639.647-1.115,1.109-.952.925-2.294,2.177-3.816,3.515s-2.937,2.507-3.977,3.333c-.52.413-.944.741-1.243.962a2.863,2.863,0,0,1-.477.326,2.787,2.787,0,0,1,.421-.4l1.2-1.019c1.013-.857,2.408-2.043,3.929-3.38s2.877-2.566,3.856-3.461l1.164-1.056a2.8,2.8,0,0,1,.446-.367" transform="translate(-112.547 -13.74)" fill="#e0e0e0"/>
        <path id="Path_2288" data-name="Path 2288" d="M346.115,34.879a3.487,3.487,0,0,1-.485.427l-1.362,1.108c-1.151.936-2.727,2.244-4.426,3.737s-3.2,2.89-4.275,3.911l-1.275,1.209a3.4,3.4,0,0,1-.485.426,3.415,3.415,0,0,1,.423-.488c.282-.3.7-.737,1.225-1.262,1.048-1.052,2.533-2.469,4.236-3.966s3.3-2.787,4.477-3.692c.589-.453,1.07-.812,1.409-1.053a3.5,3.5,0,0,1,.538-.356" transform="translate(-110.239 -11.518)" fill="#e0e0e0"/>
        <path id="Path_2289" data-name="Path 2289" d="M339.3,30.327a2.051,2.051,0,0,1-.348.358l-1,.92c-.845.774-2.007,1.845-3.27,3.051s-2.384,2.32-3.194,3.129l-.964.954a2.156,2.156,0,0,1-.373.332,2.087,2.087,0,0,1,.308-.392c.21-.243.521-.587.912-1.006.782-.839,1.889-1.972,3.154-3.182s2.446-2.264,3.319-3.007c.436-.372.793-.668,1.046-.866a2.1,2.1,0,0,1,.405-.291" transform="translate(-109.034 -10.015)" fill="#e0e0e0"/>
        <path id="Path_2290" data-name="Path 2290" d="M334.244,26.736a40.08,40.08,0,0,1-3.05,3,40.023,40.023,0,0,1-3.206,2.828,40.072,40.072,0,0,1,3.05-3,40.183,40.183,0,0,1,3.206-2.828" transform="translate(-108.317 -8.829)" fill="#e0e0e0"/>
        <path id="Path_2291" data-name="Path 2291" d="M368.907,57.491a1.708,1.708,0,0,1-.309.328l-.893.834-2.96,2.731-2.938,2.755-.9.83a1.746,1.746,0,0,1-.349.284,1.661,1.661,0,0,1,.287-.347c.194-.214.484-.515.845-.883.723-.736,1.742-1.733,2.9-2.806s2.222-2.017,3.009-2.685c.393-.334.715-.6.942-.78a1.72,1.72,0,0,1,.367-.261" transform="translate(-119.075 -18.986)" fill="#e0e0e0"/>
        <path id="Path_2292" data-name="Path 2292" d="M375.078,60.567c.043.046-2.694,2.668-6.112,5.854s-6.226,5.733-6.269,5.688,2.693-2.667,6.113-5.855,6.225-5.733,6.268-5.687" transform="translate(-119.78 -20.002)" fill="#e0e0e0"/>
        <path id="Path_2293" data-name="Path 2293" d="M380.227,63.707c.044.045-2.9,3.03-6.582,6.667s-6.7,6.55-6.743,6.505,2.9-3.029,6.582-6.667,6.7-6.549,6.743-6.5" transform="translate(-121.169 -21.039)" fill="#e0e0e0"/>
        <path id="Path_2294" data-name="Path 2294" d="M372.41,344.038s.042-.093.129-.272l.073-.149c.023-.057.042-.123.066-.192a2.691,2.691,0,0,0,.135-.492c.017-.1.041-.195.056-.3s.016-.221.025-.34a2.31,2.31,0,0,0,0-.374,3.914,3.914,0,0,0-.023-.407,7.666,7.666,0,0,0-.466-1.891,17.491,17.491,0,0,0-2.733-4.589,39.334,39.334,0,0,0-4.926-5.108,61.082,61.082,0,0,0-6.865-5.193,69.943,69.943,0,0,0-8.618-4.829c-1.577-.738-3.222-1.431-4.935-2.051a42.872,42.872,0,0,0-5.343-1.577,23.035,23.035,0,0,0-5.72-.62,9.715,9.715,0,0,0-2.885.5,5.5,5.5,0,0,0-1.307.677,3.523,3.523,0,0,0-1.462,2.477,5.473,5.473,0,0,0,.04,1.472,9.7,9.7,0,0,0,.96,2.767,23.068,23.068,0,0,0,3.313,4.705,42.874,42.874,0,0,0,3.968,3.911c1.373,1.2,2.777,2.3,4.186,3.324a70.03,70.03,0,0,0,8.4,5.2,61.139,61.139,0,0,0,7.868,3.49,39.289,39.289,0,0,0,6.855,1.835,17.506,17.506,0,0,0,5.337.167,7.619,7.619,0,0,0,1.881-.508,3.971,3.971,0,0,0,.367-.176,2.413,2.413,0,0,0,.326-.184l.285-.187c.086-.065.162-.134.237-.195a2.726,2.726,0,0,0,.364-.356c.049-.055.1-.1.136-.151l.1-.137c.114-.163.175-.244.175-.244s-.054.086-.165.251l-.094.139c-.038.049-.086.1-.134.153a2.679,2.679,0,0,1-.363.362c-.074.062-.151.132-.236.2l-.286.19a2.247,2.247,0,0,1-.326.188,3.834,3.834,0,0,1-.368.18,7.612,7.612,0,0,1-1.887.522,17.464,17.464,0,0,1-5.355-.148,39.146,39.146,0,0,1-6.872-1.822,60.932,60.932,0,0,1-7.885-3.483,69.836,69.836,0,0,1-8.418-5.2c-1.413-1.022-2.82-2.127-4.2-3.327a42.919,42.919,0,0,1-3.981-3.919,23.144,23.144,0,0,1-3.331-4.728,9.78,9.78,0,0,1-.971-2.8,5.606,5.606,0,0,1-.041-1.506,3.64,3.64,0,0,1,1.508-2.555,5.634,5.634,0,0,1,1.337-.693,9.843,9.843,0,0,1,2.92-.505,23.154,23.154,0,0,1,5.748.624,42.968,42.968,0,0,1,5.356,1.584c1.716.623,3.364,1.318,4.943,2.059a69.9,69.9,0,0,1,8.625,4.846,60.92,60.92,0,0,1,6.866,5.211,39.143,39.143,0,0,1,4.923,5.13,17.439,17.439,0,0,1,2.724,4.613,7.643,7.643,0,0,1,.458,1.9,3.94,3.94,0,0,1,.021.409,2.268,2.268,0,0,1-.006.377c-.009.119-.019.234-.027.342s-.042.208-.06.3a2.705,2.705,0,0,1-.141.493c-.025.07-.044.135-.068.192s-.054.1-.076.149c-.091.177-.14.267-.14.267" transform="translate(-108.146 -104.202)" fill="#e0e0e0"/>
        <path id="Path_2295" data-name="Path 2295" d="M375.019,328.206s-.031-.1-.084-.289c-.013-.048-.029-.1-.045-.161s-.05-.119-.079-.187a2.73,2.73,0,0,0-.226-.457c-.05-.082-.1-.173-.159-.263l-.208-.271a2.311,2.311,0,0,0-.246-.281,4.043,4.043,0,0,0-.289-.288,7.607,7.607,0,0,0-1.607-1.1,17.5,17.5,0,0,0-5.093-1.606,39.324,39.324,0,0,0-7.077-.532,61.1,61.1,0,0,0-8.579.695,70.083,70.083,0,0,0-9.646,2.133c-1.668.5-3.357,1.077-5.049,1.754a42.857,42.857,0,0,0-5.037,2.38,23.047,23.047,0,0,0-4.681,3.344,9.706,9.706,0,0,0-1.821,2.293,5.487,5.487,0,0,0-.525,1.376,3.524,3.524,0,0,0,.558,2.822,5.457,5.457,0,0,0,1.01,1.072,9.66,9.66,0,0,0,2.558,1.426,23.022,23.022,0,0,0,5.6,1.306,42.931,42.931,0,0,0,5.565.277c1.822-.019,3.6-.13,5.337-.305a70.123,70.123,0,0,0,9.73-1.711,61.12,61.12,0,0,0,8.2-2.633,39.289,39.289,0,0,0,6.337-3.194,17.5,17.5,0,0,0,4.094-3.428,7.643,7.643,0,0,0,1.065-1.632,4.044,4.044,0,0,0,.157-.376,2.331,2.331,0,0,0,.121-.354q.046-.173.089-.329c.02-.106.031-.208.046-.3a2.731,2.731,0,0,0,.035-.509c0-.073,0-.141,0-.2s-.013-.117-.019-.166c-.023-.2-.032-.3-.032-.3s.017.1.044.3c.007.049.015.1.023.166s0,.129,0,.2a2.709,2.709,0,0,1-.029.512c-.015.1-.025.2-.044.306s-.056.216-.087.332a2.322,2.322,0,0,1-.119.357,3.913,3.913,0,0,1-.155.38,7.62,7.62,0,0,1-1.061,1.645,17.458,17.458,0,0,1-4.094,3.455,39.2,39.2,0,0,1-6.341,3.215,60.867,60.867,0,0,1-8.2,2.65,69.813,69.813,0,0,1-9.743,1.724c-1.735.177-3.52.289-5.346.31a43.054,43.054,0,0,1-5.58-.275,23.16,23.16,0,0,1-5.633-1.311,9.792,9.792,0,0,1-2.589-1.443,5.613,5.613,0,0,1-1.033-1.1,3.64,3.64,0,0,1-.575-2.911,5.573,5.573,0,0,1,.536-1.406,9.831,9.831,0,0,1,1.842-2.321,23.16,23.16,0,0,1,4.7-3.361,43.021,43.021,0,0,1,5.051-2.383c1.7-.678,3.388-1.256,5.059-1.753a69.773,69.773,0,0,1,9.662-2.126,60.88,60.88,0,0,1,8.592-.682,39.229,39.229,0,0,1,7.089.551,17.447,17.447,0,0,1,5.1,1.63,7.643,7.643,0,0,1,1.609,1.115,3.8,3.8,0,0,1,.288.292,2.335,2.335,0,0,1,.246.285l.207.274c.059.091.108.182.157.266a2.7,2.7,0,0,1,.223.461c.027.069.056.131.076.189s.03.114.043.162c.05.193.073.292.073.292" transform="translate(-107.124 -106.567)" fill="#e0e0e0"/>
        <path id="Path_2296" data-name="Path 2296" d="M367.274,302.213s-.1-.035-.28-.11l-.155-.063c-.058-.019-.125-.033-.2-.053a2.782,2.782,0,0,0-.5-.1c-.1-.011-.2-.027-.305-.035H365.5a2.327,2.327,0,0,0-.374.023,3.883,3.883,0,0,0-.4.052,7.6,7.6,0,0,0-1.855.6,17.506,17.506,0,0,0-4.39,3.042,39.293,39.293,0,0,0-4.756,5.266,61.021,61.021,0,0,0-4.707,7.206,70.021,70.021,0,0,0-4.224,8.93c-.628,1.623-1.206,3.313-1.707,5.065a42.8,42.8,0,0,0-1.206,5.438,23.04,23.04,0,0,0-.224,5.748,9.708,9.708,0,0,0,.7,2.844,5.5,5.5,0,0,0,.765,1.258,3.525,3.525,0,0,0,2.572,1.288,5.5,5.5,0,0,0,1.466-.141,9.684,9.684,0,0,0,2.694-1.149,23.032,23.032,0,0,0,4.465-3.629,42.884,42.884,0,0,0,3.628-4.229c1.1-1.452,2.106-2.929,3.029-4.4a70.042,70.042,0,0,0,4.609-8.738,60.964,60.964,0,0,0,2.94-8.09,39.325,39.325,0,0,0,1.359-6.965,17.5,17.5,0,0,0-.2-5.337,7.656,7.656,0,0,0-.637-1.841,3.846,3.846,0,0,0-.2-.354,2.3,2.3,0,0,0-.206-.313l-.206-.272c-.071-.081-.145-.153-.211-.223a2.731,2.731,0,0,0-.38-.339c-.058-.046-.109-.09-.159-.125l-.143-.086c-.17-.1-.256-.158-.256-.158s.09.048.262.148l.145.084c.052.034.1.078.162.123a2.671,2.671,0,0,1,.386.337c.068.07.143.141.215.222l.209.272a2.312,2.312,0,0,1,.21.313,3.782,3.782,0,0,1,.2.355,7.588,7.588,0,0,1,.65,1.847,17.469,17.469,0,0,1,.222,5.353,39.166,39.166,0,0,1-1.344,6.981,60.838,60.838,0,0,1-2.932,8.106,69.831,69.831,0,0,1-4.607,8.756c-.923,1.479-1.928,2.96-3.031,4.415a42.927,42.927,0,0,1-3.635,4.242,23.137,23.137,0,0,1-4.488,3.649,9.807,9.807,0,0,1-2.727,1.162,5.621,5.621,0,0,1-1.5.144,3.636,3.636,0,0,1-2.653-1.329,5.592,5.592,0,0,1-.783-1.286,9.808,9.808,0,0,1-.705-2.878,23.159,23.159,0,0,1,.227-5.778A42.917,42.917,0,0,1,342.975,332c.5-1.755,1.083-3.447,1.713-5.073a69.87,69.87,0,0,1,4.24-8.939,60.83,60.83,0,0,1,4.726-7.209,39.152,39.152,0,0,1,4.778-5.265,17.453,17.453,0,0,1,4.414-3.035,7.609,7.609,0,0,1,1.868-.589,3.942,3.942,0,0,1,.407-.049,2.341,2.341,0,0,1,.376-.02l.344,0c.108.009.21.027.307.039a2.7,2.7,0,0,1,.5.107c.071.02.137.035.2.056l.155.066c.183.078.275.121.275.121" transform="translate(-112.761 -99.675)" fill="#e0e0e0"/>
        <path id="Path_2297" data-name="Path 2297" d="M326.491,361.462a.956.956,0,1,1-1.326.263.955.955,0,0,1,1.326-.263" transform="translate(-107.332 -119.319)" fill="#e0e0e0"/>
        <path id="Path_2298" data-name="Path 2298" d="M396.723,302.071a.957.957,0,1,1-1.125-.752.956.956,0,0,1,1.125.752" transform="translate(-130.391 -99.504)" fill="#e0e0e0"/>
        <path id="Path_2299" data-name="Path 2299" d="M336.749,364.3a.243.243,0,1,1-.286-.192.243.243,0,0,1,.286.192" transform="translate(-111.052 -120.243)" fill="#e0e0e0"/>
        <path id="Path_2300" data-name="Path 2300" d="M336.561,323.533a.243.243,0,1,1-.286-.191.243.243,0,0,1,.286.191" transform="translate(-110.99 -106.782)" fill="#e0e0e0"/>
        <path id="Path_2301" data-name="Path 2301" d="M395.9,331.594a.243.243,0,1,1-.286-.191.243.243,0,0,1,.286.191" transform="translate(-130.588 -109.444)" fill="#e0e0e0"/>
        <path id="Path_2302" data-name="Path 2302" d="M397.561,314.014a.243.243,0,1,1-.286-.191.243.243,0,0,1,.286.191" transform="translate(-131.135 -103.638)" fill="#e0e0e0"/>
        <path id="Path_2303" data-name="Path 2303" d="M364.493,335.182a4.657,4.657,0,1,1-5.474-3.662,4.657,4.657,0,0,1,5.474,3.662" transform="translate(-117.326 -109.454)" fill="#e0e0e0"/>
        <path id="Path_2304" data-name="Path 2304" d="M274.838,96a41.356,41.356,0,0,0-9.131-14.242,87.893,87.893,0,0,0-23.682-17.677c-8.905-4.378-23.43-8.265-34.005-8.208-5.461-.208-8.221.133-13.19,2.051-3.1,1.2-5.71,3.964-5.925,7.243a10.631,10.631,0,0,0,4.183,8.532c10.77,7.592,18.927,7.987,29.372,11.331s21.194,8.295,26.827,17.586c3.057,5.042,4.8,11.495,10.1,14.171,5.142,2.593,11.926.075,15.077-4.694s2.4-10.766.37-16.093" transform="translate(-62.381 -18.433)" fill="#f5f5f5"/>
        <path id="Path_2305" data-name="Path 2305" d="M84.073,253.109s-.261.153-.779.435-1.3.683-2.288,1.269A84.167,84.167,0,0,0,72.58,260.3a86.581,86.581,0,0,0-18.249,18.157,56.334,56.334,0,0,0-5.779,9.484A43.943,43.943,0,0,0,46.4,293.51a32.632,32.632,0,0,0-1.192,6.113,23.469,23.469,0,0,0,.344,6.454,22.521,22.521,0,0,0,.886,3.209,21.115,21.115,0,0,0,1.439,3.067,26.688,26.688,0,0,0,10.069,9.717A42.592,42.592,0,0,0,72.14,326.8c2.542.423,5.139.708,7.773.911,1.316.113,2.645.157,3.98.215l4.027.173c1.349.085,2.707.057,4.072.056l4.114-.011c1.379.025,2.761-.089,4.151-.14l4.189-.194a208.706,208.706,0,0,0,34.351-5.155c23.238-5.4,44.478-13.81,63.176-22.539,9.366-4.331,18.129-8.858,25.511-14.327a63.874,63.874,0,0,0,9.821-8.885l1.048-1.193c.344-.4.652-.822.979-1.228l.958-1.224.877-1.263a29.062,29.062,0,0,0,2.992-5.161A24.159,24.159,0,0,0,246.5,256.1a13.078,13.078,0,0,0-3.711-8.884,14.539,14.539,0,0,0-7.592-3.753,20.537,20.537,0,0,0-7.209,0,34.056,34.056,0,0,0-5.6,1.476c-1.587.553-2.9,1.1-3.963,1.541l-2.4,1.034c-.54.235-.821.348-.821.348s.271-.134.806-.38,1.335-.609,2.391-1.066,2.369-1.011,3.956-1.575a33.845,33.845,0,0,1,5.611-1.512,20.635,20.635,0,0,1,7.261-.035,14.706,14.706,0,0,1,7.7,3.777,13.281,13.281,0,0,1,3.8,9.014,24.357,24.357,0,0,1-2.341,10.851,29.272,29.272,0,0,1-3,5.207q-.438.632-.879,1.272l-.962,1.232c-.326.409-.636.836-.981,1.236l-1.051,1.2a64.013,64.013,0,0,1-9.849,8.938c-7.4,5.5-16.179,10.044-25.547,14.386-18.7,8.752-39.962,17.179-63.234,22.588-23.22,5.431-46.275,6.951-66.788,4.121a42.862,42.862,0,0,1-14.292-4.785,26.964,26.964,0,0,1-10.168-9.84,21.353,21.353,0,0,1-1.455-3.112,22.664,22.664,0,0,1-.893-3.254,23.715,23.715,0,0,1-.338-6.531,32.8,32.8,0,0,1,1.213-6.164,44.111,44.111,0,0,1,2.177-5.6,56.387,56.387,0,0,1,5.823-9.51A86.148,86.148,0,0,1,72.5,260.186a81.042,81.042,0,0,1,8.47-5.434c2.01-1.123,3.1-1.643,3.1-1.643" transform="translate(-14.812 -80.249)" fill="#e0e0e0"/>
        <path id="Path_2306" data-name="Path 2306" d="M376.544,164.624l-8.383,30.833-25.456,7.037a1.764,1.764,0,0,0-1.161,2.055l27.852-7.164.982-.3,33.015-8.84,3.665-14.623,4.762-17.144a1.354,1.354,0,0,0-1.487-1.844l-32.907,9.037a1.285,1.285,0,0,0-.882.958" transform="translate(-112.784 -51.052)" fill="#ebebeb"/>
        <path id="Path_2307" data-name="Path 2307" d="M392.617,167.208l-7.626,28.078,29.911-8.208,6.7-27.675Z" transform="translate(-127.143 -52.642)" fill="#fafafa"/>
        <path id="Path_2308" data-name="Path 2308" d="M419.918,154.65a.647.647,0,0,1-.025.163c-.028.125-.062.28-.105.473-.105.438-.25,1.045-.436,1.816-.4,1.6-.967,3.886-1.672,6.719-1.455,5.718-3.473,13.647-5.752,22.607l-.025.1-.1.027-4.789,1.289-25.778,6.879-7.822,2.046-2.132.539-.557.132a.782.782,0,0,1-.192.033.774.774,0,0,1,.184-.068l.547-.165,2.114-.6,7.793-2.153,25.751-6.978,4.79-1.287-.122.124,5.863-22.578,1.775-6.692c.21-.765.375-1.367.494-1.8.056-.19.1-.342.136-.465a.619.619,0,0,1,.057-.155" transform="translate(-122.369 -51.073)" fill="#e0e0e0"/>
        <path id="Path_2309" data-name="Path 2309" d="M95.725,336.367a12.646,12.646,0,1,1,5.176-17.119,12.646,12.646,0,0,1-5.176,17.119" transform="translate(-25.464 -103.226)" fill="#ebebeb"/>
        <g id="Group_128978" data-name="Group 128978" transform="translate(56.997 218.527)" opacity="0.3">
          <g id="Group_128977" data-name="Group 128977">
            <g id="Group_128976" data-name="Group 128976" clip-path="url(#clip-path-3)">
              <path id="Path_2310" data-name="Path 2310" d="M88.138,330.162a2.062,2.062,0,1,1,.845-2.792,2.063,2.063,0,0,1-.845,2.792" transform="translate(-85.101 -326.281)" fill="#fff"/>
            </g>
          </g>
        </g>
        <g id="Group_128981" data-name="Group 128981" transform="translate(62.132 214.761)" opacity="0.3">
          <g id="Group_128980" data-name="Group 128980">
            <g id="Group_128979" data-name="Group 128979" clip-path="url(#clip-path-4)">
              <path id="Path_2311" data-name="Path 2311" d="M94.536,322.916a1.2,1.2,0,1,1,.491-1.624,1.2,1.2,0,0,1-.491,1.624" transform="translate(-92.769 -320.658)" fill="#fff"/>
            </g>
          </g>
        </g>
        <path id="Path_2312" data-name="Path 2312" d="M75.813,316.341c-.167.153-14.506-4.507-15.142-.985s9.964,11.228,21.873,16.257,24.942,8.47,26.057,5.02-11.635-10.877-11.635-10.877l-.135,1.776s7.886,4.4,7.353,7.409S93.9,335.4,83.11,330.213,63.54,319.126,64.56,316.934s9.938.8,9.938.8Z" transform="translate(-20.027 -103.71)" fill="#e0e0e0"/>
        <g id="Group_128984" data-name="Group 128984" transform="translate(53.237 210.337)" opacity="0.3">
          <g id="Group_128983" data-name="Group 128983">
            <g id="Group_128982" data-name="Group 128982" clip-path="url(#clip-path-5)">
              <path id="Path_2313" data-name="Path 2313" d="M95.1,315.36c-.06.147-1.106-.265-2.85-.43a11.641,11.641,0,0,0-11.394,5.815c-.889,1.51-1.17,2.6-1.324,2.56-.109-.015-.071-1.188.712-2.884a10.936,10.936,0,0,1,1.812-2.713,10.968,10.968,0,0,1,7.032-3.589,10.908,10.908,0,0,1,3.26.125c1.832.361,2.8,1.019,2.753,1.115" transform="translate(-79.488 -314.053)" fill="#fff"/>
            </g>
          </g>
        </g>
        <path id="Path_2314" data-name="Path 2314" d="M64.78,32.871l.652,3a3.468,3.468,0,0,1-1,3.253L44.295,58.191a5.044,5.044,0,0,0,.933,8.024l12.725,7.4A5.338,5.338,0,0,0,65.837,70.2l6.209-26.915a3.466,3.466,0,0,1,2.437-2.558L77.048,40Z" transform="translate(-14.108 -10.856)" fill="#f5f5f5"/>
        <path id="Path_2315" data-name="Path 2315" d="M69.507,60.7a9.012,9.012,0,0,1-3.762-2.3c-1-1.027-1.747-2.281-2.7-3.357A5.4,5.4,0,0,0,59.4,52.978l-12.559,12.3a4.286,4.286,0,0,0,.844,6.768L59.1,78.675a4.287,4.287,0,0,0,6.295-2.6Z" transform="translate(-15.045 -17.496)" fill="#e0e0e0"/>
        <g id="Group_128987" data-name="Group 128987" transform="translate(33.538 37.977)" opacity="0.3">
          <g id="Group_128986" data-name="Group 128986">
            <g id="Group_128985" data-name="Group 128985" clip-path="url(#clip-path-6)">
              <path id="Path_2316" data-name="Path 2316" d="M51.481,72.71c-.029.042-.323-.072-.687-.5a3.55,3.55,0,0,1-.719-2.206,4.65,4.65,0,0,1,.279-1.607,6.83,6.83,0,0,1,.867-1.625,27.865,27.865,0,0,1,2.716-3.018c3.97-4.064,7.33-7.219,7.507-7.046s-2.9,3.6-6.87,7.669a36.78,36.78,0,0,0-2.69,2.879,6.641,6.641,0,0,0-.843,1.41,4.351,4.351,0,0,0-.338,1.358,3.694,3.694,0,0,0,.377,1.993c.236.431.445.637.4.691" transform="translate(-50.075 -56.703)" fill="#fff"/>
            </g>
          </g>
        </g>
        <path id="Path_2317" data-name="Path 2317" d="M73.993,64.116a2.542,2.542,0,0,1-.489-.04c-.313-.04-.766-.1-1.32-.218a7.615,7.615,0,0,1-1.886-.644,5.018,5.018,0,0,1-.984-.662,6.286,6.286,0,0,1-.859-.936c-.522-.694-.932-1.405-1.366-2a6.13,6.13,0,0,0-1.355-1.4,3.347,3.347,0,0,0-1.183-.553c-.3-.066-.48-.065-.479-.083a.346.346,0,0,1,.127-.011,2.052,2.052,0,0,1,.365.027,3.147,3.147,0,0,1,1.241.518,5.975,5.975,0,0,1,1.415,1.4c.449.6.863,1.313,1.376,1.993a6.239,6.239,0,0,0,.832.913,4.953,4.953,0,0,0,.945.648,7.95,7.95,0,0,0,1.838.666c.545.131.993.212,1.3.273a2.637,2.637,0,0,1,.478.108" transform="translate(-21.16 -19.011)" fill="#fafafa"/>
        <path id="Path_2318" data-name="Path 2318" d="M105.992,24.623a6.218,6.218,0,0,0-2.076-3.4,11.461,11.461,0,0,0-6.179-3.167A9.264,9.264,0,0,0,90.7,20.026a8.554,8.554,0,0,0-3.2,6.233c-.228,1.576,1.417,2.909,3.007,2.992a9.435,9.435,0,0,0,4.513-1.389,7.519,7.519,0,0,1,4.565-1.082c1.587.3,3.081,1.563,4.629,1.106a2.922,2.922,0,0,0,1.773-3.264" transform="translate(-28.892 -5.936)" fill="#f5f5f5"/>
        <path id="Path_2319" data-name="Path 2319" d="M128.045,22.553a2.99,2.99,0,0,0-3.327-2.917c-.94-.019-1.95,1.161-2.194,2.069a2.566,2.566,0,0,0,.835,2.54,3.116,3.116,0,0,0,2.65.624,2.427,2.427,0,0,0,2.036-2.316" transform="translate(-40.438 -6.475)" fill="#f5f5f5"/>
        <path id="Path_2320" data-name="Path 2320" d="M.484,171.935l-.347.934a2.193,2.193,0,0,0,.112,1.778L19.2,210.914a2.193,2.193,0,0,0,1.371,1.1l1.074.29a2.2,2.2,0,0,0,.743.069l22.127-1.739a2.192,2.192,0,0,0,1.759-3.219L26.209,169.956a2.19,2.19,0,0,0-2.1-1.15L2.366,170.514a2.191,2.191,0,0,0-1.882,1.421" transform="translate(0 -55.746)" fill="#e0e0e0"/>
        <path id="Path_2321" data-name="Path 2321" d="M2.794,171.821,22.9,209.406l22.78-1.79-19.951-37.6Z" transform="translate(-0.923 -56.148)" fill="#fafafa"/>
        <path id="Path_2322" data-name="Path 2322" d="M35.262,215.154a3.379,3.379,0,1,1-1.78,4.435,3.378,3.378,0,0,1,1.78-4.435" transform="translate(-10.968 -70.964)" fill="#e0e0e0"/>
        <path id="Path_2323" data-name="Path 2323" d="M37.733,217.5l-.093.612a.165.165,0,0,0,.1.177l.115.046a.191.191,0,0,1,.143.244c-.044.137-.39.974-.39.974s-.084.223-.257.149l-.168-.067a.14.14,0,0,0-.162.042l-.427.533a.141.141,0,0,0,.012.189l.155.153a.267.267,0,0,0,.1.062.569.569,0,0,0,.322.009,2.473,2.473,0,0,0,1.176-1.581c.363-1.049.019-1.448-.061-1.549a.478.478,0,0,0-.281-.135l-.125,0a.165.165,0,0,0-.161.14" transform="translate(-12.075 -71.781)" fill="#fff"/>
        <path id="Path_2324" data-name="Path 2324" d="M48.895,218.781a3.379,3.379,0,1,1,4.764-.374,3.379,3.379,0,0,1-4.764.374" transform="translate(-15.756 -70.288)" fill="#e0e0e0"/>
        <path id="Path_2325" data-name="Path 2325" d="M50.479,218.245l.589-.189a.165.165,0,0,0,.115-.169l-.01-.124a.192.192,0,0,1,.155-.237c.141-.02,1.045-.082,1.045-.082s.238-.023.248.164l.015.18a.141.141,0,0,0,.11.127l.667.146a.142.142,0,0,0,.165-.094l.067-.208a.27.27,0,0,0,.011-.118.566.566,0,0,0-.135-.292A2.47,2.47,0,0,0,51.582,217c-1.1.141-1.306.626-1.361.742a.477.477,0,0,0,0,.313l.057.111a.165.165,0,0,0,.2.082" transform="translate(-16.577 -71.651)" fill="#fff"/>
        <path id="Path_2326" data-name="Path 2326" d="M32.229,190.839a2.4,2.4,0,0,0,.527-3.08,4.438,4.438,0,0,0-4.25-2.636c-1.584.224-2.247,1.769-1.48,3.449a4.731,4.731,0,0,0,3.126,2.572c-4.087,1.307-1.689,6.047-1.689,6.047l11.206-.881s-2.784-5.454-7.44-5.471" transform="translate(-8.82 -61.127)" fill="#ebebeb"/>
        <path id="Path_2327" data-name="Path 2327" d="M45.793,207.492c.014.176-4.021.636-9.012,1.029s-9.048.567-9.062.392,4.02-.636,9.012-1.029,9.047-.568,9.061-.392" transform="translate(-9.154 -68.501)" fill="#ebebeb"/>
        <path id="Path_2328" data-name="Path 2328" d="M60.211,399.383l.734,1.22a8.353,8.353,0,0,0,3.455,3.181l1.276.631-1.22.734a8.353,8.353,0,0,0-3.181,3.455l-.631,1.276-.734-1.22a8.358,8.358,0,0,0-3.455-3.181l-1.276-.631,1.22-.734a8.357,8.357,0,0,0,3.181-3.455Z" transform="translate(-18.223 -131.896)" fill="#ebebeb"/>
        <path id="Path_2329" data-name="Path 2329" d="M412.94,41.608l.734,1.22a8.353,8.353,0,0,0,3.455,3.181l1.276.631-1.22.734A8.353,8.353,0,0,0,414,50.828l-.631,1.276-.734-1.22a8.353,8.353,0,0,0-3.455-3.181l-1.276-.631,1.22-.734a8.358,8.358,0,0,0,3.181-3.455Z" transform="translate(-134.711 -13.741)" fill="#ebebeb"/>
        <path id="Path_2330" data-name="Path 2330" d="M425.8,69.862l.638,1.06a7.261,7.261,0,0,0,3,2.765l1.108.549-1.06.638a7.261,7.261,0,0,0-2.765,3l-.549,1.109-.638-1.06a7.257,7.257,0,0,0-3-2.765l-1.108-.549,1.06-.638a7.261,7.261,0,0,0,2.765-3Z" transform="translate(-139.174 -23.072)" fill="#ebebeb"/>
        <path id="Path_2331" data-name="Path 2331" d="M39.8,378.814l.519.863a5.911,5.911,0,0,0,2.445,2.251l.9.447-.863.519a5.918,5.918,0,0,0-2.251,2.444l-.446.9-.519-.863a5.911,5.911,0,0,0-2.445-2.251l-.9-.446.863-.52a5.907,5.907,0,0,0,2.25-2.444Z" transform="translate(-11.967 -125.103)" fill="#ebebeb"/>
        <path id="Path_2332" data-name="Path 2332" d="M370.609,392.936l.519.863a5.913,5.913,0,0,0,2.444,2.251l.9.447-.863.519a5.913,5.913,0,0,0-2.251,2.444l-.446.9-.519-.863a5.915,5.915,0,0,0-2.445-2.251l-.9-.446.863-.52a5.907,5.907,0,0,0,2.25-2.444Z" transform="translate(-121.217 -129.767)" fill="#ebebeb"/>
        <path id="Path_2333" data-name="Path 2333" d="M30.144,24.234l.519.863a5.906,5.906,0,0,0,2.445,2.251l.9.446-.863.52A5.907,5.907,0,0,0,30.9,30.757l-.446.9-.519-.863a5.919,5.919,0,0,0-2.445-2.251l-.9-.446.863-.519a5.909,5.909,0,0,0,2.25-2.445Z" transform="translate(-8.779 -8.003)" fill="#ebebeb"/>
        <path id="Path_2334" data-name="Path 2334" d="M414.532,259.625l.519.863a5.911,5.911,0,0,0,2.445,2.251l.9.447-.863.519a5.908,5.908,0,0,0-2.251,2.444l-.446.9-.519-.863a5.915,5.915,0,0,0-2.445-2.251l-.9-.447.863-.519a5.907,5.907,0,0,0,2.25-2.444Z" transform="translate(-135.723 -85.741)" fill="#ebebeb"/>
        <path id="Path_2335" data-name="Path 2335" d="M26.851,117.157l.519.863a5.911,5.911,0,0,0,2.445,2.251l.9.446-.863.52A5.909,5.909,0,0,0,27.6,123.68l-.446.9-.519-.863a5.915,5.915,0,0,0-2.445-2.251l-.9-.447.863-.519a5.907,5.907,0,0,0,2.25-2.444Z" transform="translate(-7.692 -38.691)" fill="#ebebeb"/>
      </g>
    </g>
    <g id="Group_128991" data-name="Group 128991">
      <g id="Group_128990" data-name="Group 128990" clip-path="url(#clip-path)">
        <path id="Path_2336" data-name="Path 2336" d="M298.557,443.884c0,.1-59.431.174-132.727.174-73.321,0-132.739-.078-132.739-.174s59.418-.174,132.739-.174c73.3,0,132.727.078,132.727.174" transform="translate(-10.928 -146.535)" fill="#263238"/>
      </g>
    </g>
    <g id="Group_128993" data-name="Group 128993">
      <g id="Group_128992" data-name="Group 128992" clip-path="url(#clip-path)">
        <path id="Path_2337" data-name="Path 2337" d="M79.717,133.591l.483.8a5.5,5.5,0,0,0,2.274,2.094l.84.415-.8.484a5.492,5.492,0,0,0-2.094,2.274L80,140.5l-.483-.8a5.5,5.5,0,0,0-2.274-2.094l-.84-.416.8-.483a5.5,5.5,0,0,0,2.094-2.274Z" transform="translate(-25.233 -44.118)" fill="#ff725e"/>
        <path id="Path_2338" data-name="Path 2338" d="M339.288,265.286l.483.8a5.5,5.5,0,0,0,2.274,2.094l.84.415-.8.483a5.5,5.5,0,0,0-2.094,2.274l-.415.84-.483-.8a5.5,5.5,0,0,0-2.274-2.094l-.84-.415.8-.483a5.5,5.5,0,0,0,2.094-2.274Z" transform="translate(-110.956 -87.61)" fill="#ff725e"/>
        <path id="Path_2339" data-name="Path 2339" d="M198.3,17.974l.483.8a5.5,5.5,0,0,0,2.274,2.094l.84.415-.8.483A5.5,5.5,0,0,0,199,24.043l-.415.84-.483-.8a5.5,5.5,0,0,0-2.274-2.094l-.84-.416.8-.483a5.5,5.5,0,0,0,2.094-2.274Z" transform="translate(-64.394 -5.936)" fill="#ff725e"/>
        <path id="Path_2340" data-name="Path 2340" d="M367.083,130.975l.483.8a5.5,5.5,0,0,0,2.274,2.094l.84.415-.8.483a5.5,5.5,0,0,0-2.094,2.274l-.415.84-.483-.8a5.5,5.5,0,0,0-2.274-2.094l-.839-.416.8-.483a5.5,5.5,0,0,0,2.094-2.274Z" transform="translate(-120.135 -43.254)" fill="#ff725e"/>
        <path id="Path_2341" data-name="Path 2341" d="M107.5,179.8l.352.586a4.015,4.015,0,0,0,1.66,1.528l.613.3-.585.353a4.015,4.015,0,0,0-1.528,1.66l-.3.613-.352-.586a4.015,4.015,0,0,0-1.66-1.528l-.613-.3.585-.353a4.015,4.015,0,0,0,1.528-1.66Z" transform="translate(-34.704 -59.378)" fill="#ff725e"/>
        <path id="Path_2342" data-name="Path 2342" d="M131.422,291.867l.352.586a4.015,4.015,0,0,0,1.66,1.528l.613.3-.585.353a4.015,4.015,0,0,0-1.528,1.66l-.3.613-.352-.586a4.015,4.015,0,0,0-1.66-1.528l-.613-.3.585-.353a4.015,4.015,0,0,0,1.528-1.66Z" transform="translate(-42.604 -96.389)" fill="#ff725e"/>
        <path id="Path_2343" data-name="Path 2343" d="M359.679,97.039l.352.586a4.015,4.015,0,0,0,1.66,1.528l.613.3-.586.353a4.015,4.015,0,0,0-1.528,1.66l-.3.613-.352-.586a4.015,4.015,0,0,0-1.66-1.528l-.613-.3.586-.353a4.017,4.017,0,0,0,1.528-1.66Z" transform="translate(-117.985 -32.047)" fill="#ff725e"/>
        <path id="Path_2344" data-name="Path 2344" d="M60.68,156.161l.352.586a4.015,4.015,0,0,0,1.66,1.528l.613.3-.585.353a4.015,4.015,0,0,0-1.528,1.66l-.3.613-.352-.586a4.015,4.015,0,0,0-1.66-1.528l-.613-.3.585-.353a4.015,4.015,0,0,0,1.528-1.66Z" transform="translate(-19.241 -51.572)" fill="#ff725e"/>
        <path id="Path_2345" data-name="Path 2345" d="M385.474,102.417l.2.336a2.3,2.3,0,0,0,.95.875l.352.173-.336.2a2.3,2.3,0,0,0-.875.95l-.173.351-.2-.336a2.3,2.3,0,0,0-.95-.875l-.351-.173.336-.2a2.3,2.3,0,0,0,.875-.95Z" transform="translate(-126.845 -33.823)" fill="#ff725e"/>
        <path id="Path_2346" data-name="Path 2346" d="M366.778,246.386l.2.336a2.3,2.3,0,0,0,.95.875l.352.173-.336.2a2.3,2.3,0,0,0-.875.951l-.173.351-.2-.336a2.3,2.3,0,0,0-.95-.875l-.351-.173.336-.2a2.3,2.3,0,0,0,.875-.95Z" transform="translate(-120.671 -81.369)" fill="#ff725e"/>
        <path id="Path_2347" data-name="Path 2347" d="M237.463,6.729l.2.336a2.306,2.306,0,0,0,.951.875l.351.173-.335.2a2.294,2.294,0,0,0-.876.951l-.173.35-.2-.336a2.306,2.306,0,0,0-.95-.875l-.352-.173.336-.2a2.3,2.3,0,0,0,.875-.95Z" transform="translate(-77.965 -2.222)" fill="#ff725e"/>
        <path id="Path_2348" data-name="Path 2348" d="M180.19,32.261l.2.336a2.3,2.3,0,0,0,.95.875l.352.173-.336.2a2.3,2.3,0,0,0-.875.951l-.173.35-.2-.336a2.3,2.3,0,0,0-.95-.875l-.351-.173.336-.2a2.3,2.3,0,0,0,.875-.95Z" transform="translate(-59.05 -10.654)" fill="#ff725e"/>
        <path id="Path_2349" data-name="Path 2349" d="M138.331,305.011l.2.336a2.3,2.3,0,0,0,.95.875l.352.173-.336.2a2.3,2.3,0,0,0-.875.95l-.173.351-.2-.335a2.3,2.3,0,0,0-.95-.875l-.351-.173.336-.2a2.3,2.3,0,0,0,.875-.95Z" transform="translate(-45.227 -100.729)" fill="#ff725e"/>
      </g>
    </g>
    <g id="Group_128995" data-name="Group 128995">
      <g id="Group_128994" data-name="Group 128994" clip-path="url(#clip-path)">
        <path id="Path_2350" data-name="Path 2350" d="M242.143,373.414l-83.036-.192c-3.441-.008-6.226-2.43-6.219-5.408s2.8-5.388,6.244-5.381l83.035.192c3.442.008,6.227,2.43,6.219,5.409s-2.8,5.388-6.244,5.38" transform="translate(-50.491 -119.693)" fill="#455a64"/>
        <path id="Path_2351" data-name="Path 2351" d="M242.143,353.859l-83.036-.192c-3.441-.008-6.226-2.43-6.219-5.408s2.8-5.388,6.244-5.381l83.035.192c3.442.009,6.227,2.43,6.219,5.409s-2.8,5.388-6.244,5.38" transform="translate(-50.491 -113.235)" fill="#455a64"/>
        <path id="Path_2352" data-name="Path 2352" d="M240.861,381.666l-76.029-.175a5.706,5.706,0,0,0-.026,11.412l8.345.019,11.024,21.1a7.332,7.332,0,0,0,6.479,3.935l27.167.062a7.329,7.329,0,0,0,6.532-3.973l10.808-20.981,5.674.013a5.706,5.706,0,0,0,.025-11.411" transform="translate(-52.547 -125.987)" fill="#455a64"/>
        <path id="Path_2353" data-name="Path 2353" d="M244.123,181.495h.007s-.2.316-.611.917l-1.812,2.666-1.34,1.966c-.485.73-.959,1.566-1.5,2.452l-1.742,2.878c-.636,1.02-1.189,2.179-1.844,3.368l-.988,1.848-.513.962-.476,1.013-2.02,4.311-1.968,4.818c-.624,1.7-1.242,3.472-1.879,5.314a107.662,107.662,0,0,0-3.109,12.13,70.45,70.45,0,0,0-1.352,14.033l0,.113h-.109l-88.642.044h-.14l-.011-.14a91.081,91.081,0,0,0-8-29.97,116.753,116.753,0,0,0-7.881-14.512q-2.248-3.546-4.789-6.973c-1.662-2.3-3.541-4.459-5.383-6.691l-.222-.269h.357l-.133.27A85.927,85.927,0,0,1,91.487,145.6c-.36-1.7-.582-3.429-.847-5.157-.108-.867-.19-1.739-.285-2.611l-.135-1.309-.084-1.315c-.049-.878-.129-1.756-.151-2.638s-.038-1.765-.056-2.65c-.04-.885.026-1.77.035-2.658.027-.887.033-1.776.078-2.664a88.418,88.418,0,0,1,3.818-21.173,86.4,86.4,0,0,1,36.226-46.966,87.765,87.765,0,0,1,12.88-6.7,83.592,83.592,0,0,1,13.563-4.334,86.545,86.545,0,0,1,27.418-1.845,89.149,89.149,0,0,1,13.1,2.234,92.294,92.294,0,0,1,12.273,4.1,85.644,85.644,0,0,1,21.127,12.756,86.717,86.717,0,0,1,15.7,16.871A84.576,84.576,0,0,1,256.207,98.28c.658,1.567,1.133,3.179,1.679,4.743.516,1.575.916,3.163,1.37,4.713.353,1.576.745,3.122,1.049,4.665q.207,1.16.411,2.307c.135.764.283,1.52.362,2.281a87.189,87.189,0,0,1,.711,17.235A85.774,85.774,0,0,1,255.8,161.11a88.588,88.588,0,0,1-4.3,9.12c-1.42,2.554-2.717,4.659-3.827,6.32l-1.486,2.179-1.134,1.52-.936,1.246.9-1.246,1.126-1.55,1.471-2.187c1.1-1.666,2.386-3.775,3.794-6.331a89.385,89.385,0,0,0,4.263-9.121,85.879,85.879,0,0,0,5.917-26.848,87.1,87.1,0,0,0-.735-17.193c-.08-.759-.228-1.513-.365-2.274s-.274-1.528-.412-2.3c-.305-1.538-.7-3.08-1.052-4.651-.455-1.544-.855-3.128-1.372-4.7-.547-1.559-1.021-3.166-1.68-4.727A84.364,84.364,0,0,0,245.933,79.7a86.522,86.522,0,0,0-15.666-16.8A85.426,85.426,0,0,0,209.2,50.2a91.958,91.958,0,0,0-12.23-4.078A88.888,88.888,0,0,0,183.918,43.9a86.243,86.243,0,0,0-27.314,1.85A83.328,83.328,0,0,0,143.1,50.072a87.436,87.436,0,0,0-12.827,6.674,86.082,86.082,0,0,0-36.076,46.781,88.156,88.156,0,0,0-3.8,21.086c-.045.885-.051,1.77-.078,2.654-.009.883-.075,1.765-.036,2.647q.028,1.321.056,2.639c.023.878.1,1.753.151,2.627l.083,1.31.134,1.3c.1.868.177,1.737.285,2.6.263,1.721.484,3.443.842,5.136a85.622,85.622,0,0,0,16.461,36.3l.211.271h-.344l.133-.27c1.827,2.215,3.711,4.383,5.383,6.7q2.551,3.429,4.8,6.995a117.027,117.027,0,0,1,7.9,14.556,91.365,91.365,0,0,1,8.009,30.08l-.151-.14,88.642.044-.106.113a70.54,70.54,0,0,1,1.378-14.08,107.471,107.471,0,0,1,3.138-12.145c.641-1.844,1.264-3.621,1.893-5.318l1.982-4.82,2.035-4.31.479-1.013.516-.962.995-1.847c.66-1.188,1.218-2.345,1.858-3.364l1.755-2.873c.55-.884,1.029-1.718,1.517-2.446l1.354-1.959,1.836-2.65c.415-.6.636-.9.636-.9h-.007" transform="translate(-29.695 -14.274)" fill="#263238"/>
        <path id="Path_2354" data-name="Path 2354" d="M106.042,177.45a.905.905,0,0,1-.077-.189l-.193-.565-.71-2.183-.506-1.582c-.168-.583-.315-1.226-.492-1.912-.332-1.377-.784-2.93-1.068-4.693q-.245-1.317-.512-2.754c-.171-.959-.261-1.97-.4-3.009-.313-2.078-.416-4.32-.573-6.675a85.832,85.832,0,0,1,4.109-30.279c.779-2.228,1.475-4.361,2.331-6.28.413-.964.768-1.915,1.189-2.794l1.227-2.518c.743-1.624,1.594-3,2.28-4.239.354-.614.666-1.2.984-1.712l.908-1.39,1.266-1.915.336-.493a.887.887,0,0,1,.125-.161.925.925,0,0,1-.1.181l-.307.512-1.21,1.948-.881,1.4c-.309.52-.613,1.105-.957,1.723-.668,1.245-1.5,2.625-2.228,4.252l-1.2,2.52c-.413.879-.761,1.829-1.167,2.792-.841,1.917-1.524,4.047-2.293,6.27a87.281,87.281,0,0,0-4.094,30.168c.148,2.346.239,4.581.539,6.653.135,1.037.216,2.045.38,3l.488,2.749c.267,1.761.7,3.313,1.015,4.692.167.687.3,1.331.463,1.915l.476,1.587c.275.938.492,1.674.647,2.2.066.238.119.427.16.575a.907.907,0,0,1,.043.2" transform="translate(-33.504 -33.721)" fill="#263238"/>
        <path id="Path_2355" data-name="Path 2355" d="M141.844,80.034a55.943,55.943,0,0,1-4.609,4.207,55.978,55.978,0,0,1-4.838,3.943,55.893,55.893,0,0,1,4.61-4.207,55.793,55.793,0,0,1,4.837-3.943" transform="translate(-43.724 -26.43)" fill="#263238"/>
        <path id="Path_2356" data-name="Path 2356" d="M321.528,199.025a.565.565,0,0,1,.058-.153l.2-.433.8-1.648.584-1.186c.2-.438.407-.924.636-1.439.444-1.037,1-2.2,1.484-3.534q.385-.995.8-2.079c.276-.724.51-1.5.782-2.286.563-1.573,1.024-3.3,1.542-5.1A86.5,86.5,0,0,0,331.337,157c-.072-1.876-.109-3.66-.281-5.323-.076-.831-.118-1.637-.214-2.406s-.193-1.506-.283-2.211c-.153-1.413-.415-2.672-.6-3.786-.1-.555-.179-1.074-.274-1.548s-.2-.9-.284-1.291q-.241-1.133-.382-1.791c-.036-.188-.066-.342-.09-.468a.557.557,0,0,1-.019-.162.618.618,0,0,1,.054.153l.125.46c.109.434.258,1.028.446,1.777q.143.585.314,1.287c.1.473.194.992.3,1.546.2,1.113.482,2.372.65,3.787q.147,1.061.307,2.215c.1.771.152,1.579.234,2.412.185,1.666.232,3.457.313,5.339a84.175,84.175,0,0,1-2.935,24.258c-.528,1.808-1,3.536-1.579,5.11-.279.79-.52,1.563-.8,2.287s-.563,1.415-.826,2.078c-.5,1.334-1.073,2.491-1.535,3.523-.238.513-.449,1-.663,1.43l-.613,1.175-.857,1.62-.23.417a.571.571,0,0,1-.089.137" transform="translate(-106.184 -45.579)" fill="#263238"/>
      </g>
    </g>
    <g id="Group_129000" data-name="Group 129000">
      <g id="Group_128999" data-name="Group 128999" clip-path="url(#clip-path)">
        <path id="Path_2357" data-name="Path 2357" d="M270.862,103.544a52.563,52.563,0,0,0-14.524-6.155,6.037,6.037,0,0,0-2.2-.184,2.33,2.33,0,0,0-1.778,1.18,3.018,3.018,0,0,0,.547,2.859,16.889,16.889,0,0,0,4.964,4.473,153.714,153.714,0,0,0,16.108,8.916c-.7-3.905-2.064-7.265-3.118-11.09" transform="translate(-83.282 -32.088)" fill="#ff725e"/>
        <path id="Path_2358" data-name="Path 2358" d="M332.516,116.748a52.562,52.562,0,0,0,6.237,14.488,6.021,6.021,0,0,0,1.462,1.654,2.33,2.33,0,0,0,2.1.377,3.017,3.017,0,0,0,1.582-2.444,16.88,16.88,0,0,0-.494-6.663,153.616,153.616,0,0,0-5.473-17.579c-2.2,3.3-3.532,6.676-5.415,10.167" transform="translate(-109.813 -35.198)" fill="#ff725e"/>
        <path id="Path_2359" data-name="Path 2359" d="M279.971,104.055s.36,35.062,20.037,35.749,20.5-35.5,20.5-35.749c0,0-2.324-5.229-20.269-5.024s-20.269,5.024-20.269,5.024" transform="translate(-92.46 -32.703)" fill="#ff725e"/>
        <path id="Path_2360" data-name="Path 2360" d="M312.315,123.737a6.784,6.784,0,1,1-6.272-7.261,6.784,6.784,0,0,1,6.272,7.261" transform="translate(-98.667 -38.46)" fill="#263238"/>
        <path id="Path_2361" data-name="Path 2361" d="M311.387,124.51a4.944,4.944,0,1,1-4.57-5.291,4.944,4.944,0,0,1,4.57,5.291" transform="translate(-99.574 -39.368)" fill="#fff"/>
        <path id="Path_2362" data-name="Path 2362" d="M310.112,126.191a5.085,5.085,0,0,1-.046-.815c-.013-.512-.023-1.24-.023-2.13l.054.1-2.543-1.484.142,0-2.567,1.442.077-.129h0v.19l0,.193-.006.382c0,.253-.009.5-.013.748q-.014.737-.027,1.429l-.069-.124,2.513,1.535-.113,0c.784-.422,1.431-.758,1.887-.991a5.158,5.158,0,0,1,.739-.346,3.881,3.881,0,0,1-.642.425c-.433.264-1.073.645-1.875,1.108l-.055.032-.057-.033-2.544-1.483-.07-.041v-.084c0-.459.009-.937.014-1.428,0-.246.006-.5.009-.749l.005-.382,0-.192v-.191h0l.078-.13,2.575-1.427.073-.04.069.042,2.513,1.535.056.035,0,.064c-.027.925-.059,1.669-.086,2.175a3.919,3.919,0,0,1-.069.767" transform="translate(-100.683 -40.149)" fill="#ff725e"/>
        <path id="Path_2363" data-name="Path 2363" d="M279.849,106.489a.668.668,0,0,1,.1.03l.3.1,1.14.4.823.293c.3.1.636.2.993.307.714.212,1.518.487,2.432.7l1.427.366c.5.125,1.021.218,1.561.335,1.076.247,2.242.415,3.467.613a56.626,56.626,0,0,0,16.084,0c1.224-.2,2.391-.366,3.467-.613.538-.117,1.064-.21,1.561-.335l1.426-.366c.914-.215,1.718-.489,2.433-.7.356-.111.69-.206.993-.307l.822-.293,1.14-.4.3-.1a.667.667,0,0,1,.1-.03.554.554,0,0,1-.1.044l-.293.114-1.132.427-.819.3c-.3.105-.635.2-.991.319-.713.22-1.516.5-2.431.722l-1.427.375c-.5.128-1.023.224-1.562.344-1.077.252-2.246.425-3.473.626a55.663,55.663,0,0,1-16.121,0c-1.226-.2-2.4-.374-3.472-.627-.539-.12-1.065-.216-1.561-.344l-1.427-.375c-.914-.222-1.717-.5-2.431-.723-.355-.115-.688-.214-.99-.319l-.82-.305-1.132-.427-.293-.114a.666.666,0,0,1-.1-.044" transform="translate(-92.42 -35.168)" fill="#263238"/>
        <g id="Group_128998" data-name="Group 128998" transform="translate(187.511 66.322)" opacity="0.3">
          <g id="Group_128997" data-name="Group 128997">
            <g id="Group_128996" data-name="Group 128996" clip-path="url(#clip-path-11)">
              <path id="Path_2364" data-name="Path 2364" d="M279.971,104.055s2.324-4.82,20.269-5.024,20.269,5.024,20.269,5.024-18.1,8.928-40.539,0" transform="translate(-279.971 -99.025)"/>
            </g>
          </g>
        </g>
        <path id="Path_2365" data-name="Path 2365" d="M286.489,132.464s-.013-.016-.034-.052l-.087-.157-.325-.613-.23-.445-.251-.541c-.182-.388-.387-.83-.586-1.331l-.321-.782q-.153-.415-.318-.861c-.23-.591-.424-1.24-.654-1.915-.419-1.362-.83-2.875-1.191-4.479s-.624-3.151-.837-4.56c-.2-1.411-.353-2.685-.438-3.759-.052-.536-.084-1.023-.111-1.45s-.05-.794-.058-1.1-.017-.522-.023-.693c0-.072,0-.131,0-.18a.182.182,0,0,1,0-.062.207.207,0,0,1,.01.061c0,.049.01.108.017.179q.018.255.049.691c.017.3.045.668.082,1.094s.072.911.131,1.446c.1,1.072.264,2.342.467,3.749.22,1.405.493,2.945.846,4.548s.766,3.111,1.177,4.472c.226.674.415,1.323.64,1.913.106.3.21.585.309.861s.213.534.312.784c.193.5.391.946.565,1.336q.13.292.24.544l.219.45.3.624.075.164a.222.222,0,0,1,.021.058" transform="translate(-92.807 -36.158)" fill="#fff"/>
        <path id="Path_2366" data-name="Path 2366" d="M300.212,154.182a1.382,1.382,0,0,1-.313-.038,6.639,6.639,0,0,1-.836-.2,8.712,8.712,0,0,1-1.193-.459,9.778,9.778,0,0,1-1.354-.786,9.907,9.907,0,0,1-1.2-1.007,8.694,8.694,0,0,1-.835-.967,6.614,6.614,0,0,1-.473-.719,1.378,1.378,0,0,1-.142-.282c.023-.013.246.376.693.94a10.046,10.046,0,0,0,.847.936,9.734,9.734,0,0,0,2.517,1.77,9.939,9.939,0,0,0,1.167.48c.682.229,1.124.307,1.119.334" transform="translate(-97.049 -49.445)" fill="#fff"/>
        <path id="Path_2367" data-name="Path 2367" d="M305.474,131.48a.966.966,0,0,1-.188.019,4.939,4.939,0,0,1-.54.015,7.077,7.077,0,0,1-1.961-.318,8.165,8.165,0,0,1-1.277-.514,8.348,8.348,0,0,1-1.328-.857,7.2,7.2,0,0,1-2.775-6.391,8.31,8.31,0,0,1,.28-1.556,8.189,8.189,0,0,1,.5-1.284,7.064,7.064,0,0,1,1.106-1.65,4.9,4.9,0,0,1,.38-.384.919.919,0,0,1,.142-.124c.01.011-.178.19-.482.543a7.518,7.518,0,0,0-1.058,1.657,7.8,7.8,0,0,0-.737,2.807,7.151,7.151,0,0,0,2.727,6.28,8.387,8.387,0,0,0,1.3.855,8.3,8.3,0,0,0,1.253.522,7.519,7.519,0,0,0,1.934.358c.465.02.725,0,.725.019" transform="translate(-98.209 -39.114)" fill="#fff"/>
        <path id="Path_2368" data-name="Path 2368" d="M298.233,52.1s-17.155-.206-19.871,14.652,11.792,15.136,15.965,15.417c1.892.127,5.94.141,9.512.079,7.908-.137,13.5-1.668,15.4-9a13.976,13.976,0,0,0,.427-2.627c.5-8.041-4.941-18.912-21.431-18.516" transform="translate(-91.818 -17.201)" fill="#ff725e"/>
        <path id="Path_2369" data-name="Path 2369" d="M312.121,81.225l-24.923.389a4.731,4.731,0,0,1-.148-9.46l24.923-.389a4.731,4.731,0,0,1,.147,9.46" transform="translate(-93.26 -23.7)" fill="#263238"/>
        <path id="Path_2370" data-name="Path 2370" d="M295.8,77.856a1.518,1.518,0,1,1-1.2-1.782,1.519,1.519,0,0,1,1.2,1.782" transform="translate(-96.696 -25.114)" fill="#fff"/>
        <path id="Path_2371" data-name="Path 2371" d="M321.8,77.441a1.518,1.518,0,1,1-1.2-1.782,1.519,1.519,0,0,1,1.2,1.782" transform="translate(-105.281 -24.977)" fill="#fff"/>
        <path id="Path_2372" data-name="Path 2372" d="M303.713,77.7c.113.012.056.543.388,1.249a3.134,3.134,0,0,0,.806,1.059,2.433,2.433,0,0,0,2.944.269,3.14,3.14,0,0,0,.985-.9c.453-.634.494-1.166.607-1.158.044,0,.09.135.09.386a2.346,2.346,0,0,1-.276,1.025,3.151,3.151,0,0,1-1.066,1.185,2.882,2.882,0,0,1-3.718-.34,3.158,3.158,0,0,1-.833-1.359,2.348,2.348,0,0,1-.086-1.058c.046-.247.115-.371.159-.364" transform="translate(-100.239 -25.661)" fill="#fff"/>
        <path id="Path_2373" data-name="Path 2373" d="M296.463,53.758a.177.177,0,0,1-.062.011l-.182.017c-.159.017-.4.021-.7.058A18.867,18.867,0,0,0,289.4,55.5a18.376,18.376,0,0,0-9.006,9.153,18.73,18.73,0,0,0-.892,2.406c-.093.289-.143.52-.189.672-.02.071-.037.129-.051.175a.219.219,0,0,1-.021.058.183.183,0,0,1,.007-.061c.011-.049.023-.107.037-.179.038-.156.079-.389.164-.681a17.058,17.058,0,0,1,.854-2.431,18.1,18.1,0,0,1,1.887-3.325,17.836,17.836,0,0,1,7.156-5.9,18.014,18.014,0,0,1,3.622-1.222,17.091,17.091,0,0,1,2.549-.378c.3-.028.54-.024.7-.032.073,0,.133,0,.182,0a.21.21,0,0,1,.062,0" transform="translate(-92.219 -17.752)" fill="#fff"/>
        <path id="Path_2374" data-name="Path 2374" d="M279.554,82.567a1.989,1.989,0,0,1-.244-.534,7.589,7.589,0,0,1-.437-2.787,1.973,1.973,0,0,1,.069-.583c.044,0-.017.895.156,1.975s.5,1.913.455,1.928" transform="translate(-92.096 -25.979)" fill="#fff"/>
        <path id="Path_2375" data-name="Path 2375" d="M313.4,70.431c0,.039-3.283.07-7.332.07s-7.332-.031-7.332-.07,3.282-.07,7.332-.07,7.332.031,7.332.07" transform="translate(-98.656 -23.237)" fill="#fff"/>
        <path id="Path_2376" data-name="Path 2376" d="M296.132,94.057a.443.443,0,0,1-.124.02l-.358.031c-.155.013-.346.026-.567.029s-.474.017-.753.009a19.217,19.217,0,0,1-1.956-.118,19.851,19.851,0,0,1-4.665-1.1,19.3,19.3,0,0,1-1.8-.768c-.254-.117-.474-.241-.67-.344s-.362-.2-.495-.279l-.306-.188a.417.417,0,0,1-.1-.073.441.441,0,0,1,.116.049l.319.164c.137.074.3.163.5.258s.421.213.676.323c.5.235,1.115.486,1.8.736a21.327,21.327,0,0,0,4.636,1.092c.729.084,1.388.133,1.943.147.277.015.528.009.749.011s.411,0,.566-.005l.358,0a.444.444,0,0,1,.126.008" transform="translate(-93.901 -30.144)" fill="#fff"/>
        <path id="Path_2377" data-name="Path 2377" d="M320.111,109.733a.274.274,0,0,1-.064.029l-.192.072-.744.265c-.323.117-.719.252-1.187.39s-.993.313-1.589.462l-.931.246c-.324.084-.666.154-1.017.236-.7.169-1.461.3-2.258.453a47.3,47.3,0,0,1-10.516.646c-.81-.052-1.58-.092-2.3-.174-.359-.038-.707-.065-1.038-.109l-.954-.131c-.609-.074-1.154-.183-1.634-.265s-.891-.165-1.226-.241l-.77-.171-.2-.048a.243.243,0,0,1-.067-.021.274.274,0,0,1,.07.007l.2.034.776.146c.336.068.747.146,1.228.218s1.025.175,1.634.244l.952.121c.332.042.678.066,1.037.1.715.078,1.484.113,2.292.161,1.616.065,3.4.069,5.262-.04s3.63-.342,5.227-.6c.8-.147,1.553-.276,2.254-.441.351-.079.692-.145,1.016-.226l.931-.237c.6-.142,1.124-.309,1.592-.442s.867-.258,1.192-.366l.752-.239.2-.06a.3.3,0,0,1,.068-.015" transform="translate(-96.904 -36.239)" fill="#fff"/>
      </g>
    </g>
    <g id="Group_129002" data-name="Group 129002">
      <g id="Group_129001" data-name="Group 129001" clip-path="url(#clip-path)">
        <path id="Path_2378" data-name="Path 2378" d="M89.94,278.043l.047,9.289s15.422-8.736,10.9-17.044Z" transform="translate(-29.703 -89.262)" fill="#ff725e"/>
        <path id="Path_2379" data-name="Path 2379" d="M82.553,249.286s-11.1-4.066-19.538,3.491l8.653,4.883Z" transform="translate(-20.811 -81.966)" fill="#ff725e"/>
        <path id="Path_2380" data-name="Path 2380" d="M75.934,252.823c.352.461,9.381,13.086,9.381,13.086L108.9,249.19a8.615,8.615,0,1,0-10.235-13.857Z" transform="translate(-25.077 -77.128)" fill="#f5f5f5"/>
        <path id="Path_2381" data-name="Path 2381" d="M75.934,252.744a1.683,1.683,0,0,1,.19-.161l.589-.47,2.3-1.806,8.546-6.653,5.929-4.6L96.8,236.5l1.731-1.337a9.114,9.114,0,0,1,1.962-1.149,7.826,7.826,0,0,1,2.246-.621,8.413,8.413,0,0,1,2.384,0,8.711,8.711,0,0,1,4.453,1.974,8.958,8.958,0,0,1,1.684,1.887,9.318,9.318,0,0,1,1.088,2.329,8.906,8.906,0,0,1-.063,5.193,8.7,8.7,0,0,1-2.81,4.106c-1.309,1-2.633,1.886-3.917,2.812l-7.444,5.266-12.725,8.976-.1.074-.073-.1-6.83-9.642-1.832-2.611-.468-.677a1.932,1.932,0,0,1-.147-.228,2.672,2.672,0,0,1,.184.233l.5.678,1.9,2.6,6.9,9.5-.177-.03,12.684-9.032,7.434-5.28c1.275-.922,2.624-1.824,3.9-2.8a8.353,8.353,0,0,0,2.7-3.943,8.567,8.567,0,0,0,.062-4.988,8.968,8.968,0,0,0-1.043-2.238,8.632,8.632,0,0,0-1.616-1.815,8.393,8.393,0,0,0-4.278-1.906,8.109,8.109,0,0,0-2.3,0,7.486,7.486,0,0,0-2.163.592A17.2,17.2,0,0,0,97,236.73l-3.3,2.524-5.929,4.526-8.626,6.558-2.366,1.786-.624.464a2.445,2.445,0,0,1-.224.157" transform="translate(-25.077 -77.049)" fill="#263238"/>
        <path id="Path_2382" data-name="Path 2382" d="M85.541,261.142,70.8,271.743s.634,1.618,1.038,1.454c.339-.138,11.443-7.7,15.043-10.153a1.163,1.163,0,1,0-1.339-1.9" transform="translate(-23.381 -86.17)" fill="#ff725e"/>
        <path id="Path_2383" data-name="Path 2383" d="M110.791,249.042a4.929,4.929,0,1,1-5.235-4.6,4.929,4.929,0,0,1,5.235,4.6" transform="translate(-33.337 -80.723)" fill="#fff"/>
        <path id="Path_2384" data-name="Path 2384" d="M110.71,248.975c-.038,0-.046-.437-.293-1.171a4.914,4.914,0,0,0-1.967-2.515,4.8,4.8,0,0,0-4.57-.367,4.722,4.722,0,0,0-2.1,1.807,4.751,4.751,0,0,0,.362,5.62,4.722,4.722,0,0,0,2.313,1.522,4.8,4.8,0,0,0,4.485-.951,4.914,4.914,0,0,0,1.627-2.747c.151-.759.1-1.2.141-1.2a1.143,1.143,0,0,1,.038.315,3.887,3.887,0,0,1-.05.908,4.912,4.912,0,0,1-1.6,2.9,5,5,0,0,1-2.052,1.1,5.066,5.066,0,0,1-2.675-.031,5.015,5.015,0,0,1-2.479-1.608,5.053,5.053,0,0,1-.387-6.008,5.01,5.01,0,0,1,2.251-1.912,5.06,5.06,0,0,1,2.648-.375,4.983,4.983,0,0,1,2.177.828,4.907,4.907,0,0,1,1.96,2.672,3.879,3.879,0,0,1,.167.894,1.111,1.111,0,0,1,0,.317" transform="translate(-33.255 -80.656)" fill="#263238"/>
        <path id="Path_2385" data-name="Path 2385" d="M121.218,247.255c7.923-7.408,6.509-15.989,6.509-15.989a21.022,21.022,0,0,0-17.848,3.064c7.093,1,10.888,5.292,11.34,12.925" transform="translate(-36.287 -76.125)" fill="#ff725e"/>
      </g>
    </g>
    <g id="Group_129010" data-name="Group 129010">
      <g id="Group_129009" data-name="Group 129009" clip-path="url(#clip-path)">
        <path id="Path_2386" data-name="Path 2386" d="M246.39,208.426l2.737,25.294,16.29,5.43.66,7.878-22.993-1.538s-7.083.173-8.628-9.165l-.376-24.541Z" transform="translate(-77.305 -68.832)" fill="#ffbe9d"/>
        <path id="Path_2387" data-name="Path 2387" d="M295.078,259.867a1.131,1.131,0,0,1-1.217.336,1.3,1.3,0,0,1-.26-.128c-.573-.366-.177-1.627-.177-1.627l-2.873-1.283a33.257,33.257,0,0,0-6.4,2.788c-1.83,1.3-5.016-.987-5.016-.987l.462-6.724,6.847-3.538s-.419.208.21-.626,2.271-.021,2.271-.021c.392-.391,1.571-.257,1.571-.257l4.7,1.839a3.436,3.436,0,0,1,2.025,2.168l1.193,3.787s.465,2.622.148,3.119a1,1,0,0,1-1.3.339s-.644,1.473-1.062,1.42a3.433,3.433,0,0,1-1.124-.6" transform="translate(-92.184 -81.803)" fill="#ffbe9d"/>
        <path id="Path_2388" data-name="Path 2388" d="M285.895,259.125a1.883,1.883,0,0,0,.346-.144l.983-.437a34.919,34.919,0,0,1,3.767-1.352l-.072-.005,2.864,1.3-.069-.154a3.409,3.409,0,0,0-.138.748,1.4,1.4,0,0,0,.15.812.769.769,0,0,0,.35.288,1.078,1.078,0,0,0,.415.137,1.267,1.267,0,0,0,.856-.216,1.349,1.349,0,0,0,.177-.143l.04-.041.02-.021.009-.011h0l-.193.018,0,0,.006,0,.084.064q.17.126.352.24a3.444,3.444,0,0,0,.384.211,1.57,1.57,0,0,0,.217.083.525.525,0,0,0,.292.02.922.922,0,0,0,.4-.319,3.41,3.41,0,0,0,.259-.373,7.458,7.458,0,0,0,.417-.8l-.208.075a1.178,1.178,0,0,0,1.219-.086.952.952,0,0,0,.366-.55,2.765,2.765,0,0,0,.048-.609,16.789,16.789,0,0,0-.257-2.377v-.009l0-.011-.636-2.02-.4-1.28a6.167,6.167,0,0,0-.48-1.264,3.339,3.339,0,0,0-.9-1.01,4.351,4.351,0,0,0-1.169-.583l-4.434-1.721-.018-.007h-.017a4.369,4.369,0,0,0-.857,0,1.409,1.409,0,0,0-.824.3l.182-.008a1.733,1.733,0,0,0-1.581-.324,2.023,2.023,0,0,0-1.094,1.024l.054-.054-4.713,2.418-1.276.674a2.923,2.923,0,0,0-.436.256,2.8,2.8,0,0,0,.467-.195l1.3-.618,4.761-2.325.032-.015.021-.038a1.794,1.794,0,0,1,.961-.886,1.478,1.478,0,0,1,1.327.289l.094.073.088-.081a1.19,1.19,0,0,1,.662-.218,4.176,4.176,0,0,1,.8.007l-.035-.009,4.424,1.745a4.03,4.03,0,0,1,1.094.546,3.03,3.03,0,0,1,.809.916,5.819,5.819,0,0,1,.451,1.2q.2.635.4,1.28c.218.692.433,1.376.636,2.019l0-.019a16.612,16.612,0,0,1,.257,2.324,2.473,2.473,0,0,1-.038.538.646.646,0,0,1-.251.374.875.875,0,0,1-.893.059l-.145-.065-.063.14a7.408,7.408,0,0,1-.394.765,1.521,1.521,0,0,1-.486.566.3.3,0,0,1-.126-.019,1.191,1.191,0,0,1-.178-.068,2.988,2.988,0,0,1-.352-.191c-.115-.07-.227-.146-.336-.224l-.08-.06,0,0,0,0-.2.018h0l-.008.009-.016.016-.031.033a1.07,1.07,0,0,1-.139.113.994.994,0,0,1-.666.175.825.825,0,0,1-.326-.107.5.5,0,0,1-.243-.187,1.943,1.943,0,0,1,0-1.341l.029-.111-.1-.044L291,256.994l-.036-.017-.036.011a29.992,29.992,0,0,0-3.753,1.451c-.425.2-.749.369-.964.49a1.819,1.819,0,0,0-.319.2" transform="translate(-92.594 -81.73)" fill="#eb996e"/>
        <path id="Path_2389" data-name="Path 2389" d="M294.307,251.1a6.038,6.038,0,0,0,1.433.875,16.114,16.114,0,0,0,3.922,1.346l-.131-.151c.018.26.039.535.075.812a12.368,12.368,0,0,0,1.454,4.461,10.51,10.51,0,0,0,.778,1.194c.208.265.335.4.352.387.044-.031-.392-.631-.923-1.69a13.767,13.767,0,0,1-1.333-4.393c-.035-.271-.056-.538-.076-.792l-.01-.127-.122-.024a19.32,19.32,0,0,1-3.893-1.224c-.948-.411-1.5-.717-1.526-.676" transform="translate(-97.194 -82.926)" fill="#eb996e"/>
        <path id="Path_2390" data-name="Path 2390" d="M300.04,257.138a7.994,7.994,0,0,0,2.07,5.665c.082-.058-.715-1.175-1.28-2.743s-.69-2.93-.79-2.921" transform="translate(-99.073 -84.919)" fill="#eb996e"/>
        <path id="Path_2391" data-name="Path 2391" d="M278.476,258.5c-.006.007.039.052.131.13a3.683,3.683,0,0,0,.43.311,5.381,5.381,0,0,0,1.851.724,5.453,5.453,0,0,0,3.011-.269,5.69,5.69,0,0,0,2.881-2.5l-.207.067a12.865,12.865,0,0,0,3.464,1.092,12.57,12.57,0,0,0,1.344.148,4.094,4.094,0,0,0,1.344-.08,1.007,1.007,0,0,0,.607-.406.928.928,0,0,0-.326-1.288l-.523-.287c-1.378-.745-2.652-1.355-3.737-1.832s-1.978-.824-2.6-1.049a5.63,5.63,0,0,0-.982-.309,6.782,6.782,0,0,0,.934.429c.607.261,1.483.64,2.551,1.142s2.324,1.13,3.687,1.886l.514.289a.617.617,0,0,1,.281.376.6.6,0,0,1-.07.47.688.688,0,0,1-.427.268,3.854,3.854,0,0,1-1.234.062,12.629,12.629,0,0,1-1.309-.146,12.889,12.889,0,0,1-3.381-1.053l-.136-.064-.072.131a5.484,5.484,0,0,1-2.7,2.4,5.362,5.362,0,0,1-2.875.324,5.79,5.79,0,0,1-1.831-.62c-.4-.217-.6-.367-.615-.348" transform="translate(-91.966 -83.535)" fill="#eb996e"/>
        <path id="Path_2392" data-name="Path 2392" d="M306.784,400.7a1.393,1.393,0,0,0-.019-.631,4.178,4.178,0,0,0-.638-1.6,2.22,2.22,0,0,0-.38-.463.722.722,0,0,0-.714-.161.51.51,0,0,0-.315.317.685.685,0,0,0,.015.428,4.352,4.352,0,0,0,.332.644c.247.417.451.831.768,1.3a.911.911,0,0,0,.847.382,1.822,1.822,0,0,0,.818-.363,7.084,7.084,0,0,0,1.2-1.108,7.332,7.332,0,0,0,.474-.617,2.037,2.037,0,0,0,.356-.709.671.671,0,0,0-.361-.772.8.8,0,0,0-.762.172,4.7,4.7,0,0,0-.8.91,6.048,6.048,0,0,0-.787,1.527,1.566,1.566,0,0,0-.137.614,12.076,12.076,0,0,1,1.139-1.983,4.788,4.788,0,0,1,.772-.814.508.508,0,0,1,.452-.12.339.339,0,0,1,.147.4,1.766,1.766,0,0,1-.311.573,7.127,7.127,0,0,1-.457.58,7.006,7.006,0,0,1-1.143,1.044,1.488,1.488,0,0,1-.641.3.532.532,0,0,1-.514-.237c-.263-.382-.515-.855-.758-1.247a4.469,4.469,0,0,1-.318-.575c-.064-.18-.028-.3.1-.347.289-.119.569.207.764.484a6.03,6.03,0,0,1,.875,2.083" transform="translate(-100.623 -131.208)" fill="#263238"/>
        <path id="Path_2393" data-name="Path 2393" d="M272.939,398.162l-8.119,17.6-13.1-6.053,8.4-21.776Z" transform="translate(-83.13 -128.113)" fill="#ffbe9d"/>
        <path id="Path_2394" data-name="Path 2394" d="M262.584,424.066l-4.743,9.045s12.141,12.555,11,15.361L240.3,434.787l7.841-18.144Z" transform="translate(-79.358 -137.596)" fill="#ff725e"/>
        <path id="Path_2395" data-name="Path 2395" d="M253.472,433.057a1.293,1.293,0,0,0-1.444.944,1.243,1.243,0,0,0,.924,1.439,1.364,1.364,0,0,0,1.524-1.007,1.289,1.289,0,0,0-1.127-1.39" transform="translate(-83.223 -143.011)" fill="#e0e0e0"/>
        <g id="Group_129005" data-name="Group 129005" transform="translate(160.94 294.916)" opacity="0.6">
          <g id="Group_129004" data-name="Group 129004">
            <g id="Group_129003" data-name="Group 129003" clip-path="url(#clip-path-14)">
              <path id="Path_2396" data-name="Path 2396" d="M240.3,442.611l1.187-2.275,26.923,13.972s1.005,1.162.432,1.988Z" transform="translate(-240.298 -440.336)" fill="#fff"/>
            </g>
          </g>
        </g>
        <path id="Path_2397" data-name="Path 2397" d="M265.626,441.064c-.072.137-.8-.134-1.7-.014-.9.1-1.547.53-1.649.413-.115-.089.492-.822,1.585-.948s1.855.435,1.763.549" transform="translate(-86.612 -145.473)" fill="#263238"/>
        <path id="Path_2398" data-name="Path 2398" d="M269.454,445.215c-.033.15-.75.1-1.506.46-.766.341-1.191.921-1.327.848-.141-.041.153-.9,1.1-1.336s1.793-.107,1.732.028" transform="translate(-88.04 -146.949)" fill="#263238"/>
        <path id="Path_2399" data-name="Path 2399" d="M270.817,450.95c-.141-.031,0-.82.723-1.412s1.522-.583,1.525-.439c.023.152-.6.359-1.183.854s-.92,1.049-1.065,1" transform="translate(-89.421 -148.287)" fill="#263238"/>
        <path id="Path_2400" data-name="Path 2400" d="M267.817,435.432c-.119.1-.666-.4-1.48-.724-.806-.341-1.546-.37-1.562-.525-.032-.139.814-.368,1.766.027s1.4,1.145,1.276,1.222" transform="translate(-87.441 -143.324)" fill="#263238"/>
        <path id="Path_2401" data-name="Path 2401" d="M243.463,381.475l21.4-53.557s-.481-9.137-2.164-12.023-52.663-19.718-52.663-19.718-12.985-3.126-21.642,0-15.15,13.947-13.947,19.959,6.728,10.885,6.728,10.885l37.037.658,20.433,7.455-13.76,39.436Z" transform="translate(-57.564 -97.353)" fill="#263238"/>
        <path id="Path_2402" data-name="Path 2402" d="M298.084,367.84l.483,19.372-14.427.352-2.078-23.246Z" transform="translate(-93.15 -120.315)" fill="#ffbe9d"/>
        <path id="Path_2403" data-name="Path 2403" d="M299.981,395.776l-.263,10.21s16.436,5.9,16.653,8.926l-31.652.321-.974-19.742Z" transform="translate(-93.706 -130.611)" fill="#ff725e"/>
        <path id="Path_2404" data-name="Path 2404" d="M292.511,409.233a1.292,1.292,0,0,0-.879,1.484,1.243,1.243,0,0,0,1.463.884,1.363,1.363,0,0,0,.922-1.577,1.289,1.289,0,0,0-1.624-.751" transform="translate(-96.301 -135.13)" fill="#e0e0e0"/>
        <g id="Group_129008" data-name="Group 129008" transform="translate(191.011 282.057)" opacity="0.6">
          <g id="Group_129007" data-name="Group 129007">
            <g id="Group_129006" data-name="Group 129006" clip-path="url(#clip-path-15)">
              <path id="Path_2405" data-name="Path 2405" d="M285.2,423.7l.061-2.566,30.326.652s1.415.6,1.266,1.593Z" transform="translate(-285.197 -421.137)" fill="#fff"/>
            </g>
          </g>
        </g>
        <path id="Path_2406" data-name="Path 2406" d="M306.943,410.845c0,.155-.776.232-1.531.737-.769.485-1.154,1.159-1.3,1.1-.143-.028.078-.955,1-1.55s1.857-.428,1.824-.286" transform="translate(-100.42 -135.635)" fill="#263238"/>
        <path id="Path_2407" data-name="Path 2407" d="M312.311,412.883c.037.149-.63.419-1.148,1.078-.538.644-.663,1.352-.817,1.347-.145.026-.261-.878.4-1.685s1.561-.887,1.566-.739" transform="translate(-102.454 -136.334)" fill="#263238"/>
        <path id="Path_2408" data-name="Path 2408" d="M316.115,417.5c-.14.034-.363-.736.025-1.586s1.108-1.195,1.174-1.067c.089.127-.376.585-.684,1.289-.325.7-.362,1.348-.516,1.364" transform="translate(-104.333 -136.993)" fill="#263238"/>
        <path id="Path_2409" data-name="Path 2409" d="M306.263,405.08c-.064.141-.775-.064-1.648,0-.875.05-1.551.35-1.634.218-.09-.111.567-.69,1.6-.755s1.759.411,1.684.533" transform="translate(-100.057 -133.599)" fill="#263238"/>
        <path id="Path_2410" data-name="Path 2410" d="M271.692,289.2s8.644-.691,9.606,8.687,1.906,53.144,1.906,53.144L263,352.714l-3.126-44.727-32.222-13.706S265.921,288,271.692,289.2" transform="translate(-75.183 -95.457)" fill="#263238"/>
        <path id="Path_2411" data-name="Path 2411" d="M216.806,270.38s5.246,14.708,4.247,16.347-14.489,8.384-14.489,8.384l-33.755,12.964a28.293,28.293,0,0,1-3.467-13.986c0-8.47,11.741-23.709,11.741-23.709Z" transform="translate(-55.925 -89.293)" fill="#263238"/>
        <path id="Path_2412" data-name="Path 2412" d="M225.271,295.741a.8.8,0,0,0,.159.085l.479.222,1.87.832,7.016,3.057,24.224,10.428-.109-.154c.307,4.418.638,9.19.98,14.126.821,11.54,1.578,22.18,2.177,30.6l.011.153.151-.013,14.715-1.291L281,353.4l1.059-.111a2.282,2.282,0,0,0,.36-.052,2.11,2.11,0,0,0-.364.007l-1.062.066-4.059.3L262.2,354.775l.162.139c-.578-8.42-1.309-19.061-2.1-30.6-.348-4.936-.684-9.708-1-14.125l-.007-.111-.1-.044-24.277-10.3-7.058-2.96-1.893-.777-.492-.194a.8.8,0,0,0-.171-.056" transform="translate(-74.395 -97.668)" fill="#455a64"/>
        <path id="Path_2413" data-name="Path 2413" d="M185.189,296.011a4.945,4.945,0,0,0,.948-.259l2.542-.819a55.462,55.462,0,0,1,8.506-2.149,24.941,24.941,0,0,1,8.707.112,34.991,34.991,0,0,1,3.49,1.011,4.2,4.2,0,0,0-.878-.445,15.6,15.6,0,0,0-2.554-.826,23.4,23.4,0,0,0-8.821-.225,47.286,47.286,0,0,0-8.535,2.27c-1.065.378-1.919.7-2.506.934a4.93,4.93,0,0,0-.9.4" transform="translate(-61.158 -96.467)" fill="#455a64"/>
        <path id="Path_2414" data-name="Path 2414" d="M192.313,286.218a24.718,24.718,0,0,1,2.951-.017c.909.064,1.991.2,3.2.342s2.522.3,3.889.564a18.081,18.081,0,0,1,6.614,2.453,20.575,20.575,0,0,1,2.294,1.848,2.6,2.6,0,0,0-.49-.635,10.105,10.105,0,0,0-1.654-1.434,16.937,16.937,0,0,0-6.693-2.6c-1.384-.262-2.715-.415-3.921-.539s-2.3-.233-3.219-.263a12.146,12.146,0,0,0-2.184.1,2.523,2.523,0,0,0-.781.186" transform="translate(-63.511 -94.426)" fill="#455a64"/>
        <path id="Path_2415" data-name="Path 2415" d="M205.141,109.809c-3.884-.66-7.3.835-10.574,3.025A19.47,19.47,0,0,0,187.4,122a19.274,19.274,0,0,0-.713,12.209,15.4,15.4,0,0,0,7.583,9.433A15.562,15.562,0,0,0,210.3,141.9a19.5,19.5,0,0,0,7.321-14.731,18.716,18.716,0,0,0-2.963-11.131,14.259,14.259,0,0,0-9.522-6.226" transform="translate(-61.429 -36.212)" fill="#263238"/>
        <path id="Path_2416" data-name="Path 2416" d="M197.825,123.126c.568-1.486.348-3.145.573-4.72.495-3.468,3.289-6.249,6.521-7.6,3.007-1.257,6.678-.983,10.3.188a13.827,13.827,0,0,1,6.474,4.219,10.893,10.893,0,0,1,2,9.782l-17.743-2.584a19.792,19.792,0,0,1-5.377,3.538,3.671,3.671,0,0,1-1.852.295,1.653,1.653,0,0,1-1.38-1.139,3.5,3.5,0,0,1,.483-1.978" transform="translate(-65.16 -36.321)" fill="#263238"/>
        <path id="Path_2417" data-name="Path 2417" d="M215.648,118.8l-15.491,3.282a2.892,2.892,0,0,0-2.7,2.832l.186,33.524a10.412,10.412,0,0,0,2.183,6.322l1.477,1.905a7.645,7.645,0,0,0,12.764-.951,3.686,3.686,0,0,0,.357-.877,7.007,7.007,0,0,0,.145-.757l.3-3.268c.151-2.985.171-6.018.173-5.99,0,0,6.339-.8,7.963-8.969.808-4.062.863-10.771.73-16.262-.119-4.943-3.151-11.119-8.084-10.79" transform="translate(-65.21 -39.229)" fill="#ffbe9d"/>
        <path id="Path_2418" data-name="Path 2418" d="M231.755,144.65a1.055,1.055,0,0,1-1.058,1.024,1.009,1.009,0,0,1-1.049-.993,1.055,1.055,0,0,1,1.056-1.024,1.009,1.009,0,0,1,1.051.993" transform="translate(-75.841 -47.443)" fill="#263238"/>
        <path id="Path_2419" data-name="Path 2419" d="M232.262,139.449c-.136.133-.912-.49-2.046-.53-1.132-.058-1.987.494-2.105.35-.058-.064.085-.307.457-.557a2.894,2.894,0,0,1,1.692-.451,2.783,2.783,0,0,1,1.622.594c.338.281.447.534.38.593" transform="translate(-75.329 -45.66)" fill="#263238"/>
        <path id="Path_2420" data-name="Path 2420" d="M216.109,143.84a1.055,1.055,0,0,1-1.058,1.024,1.009,1.009,0,0,1-1.049-.993,1.055,1.055,0,0,1,1.057-1.025,1.009,1.009,0,0,1,1.05.993" transform="translate(-70.674 -47.175)" fill="#263238"/>
        <path id="Path_2421" data-name="Path 2421" d="M216.182,139.036c-.137.133-.913-.49-2.047-.53-1.132-.058-1.987.494-2.105.35-.058-.064.084-.307.458-.557a2.893,2.893,0,0,1,1.691-.451,2.783,2.783,0,0,1,1.622.594c.338.281.447.534.38.593" transform="translate(-70.018 -45.523)" fill="#263238"/>
        <path id="Path_2422" data-name="Path 2422" d="M223.234,147.833a7.546,7.546,0,0,1,1.855-.261c.291-.019.567-.066.624-.262a1.474,1.474,0,0,0-.16-.865l-.771-2.239a37.958,37.958,0,0,1-1.7-5.843,38,38,0,0,1,2.166,5.692q.384,1.178.734,2.25a1.676,1.676,0,0,1,.107,1.143.728.728,0,0,1-.493.405,1.94,1.94,0,0,1-.494.049,7.365,7.365,0,0,1-1.867-.07" transform="translate(-73.668 -45.694)" fill="#263238"/>
        <path id="Path_2423" data-name="Path 2423" d="M218.336,170.93a20.922,20.922,0,0,1-10.892-3.363s2.546,5.8,10.8,5.347Z" transform="translate(-68.508 -55.339)" fill="#eb996e"/>
        <path id="Path_2424" data-name="Path 2424" d="M220.759,156.145a2.045,2.045,0,0,0-1.8-.831,1.866,1.866,0,0,0-1.315.642,1.183,1.183,0,0,0-.143,1.348,1.373,1.373,0,0,0,1.472.434,4.3,4.3,0,0,0,1.484-.809,1.269,1.269,0,0,0,.337-.323.38.38,0,0,0,.015-.422" transform="translate(-71.779 -51.291)" fill="#eb996e"/>
        <path id="Path_2425" data-name="Path 2425" d="M218.183,153.481c.185,0,.139,1.228,1.159,2.143s2.335.83,2.338,1c.014.078-.3.228-.856.221a3.062,3.062,0,0,1-1.954-.768,2.672,2.672,0,0,1-.893-1.793c-.027-.516.123-.816.206-.806" transform="translate(-71.985 -50.687)" fill="#263238"/>
        <path id="Path_2426" data-name="Path 2426" d="M215.578,134.134c-.124.3-1.25.114-2.587.222-1.34.082-2.427.43-2.593.147-.074-.135.125-.419.57-.7a4.515,4.515,0,0,1,3.947-.281c.481.216.717.467.664.612" transform="translate(-69.479 -43.988)" fill="#263238"/>
        <path id="Path_2427" data-name="Path 2427" d="M232.21,131.994c-.21.25-.98-.048-1.919-.1-.937-.082-1.742.106-1.915-.171-.075-.134.06-.387.417-.618a2.783,2.783,0,0,1,3.09.216c.321.278.42.547.327.67" transform="translate(-75.414 -43.177)" fill="#263238"/>
        <path id="Path_2428" data-name="Path 2428" d="M193.351,120.75c1.606-4.717,8.618-11.144,13.581-10.7l7.841,4.918a7.662,7.662,0,0,1-5.312,5.756c-1.411.4-3.1.483-3.962,1.673-.876,1.215-.414,3.019-1.232,4.274-1.135,1.739-4.137,1.6-5,3.485-.376.825-.208,1.824-.6,2.642-.522,1.09-3.336,2.43-4.481,2.041s-1.108-2.349-1.465-3.385a5.437,5.437,0,0,1-.094-3.651c.549-2.313-.042-4.805.723-7.056" transform="translate(-63.525 -36.337)" fill="#263238"/>
        <path id="Path_2429" data-name="Path 2429" d="M197.206,147.483c.022-.612-.629-2.082-1.23-2.2-1.6-.314-4.519-.3-4.705,3.8-.254,5.6,5.422,4.7,5.44,4.542.013-.125.418-4.028.495-6.142" transform="translate(-63.164 -47.94)" fill="#ffbe9d"/>
        <path id="Path_2430" data-name="Path 2430" d="M195.8,152.3c-.024-.019-.1.064-.269.132a.98.98,0,0,1-.731-.018,2.418,2.418,0,0,1-1.018-2.218,3.212,3.212,0,0,1,.337-1.384,1.127,1.127,0,0,1,.768-.716.5.5,0,0,1,.564.293c.068.161.027.271.057.281s.124-.088.09-.321a.627.627,0,0,0-.2-.361.736.736,0,0,0-.533-.167,1.375,1.375,0,0,0-1.059.822,3.312,3.312,0,0,0-.409,1.546,2.536,2.536,0,0,0,1.314,2.483,1.045,1.045,0,0,0,.9-.108c.18-.13.215-.254.2-.265" transform="translate(-63.866 -48.818)" fill="#eb996e"/>
        <path id="Path_2431" data-name="Path 2431" d="M186.428,122.174h0c.018-1.753-2.171-2.9-3.878-3.3a7.286,7.286,0,0,0-5.049.964,3.586,3.586,0,0,0-2.006,2.2c-.2,1.005.766,2.2,1.726,1.844a3.321,3.321,0,1,0,3.217,5.681,7.42,7.42,0,0,1-2.913,3.976,8.333,8.333,0,0,0,8.9-11.368" transform="translate(-57.802 -39.214)" fill="#263238"/>
        <path id="Path_2432" data-name="Path 2432" d="M186.141,131.969a5.025,5.025,0,0,1-.21-1.681,12.34,12.34,0,0,1,2.579-7.653,5.018,5.018,0,0,1,1.184-1.212,15.358,15.358,0,0,0-3.553,10.546" transform="translate(-61.403 -40.099)" fill="#ff725e"/>
        <path id="Path_2433" data-name="Path 2433" d="M223.4,114.835c.516,2.281,3.982,5.205,5.5,6.981,2.9,3.388,3.475,4.513,3.447,12.087,1.371-2.615,2.42-5.179,2.315-8.13a12.225,12.225,0,0,0-3.244-8.032,9.521,9.521,0,0,0-8.022-2.906" transform="translate(-73.777 -37.896)" fill="#263238"/>
        <path id="Path_2434" data-name="Path 2434" d="M227.564,197.913s-6.038-10.068-7.714-12.1a13.44,13.44,0,0,0-4.946-3.627,10.194,10.194,0,0,0-2.35-.695l-8.683-1.923a6.339,6.339,0,0,1-6.225,6.294c-6.21.366-11.439-8.284-11.439-8.284s-10.032,1.552-12.433,2.786-6.173,2.8-8.249,13.2l-1.457,10.168,17.3,1.6,1.656,25.7,8.578,5.974s23.784,6.183,25.3,6.592,2.023-38.27,2.023-38.27,6.109-3.95,8.637-7.413" transform="translate(-54.183 -58.644)" fill="#ff725e"/>
        <path id="Path_2435" data-name="Path 2435" d="M241.871,201.488a3.707,3.707,0,0,1,.334.741c.2.484.45,1.2.73,2.091a40.892,40.892,0,0,1,1.769,14.448c-.057.934-.129,1.688-.2,2.2a3.73,3.73,0,0,1-.145.8,3.642,3.642,0,0,1,.011-.812c.034-.52.069-1.273.094-2.2a48.109,48.109,0,0,0-1.759-14.368c-.248-.9-.464-1.619-.622-2.115a3.629,3.629,0,0,1-.207-.786" transform="translate(-79.876 -66.541)" fill="#263238"/>
        <path id="Path_2436" data-name="Path 2436" d="M216.828,248.72l-32.569-7.089-1.5-23.28-14.484-1.339s.536,15.915,1.093,20.646c.8,6.8,4.824,16.09,7.176,17.945s41.751,1.019,41.751,1.019Z" transform="translate(-55.571 -71.668)" fill="#ffbe9d"/>
        <path id="Path_2437" data-name="Path 2437" d="M259.1,264.9a1.257,1.257,0,0,1-1.212.707,1.431,1.431,0,0,1-.315-.064c-.721-.231-.653-1.7-.653-1.7l-3.452-.563s-4.489,2.894-6.085,4.813-5.671.364-5.671.364L240.3,261.1l6.353-5.745s-.39.342.048-.733,2.435-.668,2.435-.668c.311-.531,1.615-.722,1.615-.722l5.573.642a3.822,3.822,0,0,1,2.792,1.755l2.356,3.731s1.245,2.686,1.045,3.31a1.115,1.115,0,0,1-1.3.733s-.274,1.765-.737,1.827a3.813,3.813,0,0,1-1.38-.331" transform="translate(-79.36 -83.631)" fill="#ffbe9d"/>
        <path id="Path_2438" data-name="Path 2438" d="M250.667,262.663c.006.058.747-.01,1.938.042a16.906,16.906,0,0,1,4.548.851,16.127,16.127,0,0,1,2.345,1c.673.379,1.376.691,1.591,1.181a.675.675,0,0,1-.061.664.942.942,0,0,1-.421.356,1.489,1.489,0,0,1-.488.072c-.014.008.173.153.534.059a1.042,1.042,0,0,0,.538-.372.89.89,0,0,0,.131-.872,1.778,1.778,0,0,0-.693-.783c-.3-.2-.622-.4-.976-.593a14.586,14.586,0,0,0-7.043-1.817,6.415,6.415,0,0,0-1.942.21" transform="translate(-82.782 -86.675)" fill="#eb996e"/>
        <path id="Path_2439" data-name="Path 2439" d="M250.084,267.956c.007.106,2.274.011,5.06.174s5.03.5,5.049.4a5.563,5.563,0,0,0-1.451-.352,32.506,32.506,0,0,0-7.176-.407,5.594,5.594,0,0,0-1.482.186" transform="translate(-82.59 -88.415)" fill="#eb996e"/>
        <path id="Path_2440" data-name="Path 2440" d="M263.39,266.285a2.529,2.529,0,0,0,.07-.594,12.982,12.982,0,0,0,0-1.632,6.959,6.959,0,0,0-.155-1.13,3.443,3.443,0,0,0-.548-1.214,7.614,7.614,0,0,0-2.088-2.139,10.489,10.489,0,0,0-2.665-1.348,9.642,9.642,0,0,0-2.407-.366c-.689-.024-1.244-.009-1.628.005a1.941,1.941,0,0,0-.6.06,17.93,17.93,0,0,0,2.207.186,10.392,10.392,0,0,1,2.325.428,10.919,10.919,0,0,1,2.561,1.327,7.631,7.631,0,0,1,2.02,2.031,4.227,4.227,0,0,1,.723,2.181c.134,1.349.1,2.205.177,2.2" transform="translate(-83.677 -85.155)" fill="#eb996e"/>
        <path id="Path_2441" data-name="Path 2441" d="M256.309,255.317c0,.053.834.075,2.165.228,1.283.2,3.334.291,4.5,2.057a18.949,18.949,0,0,1,2.812,4.371,11.282,11.282,0,0,1,.528,2.086,1.548,1.548,0,0,0,.033-.591,5.6,5.6,0,0,0-.325-1.583,16.557,16.557,0,0,0-2.771-4.506,6.075,6.075,0,0,0-1.083-1.1,3.932,3.932,0,0,0-1.311-.616,11.95,11.95,0,0,0-2.362-.376,8.463,8.463,0,0,0-2.189.022" transform="translate(-84.646 -84.296)" fill="#eb996e"/>
        <path id="Path_2442" data-name="Path 2442" d="M248.76,266.83a2,2,0,0,0,.331-.253l.933-.749a38.828,38.828,0,0,1,3.663-2.523l-.079.015,3.448.587-.119-.145a3.827,3.827,0,0,0,.064.843,1.571,1.571,0,0,0,.392.83.856.856,0,0,0,.457.21,1.214,1.214,0,0,0,.486.028,1.414,1.414,0,0,0,.859-.475,1.55,1.55,0,0,0,.15-.2l.031-.055.015-.028.007-.014h0c.045-.017-.385.14-.2.074l0,0,.007,0,.109.044c.145.058.293.111.445.158a3.838,3.838,0,0,0,.473.118,1.723,1.723,0,0,0,.257.028.588.588,0,0,0,.319-.062,1.026,1.026,0,0,0,.338-.456,3.8,3.8,0,0,0,.171-.474,8.13,8.13,0,0,0,.222-.977l-.2.139a1.312,1.312,0,0,0,1.286-.439,1.061,1.061,0,0,0,.237-.695,3.1,3.1,0,0,0-.123-.668,18.44,18.44,0,0,0-.951-2.481l0-.009-.007-.011-1.256-1.99-.8-1.261a6.762,6.762,0,0,0-.874-1.221,3.706,3.706,0,0,0-1.25-.831,4.827,4.827,0,0,0-1.421-.3L250.927,253l-.023,0-.019,0a4.9,4.9,0,0,0-.921.242,1.562,1.562,0,0,0-.8.56l.193-.06a1.924,1.924,0,0,0-1.79.1,2.251,2.251,0,0,0-.885,1.411l.042-.073-4.379,3.937-1.179,1.087a3.069,3.069,0,0,0-.394.4,3.2,3.2,0,0,0,.445-.342l1.226-1.034,4.456-3.85.03-.025.012-.048a1.992,1.992,0,0,1,.78-1.225,1.641,1.641,0,0,1,1.509-.065l.123.051.071-.112a1.325,1.325,0,0,1,.65-.423,4.628,4.628,0,0,1,.858-.218h-.04l5.25.62a4.5,4.5,0,0,1,1.33.277,3.366,3.366,0,0,1,1.13.754,6.545,6.545,0,0,1,.826,1.163l.8,1.261,1.258,1.99-.011-.02a18.561,18.561,0,0,1,.937,2.424,2.832,2.832,0,0,1,.112.589.721.721,0,0,1-.164.473.972.972,0,0,1-.944.317l-.174-.028-.027.167a8.038,8.038,0,0,1-.207.934,1.681,1.681,0,0,1-.361.745.32.32,0,0,1-.14.015,1.362,1.362,0,0,1-.211-.021,3.475,3.475,0,0,1-.433-.106c-.143-.043-.285-.092-.424-.146l-.1-.041-.005,0h0l-.2.074h0l-.006.011-.012.022-.024.044a1.216,1.216,0,0,1-.117.162,1.109,1.109,0,0,1-.666.377.92.92,0,0,1-.379-.022.564.564,0,0,1-.315-.132,2.161,2.161,0,0,1-.377-1.441v-.127l-.118-.019-3.456-.54-.044-.007-.035.022a33.234,33.234,0,0,0-3.622,2.625c-.4.338-.7.609-.9.8a2.048,2.048,0,0,0-.287.3" transform="translate(-79.514 -83.552)" fill="#eb996e"/>
        <path id="Path_2443" data-name="Path 2443" d="M285.2,238.7l-42.9.348a2.692,2.692,0,0,0-2.93,2.045l-4.688,31.267h-22.1a1.288,1.288,0,0,0,0,2.577h70.575l4.823-33A2.815,2.815,0,0,0,285.2,238.7" transform="translate(-69.78 -78.831)" fill="#e0e0e0"/>
        <path id="Path_2444" data-name="Path 2444" d="M285.111,238.693a2.276,2.276,0,0,1,.676.064,2.836,2.836,0,0,1,2.169,2.456,7.9,7.9,0,0,1-.158,1.764l-.619,4.355c-.944,6.556-2.3,16-3.978,27.617l-.016.113h-.115L214.6,275.1H212.76a1.784,1.784,0,0,1-.975-.185,1.462,1.462,0,0,1,.007-2.556,1.78,1.78,0,0,1,.966-.182h8.079l13.757,0-.165.142c1.688-11.2,3.262-21.644,4.674-31.015a2.428,2.428,0,0,1,.794-1.634,3.191,3.191,0,0,1,1.64-.724,14.176,14.176,0,0,1,1.73-.061l1.684-.011,6.459-.044,11.478-.072,16.34-.084,4.372-.007,1.129.005c.254,0,.383.011.383.011s-.129.011-.383.018l-1.129.023-4.371.063-16.34.182-11.478.113-6.458.062-1.684.016a14.03,14.03,0,0,0-1.687.062,2.918,2.918,0,0,0-1.5.66,2.137,2.137,0,0,0-.7,1.465c-1.4,9.373-2.957,19.821-4.627,31.022l-.021.142h-.144l-13.757,0h-8.079a1.444,1.444,0,0,0-.8.139,1.116,1.116,0,0,0,0,1.95,1.434,1.434,0,0,0,.806.141H214.6l68.469.041-.131.113c1.721-11.607,3.122-21.05,4.093-27.6.246-1.634.464-3.087.654-4.349a7.983,7.983,0,0,0,.175-1.738,2.75,2.75,0,0,0-.5-1.333,2.8,2.8,0,0,0-1.586-1.094,5.44,5.44,0,0,0-.666-.1" transform="translate(-69.694 -78.822)" fill="#263238"/>
        <path id="Path_2445" data-name="Path 2445" d="M282.884,263.836a2.686,2.686,0,1,0,2.686-2.686,2.686,2.686,0,0,0-2.686,2.686" transform="translate(-93.422 -86.244)" fill="#fff"/>
        <path id="Path_2446" data-name="Path 2446" d="M248.8,274.821c.061.01,1.427-7.952,3.049-17.781s2.891-17.809,2.83-17.819-1.426,7.95-3.05,17.783-2.89,17.807-2.83,17.817" transform="translate(-82.167 -79.003)" fill="#263238"/>
      </g>
    </g>
  </g>
</svg>
