<svg xmlns="http://www.w3.org/2000/svg" width="24" height="24" viewBox="0 0 24 24">
  <g id="close" transform="translate(0 -1.844)">
    <g id="close_1_" transform="translate(0.001 1.844)">
      <path id="Path_210394" data-name="Path 210394" d="M2.276,26.411A2.257,2.257,0,0,1,.662,25.86a2.319,2.319,0,0,1,0-3.243l19.3-19.525a2.255,2.255,0,0,1,3.213.108,2.32,2.32,0,0,1,.106,3.02L3.867,25.86a2.257,2.257,0,0,1-1.591.552Z" transform="translate(-0.001 -2.424)"/>
      <path id="Path_210395" data-name="Path 210395" d="M22.966,25.832a2.26,2.26,0,0,1-1.591-.667L2.075,5.64A2.318,2.318,0,0,1,2.323,2.4a2.253,2.253,0,0,1,2.957,0L24.694,21.922a2.319,2.319,0,0,1,.106,3.251q-.051.055-.106.107a2.256,2.256,0,0,1-1.728.552Z" transform="translate(-1.414 -1.844)"/>
    </g>
  </g>
</svg>
