<svg xmlns="http://www.w3.org/2000/svg" width="70.222" height="128.874" viewBox="0 0 70.222 128.874">
  <g id="Group_114308" data-name="Group 114308" transform="translate(0 -15.908)">
    <path id="Path_19" data-name="Path 19" d="M112.969,33.145,98.836,41.763,84.7,50.381V15.908l14.133,8.618Z" transform="translate(-46.078)" fill="#492080" fill-rule="evenodd"/>
    <path id="Path_20" data-name="Path 20" d="M7.573,33.145l14.133,8.618,14.133,8.619V15.908L21.706,24.526Z" transform="translate(-4.12)" fill="#e42367" fill-rule="evenodd"/>
    <path id="Path_21" data-name="Path 21" d="M0,84.8v17.237l14.133-8.618L28.265,84.8,14.133,76.18,0,67.562Z" transform="translate(0 -28.099)" fill="#492080"/>
    <path id="Path_22" data-name="Path 22" d="M7.306,136.614l14.133,8.618,14.133,8.619V119.378L21.439,128Z" transform="translate(-3.974 -56.287)" fill="#492080" fill-rule="evenodd"/>
    <path id="Path_23" data-name="Path 23" d="M112.7,136.614l-14.133,8.618-14.133,8.619V119.378L98.569,128Z" transform="translate(-45.933 -56.287)" fill="#492080" fill-rule="evenodd"/>
    <path id="Path_24" data-name="Path 24" d="M92.01,188.267l14.133-8.619,14.133-8.618V205.5l-14.133-8.618Z" transform="translate(-50.053 -84.386)" fill="#492080" fill-rule="evenodd"/>
    <path id="Path_25" data-name="Path 25" d="M84.436,222.684v34.473l14.133-8.618L112.7,239.92,98.569,231.3Z" transform="translate(-45.933 -112.484)" fill="#e42367" fill-rule="evenodd"/>
    <path id="Path_26" data-name="Path 26" d="M35.571,222.924V257.4l-14.133-8.618L7.306,240.161l14.133-8.619Z" transform="translate(-3.974 -112.615)" fill="#492080" fill-rule="evenodd"/>
  </g>
</svg>
