<svg xmlns="http://www.w3.org/2000/svg" xmlns:xlink="http://www.w3.org/1999/xlink" width="238.44" height="121.547" viewBox="0 0 238.44 121.547">
  <defs>
    <clipPath id="clip-path">
      <path id="Path_27" data-name="Path 27" d="M201.049,40.618c0,20.372,30.941,12.615,30.941,24.448,0,4.074-3.421,7.13-11.528,7.13a27.907,27.907,0,0,1-17.182-6.034l-3.347,7.914c4.314,3.918,12.422,6.582,20.529,6.582,14.28,0,21.049-7.523,21.049-16.3,0-20.138-30.867-12.537-30.867-24.213,0-4.153,3.272-7.444,11.3-7.444a27.838,27.838,0,0,1,14.355,4.31l3.05-7.914c-4.537-3.134-11.083-4.858-17.33-4.858-14.28,0-20.975,7.522-20.975,16.376" transform="translate(-199.933 -24.242)" fill="none"/>
    </clipPath>
    <linearGradient id="linear-gradient" x1="-2.176" y1="3.614" x2="-2.166" y2="3.614" gradientUnits="objectBoundingBox">
      <stop offset="0" stop-color="#e42267"/>
      <stop offset="1" stop-color="#594b9a"/>
    </linearGradient>
    <clipPath id="clip-path-2">
      <path id="Path_28" data-name="Path 28" d="M361.117,25.972,340.812,62.33,320.134,25.972h-7.958v54.85H321.4V44.934l17.107,29.619h4.314l17.107-30.089L360,80.822h9.148l-.074-54.85Z" transform="translate(-312.176 -25.972)" fill="none"/>
    </clipPath>
    <linearGradient id="linear-gradient-2" x1="-2.48" y1="3.703" x2="-2.472" y2="3.703" xlink:href="#linear-gradient"/>
    <clipPath id="clip-path-3">
      <path id="Path_29" data-name="Path 29" d="M463.979,78.984h8.664V39.992h-8.664ZM462.8,28.09a5.406,5.406,0,0,0,5.545,5.476,5.461,5.461,0,0,0,5.544-5.7,5.274,5.274,0,0,0-5.544-5.257A5.406,5.406,0,0,0,462.8,28.09" transform="translate(-462.801 -22.614)" fill="none"/>
    </clipPath>
    <linearGradient id="linear-gradient-3" x1="-18.889" y1="3.63" x2="-18.848" y2="3.63" xlink:href="#linear-gradient"/>
    <clipPath id="clip-path-4">
      <rect id="Rectangle_2263" data-name="Rectangle 2263" width="8.663" height="54.179" fill="none"/>
    </clipPath>
    <linearGradient id="linear-gradient-4" x1="-26.587" y1="3.736" x2="-26.534" y2="3.736" xlink:href="#linear-gradient"/>
    <clipPath id="clip-path-5">
      <path id="Path_30" data-name="Path 30" d="M554.924,28.718V82.325h38.16V73.977H564.372V59.2h24.569V51H564.372V37.065h27.694V28.718Z" transform="translate(-554.924 -28.718)" fill="none"/>
    </clipPath>
    <linearGradient id="linear-gradient-5" x1="-6.582" y1="3.765" x2="-6.57" y2="3.765" xlink:href="#linear-gradient"/>
    <clipPath id="clip-path-6">
      <path id="Path_31" data-name="Path 31" d="M218.129,185.511l12.307,28.467H205.889Zm-1.672-3.946L194.92,230.889H198.6l5.953-13.882h27.155l6.02,13.882h3.679l-21.537-49.324Z" transform="translate(-194.92 -181.565)" fill="none"/>
    </clipPath>
    <linearGradient id="linear-gradient-6" x1="-1.898" y1="2.687" x2="-1.888" y2="2.687" xlink:href="#linear-gradient"/>
    <clipPath id="clip-path-7">
      <path id="Path_32" data-name="Path 32" d="M316.5,216.9v-7.962h-3.211v36.782h3.344V226.129c0-8.738,5.017-14.3,13.243-14.3,7.09,0,11.3,4.368,11.3,12.683v21.21h3.344V224.226c0-10.288-5.685-15.572-14.18-15.572-6.621,0-11.5,3.1-13.845,8.244" transform="translate(-313.289 -208.654)" fill="none"/>
    </clipPath>
    <linearGradient id="linear-gradient-7" x1="-4.54" y1="3.245" x2="-4.525" y2="3.245" xlink:href="#linear-gradient"/>
    <clipPath id="clip-path-8">
      <path id="Path_33" data-name="Path 33" d="M407.138,208.918c0-9.23,6.02-15.5,14.046-15.5s14.046,6.271,14.046,15.5-6.02,15.5-14.046,15.5-14.046-6.272-14.046-15.5m28.092-33.892v24.028a15.549,15.549,0,0,0-14.247-8.808c-9.832,0-17.256,7.61-17.256,18.672,0,10.993,7.424,18.673,17.256,18.673a15.4,15.4,0,0,0,14.313-8.949v8.667h3.278V175.026Z" transform="translate(-403.727 -175.026)" fill="none"/>
    </clipPath>
    <linearGradient id="linear-gradient-8" x1="-5.244" y1="2.578" x2="-5.231" y2="2.578" xlink:href="#linear-gradient"/>
    <clipPath id="clip-path-9">
      <path id="Path_34" data-name="Path 34" d="M511.159,175.026V227.31H514.5V207.721c0-8.738,5.016-14.3,13.243-14.3,7.09,0,11.3,4.368,11.3,12.683v21.21h3.344V205.818c0-10.288-5.685-15.572-14.179-15.572-6.488,0-11.3,2.96-13.711,7.963V175.026Z" transform="translate(-511.159 -175.026)" fill="none"/>
    </clipPath>
    <linearGradient id="linear-gradient-9" x1="-7.407" y1="2.592" x2="-7.392" y2="2.592" xlink:href="#linear-gradient"/>
    <clipPath id="clip-path-10">
      <path id="Path_35" data-name="Path 35" d="M613.084,216.969v-8.033h-3.211v36.782h3.344V226.552c0-9.09,4.615-14.516,12.375-14.516.267,0,.535.071.8.071v-3.453c-6.554,0-11.17,2.96-13.31,8.315" transform="translate(-609.873 -208.654)" fill="none"/>
    </clipPath>
    <linearGradient id="linear-gradient-10" x1="-16.708" y1="3.245" x2="-16.681" y2="3.245" xlink:href="#linear-gradient"/>
    <clipPath id="clip-path-11">
      <path id="Path_36" data-name="Path 36" d="M662.429,235.359c0-4.227,2.541-7.4,9.765-7.4H684.1v6.905a11.977,11.977,0,0,1-11.973,8.244c-6.154,0-9.7-2.96-9.7-7.751m-2.408-21.491,1.672,2.537a17.6,17.6,0,0,1,12.039-4.651c6.823,0,10.368,3.664,10.368,10.5v2.959H672.127c-9.7,0-13.043,4.721-13.043,10.288,0,6.271,4.75,10.5,12.575,10.5,6.087,0,10.368-2.607,12.575-6.835v6.553h3.21V222.394c0-9.09-4.816-13.74-13.444-13.74a20.65,20.65,0,0,0-13.979,5.214" transform="translate(-659.084 -208.654)" fill="none"/>
    </clipPath>
    <linearGradient id="linear-gradient-11" x1="-10.518" y1="3.221" x2="-10.502" y2="3.221" xlink:href="#linear-gradient"/>
  </defs>
  <g id="Group_114307" data-name="Group 114307" transform="translate(-194.92 -22.614)">
    <g id="Group_114286" data-name="Group 114286" transform="translate(197.189 23.351)">
      <g id="Group_114285" data-name="Group 114285" transform="translate(0 0)" clip-path="url(#clip-path)">
        <rect id="Rectangle_2259" data-name="Rectangle 2259" width="41.578" height="56.417" transform="translate(0 0)" fill="url(#linear-gradient)"/>
      </g>
    </g>
    <g id="Group_114288" data-name="Group 114288" transform="translate(247.99 24.134)">
      <g id="Group_114287" data-name="Group 114287" transform="translate(0)" clip-path="url(#clip-path-2)">
        <rect id="Rectangle_2260" data-name="Rectangle 2260" width="56.974" height="54.85" transform="translate(0)" fill="url(#linear-gradient-2)"/>
      </g>
    </g>
    <g id="Group_114290" data-name="Group 114290" transform="translate(316.162 22.614)">
      <g id="Group_114289" data-name="Group 114289" clip-path="url(#clip-path-3)">
        <rect id="Rectangle_2261" data-name="Rectangle 2261" width="11.089" height="56.37" transform="translate(0 0)" fill="url(#linear-gradient-3)"/>
      </g>
    </g>
    <g id="Group_114292" data-name="Group 114292" transform="translate(337.024 24.805)">
      <g id="Group_114291" data-name="Group 114291" transform="translate(0)" clip-path="url(#clip-path-4)">
        <rect id="Rectangle_2262" data-name="Rectangle 2262" width="8.663" height="54.179" transform="translate(0)" fill="url(#linear-gradient-4)"/>
      </g>
    </g>
    <g id="Group_114294" data-name="Group 114294" transform="translate(357.857 25.377)">
      <g id="Group_114293" data-name="Group 114293" transform="translate(0 0)" clip-path="url(#clip-path-5)">
        <rect id="Rectangle_2264" data-name="Rectangle 2264" width="38.16" height="53.607" transform="translate(0)" fill="url(#linear-gradient-5)"/>
      </g>
    </g>
    <g id="Group_114296" data-name="Group 114296" transform="translate(194.92 94.555)">
      <g id="Group_114295" data-name="Group 114295" clip-path="url(#clip-path-6)">
        <rect id="Rectangle_2265" data-name="Rectangle 2265" width="46.485" height="49.324" fill="url(#linear-gradient-6)"/>
      </g>
    </g>
    <g id="Group_114298" data-name="Group 114298" transform="translate(248.494 106.815)">
      <g id="Group_114297" data-name="Group 114297" transform="translate(0)" clip-path="url(#clip-path-7)">
        <rect id="Rectangle_2266" data-name="Rectangle 2266" width="31.235" height="37.064" transform="translate(0 0)" fill="url(#linear-gradient-7)"/>
      </g>
    </g>
    <g id="Group_114300" data-name="Group 114300" transform="translate(289.426 91.595)">
      <g id="Group_114299" data-name="Group 114299" transform="translate(0)" clip-path="url(#clip-path-8)">
        <rect id="Rectangle_2267" data-name="Rectangle 2267" width="34.847" height="52.565" fill="url(#linear-gradient-8)"/>
      </g>
    </g>
    <g id="Group_114302" data-name="Group 114302" transform="translate(338.049 91.595)">
      <g id="Group_114301" data-name="Group 114301" transform="translate(0)" clip-path="url(#clip-path-9)">
        <rect id="Rectangle_2268" data-name="Rectangle 2268" width="31.235" height="52.284" fill="url(#linear-gradient-9)"/>
      </g>
    </g>
    <g id="Group_114304" data-name="Group 114304" transform="translate(382.727 106.815)">
      <g id="Group_114303" data-name="Group 114303" clip-path="url(#clip-path-10)">
        <rect id="Rectangle_2269" data-name="Rectangle 2269" width="16.521" height="37.064" transform="translate(0 0)" fill="url(#linear-gradient-10)"/>
      </g>
    </g>
    <g id="Group_114306" data-name="Group 114306" transform="translate(405 106.815)">
      <g id="Group_114305" data-name="Group 114305" clip-path="url(#clip-path-11)">
        <rect id="Rectangle_2270" data-name="Rectangle 2270" width="28.36" height="37.345" transform="translate(0 0)" fill="url(#linear-gradient-11)"/>
      </g>
    </g>
  </g>
</svg>
