<svg xmlns="http://www.w3.org/2000/svg" xmlns:xlink="http://www.w3.org/1999/xlink" width="118.497" height="118.497" viewBox="0 0 118.497 118.497">
  <defs>
    <linearGradient id="linear-gradient" x1="0.5" x2="0.5" y2="1" gradientUnits="objectBoundingBox">
      <stop offset="0" stop-color="#e42367"/>
      <stop offset="1" stop-color="#492080"/>
    </linearGradient>
  </defs>
  <path id="b2b" d="M110.91,108.591,127,98.067v24.244A4.7,4.7,0,0,1,122.311,127h-54.9a4.7,4.7,0,0,1-4.686-4.686V98.067l16.087,10.524h6.292v.991a4.033,4.033,0,0,0,4.022,4.022h.077a5.673,5.673,0,0,0,11.313,0h.077a4.033,4.033,0,0,0,4.022-4.022v-.991Zm-16.048,7.131a2.571,2.571,0,0,0,2.523-2.118H92.339a2.571,2.571,0,0,0,2.523,2.118Zm27.448-33.313h-54.9a4.7,4.7,0,0,0-4.686,4.686v7.253L79.742,105.48h5.424a4.037,4.037,0,0,1,3.963-3.337h.06V101.3a3.593,3.593,0,0,1,3.591-3.591h4.165a3.593,3.593,0,0,1,3.591,3.591v.844h.06a4.037,4.037,0,0,1,3.963,3.337h5.423L127,94.348V87.095a4.7,4.7,0,0,0-4.686-4.686ZM96.945,100.818H92.78a.48.48,0,0,0-.479.479v.844h5.123V101.3a.48.48,0,0,0-.479-.478Zm-8.727,5.345v3.418a.912.912,0,0,0,.91.91h11.467a.912.912,0,0,0,.91-.91v-3.417a.912.912,0,0,0-.91-.91H89.128a.912.912,0,0,0-.91.91Zm-40.94-60.7V42.045a.913.913,0,0,0-.91-.91H34.9a.913.913,0,0,0-.91.91v3.418a.912.912,0,0,0,.91.91H46.37a.912.912,0,0,0,.908-.91Zm-16.34-4.1A4.037,4.037,0,0,1,34.9,38.023h.06v-.845a3.593,3.593,0,0,1,3.591-3.591h4.165a3.593,3.593,0,0,1,3.591,3.591v.844h.06a4.037,4.037,0,0,1,3.963,3.337h5.424L72.77,30.228V22.975a4.7,4.7,0,0,0-4.686-4.684h-54.9A4.7,4.7,0,0,0,8.5,22.976V30.23L25.515,41.361Zm9.7,10.243a2.571,2.571,0,0,0,2.523-2.118H38.112A2.572,2.572,0,0,0,40.635,51.6ZM72.77,58.192V33.948L56.683,44.472H50.391v.991a4.033,4.033,0,0,1-4.022,4.022h-.077a5.673,5.673,0,0,1-11.313,0H34.9a4.033,4.033,0,0,1-4.022-4.022v-.991H24.587L8.5,33.948V58.192a4.7,4.7,0,0,0,4.686,4.686h54.9a4.7,4.7,0,0,0,4.686-4.686ZM42.718,36.7H38.553a.48.48,0,0,0-.479.479v.844H43.2v-.844a.48.48,0,0,0-.479-.479Zm64.076,16.918-3.5.938a1.2,1.2,0,0,0-.418,2.118l11.645,8.872a1.2,1.2,0,0,0,1.838-.492l5.65-13.507a1.2,1.2,0,0,0-1.421-1.625l-4.205,1.127c-7.32-12.679-16.3-20.563-33.484-21.073,13.978,6.686,21.239,16.574,23.893,23.643ZM28.7,81.878l3.5-.937a1.2,1.2,0,0,0,.418-2.118L20.972,69.951a1.2,1.2,0,0,0-1.838.492l-5.65,13.507a1.2,1.2,0,0,0,1.421,1.625l4.205-1.127c7.32,12.679,16.3,20.562,33.484,21.073C38.617,98.836,31.357,88.948,28.7,81.878Zm56.223-3.4a1.32,1.32,0,0,1,1.31-1.31h17.251a1.32,1.32,0,0,1,1.311,1.31v.82h4.548v-.82a5.87,5.87,0,0,0-5.858-5.858H86.236a5.869,5.869,0,0,0-5.858,5.858v.82h4.547ZM30.7,14.358a1.32,1.32,0,0,1,1.31-1.31H49.26a1.32,1.32,0,0,1,1.311,1.31v.821h4.548v-.821A5.87,5.87,0,0,0,49.26,8.5H32.01a5.869,5.869,0,0,0-5.858,5.858v.821H30.7Z" transform="translate(-8.5 -8.5)" fill="url(#linear-gradient)"/>
</svg>
