<svg xmlns="http://www.w3.org/2000/svg" xmlns:xlink="http://www.w3.org/1999/xlink" width="128.204" height="129.66" viewBox="0 0 128.204 129.66">
  <defs>
    <linearGradient id="linear-gradient" x1="0.5" x2="0.5" y2="1" gradientUnits="objectBoundingBox">
      <stop offset="0" stop-color="#e42367"/>
      <stop offset="1" stop-color="#492080"/>
    </linearGradient>
  </defs>
  <g id="Layer_x0020_1" transform="translate(0.01)">
    <g id="_500805040" transform="translate(-0.011)">
      <circle id="_500806960" cx="4.585" cy="4.585" r="4.585" transform="translate(101.524 102.982)" fill="url(#linear-gradient)"/>
      <path id="_500807128" d="M99.605,20.065,99.56,53.282l-.133,0A24.408,24.408,0,0,0,75.019,77.689c0,.051,0,.1,0,.151l-71.449-.2L3.341,20.083q.247-.085.49-.185a9.2,9.2,0,0,0,1.981-1.117A9.614,9.614,0,0,0,7.481,17.2,11.3,11.3,0,0,0,8.91,15.006,11.309,11.309,0,0,0,10.339,17.2a9.722,9.722,0,0,0,1.245,1.246,9.085,9.085,0,0,0,11.689,0A9.689,9.689,0,0,0,24.517,17.2a11.319,11.319,0,0,0,1.429-2.2,11.307,11.307,0,0,0,1.43,2.2,9.706,9.706,0,0,0,1.243,1.245,9.086,9.086,0,0,0,11.689,0A9.72,9.72,0,0,0,41.553,17.2a11.3,11.3,0,0,0,1.429-2.194A11.31,11.31,0,0,0,44.411,17.2a9.7,9.7,0,0,0,1.244,1.246,9.086,9.086,0,0,0,11.689,0A9.706,9.706,0,0,0,58.589,17.2a11.289,11.289,0,0,0,1.429-2.195,11.3,11.3,0,0,0,1.43,2.195,9.706,9.706,0,0,0,1.243,1.245,9.086,9.086,0,0,0,11.689,0A9.7,9.7,0,0,0,75.625,17.2a11.3,11.3,0,0,0,1.429-2.194A11.308,11.308,0,0,0,78.483,17.2a9.723,9.723,0,0,0,1.245,1.246,9.085,9.085,0,0,0,11.689,0A9.687,9.687,0,0,0,92.66,17.2a11.306,11.306,0,0,0,1.43-2.2,11.306,11.306,0,0,0,1.43,2.2,9.687,9.687,0,0,0,1.243,1.245,9.2,9.2,0,0,0,2.842,1.617ZM55.8,34.651H83.627V53.875H55.8ZM35.992,75.374V32.336H12.533V75.374Z" transform="translate(6.683 29.879)" fill-rule="evenodd" fill="url(#linear-gradient)"/>
      <path id="_500807512" d="M31.715,4.314l6.78,27.04H52.873l-11.7-27.04Z" transform="translate(63.179 8.589)" fill="url(#linear-gradient)"/>
      <path id="_500807368" d="M26.958,4.314l4.068,27.04H45.584L38.8,4.314Z" transform="translate(53.707 8.589)" fill="url(#linear-gradient)"/>
      <path id="_500807416" d="M26.507,3.54h.016" transform="translate(52.808 7.048)" fill="none" fill-rule="evenodd"/>
      <path id="_500806768" d="M22.2,4.314l1.356,27.04H38.153L34.085,4.314Z" transform="translate(44.239 8.589)" fill="url(#linear-gradient)"/>
      <path id="_500806672" d="M18.356,4.314,17,31.353H31.608L30.252,4.314Z" transform="translate(33.879 8.589)" fill="url(#linear-gradient)"/>
      <path id="_500806144" d="M15.416,4.314l-4.068,27.04H25.942L27.3,4.314Z" transform="translate(22.625 8.589)" fill="url(#linear-gradient)"/>
      <path id="_500806024" d="M12.372,3.54h.016" transform="translate(24.664 7.048)" fill="none" fill-rule="evenodd"/>
      <g id="Group_114432" data-name="Group 114432" transform="translate(0 12.902)">
        <path id="_500806648" d="M12.478,4.314,5.7,31.353H20.256l4.068-27.04Z" transform="translate(11.377 -4.314)" fill="url(#linear-gradient)"/>
        <path id="_500805808" d="M21.253,4.314H11.8L.095,31.353H14.472Z" transform="translate(0.22 -4.314)" fill="url(#linear-gradient)"/>
        <path id="_500805928" d="M14.14,14.128a10.1,10.1,0,0,1-.443,1.206,9.048,9.048,0,0,1-1.316,2.142,7.3,7.3,0,0,1-1.27,1.2,6.885,6.885,0,0,1-1.484.837,6.755,6.755,0,0,1-4.246.293,6.982,6.982,0,0,1-3.631-2.33A9.056,9.056,0,0,1,.432,15.335a10.094,10.094,0,0,1-.443-1.207Z" transform="translate(0.011 15.227)" fill="url(#linear-gradient)"/>
        <path id="_500805688" d="M19.836,14.128a10.094,10.094,0,0,1-.443,1.207,9.046,9.046,0,0,1-1.317,2.143,7.323,7.323,0,0,1-.945.947,6.782,6.782,0,0,1-8.741,0,7.359,7.359,0,0,1-.946-.948,9.038,9.038,0,0,1-1.316-2.142,10.1,10.1,0,0,1-.443-1.206Z" transform="translate(11.351 15.227)" fill="url(#linear-gradient)"/>
        <path id="_500805520" d="M25.531,14.128a10.145,10.145,0,0,1-.443,1.206,9.058,9.058,0,0,1-1.316,2.142,7.378,7.378,0,0,1-.946.948,6.783,6.783,0,0,1-8.741,0,7.361,7.361,0,0,1-.945-.947,9.045,9.045,0,0,1-1.316-2.143,10.1,10.1,0,0,1-.443-1.207Z" transform="translate(22.691 15.227)" fill="url(#linear-gradient)"/>
        <path id="_500805712" d="M31.227,14.128a10.1,10.1,0,0,1-.443,1.207,9.054,9.054,0,0,1-1.316,2.143,7.361,7.361,0,0,1-.945.947,6.783,6.783,0,0,1-8.741,0,7.359,7.359,0,0,1-.946-.948,9.058,9.058,0,0,1-1.316-2.142,10.147,10.147,0,0,1-.443-1.206Z" transform="translate(34.032 15.227)" fill="url(#linear-gradient)"/>
        <path id="_500804728" d="M36.923,14.128a10.148,10.148,0,0,1-.443,1.206,9.048,9.048,0,0,1-1.316,2.142,7.359,7.359,0,0,1-.946.948,6.782,6.782,0,0,1-8.741,0,7.344,7.344,0,0,1-.945-.947,9.051,9.051,0,0,1-1.316-2.143,10.094,10.094,0,0,1-.443-1.207Z" transform="translate(45.372 15.227)" fill="url(#linear-gradient)"/>
        <path id="_500804632" d="M42.618,14.128a10.143,10.143,0,0,1-.443,1.207,9.055,9.055,0,0,1-1.317,2.143,7.323,7.323,0,0,1-.945.947,6.782,6.782,0,0,1-8.741,0,7.379,7.379,0,0,1-.946-.948,9.058,9.058,0,0,1-1.316-2.142,10.146,10.146,0,0,1-.443-1.206Z" transform="translate(56.713 15.227)" fill="url(#linear-gradient)"/>
        <path id="_500804584" d="M48.314,14.128a10.145,10.145,0,0,1-.443,1.206,9.058,9.058,0,0,1-1.316,2.142,7.381,7.381,0,0,1-.946.948,6.782,6.782,0,0,1-8.741,0,7.323,7.323,0,0,1-.945-.947,9.056,9.056,0,0,1-1.317-2.143,10.148,10.148,0,0,1-.443-1.207Z" transform="translate(68.053 15.227)" fill="url(#linear-gradient)"/>
      </g>
      <path id="_500804992" d="M78.547,10.587V5.294A5.309,5.309,0,0,0,73.253,0H12.872A5.309,5.309,0,0,0,7.578,5.294v5.294Z" transform="translate(15.12)" fill-rule="evenodd" fill="url(#linear-gradient)"/>
      <path id="_500805136" d="M10.94,27.6a1.736,1.736,0,1,0-3.473,0v9.3a1.736,1.736,0,0,0,3.473,0Z" transform="translate(14.9 51.487)" fill="url(#linear-gradient)"/>
      <path id="_500804704" d="M50.172,72.763A22.093,22.093,0,1,1,72.265,50.67,22.093,22.093,0,0,1,50.172,72.763Zm3.085-33.115A11.37,11.37,0,0,1,55.783,40.7l1.765-1.765a.984.984,0,0,1,1.386,0l2.977,2.977a.983.983,0,0,1,0,1.386l-1.765,1.765a11.383,11.383,0,0,1,1.047,2.526h2.495a.983.983,0,0,1,.98.98v4.21a.983.983,0,0,1-.98.98H61.194a11.382,11.382,0,0,1-1.047,2.526l1.765,1.765a.983.983,0,0,1,0,1.386l-2.977,2.977a.984.984,0,0,1-1.386,0l-1.765-1.765a11.371,11.371,0,0,1-2.526,1.047v2.495a.983.983,0,0,1-.98.98h-4.21a.983.983,0,0,1-.98-.98V61.691a11.374,11.374,0,0,1-2.526-1.047L42.8,62.409a.984.984,0,0,1-1.387,0l-2.976-2.977a.983.983,0,0,1,0-1.386L40.2,56.281a11.371,11.371,0,0,1-1.047-2.526H36.656a.983.983,0,0,1-.98-.98v-4.21a.983.983,0,0,1,.98-.98H39.15A11.378,11.378,0,0,1,40.2,45.058l-1.765-1.765a.983.983,0,0,1,0-1.386l2.976-2.977a.983.983,0,0,1,1.387,0L44.561,40.7a11.389,11.389,0,0,1,2.526-1.047V37.153a.983.983,0,0,1,.98-.98h4.21a.983.983,0,0,1,.98.98Z" transform="translate(55.939 56.898)" fill-rule="evenodd" fill="url(#linear-gradient)"/>
    </g>
  </g>
</svg>
