<svg xmlns="http://www.w3.org/2000/svg" xmlns:xlink="http://www.w3.org/1999/xlink" width="32" height="32" viewBox="0 0 32 32">
  <defs>
    <linearGradient id="linear-gradient" y1="0.5" x2="1" y2="0.5" gradientUnits="objectBoundingBox">
      <stop offset="0" stop-color="#e42367"/>
      <stop offset="1" stop-color="#492080"/>
    </linearGradient>
  </defs>
  <path id="stamp" d="M34.336,17.709c-.5-.406-1.075-.864-1.172-1.224-.151-1.25,1.5-3.241.692-4.478-.665-1.321-3.207-.9-4.224-1.636C28.894,9.356,29.32,6.81,28,6.145c-1.236-.8-3.226.839-4.476.692-.36-.1-.817-.669-1.223-1.172-1.585-2.192-3.012-2.21-4.607,0-1.071,1.412-1.329,1.416-2.944.766-2.439-1.092-3.623-.384-3.9,2.276a3.708,3.708,0,0,1-.492,1.664c-1.01.738-3.562.312-4.224,1.636-.8,1.236.839,3.227.692,4.478C6.3,17.621,3.9,18.526,3.989,20.014c-.086,1.487,2.3,2.395,2.835,3.529.151,1.25-1.5,3.241-.692,4.478.665,1.321,3.207.9,4.224,1.636a3.685,3.685,0,0,1,.492,1.664c.276,2.641,1.441,3.375,3.9,2.276,1.624-.657,1.877-.634,2.944.767,1.586,2.192,3.012,2.21,4.607,0,1.071-1.412,1.329-1.416,2.944-.766,2.44,1.087,3.624.386,3.9-2.276a3.708,3.708,0,0,1,.492-1.664c1.01-.738,3.562-.313,4.224-1.636.8-1.236-.839-3.227-.692-4.478.1-.36.669-.818,1.172-1.224,2.191-1.586,2.209-3.014,0-4.61ZM19.994,29.736a9.734,9.734,0,0,1-9.718-9.722c.543-12.9,18.894-12.9,19.435,0a9.734,9.734,0,0,1-9.718,9.722Zm0-18.3a8.587,8.587,0,0,0-8.574,8.579c.472,11.381,16.679,11.377,17.149,0a8.587,8.587,0,0,0-8.574-8.579Zm4.979,5.931-6.1,6.1a.561.561,0,0,1-.406.166.548.548,0,0,1-.4-.166L15.015,20.42a.574.574,0,1,1,.812-.812l2.641,2.648,5.693-5.7a.572.572,0,1,1,.812.806Z" transform="translate(-3.986 -4.014)" fill="url(#linear-gradient)"/>
</svg>
