<svg xmlns="http://www.w3.org/2000/svg" xmlns:xlink="http://www.w3.org/1999/xlink" width="117.358" height="121.66" viewBox="0 0 117.358 121.66">
  <defs>
    <linearGradient id="linear-gradient" x1="0.5" x2="0.5" y2="1" gradientUnits="objectBoundingBox">
      <stop offset="0" stop-color="#e42367"/>
      <stop offset="1" stop-color="#492080"/>
    </linearGradient>
  </defs>
  <g id="startup" transform="translate(-3.366 -2.5)">
    <path id="Path_66" data-name="Path 66" d="M80,56.348H67.988V45.833H26.971V56.348h-12a1.778,1.778,0,1,0,0,3.555H80a1.778,1.778,0,1,0,0-3.555" transform="translate(14.566 64.257)" fill="url(#linear-gradient)"/>
    <path id="Path_67" data-name="Path 67" d="M114.37,21.918H74.845C73.447,17.631,67.3,7.3,62.706,2.925a1.673,1.673,0,0,0-2.227,0c-4.571,4.35-10.733,14.609-12.186,18.994H9.72a6.353,6.353,0,0,0-6.354,6.354v71.909a6.367,6.367,0,0,0,6.354,6.351H114.367a6.367,6.367,0,0,0,6.356-6.351V28.272a6.35,6.35,0,0,0-6.354-6.354m-44.9,9.507A7.894,7.894,0,1,1,61.6,23.508a7.889,7.889,0,0,1,7.871,7.918M67.024,95.794H57.09a1.778,1.778,0,1,1,0-3.555h9.934a1.778,1.778,0,1,1,0,3.555m50.144-12.327H6.924V28.272a2.8,2.8,0,0,1,2.8-2.8H47.3a42.367,42.367,0,0,0,2.207,27H73.641A42.99,42.99,0,0,0,77.1,35.549a42.554,42.554,0,0,0-1.234-10.075h38.5a2.8,2.8,0,0,1,2.8,2.8V83.466Z" transform="translate(0 0)" fill="url(#linear-gradient)"/>
    <path id="Path_68" data-name="Path 68" d="M26.682,30.425a1.675,1.675,0,0,0,1.328.653h3.208v3.955a1.778,1.778,0,0,0,3.555,0V31.078h3.218a1.666,1.666,0,0,0,1.326-.653,46.763,46.763,0,0,0,4.05-6.364H22.64a47.035,47.035,0,0,0,4.042,6.364" transform="translate(28.581 31.972)" fill="url(#linear-gradient)"/>
    <path id="Path_69" data-name="Path 69" d="M18.508,37.857a1.252,1.252,0,0,0,2.3.261,22.334,22.334,0,0,1,5.217-6.043,46.435,46.435,0,0,1-4.2-13.3,22.681,22.681,0,0,0-3.32,19.086" transform="translate(21.252 24.128)" fill="url(#linear-gradient)"/>
    <path id="Path_70" data-name="Path 70" d="M32.577,32.08a21.846,21.846,0,0,1,5.189,6.046,1.266,1.266,0,0,0,2.3-.236,22.476,22.476,0,0,0-3.32-19.108,47.163,47.163,0,0,1-4.171,13.3" transform="translate(43.316 24.144)" fill="url(#linear-gradient)"/>
    <path id="Path_71" data-name="Path 71" d="M25.536,28.465a1.779,1.779,0,0,0-1.778,1.778V34.67a1.778,1.778,0,1,0,3.555,0V30.243a1.779,1.779,0,0,0-1.778-1.778" transform="translate(30.239 38.503)" fill="url(#linear-gradient)"/>
    <path id="Path_72" data-name="Path 72" d="M30.254,28.465a1.779,1.779,0,0,0-1.778,1.778v2.381a1.778,1.778,0,1,0,3.555,0V30.243a1.776,1.776,0,0,0-1.778-1.778" transform="translate(37.235 38.503)" fill="url(#linear-gradient)"/>
  </g>
</svg>
