<svg xmlns="http://www.w3.org/2000/svg" xmlns:xlink="http://www.w3.org/1999/xlink" width="136" height="136" viewBox="0 0 136 136">
  <defs>
    <linearGradient id="linear-gradient" x1="0.5" x2="0.5" y2="1" gradientUnits="objectBoundingBox">
      <stop offset="0" stop-color="#e42367"/>
      <stop offset="1" stop-color="#492080"/>
    </linearGradient>
  </defs>
  <g id="exchange-ideas" transform="translate(0 0)">
    <path id="Path_191839" data-name="Path 191839" d="M45.687,82.637V75a4.866,4.866,0,0,1,4.525-4.525h7.071a4.405,4.405,0,0,0,4.525-4.242V53.789a1.933,1.933,0,0,1,1.98-1.98h3.394a4.045,4.045,0,0,0,3.96-3.96,3.761,3.761,0,0,0-.848-2.263L64.636,37.1a3.211,3.211,0,0,1-.848-2.263L63.505,30.6a31.9,31.9,0,0,0-9.9-21.212A31.111,31.111,0,0,0,32.111.9,31.754,31.754,0,0,0,1,32.86,28.153,28.153,0,0,0,3.263,43.607L8.071,53.789a63.348,63.348,0,0,1,5.657,26.02v2.828ZM13.444,32.011V30.6a3.008,3.008,0,0,1,2.545-2.828,3.233,3.233,0,0,0,2.263-1.98.987.987,0,0,1,.283-.566,1.7,1.7,0,0,0,.283-1.131,4.02,4.02,0,0,0-.566-1.7,3.006,3.006,0,0,1,.283-3.96L19.667,17.3a2.386,2.386,0,0,1,1.98-.566,4.02,4.02,0,0,1,1.7.566,2.6,2.6,0,0,0,2.828.283.987.987,0,0,0,.566-.283,2.464,2.464,0,0,0,1.7-2.263A3.008,3.008,0,0,1,31.263,12.5h1.414a3.008,3.008,0,0,1,2.828,2.545A2.933,2.933,0,0,0,37.2,17.3a.987.987,0,0,1,.566.283,1.7,1.7,0,0,0,1.131.283,4.02,4.02,0,0,0,1.7-.566,2.644,2.644,0,0,1,3.677.283L45.4,18.718a3.055,3.055,0,0,1,.848,1.98,4.02,4.02,0,0,1-.566,1.7,2.6,2.6,0,0,0-.283,2.828.987.987,0,0,0,.283.566,2.464,2.464,0,0,0,2.263,1.7,3.008,3.008,0,0,1,2.545,2.828v1.414a3.008,3.008,0,0,1-2.545,2.828,2.933,2.933,0,0,0-2.263,1.7.987.987,0,0,1-.283.566,1.7,1.7,0,0,0-.283,1.131,4.02,4.02,0,0,0,.566,1.7,2.644,2.644,0,0,1-.283,3.677l-1.131,1.131a3.055,3.055,0,0,1-1.98.848,4.02,4.02,0,0,1-1.7-.566,2.6,2.6,0,0,0-2.828-.283.987.987,0,0,0-.566.283A2.464,2.464,0,0,0,35.505,47a3.008,3.008,0,0,1-2.828,2.545H31.263A3.008,3.008,0,0,1,28.434,47a2.933,2.933,0,0,0-1.7-2.263.987.987,0,0,1-.566-.283,1.7,1.7,0,0,0-1.131-.283,4.02,4.02,0,0,0-1.7.566,2.644,2.644,0,0,1-3.677-.283l-1.131-1.131a3.055,3.055,0,0,1-.848-1.98,4.02,4.02,0,0,1,.566-1.7,2.6,2.6,0,0,0,.283-2.828.987.987,0,0,0-.283-.566,2.464,2.464,0,0,0-2.263-1.7,2.535,2.535,0,0,1-2.545-2.545Z" transform="translate(-1 -0.9)" fill="url(#linear-gradient)"/>
    <path id="Path_191840" data-name="Path 191840" d="M37.5,45.042a1.217,1.217,0,0,0,1.131,1.131c.566,0,1.414-.566,1.414-1.131V40.8H37.5Z" transform="translate(65.701 72.008)" fill="url(#linear-gradient)"/>
    <path id="Path_191841" data-name="Path 191841" d="M48.556,27.5h-1.7A13.881,13.881,0,0,0,33,41.359a13.577,13.577,0,0,0,4.808,10.465,11.128,11.128,0,0,1,3.677,8.2.608.608,0,0,0,.566.566H44.6V49H43.182a2.433,2.433,0,0,1-2.263-2.263,2.231,2.231,0,0,1,2.263-2.263h7.354a2.263,2.263,0,1,1,0,4.525H49.121v11.6H51.95a.608.608,0,0,0,.566-.566,12.262,12.262,0,0,1,3.677-8.485,14.95,14.95,0,0,0,4.525-12.727A13.532,13.532,0,0,0,48.556,27.5Z" transform="translate(57.465 47.703)" fill="url(#linear-gradient)"/>
    <path id="Path_191842" data-name="Path 191842" d="M63.048,20.2A31.307,31.307,0,0,0,31.936,49.9l-.283,4.242a3.761,3.761,0,0,1-.848,2.263l-5.657,8.485A3.211,3.211,0,0,0,24.3,67.15a4.258,4.258,0,0,0,3.96,3.96h3.394a1.933,1.933,0,0,1,1.98,1.98V85.533a4.414,4.414,0,0,0,4.525,4.242h7.071A4.866,4.866,0,0,1,49.755,94.3v7.354h31.96V98.826a63.348,63.348,0,0,1,5.657-26.02l4.808-10.182a28.153,28.153,0,0,0,2.263-10.747C94.159,34.341,80.3,20.2,63.048,20.2ZM75.209,68.281a7.082,7.082,0,0,0-2.263,5.091A5.434,5.434,0,0,1,68.7,78.463v4.525a5.657,5.657,0,1,1-11.313,0V78.463a5.122,5.122,0,0,1-4.242-4.808,7.539,7.539,0,0,0-1.98-5.091A18.318,18.318,0,0,1,65.31,36.6,18.912,18.912,0,0,1,81.431,51.877a20.14,20.14,0,0,1-6.222,16.4Z" transform="translate(41.559 34.345)" fill="url(#linear-gradient)"/>
    <path id="Path_191843" data-name="Path 191843" d="M26.563,7.525H63.9A10.743,10.743,0,0,1,74.643,18.273v18.1l-2.263-2.263a2.2,2.2,0,0,0-3.111,3.111l5.939,5.939c.283.283.566.283.848.566.283,0,.566.283.848.283a1.039,1.039,0,0,0,.848-.283c.283,0,.566-.283.848-.566l5.939-5.939a2.2,2.2,0,0,0-3.111-3.111l-2.263,2.263v-18.1A15.209,15.209,0,0,0,63.9,3H26.563A2.231,2.231,0,0,0,24.3,5.263a2.433,2.433,0,0,0,2.263,2.263Z" transform="translate(41.559 2.939)" fill="url(#linear-gradient)"/>
    <path id="Path_191844" data-name="Path 191844" d="M54.809,67.177H27.658A10.743,10.743,0,0,1,16.91,56.429V40.591l2.263,2.263a1.557,1.557,0,0,0,1.414.566A2.16,2.16,0,0,0,22,42.853a2.219,2.219,0,0,0,0-3.111L16.062,33.8c-.283-.283-.566-.283-.848-.566a1.262,1.262,0,0,0-1.414,0c-.283,0-.566.283-.848.566L7.011,39.742a2.2,2.2,0,0,0,3.111,3.111l2.263-2.263V56.429A15.209,15.209,0,0,0,27.658,71.7H54.809a2.263,2.263,0,1,0,0-4.525Z" transform="translate(8.827 57.793)" fill="url(#linear-gradient)"/>
    <path id="Path_191845" data-name="Path 191845" d="M15.474,20.447A5.374,5.374,0,1,0,10.1,15.074,5.563,5.563,0,0,0,15.474,20.447Z" transform="translate(15.629 15.181)" fill="url(#linear-gradient)"/>
  </g>
</svg>
