<svg id="Page-1" xmlns="http://www.w3.org/2000/svg" xmlns:xlink="http://www.w3.org/1999/xlink" width="131.277" height="136" viewBox="0 0 131.277 136">
  <defs>
    <linearGradient id="linear-gradient" x1="0.5" x2="0.5" y2="1" gradientUnits="objectBoundingBox">
      <stop offset="0" stop-color="#e42367"/>
      <stop offset="1" stop-color="#492080"/>
    </linearGradient>
  </defs>
  <g id="_024---Government-Agreement" data-name="024---Government-Agreement">
    <path id="Shape" d="M71.074,27.013a2.283,2.283,0,0,0,.717-1.669A2.344,2.344,0,0,0,69.447,23H33.789l5.992,4.688H69.447A2.243,2.243,0,0,0,71.074,27.013Z" transform="translate(45.42 30.931)" fill="url(#linear-gradient)"/>
    <path id="Shape-2" data-name="Shape" d="M21,37.844l9.679.607,3.146-2.832a11.625,11.625,0,0,1,10.683-2.64l9.311,2.279V27H21Z" transform="translate(28.229 36.311)" fill="url(#linear-gradient)"/>
    <path id="Shape-3" data-name="Shape" d="M29.777,24.964c-.056.056-.124.094-.185.145l-6.7,5.267H46.825L34.831,21Z" transform="translate(30.769 28.241)" fill="url(#linear-gradient)"/>
    <path id="Shape-4" data-name="Shape" d="M33.521,22.448h9.222A17.08,17.08,0,0,0,30.825,9.459,37.116,37.116,0,0,1,33.521,22.448Z" transform="translate(41.436 12.721)" fill="url(#linear-gradient)"/>
    <path id="Shape-5" data-name="Shape" d="M40.03,0H33a4.688,4.688,0,0,0-4.688,4.688V24.1a31.438,31.438,0,0,0-2.283,11.062h9.255A31.438,31.438,0,0,0,33,24.1V14.065H40.03a4.688,4.688,0,0,0,4.688-4.688V4.688A4.688,4.688,0,0,0,40.03,0ZM33,9.377V4.688H40.03V9.377Z" transform="translate(34.985)" fill="url(#linear-gradient)"/>
    <path id="Shape-6" data-name="Shape" d="M20.091,22.448h9.222a37.116,37.116,0,0,1,2.7-12.989A17.08,17.08,0,0,0,20.091,22.448Z" transform="translate(27.007 12.721)" fill="url(#linear-gradient)"/>
    <path id="Shape-7" data-name="Shape" d="M6.717,23.675A2.283,2.283,0,0,0,6,25.344a2.344,2.344,0,0,0,2.344,2.344H38.01L44,23H8.344a2.243,2.243,0,0,0-1.627.675Z" transform="translate(8.065 30.931)" fill="url(#linear-gradient)"/>
    <path id="Shape-8" data-name="Shape" d="M2.344,66.163h21.1V31H2.344A2.344,2.344,0,0,0,0,33.344V63.819A2.344,2.344,0,0,0,2.344,66.163Z" transform="translate(0 41.694)" fill="url(#linear-gradient)"/>
    <path id="Shape-9" data-name="Shape" d="M17.377,36.377v.143l16.41,1.029V27H8v4.688h4.688A4.688,4.688,0,0,1,17.377,36.377Z" transform="translate(10.754 36.311)" fill="url(#linear-gradient)"/>
    <path id="Shape-10" data-name="Shape" d="M22.346,48.445a2.344,2.344,0,0,0-4-1.66l-1.069,1.069-.019.019-.57.57a2.344,2.344,0,0,0,0,3.315,2.4,2.4,0,0,0,3.315,0L21.659,50.1a2.328,2.328,0,0,0,.687-1.655Z" transform="translate(21.508 61.995)" fill="url(#linear-gradient)"/>
    <path id="Shape-11" data-name="Shape" d="M21.415,57.917l4.974-4.972a2.344,2.344,0,1,0-3.315-3.315L18.1,54.6a2.344,2.344,0,0,0,0,3.315A2.4,2.4,0,0,0,21.415,57.917Z" transform="translate(23.409 65.785)" fill="url(#linear-gradient)"/>
    <path id="Shape-12" data-name="Shape" d="M24.944,59.1l3.317-3.315a2.344,2.344,0,1,0-3.312-3.315l-2.48,2.487-.828.828a2.344,2.344,0,0,0,0,3.315,2.4,2.4,0,0,0,3.3,0Z" transform="translate(28.167 69.573)" fill="url(#linear-gradient)"/>
    <path id="Shape-13" data-name="Shape" d="M27.778,61.9,31.1,58.587a2.345,2.345,0,0,0-3.315-3.317l-3.315,3.317A2.343,2.343,0,0,0,27.778,61.9Z" transform="translate(31.965 73.405)" fill="url(#linear-gradient)"/>
    <path id="Shape-14" data-name="Shape" d="M66.527,64.077l8.514,8.514.04.038a2.344,2.344,0,0,0,3.282-3.343L53.8,43.108,42.869,52.679a8.352,8.352,0,0,1-5.5,2.056,8.24,8.24,0,0,1-4.773-1.5A8.348,8.348,0,0,1,31.785,40.2L37.9,34.69l-7.122-.445H30.7L12,33.065V58.833a29.015,29.015,0,0,1,8.51,2.075,7.2,7.2,0,0,1,9.846.084,6.974,6.974,0,0,1,2.028,4.67A6.819,6.819,0,0,1,39.013,72.3a6.81,6.81,0,0,1,6.625,6.564,6.962,6.962,0,0,1,5.947,10.033l1.925,1.925a2.288,2.288,0,0,0,3.3,0,2.344,2.344,0,0,0,0-3.305L55.638,86.34a2.344,2.344,0,0,1,3.317-3.312l1.16,1.172,1.664,1.641a2.368,2.368,0,0,0,3.305.014,2.288,2.288,0,0,0,.7-1.641,2.344,2.344,0,0,0-.7-1.676l-8.17-8.2a2.344,2.344,0,0,1,3.315-3.315l8.188,8.188,1.664,1.664A2.346,2.346,0,0,0,73.4,77.561l-1.6-1.582-.061-.059L63.214,67.4a2.344,2.344,0,0,1,3.315-3.315Z" transform="translate(16.131 44.479)" fill="url(#linear-gradient)"/>
    <path id="Shape-15" data-name="Shape" d="M74.56,64.038v-24.7l-31.549-7.72A6.965,6.965,0,0,0,36.6,33.195l-3.816,3.434-.049.045-10.27,9.248a3.615,3.615,0,0,0-1.2,2.923,3.671,3.671,0,0,0,1.564,2.792,3.718,3.718,0,0,0,4.489-.234l12.57-11h.014l2.623-2.3a2.345,2.345,0,1,1,3.09,3.528l-.75.656L67.83,66.75Z" transform="translate(28.586 42.229)" fill="url(#linear-gradient)"/>
    <path id="Shape-16" data-name="Shape" d="M62.787,34.033V27H37v9.407l16.41,4.013v-1.7A4.688,4.688,0,0,1,58.1,34.033Z" transform="translate(49.736 36.311)" fill="url(#linear-gradient)"/>
    <path id="Shape-17" data-name="Shape" d="M67.1,32H46V64.819H67.1a2.344,2.344,0,0,0,2.344-2.344V34.344A2.344,2.344,0,0,0,67.1,32Z" transform="translate(61.835 43.039)" fill="url(#linear-gradient)"/>
    <path id="Shape-18" data-name="Shape" d="M61.54,21.688h4.688a2.344,2.344,0,1,0,0-4.688H19.344a2.344,2.344,0,0,0,0,4.688h4.688v4.688H35.205l4.731-3.7a4.625,4.625,0,0,1,5.7,0l4.731,3.7H61.54Z" transform="translate(22.852 22.862)" fill="url(#linear-gradient)"/>
  </g>
</svg>
