<svg xmlns="http://www.w3.org/2000/svg" xmlns:xlink="http://www.w3.org/1999/xlink" width="146.402" height="136.003" viewBox="0 0 146.402 136.003">
  <defs>
    <linearGradient id="linear-gradient" x1="0.5" x2="0.5" y2="1" gradientUnits="objectBoundingBox">
      <stop offset="0" stop-color="#e42367"/>
      <stop offset="1" stop-color="#492080"/>
    </linearGradient>
  </defs>
  <g id="key-access" transform="translate(-2.445 -4.687)">
    <path id="Path_191836" data-name="Path 191836" d="M130.568,56.2a7.433,7.433,0,0,1-3.8,6.472S82.781,94.385,63.2,95.5c-12.713.7-46.907-19.88-46.907-19.88V38.966s18.837-.117,23.941,0a32.874,32.874,0,0,1,6.5.836,38.655,38.655,0,0,1,14.992,7.386c3.921,3.05,5.5,4.356,6.9,5.076a3.934,3.934,0,0,0,1.8.412H84.552a6.1,6.1,0,0,1,6.18,5.285,5.876,5.876,0,0,1-5.841,6.454H56.428a1.74,1.74,0,1,0,0,3.48H84.892a9.349,9.349,0,0,0,8.862-6.357l5.22-2.413,20.9-9.65A7.462,7.462,0,0,1,130.568,56.2Z" transform="translate(18.279 45.173)" fill="url(#linear-gradient)"/>
    <path id="Path_191837" data-name="Path 191837" d="M25.179,35.766H8.361a5.911,5.911,0,0,0-5.916,5.916V81.234a5.91,5.91,0,0,0,5.916,5.915H25.179a5.91,5.91,0,0,0,5.915-5.915V41.682A5.911,5.911,0,0,0,25.179,35.766Zm-7.539,41.8a3.735,3.735,0,1,1,3.735-3.735,3.732,3.732,0,0,1-3.735,3.735Z" transform="translate(0 41.019)" fill="url(#linear-gradient)"/>
    <path id="Path_191838" data-name="Path 191838" d="M113.5,66.28l-8.916-1.094-4.7-7.994a1.636,1.636,0,0,0-1.269-.8l-8.531-.739-3.534-7.238a1.636,1.636,0,0,0-1.093-.874l-8.642-2.048-6.542-4.316A27.678,27.678,0,1,0,62.76,52.822c15.791,10.4,17.173,11.309,43.643,28.736a1.674,1.674,0,0,0,1.087.268l8.923-.963a1.636,1.636,0,0,0,1.408-2.037l-2.935-11.332A1.636,1.636,0,0,0,113.5,66.28ZM40.676,30.2a6.808,6.808,0,1,1-1.949-9.4,6.783,6.783,0,0,1,1.949,9.4Z" transform="translate(18.279 0)" fill="url(#linear-gradient)"/>
  </g>
</svg>
