<svg xmlns="http://www.w3.org/2000/svg" xmlns:xlink="http://www.w3.org/1999/xlink" width="136" height="135.998" viewBox="0 0 136 135.998">
  <defs>
    <linearGradient id="linear-gradient" x1="0.5" x2="0.5" y2="1" gradientUnits="objectBoundingBox">
      <stop offset="0" stop-color="#e42367"/>
      <stop offset="1" stop-color="#492080"/>
    </linearGradient>
  </defs>
  <g id="network" transform="translate(0 -0.004)">
    <g id="Group_114310" data-name="Group 114310" transform="translate(20.404 43.072)">
      <g id="Group_114309" data-name="Group 114309">
        <circle id="Ellipse_1" data-name="Ellipse 1" cx="4.533" cy="4.533" r="4.533" fill="url(#linear-gradient)"/>
      </g>
    </g>
    <g id="Group_114312" data-name="Group 114312" transform="translate(15.871 65.737)">
      <g id="Group_114311" data-name="Group 114311">
        <path id="Path_37" data-name="Path 37" d="M75.393,247.479H62.242a2.4,2.4,0,0,0-2.491,2.3v9.565a24.6,24.6,0,0,0,18.133,0v-9.565A2.406,2.406,0,0,0,75.393,247.479Z" transform="translate(-59.751 -247.479)" fill="url(#linear-gradient)"/>
      </g>
    </g>
    <g id="Group_114314" data-name="Group 114314" transform="translate(74.802 13.606)">
      <g id="Group_114313" data-name="Group 114313">
        <circle id="Ellipse_2" data-name="Ellipse 2" cx="4.533" cy="4.533" r="4.533" fill="url(#linear-gradient)"/>
      </g>
    </g>
    <g id="Group_114316" data-name="Group 114316" transform="translate(70.269 36.272)">
      <g id="Group_114315" data-name="Group 114315">
        <path id="Path_38" data-name="Path 38" d="M280.193,136.546H267.042a2.406,2.406,0,0,0-2.491,2.3v9.565a24.6,24.6,0,0,0,18.133,0v-9.565A2.4,2.4,0,0,0,280.193,136.546Z" transform="translate(-264.551 -136.546)" fill="url(#linear-gradient)"/>
      </g>
    </g>
    <g id="Group_114318" data-name="Group 114318" transform="translate(104.268 72.537)">
      <g id="Group_114317" data-name="Group 114317">
        <circle id="Ellipse_3" data-name="Ellipse 3" cx="4.533" cy="4.533" r="4.533" fill="url(#linear-gradient)"/>
      </g>
    </g>
    <g id="Group_114320" data-name="Group 114320" transform="translate(99.735 95.203)">
      <g id="Group_114319" data-name="Group 114319">
        <path id="Path_39" data-name="Path 39" d="M391.126,358.413H377.975a2.4,2.4,0,0,0-2.491,2.3v9.565a24.6,24.6,0,0,0,18.133,0v-9.565A2.407,2.407,0,0,0,391.126,358.413Z" transform="translate(-375.484 -358.413)" fill="url(#linear-gradient)"/>
      </g>
    </g>
    <g id="Group_114322" data-name="Group 114322" transform="translate(0 0.004)">
      <g id="Group_114321" data-name="Group 114321" transform="translate(0 0)">
        <path id="Path_40" data-name="Path 40" d="M108.8,58.938c-.3,0-.6.034-.9.045l-9.613-17.9a24.754,24.754,0,0,0,5.909-14.83l14.259,6.884a8.969,8.969,0,0,0-.592,3.137,9.066,9.066,0,1,0,9.066-9.066,8.98,8.98,0,0,0-5.823,2.176l-17.176-8.294a24.919,24.919,0,0,0-49.074-.981,26.079,26.079,0,0,0-.428,3.762L41,35.363A24.8,24.8,0,0,0,27.2,29.585V17.815a9.066,9.066,0,1,0-4.533,0V29.585A24.906,24.906,0,0,0,11.337,75.273V68.038A6.941,6.941,0,0,1,18.362,61.2H31.512a6.94,6.94,0,0,1,7.024,6.836v7.235A24.959,24.959,0,0,0,49.448,58.716L59.677,66.69a9.257,9.257,0,1,0,2.8-3.563L49.808,53.249A24.788,24.788,0,0,0,44.2,38.591l10.63-9.1A24.99,24.99,0,0,0,65.733,45.805V38.57a6.941,6.941,0,0,1,7.024-6.836H85.908a6.94,6.94,0,0,1,7.024,6.836v2.375a2.3,2.3,0,0,0,1.271,2.06l8.917,16.607A24.96,24.96,0,0,0,83.868,83.868a24.678,24.678,0,0,0,1.38,8.031l-9.177,6.884A24.907,24.907,0,0,0,29.583,108.8H17.811a9.066,9.066,0,1,0,0,4.533h11.8a24.926,24.926,0,0,0,11.188,18.6V124.7a6.941,6.941,0,0,1,7.024-6.836H60.976A6.94,6.94,0,0,1,68,124.7v7.235a24.987,24.987,0,0,0,10.669-15.313L93.524,123.8a8.968,8.968,0,0,0-.592,3.137A9.066,9.066,0,1,0,102,117.869a8.98,8.98,0,0,0-5.823,2.176l-16.9-8.157c.009-.277.052-.542.052-.818a24.791,24.791,0,0,0-1.358-8.049l9.159-6.87a25.166,25.166,0,0,0,8.067,8.588V97.5a6.941,6.941,0,0,1,7.024-6.836h13.151A6.94,6.94,0,0,1,122.4,97.5v7.235a24.914,24.914,0,0,0-13.6-45.8ZM24.937,56.671A9.066,9.066,0,1,1,34,47.6,9.075,9.075,0,0,1,24.937,56.671Zm54.4-29.466A9.066,9.066,0,1,1,88.4,18.139,9.075,9.075,0,0,1,79.335,27.206ZM54.4,113.336a9.066,9.066,0,1,1,9.066-9.066A9.075,9.075,0,0,1,54.4,113.336Zm54.4-27.2a9.066,9.066,0,1,1,9.066-9.066A9.075,9.075,0,0,1,108.8,86.137Z" transform="translate(0 -0.004)" fill="url(#linear-gradient)"/>
      </g>
    </g>
    <g id="Group_114324" data-name="Group 114324" transform="translate(49.869 99.736)">
      <g id="Group_114323" data-name="Group 114323">
        <circle id="Ellipse_4" data-name="Ellipse 4" cx="4.533" cy="4.533" r="4.533" fill="url(#linear-gradient)"/>
      </g>
    </g>
    <g id="Group_114326" data-name="Group 114326" transform="translate(45.336 122.402)">
      <g id="Group_114325" data-name="Group 114325">
        <path id="Path_41" data-name="Path 41" d="M186.326,460.813H173.175a2.406,2.406,0,0,0-2.491,2.3v9.565a24.6,24.6,0,0,0,18.133,0v-9.565A2.407,2.407,0,0,0,186.326,460.813Z" transform="translate(-170.684 -460.813)" fill="url(#linear-gradient)"/>
      </g>
    </g>
  </g>
</svg>
