<svg xmlns="http://www.w3.org/2000/svg" xmlns:xlink="http://www.w3.org/1999/xlink" width="118.877" height="136" viewBox="0 0 118.877 136">
  <defs>
    <linearGradient id="linear-gradient" x1="0.5" x2="0.5" y2="1" gradientUnits="objectBoundingBox">
      <stop offset="0" stop-color="#e42367"/>
      <stop offset="1" stop-color="#492080"/>
    </linearGradient>
  </defs>
  <path id="intellectual-property" d="M82.959,136.415v1.108A5.5,5.5,0,0,0,88.447,143H95.57a5.5,5.5,0,0,0,5.488-5.477v-1.108Zm69.036-55.427a11.4,11.4,0,0,1-15.347-3.815,1.335,1.335,0,0,0-1.16-.642H121.605a1.326,1.326,0,0,1-1.014-.449L119.065,74.4a1.37,1.37,0,0,0-2.028,0l-.92,1.013a1.37,1.37,0,0,1-2.028,0l-.92-1.013a1.37,1.37,0,0,0-2.028,0l-1.526,1.682a1.325,1.325,0,0,1-1.014.449h-.86a1.322,1.322,0,0,1-.932-.366l-4.324-4.016a1.363,1.363,0,0,1,0-2l4.323-4.016a1.322,1.322,0,0,1,.932-.366h27.745a1.335,1.335,0,0,0,1.161-.643,11.375,11.375,0,1,1,15.348,15.863Zm.447-9.84a3.385,3.385,0,1,0-3.385,3.378A3.382,3.382,0,0,0,152.442,71.149ZM92.008,60.391a4.91,4.91,0,0,1,2.583,9.095V74a2.582,2.582,0,0,1-5.165,0V69.486a4.91,4.91,0,0,1,2.582-9.095Zm0-31.875a33.738,33.738,0,0,0-33.774,33.7c0,18.718,11.983,17.6,13.608,45.189h40.333c.852-14.465,4.551-21.039,7.878-26.717a5.68,5.68,0,0,1-2.181-1.164,5.789,5.789,0,0,1-5.538,0,5.688,5.688,0,0,1-3.291,1.357,2.228,2.228,0,0,1-2.143,1.629H77.116a2.225,2.225,0,0,1-2.223-2.218V56.673a2.224,2.224,0,0,1,2.223-2.218h2.728V47.546a12.164,12.164,0,0,1,24.328,0v6.909H106.9a2.225,2.225,0,0,1,2.223,2.218V61.4h16.649A33.741,33.741,0,0,0,92.008,28.516ZM48.982,40.656a2.181,2.181,0,1,1-2.189,3.772L39.9,40.459a2.181,2.181,0,1,1,2.189-3.772Zm88.234,3.772a2.176,2.176,0,1,1-2.172-3.772l6.89-3.969a2.176,2.176,0,1,1,2.172,3.772Zm-17.844-19.4a2.183,2.183,0,0,1-3.78-2.185l3.978-6.875a2.183,2.183,0,0,1,3.78,2.185ZM94.2,17.123a2.189,2.189,0,0,1-4.379,0V9.185a2.189,2.189,0,0,1,4.379,0ZM68.425,22.842a2.183,2.183,0,0,1-3.78,2.185l-3.978-6.875a2.183,2.183,0,0,1,3.78-2.185ZM85.413,54.456V47.546a6.6,6.6,0,0,1,13.19,0v6.909ZM71.842,111.777v1.108a5.5,5.5,0,0,0,5.488,5.477h29.357a5.5,5.5,0,0,0,5.488-5.477v-1.108ZM101.2,132.046a5.5,5.5,0,0,0,5.488-5.477v-3.839H77.33v3.839a5.5,5.5,0,0,0,5.489,5.477Z" transform="translate(-38.813 -7)" fill-rule="evenodd" fill="url(#linear-gradient)"/>
</svg>
