<svg xmlns="http://www.w3.org/2000/svg" xmlns:xlink="http://www.w3.org/1999/xlink" width="137.256" height="136" viewBox="0 0 137.256 136">
  <defs>
    <linearGradient id="linear-gradient" x1="0.5" x2="0.5" y2="1" gradientUnits="objectBoundingBox">
      <stop offset="0" stop-color="#e42367"/>
      <stop offset="1" stop-color="#492080"/>
    </linearGradient>
  </defs>
  <g id="Layer_x0020_1" transform="translate(0 -2.625)">
    <g id="_281684760" transform="translate(0 2.625)">
      <path id="Path_191864" data-name="Path 191864" d="M107,212.993V191.279a1.545,1.545,0,0,1,1.608-1.608h16.353a1.73,1.73,0,0,1,1.608,1.608v21.714Zm79.887,0v-71.04h-7.506a1.474,1.474,0,0,1-1.34-.8,1.687,1.687,0,0,1,0-1.608L194.929,113.8a1.519,1.519,0,0,1,2.681,0L215.3,139.272c.268.268.268.536.268,1.072a1.73,1.73,0,0,1-1.608,1.608h-7.506v71.04Zm-26.54,0V165.007a1.545,1.545,0,0,1,1.608-1.608h16.353a1.73,1.73,0,0,1,1.608,1.608v47.986Zm-26.808,0V180.824a1.545,1.545,0,0,1,1.608-1.608H151.5a1.422,1.422,0,0,1,1.608,1.608v32.169Z" transform="translate(-78.316 -83.427)" fill-rule="evenodd" fill="url(#linear-gradient)"/>
      <path id="Path_191865" data-name="Path 191865" d="M184.933,501.217H72.608A1.73,1.73,0,0,1,71,499.608,1.545,1.545,0,0,1,72.608,498H184.933a1.545,1.545,0,0,1,1.608,1.608A1.73,1.73,0,0,1,184.933,501.217Z" transform="translate(-51.967 -365.217)" fill-rule="evenodd" fill="url(#linear-gradient)"/>
      <path id="Path_191866" data-name="Path 191866" d="M52.613,102.182a6.45,6.45,0,0,1-6.7-5.63,6.912,6.912,0,0,1,5.63-7.506c2.949-1.072,5.9-2.413,8.31-3.485A5.388,5.388,0,0,0,62,84.489,87.176,87.176,0,0,0,79.421,74.3C96.041,62.239,108.1,46.958,115.343,29a71.152,71.152,0,0,0,3.217-9.919l.268-.8-8.847-3.753a2.2,2.2,0,0,1-1.072-1.608c0-.536.536-1.34,1.072-1.34l21.446-8.847a1.385,1.385,0,0,1,1.877.8l8.847,21.446a1.646,1.646,0,0,1-.268,1.608,1.777,1.777,0,0,1-1.877.536l-8.578-3.753a121.323,121.323,0,0,1-16.621,34.582A127.271,127.271,0,0,1,87.195,85.293a113.277,113.277,0,0,1-21.982,12.6,80.333,80.333,0,0,1-9.651,4.021A11,11,0,0,1,52.613,102.182Z" transform="translate(-33.579 -2.625)" fill-rule="evenodd" fill="url(#linear-gradient)"/>
      <path id="Path_191867" data-name="Path 191867" d="M29.489,71.977A29.489,29.489,0,1,1,58.977,42.488,29.4,29.4,0,0,1,29.489,71.977ZM27.88,59.914a9.516,9.516,0,0,1-8.042-9.383,1.73,1.73,0,0,1,1.608-1.608,1.545,1.545,0,0,1,1.608,1.608A6.6,6.6,0,0,0,27.88,56.7V44.1a9.73,9.73,0,0,1-8.042-9.383,9.516,9.516,0,0,1,8.042-9.383V24.259a1.608,1.608,0,0,1,3.217,0v1.072a9.285,9.285,0,0,1,7.774,9.383,1.545,1.545,0,0,1-1.608,1.608,1.73,1.73,0,0,1-1.608-1.608A6.354,6.354,0,0,0,31.1,28.548v12.6a9.549,9.549,0,0,1,0,18.765v.8a1.608,1.608,0,1,1-3.217,0ZM31.1,56.7a6.45,6.45,0,0,0,0-12.332ZM27.88,28.548a6.6,6.6,0,0,0-4.825,6.166A6.6,6.6,0,0,0,27.88,40.88Z" transform="translate(0 -10.219)" fill-rule="evenodd" fill="url(#linear-gradient)"/>
    </g>
  </g>
</svg>
