<svg xmlns="http://www.w3.org/2000/svg" xmlns:xlink="http://www.w3.org/1999/xlink" width="170" height="136" viewBox="0 0 170 136">
  <defs>
    <linearGradient id="linear-gradient" x1="0.5" x2="0.5" y2="1" gradientUnits="objectBoundingBox">
      <stop offset="0" stop-color="#e42367"/>
      <stop offset="1" stop-color="#492080"/>
    </linearGradient>
  </defs>
  <path id="auditor" d="M53.912,93.532c13.883,0,25.137,11.506,25.137,25.7s-11.253,25.7-25.137,25.7-25.137-11.506-25.137-25.7,11.253-25.7,25.137-25.7ZM35.338,143.784C20.6,148.255,9.75,162.414,9.75,179.069v17.623a4.929,4.929,0,0,0,4.832,5h78.66a4.929,4.929,0,0,0,4.832-5V179.069c0-16.655-10.847-30.815-25.588-35.285l-.342.268c-.61,10.511-2.368,18.509-6.94,27.852l-8.846-19.052,1.4-2.8a30.006,30.006,0,0,1-7.7,0l1.4,2.8L42.623,171.9c-4.573-9.342-6.331-17.341-6.94-27.852q-.173-.133-.342-.268Zm85.645-51.462c18.25,0,33.045,15.315,33.045,34.207s-14.795,34.207-33.045,34.207-33.045-15.315-33.045-34.207,14.795-34.207,33.045-34.207Zm-19.7-6.455a2.726,2.726,0,0,1-.94,3.653,2.535,2.535,0,0,1-3.529-.974L90.66,77.506a2.726,2.726,0,0,1,.94-3.653,2.535,2.535,0,0,1,3.529.974Zm17.108,86.068a2.59,2.59,0,1,1,5.178,0v12.75a2.59,2.59,0,1,1-5.178,0Zm22.285-4.752a2.72,2.72,0,0,1,.951-3.643,2.531,2.531,0,0,1,3.519.984l6.158,11.041a2.72,2.72,0,0,1-.95,3.643,2.531,2.531,0,0,1-3.519-.984l-6.158-11.041Zm17.006-15.635a2.72,2.72,0,0,1-.951-3.643,2.531,2.531,0,0,1,3.519-.984l10.666,6.374a2.72,2.72,0,0,1,.951,3.643,2.531,2.531,0,0,1-3.519.984Zm7.161-22.337a2.682,2.682,0,0,1,0-5.36h12.315a2.682,2.682,0,0,1,0,5.36Zm-4.591-23.069a2.531,2.531,0,0,1-3.519-.984,2.72,2.72,0,0,1,.951-3.643l10.666-6.374a2.531,2.531,0,0,1,3.519.984,2.72,2.72,0,0,1-.951,3.643ZM145.149,88.537a2.531,2.531,0,0,1-3.519.984,2.72,2.72,0,0,1-.951-3.643l6.158-11.041a2.531,2.531,0,0,1,3.519-.984,2.72,2.72,0,0,1,.951,3.643Zm-21.577-7.413a2.59,2.59,0,1,1-5.178,0V68.375a2.59,2.59,0,1,1,5.178,0Zm5.613,39.595a8.5,8.5,0,0,0-5.613-8.056v-1.692a2.59,2.59,0,1,0-5.178,0v1.6a8.2,8.2,0,0,0-6.137,8.144c0,5.121,3.942,8.491,8.725,8.491,1.933,0,3.548.961,3.548,3.131,0,1.974-1.611,3.131-3.548,3.131a3.1,3.1,0,0,1-3.024-3.131,2.59,2.59,0,1,0-5.178,0,8.5,8.5,0,0,0,5.614,8.056v1.691a2.59,2.59,0,1,0,5.178,0V140.5a8.039,8.039,0,0,0,6.137-8.162c0-5.122-3.942-8.491-8.726-8.491-1.933,0-3.547-.962-3.547-3.131s1.614-3.131,3.547-3.131a3.1,3.1,0,0,1,3.025,3.131,2.59,2.59,0,1,0,5.178,0Zm-8.2-20.846c14.221,0,25.75,11.934,25.75,26.656s-11.529,26.656-25.75,26.656-25.75-11.934-25.75-26.656,11.529-26.656,25.75-26.656Zm0,5.36c-11.362,0-20.573,9.535-20.573,21.3s9.211,21.3,20.573,21.3,20.573-9.535,20.573-21.3-9.211-21.3-20.573-21.3Z" transform="translate(-9.75 -65.695)" fill-rule="evenodd" fill="url(#linear-gradient)"/>
</svg>
