<svg xmlns="http://www.w3.org/2000/svg" xmlns:xlink="http://www.w3.org/1999/xlink" width="123.333" height="136" viewBox="0 0 123.333 136">
  <defs>
    <linearGradient id="linear-gradient" x1="0.5" x2="0.5" y2="1" gradientUnits="objectBoundingBox">
      <stop offset="0" stop-color="#e42367"/>
      <stop offset="1" stop-color="#492080"/>
    </linearGradient>
  </defs>
  <g id="Go_Green" data-name="Go Green" transform="translate(-2.997 -0.001)">
    <path id="Path_191873" data-name="Path 191873" d="M12.119,44.037a2.126,2.126,0,0,0-3.007,0L3.62,49.529a2.141,2.141,0,0,0,0,3.019L37.641,86.57a2.157,2.157,0,0,0,3.019,0l5.492-5.492a2.126,2.126,0,0,0,0-3.007Z" transform="translate(0 48.815)" fill="url(#linear-gradient)"/>
    <path id="Path_191874" data-name="Path 191874" d="M115.615,35.828a9.625,9.625,0,0,0-13.63,0l-13.4,13.4A12.592,12.592,0,0,1,90.8,56.39,12.768,12.768,0,0,1,78.042,69.148H48.274a2.126,2.126,0,1,1,0-4.253H78.042a8.505,8.505,0,1,0,0-17.011H53.887a23.41,23.41,0,0,0-34.617-1.637L10,55.5,38.535,84.032l2.381-2.381a6.373,6.373,0,0,1,4.508-1.871H76.49a21.119,21.119,0,0,0,15.033-6.23l24.091-24.091a9.625,9.625,0,0,0,0-13.63Z" transform="translate(7.887 37.085)" fill="url(#linear-gradient)"/>
    <path id="Path_191875" data-name="Path 191875" d="M30.2,48.361c.489,0,.978.021,1.467.043a54.6,54.6,0,0,1,2.892-6.783,17.208,17.208,0,0,0,2.467-7.591C36.837,30.181,30.607,25.12,23.7,21.25A46.512,46.512,0,0,0,15,48.361a43,43,0,0,0,.213,4.4A27.421,27.421,0,0,1,30.2,48.361Z" transform="translate(13.519 23.898)" fill="url(#linear-gradient)"/>
    <path id="Path_191876" data-name="Path 191876" d="M29.94,56.424a27.7,27.7,0,0,1,14.2,7.91h9.441a22.049,22.049,0,0,1,2.467-9.462c4.976-9.8,11.95-9.462,17.563-9.186a33.741,33.741,0,0,0,4.4,0c2.254-.213,3.487-2.637,5.295-6.613,1.892-4.146,4.231-9.207,9.356-11.971a47.278,47.278,0,0,0-9.7-9.292c-3.785,6.039-9.1,10.228-14.565,8.314-4.3-1.488-5.061-.893-6.932.553a17.861,17.861,0,0,1-10.291,4.061,11.5,11.5,0,0,1-1.191.064c-8.08.021-13.46-9.25-16.33-16.181a46.126,46.126,0,0,0-13.311,10.7c6.23,3.572,14.565,9.547,14.906,15.969a20.413,20.413,0,0,1-2.892,9.654C31.534,52.66,30.663,54.467,29.94,56.424Z" transform="translate(19.545 16.436)" fill="url(#linear-gradient)"/>
    <path id="Path_191877" data-name="Path 191877" d="M67.3,32.355c-1.935,4.231-3.955,8.612-8.782,9.079a35.283,35.283,0,0,1-4.976-.021c-5.507-.255-9.845-.468-13.587,6.868A17.241,17.241,0,0,0,38,55.83h8.505A12.748,12.748,0,0,1,54.1,58.339L67.428,45.007a13.871,13.871,0,0,1,9.824-4.061,13.267,13.267,0,0,1,5.082.978A46.287,46.287,0,0,0,75.3,22.17C71.043,24.19,69.151,28.315,67.3,32.355Z" transform="translate(39.425 24.93)" fill="url(#linear-gradient)"/>
    <path id="Path_191878" data-name="Path 191878" d="M21.658,15.776a7.392,7.392,0,0,1,7.655,1.361,31.911,31.911,0,0,0,7.655,3.912,15.678,15.678,0,0,0,5.039.893,12.361,12.361,0,0,0,6.847-2.02A17.762,17.762,0,0,0,41.761,13.4l9.475,3.977a6.365,6.365,0,0,1,3.911,5.883v2.31a46.581,46.581,0,0,0-16.2,3.688c2.573,6.166,7.293,14.4,13.29,13.736a13.9,13.9,0,0,0,8.144-3.211c2.7-2.084,4.933-3.3,10.951-1.191,3.4,1.169,7-2.445,9.59-6.634A46.175,46.175,0,0,0,59.4,25.586V23.259a6.365,6.365,0,0,1,3.911-5.883L72.786,13.4a17.762,17.762,0,0,0-7.092,6.522,12.361,12.361,0,0,0,6.847,2.02,15.678,15.678,0,0,0,5.039-.893,31.91,31.91,0,0,0,7.655-3.912,7.392,7.392,0,0,1,7.655-1.361,2.167,2.167,0,0,0,2.318-.914A2.144,2.144,0,0,0,95.1,12.4C94.633,11.821,83.81-1.745,73.391.19,63.336,2.074,62.142,8.175,61.665,13.457a10.591,10.591,0,0,0-4.391,3.46,10.591,10.591,0,0,0-4.391-3.46C52.4,8.175,51.211,2.074,41.156.19,30.737-1.745,19.914,11.821,19.446,12.4a2.144,2.144,0,0,0-.106,2.467A2.167,2.167,0,0,0,21.658,15.776ZM72.8,13.394h0Zm-31.044,0h0Z" transform="translate(18.025 0)" fill="url(#linear-gradient)"/>
  </g>
</svg>
