<svg xmlns="http://www.w3.org/2000/svg" xmlns:xlink="http://www.w3.org/1999/xlink" width="135.997" height="136" viewBox="0 0 135.997 136">
  <defs>
    <linearGradient id="linear-gradient" x1="0.5" x2="0.5" y2="1" gradientUnits="objectBoundingBox">
      <stop offset="0" stop-color="#e42367"/>
      <stop offset="1" stop-color="#492080"/>
    </linearGradient>
  </defs>
  <g id="layer1" transform="translate(-0.529 -0.529)">
    <path id="path6645" d="M68.527.529A9.066,9.066,0,1,0,77.6,9.587,9.063,9.063,0,0,0,68.527.529Zm-15.242,13.6-30.351,14a2.267,2.267,0,1,0,1.9,4.117l30.356-14a2.276,2.276,0,0,0-.8-4.334,2.2,2.2,0,0,0-1.1.217Zm28.581,4.117,30.356,14a2.267,2.267,0,1,0,1.9-4.117l-30.351-14a2.268,2.268,0,1,0-1.9,4.117ZM9.6,27.724a9.066,9.066,0,1,0,9.071,9.058A9.059,9.059,0,0,0,9.6,27.724Zm117.864,0a9.066,9.066,0,1,0,9.066,9.058,9.063,9.063,0,0,0-9.066-9.058Zm-62.9,7.26c-.313.151-.342.394-.487.668a10.664,10.664,0,0,1-1.656,3.077A12.585,12.585,0,0,1,57.385,42.2a13.136,13.136,0,0,1-5.99,1.253,10.69,10.69,0,0,1-3.431-.921c-.38-.147-.571-.236-.819-.151a8.783,8.783,0,0,0-2.864,2.262,9.139,9.139,0,0,0-2.209,2.877,1.246,1.246,0,0,0,.168.8,10.819,10.819,0,0,1,.97,3.4,13.033,13.033,0,0,1-1.151,6.007,12.98,12.98,0,0,1-3.347,5.1,10.453,10.453,0,0,1-3.1,1.758c-.36.152-.529.165-.668.433a8.311,8.311,0,0,0-.433,3.5,8.339,8.339,0,0,0,.433,3.5c.139.267.39.316.668.433a10.453,10.453,0,0,1,3.1,1.758,12.98,12.98,0,0,1,3.347,5.1,13.092,13.092,0,0,1,1.151,5.906,10.034,10.034,0,0,1-.952,3.413c-.131.374-.267.584-.2.837a3.426,3.426,0,0,0,.2.478A34.064,34.064,0,0,1,54.849,80.43a18.137,18.137,0,1,1,27.359,0,34.082,34.082,0,0,1,12.586,9.509,3.312,3.312,0,0,0,.2-.478c.069-.253-.069-.463-.2-.837a10.037,10.037,0,0,1-.952-3.413A13.093,13.093,0,0,1,95,79.306a12.98,12.98,0,0,1,3.347-5.1,10.455,10.455,0,0,1,3.1-1.758c.278-.117.529-.165.668-.433a8.344,8.344,0,0,0,.433-3.5,8.311,8.311,0,0,0-.433-3.5c-.139-.267-.308-.281-.668-.433a10.453,10.453,0,0,1-3.1-1.758A12.98,12.98,0,0,1,95,57.72a13.033,13.033,0,0,1-1.151-6.007,10.832,10.832,0,0,1,.969-3.4,1.244,1.244,0,0,0,.168-.8,9.141,9.141,0,0,0-2.209-2.877,8.784,8.784,0,0,0-2.864-2.262c-.248-.077-.439,0-.819.151a10.685,10.685,0,0,1-3.431.921,13.135,13.135,0,0,1-5.99-1.253,12.585,12.585,0,0,1-5.033-3.466,10.654,10.654,0,0,1-1.656-3.077c-.144-.274-.176-.517-.487-.668a11.067,11.067,0,0,0-3.967-.469A11.067,11.067,0,0,0,64.561,34.984ZM13.677,49.549a2.267,2.267,0,0,0-2.324,2.877l3.984,15.087a2.267,2.267,0,1,0,4.383-1.151L15.736,51.275A2.267,2.267,0,0,0,13.677,49.549Zm109.7,0a2.263,2.263,0,0,0-2.058,1.727l-3.984,15.087a2.267,2.267,0,1,0,4.383,1.151L125.7,52.426a2.267,2.267,0,0,0-2.324-2.877Zm-54.85,5.37a13.6,13.6,0,1,0,13.6,13.6,13.609,13.609,0,0,0-13.6-13.6Zm-47.6,22.666a6.8,6.8,0,1,0,6.791,6.8A6.811,6.811,0,0,0,20.929,77.585Zm95.2,0a6.8,6.8,0,1,0,6.809,6.8A6.8,6.8,0,0,0,116.126,77.585ZM85.411,125.476a4.74,4.74,0,1,0-2.461-9.155l-34.265,8.8a2.27,2.27,0,1,1-1.12-4.4l.566-.146v-9.013a2.267,2.267,0,0,1,4.533,0v7.849l29.147-7.49a8.916,8.916,0,0,1,2.577-.279,2.267,2.267,0,0,1,4.533-.077v1.355A9.283,9.283,0,0,1,86.58,129.86l-9.332,2.514L91.9,136.319c2.574.5,3.958.043,4.768-.637a4.534,4.534,0,0,0,1.324-3.648V111.59A29.353,29.353,0,0,0,78.328,83.78a18.139,18.139,0,0,1-19.615-.005,29.418,29.418,0,0,0-19.646,27.814V132a4.579,4.579,0,0,0,1.319,3.679c.81.68,2.194,1.134,4.776.637ZM16.537,94.828a13.608,13.608,0,0,0-9.208,12.927v2.661a5.671,5.671,0,0,0,5.662,5.706H28.853a5.663,5.663,0,0,0,5.675-5.706v-2.661a13.611,13.611,0,0,0-9.2-12.927,11.677,11.677,0,0,1-4.4.89A11.366,11.366,0,0,1,16.537,94.828Zm95.189,0a13.611,13.611,0,0,0-9.2,12.927v2.661a5.682,5.682,0,0,0,5.675,5.706h15.862a5.671,5.671,0,0,0,5.662-5.706v-2.661a13.608,13.608,0,0,0-9.208-12.927,11.055,11.055,0,0,1-4.392.894,11.315,11.315,0,0,1-4.4-.894ZM77.6,97.984h6.791a2.267,2.267,0,0,1,0,4.533H77.6A2.267,2.267,0,0,1,77.6,97.984Z" transform="translate(0 0)" fill="url(#linear-gradient)"/>
  </g>
</svg>
