<svg id="blockchain" xmlns="http://www.w3.org/2000/svg" width="150" height="150" viewBox="0 0 150 150">
  <path id="Path_210024" data-name="Path 210024" d="M134.512,224.929a4.342,4.342,0,0,1-2.128-.554,4.388,4.388,0,0,1-1.707-5.972l17.191-31.24a4.393,4.393,0,0,1,7.68,4.265l-17.193,31.24A4.389,4.389,0,0,1,134.512,224.929Zm0,0" transform="translate(-91.998 -130.724)" fill="#a8ebfa"/>
  <path id="Path_210025" data-name="Path 210025" d="M314.765,224.929a4.391,4.391,0,0,1-3.844-2.261l-17.193-31.24a4.393,4.393,0,0,1,7.68-4.265L318.6,218.4a4.388,4.388,0,0,1-1.707,5.972A4.342,4.342,0,0,1,314.765,224.929Zm0,0" transform="translate(-207.278 -130.724)" fill="#76e2f8"/>
  <path id="Path_210026" data-name="Path 210026" d="M224.934,366.393a4.351,4.351,0,0,1-4.393,4.393H185.393a4.393,4.393,0,1,1,0-8.787H220.54A4.35,4.35,0,0,1,224.934,366.393Zm0,0" transform="translate(-127.967 -255.944)" fill="#a8ebfa"/>
  <path id="Path_210027" data-name="Path 210027" d="M277.967,366.393a4.351,4.351,0,0,1-4.393,4.393H256V362h17.574A4.35,4.35,0,0,1,277.967,366.393Zm0,0" transform="translate(-180.997 -255.944)" fill="#76e2f8"/>
  <path id="Path_210028" data-name="Path 210028" d="M415.218,332.351,400.164,332l-15.377,17.574L376,366.708l8.787,18.013a3.969,3.969,0,0,0,2.2-.616l26.741-15.64c.176-.088.351-.263.527-.351a4.827,4.827,0,0,0,1.581-3.427V334.548A3.776,3.776,0,0,0,415.218,332.351Zm0,0" transform="translate(-265.833 -234.721)" fill="#5a69e6"/>
  <path id="Path_210029" data-name="Path 210029" d="M316.377,332l-14.761.351a3.968,3.968,0,0,0-.616,2.2v30.138a4.827,4.827,0,0,0,1.581,3.428c.176.087,26.976,15.991,26.976,15.991a3.969,3.969,0,0,0,2.2.616V349.574Zm0,0" transform="translate(-212.81 -234.721)" fill="#7984eb"/>
  <path id="Path_210030" data-name="Path 210030" d="M363.671,289.925,333.24,307.147,303.1,289.925c.087-.087.175-.263.263-.351a4.4,4.4,0,0,1,1.318-1.23l26.36-15.728a4.227,4.227,0,0,1,4.393,0l26.653,15.728a5.9,5.9,0,0,1,1.318,1.23C363.5,289.662,363.583,289.838,363.671,289.925Zm0,0" transform="translate(-214.286 -192.306)" fill="#979fef"/>
  <path id="Path_210031" data-name="Path 210031" d="M114.925,332.351,100.164,332,84.787,349.574,76,366.708l8.787,18.013a3.969,3.969,0,0,0,2.2-.616l26.448-15.64c.176-.088.351-.263.527-.351a4.827,4.827,0,0,0,1.581-3.427V334.548A3.776,3.776,0,0,0,114.925,332.351Zm0,0" transform="translate(-53.74 -234.721)" fill="#5a69e6"/>
  <path id="Path_210032" data-name="Path 210032" d="M15.67,332l-15.054.351a3.968,3.968,0,0,0-.616,2.2v30.138a4.827,4.827,0,0,0,1.581,3.428c.176.087,27.269,15.991,27.269,15.991a3.969,3.969,0,0,0,2.2.616V349.574Zm0,0" transform="translate(0 -234.721)" fill="#7984eb"/>
  <path id="Path_210033" data-name="Path 210033" d="M62.671,289.925,32.533,307.147,2.1,289.925c.087-.087.175-.263.263-.351a4.4,4.4,0,0,1,1.318-1.23l26.653-15.728a4.227,4.227,0,0,1,4.393,0l26.36,15.728a5.9,5.9,0,0,1,1.318,1.23C62.5,289.662,62.583,289.838,62.671,289.925Zm0,0" transform="translate(-1.486 -192.306)" fill="#b5baf3"/>
  <path id="Path_210034" data-name="Path 210034" d="M264.925,61.351,250.164,61,234.787,78.574,226,95.708l8.787,18.013a3.968,3.968,0,0,0,2.2-.616l26.448-15.64c.176-.088.351-.263.527-.351a4.827,4.827,0,0,0,1.581-3.427V63.548A3.776,3.776,0,0,0,264.925,61.351Zm0,0" transform="translate(-159.783 -43.134)" fill="#5a69e6"/>
  <path id="Path_210035" data-name="Path 210035" d="M166.377,61l-14.761.351a3.968,3.968,0,0,0-.616,2.2V93.686a4.827,4.827,0,0,0,1.581,3.428c.176.087,26.976,15.991,26.976,15.991a3.968,3.968,0,0,0,2.2.616V78.574Zm0,0" transform="translate(-106.759 -43.134)" fill="#7984eb"/>
  <path id="Path_210036" data-name="Path 210036" d="M213.378,18.218,183.24,35.44,153.1,18.218c.087-.087.175-.263.263-.351a4.4,4.4,0,0,1,1.318-1.23L181.043.616a4.228,4.228,0,0,1,4.393,0L211.8,16.637a5.9,5.9,0,0,1,1.318,1.23C213.2,17.955,213.29,18.131,213.378,18.218Zm0,0" transform="translate(-108.24 0)" fill="#b5baf3"/>
  <path id="Path_210037" data-name="Path 210037" d="M286.138,18.218,256,35.44V0a4.174,4.174,0,0,1,2.2.616l26.36,16.021a5.9,5.9,0,0,1,1.318,1.23C285.963,17.955,286.05,18.131,286.138,18.218Zm0,0" transform="translate(-180.995)" fill="#979fef"/>
</svg>
