<svg xmlns="http://www.w3.org/2000/svg" width="150" height="160" viewBox="0 0 150 160">
  <g id="compliant" transform="translate(-16.164)">
    <path id="Path_210332" data-name="Path 210332" d="M286.817,0H194.062a.967.967,0,0,0-.967.967v10.3h82.767a.655.655,0,0,1,.654.654V119.036h10.3a.967.967,0,0,0,.967-.967V.967A.967.967,0,0,0,286.817,0Z" transform="translate(-121.62)" fill="#fff3de"/>
    <path id="Path_210333" data-name="Path 210333" d="M203.426,11.268V.967A.967.967,0,0,1,204.393,0h-10.33a.967.967,0,0,0-.967.967v10.3Z" transform="translate(-121.604 0)" fill="#ffe5c2"/>
    <path id="Path_210334" data-name="Path 210334" d="M251.792,35.025H159.037a.967.967,0,0,0-.967.967V68.063l35.556,17.77a2.894,2.894,0,0,1,1.609,2.6v18.6c0,13.214-3.311,23.678-10.42,32.932a71.329,71.329,0,0,1-14.939,14.1h81.915a.967.967,0,0,0,.966-.967V35.992a.966.966,0,0,0-.966-.967Z" transform="translate(-97.549 -24.07)" fill="#dff6fd"/>
    <path id="Path_210335" data-name="Path 210335" d="M168.765,73.407V35.992a.967.967,0,0,1,.967-.967H159.038a.967.967,0,0,0-.967.967V68.063Z" transform="translate(-97.532 -24.07)" fill="#c8effe"/>
    <g id="Group_142882" data-name="Group 142882" transform="translate(88.962 26.199)">
      <path id="Path_210336" data-name="Path 210336" d="M284.452,88.455H251.319a2.346,2.346,0,1,1,0-4.692h33.134a2.346,2.346,0,1,1,0,4.692Z" transform="translate(-248.973 -83.763)" fill="#01c0fa"/>
    </g>
    <g id="Group_142887" data-name="Group 142887" transform="translate(78.579 42.087)">
      <g id="Group_142883" data-name="Group 142883">
        <path id="Path_210337" data-name="Path 210337" d="M272.022,139.462h-53.9a2.346,2.346,0,0,1,0-4.692h53.9a2.346,2.346,0,1,1,0,4.692Z" transform="translate(-215.778 -134.77)" fill="#01d0fb"/>
      </g>
      <path id="Path_210338" data-name="Path 210338" d="M274.428,170.082h-53.9a2.33,2.33,0,0,0-1.251.364l8.659,4.328h46.49a2.346,2.346,0,0,0,0-4.692Z" transform="translate(-218.184 -159.037)" fill="#01d0fb"/>
      <g id="Group_142884" data-name="Group 142884" transform="translate(40.844 22.089)">
        <path id="Path_210339" data-name="Path 210339" d="M361.767,210.086H348.713a2.346,2.346,0,0,1,0-4.692h13.054a2.346,2.346,0,1,1,0,4.692Z" transform="translate(-346.367 -205.394)" fill="#01d0fb"/>
      </g>
      <path id="Path_210340" data-name="Path 210340" d="M291.93,205.394H276.869c0,.042.008.082.008.124v4.568H291.93a2.346,2.346,0,1,0,0-4.692Z" transform="translate(-257.762 -183.305)" fill="#01d0fb"/>
      <path id="Path_210341" data-name="Path 210341" d="M314.024,240.706H276.9V245.4h37.128a2.346,2.346,0,0,0,0-4.692Z" transform="translate(-257.78 -207.572)" fill="#01c0fa"/>
      <path id="Path_210342" data-name="Path 210342" d="M313.026,276.018h-37.2q-.109,2.406-.378,4.692h37.582a2.346,2.346,0,1,0,0-4.692Z" transform="translate(-256.782 -231.84)" fill="#01c0fa"/>
      <g id="Group_142885" data-name="Group 142885" transform="translate(33.433 55.223)">
        <path id="Path_210343" data-name="Path 210343" d="M345.483,316.023H325.018a2.346,2.346,0,1,1,0-4.692h20.465a2.346,2.346,0,0,1,0,4.692Z" transform="translate(-322.672 -311.331)" fill="#01c0fa"/>
      </g>
      <g id="Group_142886" data-name="Group 142886" transform="translate(10.692 55.223)">
        <path id="Path_210344" data-name="Path 210344" d="M278.429,311.331h-9.534q-.572,2.408-1.357,4.692h10.891a2.346,2.346,0,1,0,0-4.692Z" transform="translate(-262.041 -311.331)" fill="#01c0fa"/>
        <path id="Path_210345" data-name="Path 210345" d="M295.515,346.643H252.739a48.645,48.645,0,0,1-2.776,4.692h45.552a2.346,2.346,0,1,0,0-4.692Z" transform="translate(-249.963 -335.598)" fill="#01c0fa"/>
      </g>
    </g>
    <path id="Path_210346" data-name="Path 210346" d="M108.938,156.756,72.677,138.634,36.417,156.756a3.222,3.222,0,0,0-1.782,2.882v18.6a59.233,59.233,0,0,0,2.637,18.215,20.089,20.089,0,0,1,25.521,30.971c3.1,2.147,6.405,4.24,9.884,6.326C95.443,220.1,110.72,206.2,110.72,178.234v-18.6a3.223,3.223,0,0,0-1.782-2.882Z" transform="translate(-12.694 -95.411)" fill="#fac600"/>
    <g id="Group_142888" data-name="Group 142888" transform="translate(21.941 56.85)">
      <path id="Path_210347" data-name="Path 210347" d="M47.114,222.371a62.313,62.313,0,0,1-1.564-14.349V181.979l-9.135,4.566a3.222,3.222,0,0,0-1.782,2.882v18.6a59.233,59.233,0,0,0,2.637,18.215A19.987,19.987,0,0,1,47.114,222.371Z" transform="translate(-34.634 -181.979)" fill="#e8b800"/>
    </g>
    <path id="Path_210348" data-name="Path 210348" d="M128.726,338.551a21.986,21.986,0,0,1-5.675-.745,20.067,20.067,0,0,1-6.859,26.337v17.27a1.227,1.227,0,0,0,2.051.91l9.66-8.738a1.227,1.227,0,0,1,1.646,0l9.66,8.738a1.227,1.227,0,0,0,2.051-.91V334.622A21.9,21.9,0,0,1,128.726,338.551Z" transform="translate(-68.749 -230.1)" fill="#fb2b3a"/>
    <g id="Group_142889" data-name="Group 142889" transform="translate(47.444 123.226)">
      <path id="Path_210349" data-name="Path 210349" d="M116.192,405.242v17.27a1.227,1.227,0,0,0,2.051.91l6.234-5.64V394.425A20.186,20.186,0,0,1,116.192,405.242Z" transform="translate(-116.192 -394.425)" fill="#e41f2d"/>
    </g>
    <g id="Group_142891" data-name="Group 142891" transform="translate(37.644 64.146)">
      <path id="Path_210350" data-name="Path 210350" d="M107.18,205.335A22.335,22.335,0,0,0,87.756,238.7,20.164,20.164,0,0,1,101.7,249.334a22.341,22.341,0,1,0,5.481-44Z" transform="translate(-84.841 -205.335)" fill="#4fc123"/>
      <path id="Path_210351" data-name="Path 210351" d="M95.629,227.674a22.346,22.346,0,0,1,16.945-21.68A22.337,22.337,0,0,0,87.756,238.7,20.164,20.164,0,0,1,101.7,249.334a22.411,22.411,0,0,0,10.875.02,22.345,22.345,0,0,1-16.945-21.679Z" transform="translate(-84.841 -205.335)" fill="#47a920"/>
      <g id="Group_142890" data-name="Group 142890" transform="translate(11.494 16.084)">
        <path id="Path_210352" data-name="Path 210352" d="M131.28,271.773a2.345,2.345,0,0,1-1.659-.687l-7.344-7.344a2.346,2.346,0,0,1,3.317-3.317l5.686,5.686,8.663-8.663a2.346,2.346,0,0,1,3.317,3.317l-10.322,10.322a2.345,2.345,0,0,1-1.659.687Z" transform="translate(-121.59 -256.759)" fill="#fff"/>
      </g>
    </g>
    <g id="Group_142892" data-name="Group 142892" transform="translate(82.751 138.695)">
      <path id="Path_210353" data-name="Path 210353" d="M241.343,444.567l2.491,5.047a1.227,1.227,0,0,0,.924.671l5.57.809a1.227,1.227,0,0,1,.68,2.093l-4.03,3.929a1.226,1.226,0,0,0-.353,1.086l.951,5.548a1.227,1.227,0,0,1-1.781,1.294l-4.982-2.619a1.227,1.227,0,0,0-1.142,0l-4.982,2.619a1.227,1.227,0,0,1-1.781-1.294l.951-5.548a1.228,1.228,0,0,0-.353-1.086l-4.03-3.929a1.227,1.227,0,0,1,.68-2.093l5.57-.809a1.227,1.227,0,0,0,.924-.671l2.491-5.047A1.227,1.227,0,0,1,241.343,444.567Z" transform="translate(-229.106 -443.883)" fill="#fac600"/>
    </g>
    <g id="Group_142894" data-name="Group 142894" transform="translate(82.753 144.894)">
      <g id="Group_142893" data-name="Group 142893">
        <path id="Path_210354" data-name="Path 210354" d="M240.032,474.994l.951-5.548a1.228,1.228,0,0,0-.353-1.086l-4.03-3.929a1.205,1.205,0,0,1-.361-.728,1.224,1.224,0,0,1-.512.2l-5.57.809a1.227,1.227,0,0,0-.68,2.093l4.03,3.929a1.226,1.226,0,0,1,.353,1.086l-.951,5.548a1.227,1.227,0,0,0,1.781,1.294l4.982-2.619a1.226,1.226,0,0,1,.567-.14A1.2,1.2,0,0,1,240.032,474.994Z" transform="translate(-229.106 -463.703)" fill="#e8b800"/>
      </g>
    </g>
    <g id="Group_142895" data-name="Group 142895" transform="translate(112.648 138.695)">
      <path id="Path_210355" data-name="Path 210355" d="M336.951,444.567l2.491,5.047a1.227,1.227,0,0,0,.924.671l5.57.809a1.227,1.227,0,0,1,.68,2.093l-4.03,3.929a1.226,1.226,0,0,0-.353,1.086l.951,5.548a1.227,1.227,0,0,1-1.781,1.294l-4.982-2.619a1.227,1.227,0,0,0-1.142,0l-4.982,2.619a1.227,1.227,0,0,1-1.781-1.294l.951-5.548a1.228,1.228,0,0,0-.353-1.086l-4.03-3.929a1.227,1.227,0,0,1,.68-2.093l5.57-.809a1.227,1.227,0,0,0,.924-.671l2.491-5.047A1.227,1.227,0,0,1,336.951,444.567Z" transform="translate(-324.714 -443.883)" fill="#fac600"/>
    </g>
    <g id="Group_142897" data-name="Group 142897" transform="translate(112.65 144.894)">
      <g id="Group_142896" data-name="Group 142896">
        <path id="Path_210356" data-name="Path 210356" d="M335.64,474.994l.951-5.548a1.228,1.228,0,0,0-.353-1.086l-4.03-3.929a1.205,1.205,0,0,1-.361-.728,1.224,1.224,0,0,1-.512.2l-5.57.809a1.227,1.227,0,0,0-.68,2.093l4.03,3.929a1.226,1.226,0,0,1,.353,1.086l-.951,5.548a1.227,1.227,0,0,0,1.781,1.294l4.982-2.619a1.226,1.226,0,0,1,.567-.14A1.2,1.2,0,0,1,335.64,474.994Z" transform="translate(-324.714 -463.703)" fill="#e8b800"/>
      </g>
    </g>
    <g id="Group_142898" data-name="Group 142898" transform="translate(142.545 138.695)">
      <path id="Path_210357" data-name="Path 210357" d="M432.558,444.567l2.491,5.047a1.227,1.227,0,0,0,.924.671l5.57.809a1.227,1.227,0,0,1,.68,2.093l-4.03,3.929a1.226,1.226,0,0,0-.353,1.086l.951,5.548a1.227,1.227,0,0,1-1.781,1.294l-4.982-2.619a1.227,1.227,0,0,0-1.142,0l-4.982,2.619a1.227,1.227,0,0,1-1.781-1.294l.951-5.548a1.228,1.228,0,0,0-.353-1.086l-4.03-3.929a1.227,1.227,0,0,1,.68-2.093l5.57-.809a1.227,1.227,0,0,0,.924-.671l2.491-5.047A1.227,1.227,0,0,1,432.558,444.567Z" transform="translate(-420.321 -443.883)" fill="#fac600"/>
    </g>
    <g id="Group_142900" data-name="Group 142900" transform="translate(142.545 144.894)">
      <g id="Group_142899" data-name="Group 142899">
        <path id="Path_210358" data-name="Path 210358" d="M431.247,474.994l.951-5.548a1.228,1.228,0,0,0-.353-1.086l-4.03-3.929a1.205,1.205,0,0,1-.361-.728,1.224,1.224,0,0,1-.512.2l-5.57.809a1.227,1.227,0,0,0-.68,2.093l4.03,3.929a1.226,1.226,0,0,1,.353,1.086l-.951,5.548a1.227,1.227,0,0,0,1.781,1.294l4.982-2.619a1.226,1.226,0,0,1,.567-.14A1.2,1.2,0,0,1,431.247,474.994Z" transform="translate(-420.321 -463.703)" fill="#e8b800"/>
      </g>
    </g>
    <g id="Group_142906" data-name="Group 142906" transform="translate(16.164 96.742)">
      <g id="Group_142901" data-name="Group 142901" transform="translate(0)">
        <circle id="Ellipse_37" data-name="Ellipse 37" cx="20.412" cy="20.412" r="20.412" fill="#3675bb"/>
      </g>
      <g id="Group_142902" data-name="Group 142902">
        <path id="Path_210359" data-name="Path 210359" d="M26.091,330.159a20.418,20.418,0,0,1,15.448-19.8,20.412,20.412,0,1,0,0,39.6A20.417,20.417,0,0,1,26.091,330.159Z" transform="translate(-16.164 -309.747)" fill="#2263aa"/>
      </g>
      <g id="Group_142903" data-name="Group 142903" transform="translate(10.398 10.835)">
        <path id="Path_210360" data-name="Path 210360" d="M60.411,345l2.239,4.538a1.1,1.1,0,0,0,.831.6l5.008.728a1.1,1.1,0,0,1,.611,1.882l-3.624,3.532a1.1,1.1,0,0,0-.317.976l.855,4.987a1.1,1.1,0,0,1-1.6,1.163l-4.479-2.355a1.1,1.1,0,0,0-1.027,0l-4.479,2.355a1.1,1.1,0,0,1-1.6-1.163l.855-4.987a1.1,1.1,0,0,0-.317-.976l-3.624-3.532a1.1,1.1,0,0,1,.611-1.882l5.008-.728a1.1,1.1,0,0,0,.831-.6L58.432,345a1.1,1.1,0,0,1,1.98,0Z" transform="translate(-49.408 -344.388)" fill="#fac600"/>
      </g>
      <g id="Group_142905" data-name="Group 142905" transform="translate(10.398 16.5)">
        <g id="Group_142904" data-name="Group 142904">
          <path id="Path_210361" data-name="Path 210361" d="M59.075,372.686l.855-4.987a1.1,1.1,0,0,0-.317-.976L55.99,363.19a1.084,1.084,0,0,1-.33-.689,1.1,1.1,0,0,1-.3.092l-5.008.728a1.1,1.1,0,0,0-.611,1.882l3.624,3.532a1.1,1.1,0,0,1,.317.977L52.83,374.7a1.1,1.1,0,0,0,1.6,1.163l4.479-2.355a1.092,1.092,0,0,1,.288-.1A1.086,1.086,0,0,1,59.075,372.686Z" transform="translate(-49.41 -362.501)" fill="#e8b800"/>
        </g>
      </g>
    </g>
  </g>
</svg>
