<svg xmlns="http://www.w3.org/2000/svg" width="150" height="150" viewBox="0 0 150 150">
  <g id="u" transform="translate(-2 -2)">
    <g id="Group_142839" data-name="Group 142839" transform="translate(2 2)">
      <rect id="Rectangle_44589" data-name="Rectangle 44589" width="25" height="100" transform="translate(125 50)" fill="#1cb15f"/>
      <path id="Path_210165" data-name="Path 210165" d="M59.414,22H73.807v92.441h-7.5A12.2,12.2,0,0,1,54.12,102.249V27.3a5.3,5.3,0,0,1,5.3-5.3Z" transform="translate(76.097 27.968)" fill="#27d674"/>
      <path id="Path_210166" data-name="Path 210166" d="M51.483,31.981h-7.5L48.984,2h-5L24,39.476H38.99l-2.5,24.984h2.5Z" transform="translate(30.965 -2)" fill="#fbcb00"/>
      <path id="Path_210167" data-name="Path 210167" d="M30,46.479,42.492,14h7.5L37.5,46.479Z" transform="translate(39.956 15.981)" fill="#ff9a01"/>
      <path id="Path_210168" data-name="Path 210168" d="M39.5,31.981,44.492,2H37L32,31.981Z" transform="translate(42.952 -2)" fill="#ff9a01"/>
      <path id="Path_210169" data-name="Path 210169" d="M66.492,37H56.5a2.5,2.5,0,0,1,0-5h9.994a2.5,2.5,0,0,1,0,5Z" transform="translate(75.917 42.952)" fill="#0f9452"/>
      <path id="Path_210170" data-name="Path 210170" d="M66.492,34H56.5a2.5,2.5,0,0,1,0-5h9.994a2.5,2.5,0,0,1,0,5Z" transform="translate(75.917 38.457)" fill="#0f9452"/>
      <path id="Path_210171" data-name="Path 210171" d="M66.492,31H56.5a2.5,2.5,0,0,1,0-5h9.994a2.5,2.5,0,0,1,0,5Z" transform="translate(75.917 33.962)" fill="#0f9452"/>
      <path id="Path_210172" data-name="Path 210172" d="M59,36h0a5,5,0,0,1,5,5V53.489H54V41A5,5,0,0,1,59,36Z" transform="translate(75.917 48.946)" fill="#1cb15f"/>
      <path id="Path_210173" data-name="Path 210173" d="M60,36h0a5,5,0,0,1,5,5V50.99H55V41A5,5,0,0,1,60,36Z" transform="translate(77.416 48.946)" fill="#52de90"/>
      <path id="Path_210174" data-name="Path 210174" d="M83.36,76.978H68.589a7.612,7.612,0,0,1-7.605-7.6V57.1a2.611,2.611,0,0,0-2.608-2.606H36v-5H58.376a7.612,7.612,0,0,1,7.605,7.6V69.375a2.611,2.611,0,0,0,2.608,2.606H83.36a2.611,2.611,0,0,0,2.608-2.606V42h5V69.375A7.612,7.612,0,0,1,83.36,76.978Z" transform="translate(48.946 57.937)" fill="#2b2e33"/>
      <g id="Group_142838" data-name="Group 142838" transform="translate(0 72.459)">
        <ellipse id="Ellipse_19" data-name="Ellipse 19" cx="1.372" cy="2.761" rx="1.372" ry="2.761" transform="matrix(0.335, -0.942, 0.942, 0.335, 3.427, 20.352)" fill="#f4dad7"/>
        <ellipse id="Ellipse_20" data-name="Ellipse 20" cx="1.896" cy="3.815" rx="1.896" ry="3.815" transform="translate(2.088 35.996) rotate(-21.445)" fill="#fff3d7"/>
        <g id="Group_142837" data-name="Group 142837">
          <path id="Path_210175" data-name="Path 210175" d="M54,56V68.489a2.5,2.5,0,0,1-2.5,2.5H36.51a2.5,2.5,0,0,1-2.5-2.5V61Z" transform="translate(45.967 6.458)" fill="#393a3a"/>
          <path id="Path_210176" data-name="Path 210176" d="M38.4,58.738a2.812,2.812,0,0,0-2.811,2.811v.187A2.812,2.812,0,0,0,38.4,64.547H51.605c0-.055.032-.1.032-.157V58.738Z" transform="translate(48.329 10.558)" fill="#4a4b4c"/>
          <path id="Path_210177" data-name="Path 210177" d="M2,56V68.489a2.5,2.5,0,0,0,2.5,2.5h14.99a2.5,2.5,0,0,0,2.5-2.5V61Z" transform="translate(-2 6.458)" fill="#393a3a"/>
          <path id="Path_210178" data-name="Path 210178" d="M2.357,57.943A14.977,14.977,0,0,1,6.39,50.6L16.99,40H86.976l10.6,10.6a14.99,14.99,0,0,1,4.39,10.6V79.979a5,5,0,0,1-5,5H7a5,5,0,0,1-5-5V61.2a15.084,15.084,0,0,1,.357-3.258" transform="translate(-2 -17.516)" fill="#6e1c22"/>
          <path id="Path_210179" data-name="Path 210179" d="M77.986,53.488,72.769,37.835A9.994,9.994,0,0,0,63.287,31H22.7a10,10,0,0,0-9.481,6.833L8,53.488Z" transform="translate(6.99 -31.002)" fill="#5490f5"/>
          <path id="Path_210180" data-name="Path 210180" d="M12.708,47.281,2,45.5V38H16.99v5Z" transform="translate(-2 -20.513)" fill="#92252d"/>
          <path id="Path_210181" data-name="Path 210181" d="M93.082,50.6,82.481,40H14.994l-5.6,5.6A14.973,14.973,0,0,0,5,56.2V74.979a5,5,0,0,0,5,5H97.471V61.2a15,15,0,0,0-4.39-10.6Z" transform="translate(2.495 -17.518)" fill="#92252d"/>
          <path id="Path_210182" data-name="Path 210182" d="M63.287,31H57.379L10.838,44.973,8,53.488H26.648L72.1,36.289A9.988,9.988,0,0,0,63.287,31Z" transform="translate(6.99 -31.002)" fill="#98bcf9"/>
          <path id="Path_210183" data-name="Path 210183" d="M6.364,58.738a2.812,2.812,0,0,0-2.811,2.811v.187a2.812,2.812,0,0,0,2.811,2.811H19.57c0-.055.032-.1.032-.157V58.738Z" transform="translate(0.327 10.558)" fill="#4a4b4c"/>
          <path id="Path_210184" data-name="Path 210184" d="M95.25,50.6,84.649,40H14.663L4.063,50.6c-.185.185-.335.395-.51.587l28.6,8.8v2.5H44.644l5,5,5-5H67.16v-2.5l28.617-8.8c-.175-.195-.342-.4-.527-.582Z" transform="translate(0.327 -17.518)" fill="#c3313c"/>
          <path id="Path_210185" data-name="Path 210185" d="M2.1,51.823a14.96,14.96,0,0,1,3.613-7.345l24.834,7.64-2.623,3.935a5,5,0,0,1-4.157,2.226H11.447A10,10,0,0,1,2.1,51.823Z" transform="translate(-1.853 -10.809)"/>
          <path id="Path_210186" data-name="Path 210186" d="M2.349,49.5a14.95,14.95,0,0,1,2.988-5.022L28.143,51.5l-.595.894a5,5,0,0,1-4.157,2.226H11.071A9.988,9.988,0,0,1,2.349,49.5Z" transform="translate(-1.477 -10.811)" fill="#ffc239"/>
          <path id="Path_210187" data-name="Path 210187" d="M15.69,38H2.868v2.916a2.842,2.842,0,0,0,2.376,2.806l6.711,1.119a3.193,3.193,0,0,0,2.783-.892h0a3.251,3.251,0,0,0,.952-2.3V38Z" transform="translate(-0.699 -20.513)" fill="#c3313c"/>
          <path id="Path_210188" data-name="Path 210188" d="M11,64,17,56a4.993,4.993,0,0,1,4-2H56a4.993,4.993,0,0,1,4,2L66,64Z" transform="translate(11.486 3.462)" fill="#393a3a"/>
          <path id="Path_210189" data-name="Path 210189" d="M61.874,62.5,56.253,55H25.485c-1.574,0-6.668.74-7.613,2L13.75,62.5Z" transform="translate(15.606 4.96)" fill="#4a4b4c"/>
          <rect id="Rectangle_44590" data-name="Rectangle 44590" width="10" height="5" rx="0.5" transform="translate(7 54.541)" fill="#63231b"/>
          <path id="Path_210190" data-name="Path 210190" d="M40.294,47.281,51,45.5V38H36.012v5Z" transform="translate(48.964 -20.513)" fill="#92252d"/>
          <path id="Path_210191" data-name="Path 210191" d="M34.907,48.185l22-9.624-1.339-4.02L19.929,48.185Z" transform="translate(24.865 -25.699)" fill="#98bcf9"/>
          <path id="Path_210192" data-name="Path 210192" d="M58.973,51.823a14.96,14.96,0,0,0-3.613-7.345l-24.834,7.64,2.623,3.935a5,5,0,0,0,4.157,2.226H49.624a10,10,0,0,0,9.349-6.456Z" transform="translate(40.744 -10.809)"/>
          <path id="Path_210193" data-name="Path 210193" d="M57.131,49.5a14.95,14.95,0,0,0-2.988-5.022L31.337,51.5l.595.894a5,5,0,0,0,4.157,2.226H48.406A9.988,9.988,0,0,0,57.128,49.5Z" transform="translate(41.959 -10.811)" fill="#ffc239"/>
          <path id="Path_210194" data-name="Path 210194" d="M36.844,38.093v1.929a2.169,2.169,0,0,0,.635,1.534l2.858,2.858a2.164,2.164,0,0,0,1.891.6l7.53-1.254V38H36.864c0,.032-.017.06-.017.09Z" transform="translate(50.211 -20.515)" fill="#c3313c"/>
          <rect id="Rectangle_44591" data-name="Rectangle 44591" width="9.994" height="4.997" rx="0.5" transform="translate(82.478 54.965)" fill="#63231b"/>
        </g>
      </g>
      <rect id="Rectangle_44592" data-name="Rectangle 44592" width="5" height="20" rx="1" transform="translate(135 105)" fill="#3f4349"/>
      <rect id="Rectangle_44593" data-name="Rectangle 44593" width="5" height="12" rx="1" transform="translate(110 115)" fill="#3f4349"/>
      <rect id="Rectangle_44594" data-name="Rectangle 44594" width="20" height="5" rx="1" transform="translate(115 130)" fill="#3f4349"/>
    </g>
  </g>
</svg>
