<svg xmlns="http://www.w3.org/2000/svg" width="150" height="125.981" viewBox="0 0 150 125.981">
  <g id="Layer_12" transform="translate(3.805 -34.473)">
    <g id="Group_142807" data-name="Group 142807" transform="translate(-3.805 34.473)">
      <g id="Group_142705" data-name="Group 142705" transform="translate(69.437 27.408)">
        <g id="Group_142704" data-name="Group 142704">
          <path id="Path_209950" data-name="Path 209950" d="M125.594,95.845a2.94,2.94,0,0,0-2.94,2.94v2.683h5.879V98.785a2.94,2.94,0,0,0-2.94-2.94Z" transform="translate(-122.654 -95.845)" fill="#80c2f9"/>
        </g>
      </g>
      <g id="Group_142707" data-name="Group 142707" transform="translate(79.465 19.22)">
        <g id="Group_142706" data-name="Group 142706" transform="translate(0 0)">
          <circle id="Ellipse_8" data-name="Ellipse 8" cx="24.942" cy="24.942" r="24.942" transform="translate(0 35.267) rotate(-45)" fill="#5290db"/>
        </g>
      </g>
      <g id="Group_142709" data-name="Group 142709" transform="translate(0 24.453)">
        <g id="Group_142708" data-name="Group 142708" transform="translate(0 0)">
          <circle id="Ellipse_9" data-name="Ellipse 9" cx="24.942" cy="24.942" r="24.942" transform="translate(0 11.473) rotate(-13.3)" fill="#5290db"/>
        </g>
      </g>
      <g id="Group_142711" data-name="Group 142711" transform="translate(42.615 33.03)">
        <g id="Group_142710" data-name="Group 142710">
          <path id="Path_209951" data-name="Path 209951" d="M121.175,127.525A24.924,24.924,0,0,1,133.4,106.071H73.871A24.94,24.94,0,0,1,74.956,148.3h57.357A24.913,24.913,0,0,1,121.175,127.525Z" transform="translate(-73.871 -106.071)" fill="#3a70bf"/>
        </g>
      </g>
      <g id="Group_142713" data-name="Group 142713" transform="translate(100.932 58.15)">
        <g id="Group_142712" data-name="Group 142712">
          <path id="Path_209952" data-name="Path 209952" d="M220.443,183.354l-1.827-31.6a24.941,24.941,0,0,1-38.474,17.107h-.019l8.981,21.674a16.3,16.3,0,0,0,31.339-7.182Z" transform="translate(-180.123 -151.755)" fill="#3a70bf"/>
        </g>
      </g>
      <g id="Group_142715" data-name="Group 142715" transform="translate(3.467 58.15)">
        <g id="Group_142714" data-name="Group 142714" transform="translate(0)">
          <path id="Path_209953" data-name="Path 209953" d="M42.829,168.861A24.941,24.941,0,0,1,4.355,151.754l-1.827,31.6a16.3,16.3,0,0,0,31.339,7.182l8.981-21.674Z" transform="translate(-2.5 -151.754)" fill="#3a70bf"/>
        </g>
      </g>
      <g id="Group_142717" data-name="Group 142717" transform="translate(18.736 22.732)">
        <g id="Group_142716" data-name="Group 142716">
          <path id="Path_209954" data-name="Path 209954" d="M49.812,88.757a24.965,24.965,0,0,0-16.573,0,4.443,4.443,0,0,0-2.97,4.187v3.9a24.925,24.925,0,0,1,22.513,0v-3.9A4.443,4.443,0,0,0,49.812,88.757Z" transform="translate(-30.269 -87.342)" fill="#80c2f9"/>
        </g>
      </g>
      <g id="Group_142719" data-name="Group 142719" transform="translate(103.535 22.732)">
        <g id="Group_142718" data-name="Group 142718">
          <path id="Path_209955" data-name="Path 209955" d="M204.332,88.757a24.965,24.965,0,0,0-16.573,0,4.443,4.443,0,0,0-2.97,4.187v3.9a24.925,24.925,0,0,1,22.513,0v-3.9a4.445,4.445,0,0,0-2.97-4.187Z" transform="translate(-184.789 -87.342)" fill="#80c2f9"/>
        </g>
      </g>
      <g id="Group_142721" data-name="Group 142721" transform="translate(109.891 38.775)">
        <g id="Group_142720" data-name="Group 142720">
          <circle id="Ellipse_10" data-name="Ellipse 10" cx="4.766" cy="4.766" r="4.766" fill="#f5c84c"/>
        </g>
      </g>
      <g id="Group_142723" data-name="Group 142723" transform="translate(110.171 60.661)">
        <g id="Group_142722" data-name="Group 142722">
          <circle id="Ellipse_11" data-name="Ellipse 11" cx="4.766" cy="4.766" r="4.766" fill="#87d147"/>
        </g>
      </g>
      <g id="Group_142725" data-name="Group 142725" transform="translate(99.104 49.858)">
        <g id="Group_142724" data-name="Group 142724">
          <circle id="Ellipse_12" data-name="Ellipse 12" cx="4.766" cy="4.766" r="4.766" fill="#70d6f9"/>
        </g>
      </g>
      <g id="Group_142727" data-name="Group 142727" transform="translate(120.931 49.578)">
        <g id="Group_142726" data-name="Group 142726">
          <circle id="Ellipse_13" data-name="Ellipse 13" cx="4.766" cy="4.766" r="4.766" fill="#fc657e"/>
        </g>
      </g>
      <g id="Group_142729" data-name="Group 142729" transform="translate(25.868 39.666)">
        <g id="Group_142728" data-name="Group 142728">
          <path id="Path_209956" data-name="Path 209956" d="M49.846,118.138h-4.9a1.635,1.635,0,0,0-1.635,1.635v4.981a1.637,1.637,0,0,0,.728,1.361l2.451,1.634a1.635,1.635,0,0,0,1.814,0l2.451-1.634a1.636,1.636,0,0,0,.728-1.361v-4.981a1.634,1.634,0,0,0-1.635-1.635Z" transform="translate(-43.308 -118.138)" fill="#80c2f9"/>
        </g>
      </g>
      <g id="Group_142731" data-name="Group 142731" transform="translate(25.869 59.417)">
        <g id="Group_142730" data-name="Group 142730">
          <path id="Path_209957" data-name="Path 209957" d="M50.754,155.967,48.3,154.333a1.635,1.635,0,0,0-1.814,0l-2.451,1.634a1.636,1.636,0,0,0-.728,1.361v4.981a1.636,1.636,0,0,0,1.635,1.635h4.9a1.636,1.636,0,0,0,1.635-1.635v-4.981a1.637,1.637,0,0,0-.729-1.361Z" transform="translate(-43.309 -154.058)" fill="#80c2f9"/>
        </g>
      </g>
      <g id="Group_142733" data-name="Group 142733" transform="translate(15.173 50.398)">
        <g id="Group_142732" data-name="Group 142732">
          <path id="Path_209958" data-name="Path 209958" d="M33.4,140.835l-1.634-2.451a1.636,1.636,0,0,0-1.361-.728H25.425a1.635,1.635,0,0,0-1.635,1.635v4.9a1.636,1.636,0,0,0,1.635,1.635h4.981a1.637,1.637,0,0,0,1.361-.728L33.4,142.65a1.636,1.636,0,0,0,0-1.815Z" transform="translate(-23.79 -137.656)" fill="#80c2f9"/>
        </g>
      </g>
      <g id="Group_142735" data-name="Group 142735" transform="translate(34.874 50.398)">
        <g id="Group_142734" data-name="Group 142734">
          <path id="Path_209959" data-name="Path 209959" d="M67.961,137.656H62.98a1.637,1.637,0,0,0-1.361.728l-1.634,2.451a1.635,1.635,0,0,0,0,1.814l1.634,2.451a1.636,1.636,0,0,0,1.361.728h4.981a1.636,1.636,0,0,0,1.635-1.635v-4.9A1.636,1.636,0,0,0,67.961,137.656Z" transform="translate(-59.711 -137.656)" fill="#80c2f9"/>
        </g>
      </g>
      <g id="Group_142737" data-name="Group 142737" transform="translate(68.29 62.316)">
        <g id="Group_142736" data-name="Group 142736">
          <path id="Path_209960" data-name="Path 209960" d="M127.806,159.332h-6.3a.935.935,0,0,0-.935.935v4.259a.935.935,0,0,0,.935.935h6.3a.935.935,0,0,0,.935-.935v-4.259A.936.936,0,0,0,127.806,159.332Z" transform="translate(-120.568 -159.332)" fill="#fc657e"/>
        </g>
      </g>
      <g id="Group_142739" data-name="Group 142739" transform="translate(58.415 33.03)">
        <g id="Group_142738" data-name="Group 142738">
          <path id="Path_209961" data-name="Path 209961" d="M102.608,106.071V108.4a5.859,5.859,0,0,0,5.842,5.842H124.69a5.859,5.859,0,0,0,5.842-5.842v-2.331Z" transform="translate(-102.608 -106.071)" fill="#5290db"/>
        </g>
      </g>
      <g id="Group_142741" data-name="Group 142741" transform="translate(84.79)">
        <g id="Group_142740" data-name="Group 142740">
          <path id="Path_209962" data-name="Path 209962" d="M160.718,50.884a6.1,6.1,0,0,1-4.893-4.793.11.11,0,0,0-.217,0,6.1,6.1,0,0,1-4.893,4.793.107.107,0,0,0,0,.213,6.1,6.1,0,0,1,4.893,4.793.11.11,0,0,0,.217,0,6.1,6.1,0,0,1,4.893-4.793A.107.107,0,0,0,160.718,50.884Z" transform="translate(-150.622 -46)" fill="#f5c84c"/>
        </g>
      </g>
      <g id="Group_142743" data-name="Group 142743" transform="translate(50.168 84.128)">
        <g id="Group_142742" data-name="Group 142742">
          <path id="Path_209963" data-name="Path 209963" d="M95.334,202.017H94.053v-1.281a1.736,1.736,0,1,0-3.472,0v1.281H89.3a1.736,1.736,0,0,0,0,3.472h1.281v1.281a1.736,1.736,0,0,0,3.472,0v-1.281h1.281a1.736,1.736,0,1,0,0-3.472Z" transform="translate(-87.564 -199)" fill="#70d6f9"/>
        </g>
      </g>
      <g id="Group_142745" data-name="Group 142745" transform="translate(95.228 14.431)">
        <g id="Group_142744" data-name="Group 142744">
          <path id="Path_209964" data-name="Path 209964" d="M171.479,72.246a1.857,1.857,0,1,0,1.857,1.857A1.857,1.857,0,0,0,171.479,72.246Z" transform="translate(-169.622 -72.246)" fill="#fc657e"/>
        </g>
      </g>
      <g id="Group_142747" data-name="Group 142747" transform="translate(44.711 98.56)">
        <g id="Group_142746" data-name="Group 142746" transform="translate(0 0)">
          <path id="Path_209965" data-name="Path 209965" d="M79.479,225.246a1.857,1.857,0,1,0,1.857,1.857A1.857,1.857,0,0,0,79.479,225.246Z" transform="translate(-77.622 -225.246)" fill="#f5c84c"/>
        </g>
      </g>
      <g id="Group_142749" data-name="Group 142749" transform="translate(56.791 21.58)">
        <g id="Group_142748" data-name="Group 142748">
          <path id="Path_209966" data-name="Path 209966" d="M101.479,85.246a1.857,1.857,0,1,0,1.857,1.857A1.857,1.857,0,0,0,101.479,85.246Z" transform="translate(-99.622 -85.246)" fill="#87d147"/>
        </g>
      </g>
      <g id="Group_142752" data-name="Group 142752" transform="translate(88.437 28.168)">
        <g id="Group_142751" data-name="Group 142751">
          <g id="Group_142750" data-name="Group 142750">
            <path id="Path_209967" data-name="Path 209967" d="M183.716,97.228a26.316,26.316,0,1,0,26.316,26.316A26.346,26.346,0,0,0,183.716,97.228Zm0,49.883a23.567,23.567,0,1,1,23.567-23.567A23.594,23.594,0,0,1,183.716,147.111Z" transform="translate(-157.4 -97.228)"/>
          </g>
        </g>
      </g>
      <g id="Group_142755" data-name="Group 142755" transform="translate(3.676 28.168)">
        <g id="Group_142754" data-name="Group 142754" transform="translate(0)">
          <g id="Group_142753" data-name="Group 142753">
            <path id="Path_209968" data-name="Path 209968" d="M29.2,97.228a26.316,26.316,0,1,0,26.316,26.316A26.346,26.346,0,0,0,29.2,97.228Zm0,49.883a23.567,23.567,0,1,1,23.567-23.567A23.594,23.594,0,0,1,29.2,147.111Z" transform="translate(-2.88 -97.228)"/>
          </g>
        </g>
      </g>
      <g id="Group_142757" data-name="Group 142757" transform="translate(41.312 31.656)">
        <g id="Group_142756" data-name="Group 142756">
          <path id="Path_209969" data-name="Path 209969" d="M132.122,103.571H72.875a1.375,1.375,0,0,0,0,2.749h59.247a1.375,1.375,0,1,0,0-2.749Z" transform="translate(-71.5 -103.571)"/>
        </g>
      </g>
      <g id="Group_142759" data-name="Group 142759" transform="translate(42.79 73.882)">
        <g id="Group_142758" data-name="Group 142758">
          <path id="Path_209970" data-name="Path 209970" d="M131.923,180.366H75.563a1.375,1.375,0,1,0,0,2.749h56.361a1.375,1.375,0,1,0,0-2.749Z" transform="translate(-74.188 -180.366)"/>
        </g>
      </g>
      <g id="Group_142761" data-name="Group 142761" transform="translate(61.139 48.683)">
        <g id="Group_142760" data-name="Group 142760">
          <path id="Path_209971" data-name="Path 209971" d="M110.958,134.537h-2.043a1.375,1.375,0,0,0,0,2.749h2.043a1.375,1.375,0,1,0,0-2.749Z" transform="translate(-107.54 -134.537)"/>
        </g>
      </g>
      <g id="Group_142763" data-name="Group 142763" transform="translate(78.822 48.683)">
        <g id="Group_142762" data-name="Group 142762">
          <path id="Path_209972" data-name="Path 209972" d="M143.162,134.537h-2.043a1.375,1.375,0,1,0,0,2.749h2.043a1.375,1.375,0,0,0,0-2.749Z" transform="translate(-139.744 -134.537)"/>
        </g>
      </g>
      <g id="Group_142765" data-name="Group 142765" transform="translate(99.682 56.869)">
        <g id="Group_142764" data-name="Group 142764">
          <path id="Path_209973" data-name="Path 209973" d="M220.791,182.226,218.97,150.72a1.375,1.375,0,0,0-2.745.159l1.822,31.506a14.929,14.929,0,0,1-28.7,6.576l-8.854-21.37a1.375,1.375,0,1,0-2.54,1.052l8.854,21.37a17.626,17.626,0,0,0,16.3,10.917,17.832,17.832,0,0,0,3.986-.453A17.63,17.63,0,0,0,220.791,182.226Z" transform="translate(-177.85 -149.425)"/>
        </g>
      </g>
      <g id="Group_142767" data-name="Group 142767" transform="translate(2.092 56.969)">
        <g id="Group_142766" data-name="Group 142766" transform="translate(0)">
          <path id="Path_209974" data-name="Path 209974" d="M42.095,166.995a1.375,1.375,0,0,0-1.8.744L31.47,189.044a14.929,14.929,0,0,1-28.7-6.576l1.816-31.407a1.374,1.374,0,1,0-2.744-.159L.029,182.309a17.631,17.631,0,0,0,13.7,18.253,17.828,17.828,0,0,0,3.986.453,17.628,17.628,0,0,0,16.3-10.917l8.828-21.305a1.375,1.375,0,0,0-.744-1.8Z" transform="translate(0.001 -149.607)"/>
        </g>
      </g>
      <g id="Group_142769" data-name="Group 142769" transform="translate(17.361 21.365)">
        <g id="Group_142768" data-name="Group 142768">
          <path id="Path_209975" data-name="Path 209975" d="M49.144,86.342a26.458,26.458,0,0,0-17.488,0,5.828,5.828,0,0,0-3.887,5.483v3.592a1.375,1.375,0,0,0,2.749,0V91.825a3.075,3.075,0,0,1,2.053-2.891,23.693,23.693,0,0,1,15.658,0,3.075,3.075,0,0,1,2.053,2.891v3.592a1.375,1.375,0,1,0,2.749,0V91.825A5.828,5.828,0,0,0,49.144,86.342Z" transform="translate(-27.769 -84.855)"/>
        </g>
      </g>
      <g id="Group_142771" data-name="Group 142771" transform="translate(102.159 21.365)">
        <g id="Group_142770" data-name="Group 142770">
          <path id="Path_209976" data-name="Path 209976" d="M203.663,86.342a26.458,26.458,0,0,0-17.488,0,5.828,5.828,0,0,0-3.887,5.483v3.443a1.375,1.375,0,1,0,2.749,0V91.825a3.075,3.075,0,0,1,2.053-2.891,23.694,23.694,0,0,1,15.658,0,3.075,3.075,0,0,1,2.053,2.891v3.351a1.375,1.375,0,0,0,2.749,0V91.825A5.827,5.827,0,0,0,203.663,86.342Z" transform="translate(-182.288 -84.855)"/>
        </g>
      </g>
      <g id="Group_142777" data-name="Group 142777" transform="translate(68.062 26.033)">
        <g id="Group_142776" data-name="Group 142776">
          <path id="Path_209979" data-name="Path 209979" d="M124.468,93.345a4.319,4.319,0,0,0-4.314,4.314v2.318a1.375,1.375,0,1,0,2.749,0V97.659a1.565,1.565,0,1,1,3.13,0v2.386a1.375,1.375,0,1,0,2.749,0V97.659a4.319,4.319,0,0,0-4.314-4.314Z" transform="translate(-120.154 -93.345)"/>
        </g>
      </g>
      <g id="Group_142780" data-name="Group 142780" transform="translate(108.516 37.4)">
        <g id="Group_142779" data-name="Group 142779" transform="translate(0)">
          <g id="Group_142778" data-name="Group 142778">
            <path id="Path_209980" data-name="Path 209980" d="M199.978,114.018a6.141,6.141,0,1,0,6.14,6.141A6.147,6.147,0,0,0,199.978,114.018Zm0,9.532a3.391,3.391,0,1,1,3.391-3.391A3.395,3.395,0,0,1,199.978,123.55Z" transform="translate(-193.838 -114.018)"/>
          </g>
        </g>
      </g>
      <g id="Group_142783" data-name="Group 142783" transform="translate(108.796 59.287)">
        <g id="Group_142782" data-name="Group 142782">
          <g id="Group_142781" data-name="Group 142781">
            <path id="Path_209981" data-name="Path 209981" d="M200.488,153.822a6.141,6.141,0,1,0,6.14,6.141,6.147,6.147,0,0,0-6.14-6.141Zm0,9.532a3.391,3.391,0,1,1,3.391-3.391A3.395,3.395,0,0,1,200.488,163.354Z" transform="translate(-194.348 -153.822)"/>
          </g>
        </g>
      </g>
      <g id="Group_142786" data-name="Group 142786" transform="translate(97.728 48.484)">
        <g id="Group_142785" data-name="Group 142785">
          <g id="Group_142784" data-name="Group 142784">
            <path id="Path_209982" data-name="Path 209982" d="M180.331,134.175a6.14,6.14,0,1,0,6.14,6.14,6.148,6.148,0,0,0-6.14-6.14Zm0,9.532a3.391,3.391,0,1,1,3.391-3.391A3.4,3.4,0,0,1,180.331,143.707Z" transform="translate(-174.19 -134.175)"/>
          </g>
        </g>
      </g>
      <g id="Group_142789" data-name="Group 142789" transform="translate(119.556 48.204)">
        <g id="Group_142788" data-name="Group 142788">
          <g id="Group_142787" data-name="Group 142787">
            <path id="Path_209983" data-name="Path 209983" d="M220.135,133.666a6.14,6.14,0,1,0,6.141,6.14,6.147,6.147,0,0,0-6.141-6.14Zm0,9.531a3.391,3.391,0,1,1,3.392-3.391A3.395,3.395,0,0,1,220.135,143.2Z" transform="translate(-213.995 -133.666)"/>
          </g>
        </g>
      </g>
      <g id="Group_142792" data-name="Group 142792" transform="translate(24.495 38.291)">
        <g id="Group_142791" data-name="Group 142791">
          <g id="Group_142790" data-name="Group 142790">
            <path id="Path_209984" data-name="Path 209984" d="M48.72,115.638h-4.9a3.013,3.013,0,0,0-3.01,3.01v4.981a3,3,0,0,0,1.341,2.5l2.451,1.634a3,3,0,0,0,3.34,0l2.451-1.634a3,3,0,0,0,1.341-2.5v-4.981a3.015,3.015,0,0,0-3.011-3.01Zm.261,7.991a.261.261,0,0,1-.116.217l-2.451,1.634a.261.261,0,0,1-.289,0l-2.451-1.634a.261.261,0,0,1-.116-.217v-4.981a.261.261,0,0,1,.261-.261h4.9a.261.261,0,0,1,.261.261v4.981Z" transform="translate(-40.808 -115.638)"/>
          </g>
        </g>
      </g>
      <g id="Group_142795" data-name="Group 142795" transform="translate(24.495 58.041)">
        <g id="Group_142794" data-name="Group 142794">
          <g id="Group_142793" data-name="Group 142793">
            <path id="Path_209985" data-name="Path 209985" d="M50.39,153.7l-2.451-1.634a3,3,0,0,0-3.339,0L42.148,153.7a3,3,0,0,0-1.34,2.5v4.981a3.013,3.013,0,0,0,3.01,3.01h4.9a3.014,3.014,0,0,0,3.01-3.01V156.2A3,3,0,0,0,50.39,153.7Zm-1.409,7.485a.261.261,0,0,1-.261.261h-4.9a.261.261,0,0,1-.261-.261V156.2a.261.261,0,0,1,.116-.217l2.451-1.634a.26.26,0,0,1,.289,0l2.451,1.634a.26.26,0,0,1,.116.217Z" transform="translate(-40.808 -151.556)"/>
          </g>
        </g>
      </g>
      <g id="Group_142798" data-name="Group 142798" transform="translate(13.799 49.023)">
        <g id="Group_142797" data-name="Group 142797" transform="translate(0)">
          <g id="Group_142796" data-name="Group 142796">
            <path id="Path_209986" data-name="Path 209986" d="M33.42,138.947,31.786,136.5a3,3,0,0,0-2.5-1.34H24.3a3.013,3.013,0,0,0-3.01,3.01v4.9a3.014,3.014,0,0,0,3.01,3.01h4.981a3,3,0,0,0,2.5-1.341l1.634-2.451A3,3,0,0,0,33.42,138.947Zm-2.287,1.815L29.5,143.213a.26.26,0,0,1-.217.116H24.3a.261.261,0,0,1-.261-.261v-4.9a.261.261,0,0,1,.261-.261h4.981a.261.261,0,0,1,.217.116l1.634,2.451A.261.261,0,0,1,31.133,140.762Z" transform="translate(-21.291 -135.156)"/>
          </g>
        </g>
      </g>
      <g id="Group_142801" data-name="Group 142801" transform="translate(33.499 49.023)">
        <g id="Group_142800" data-name="Group 142800">
          <g id="Group_142799" data-name="Group 142799">
            <path id="Path_209987" data-name="Path 209987" d="M66.835,135.156H61.854a3,3,0,0,0-2.5,1.341l-1.634,2.451a3,3,0,0,0,0,3.339l1.634,2.451a3,3,0,0,0,2.5,1.341h4.981a3.013,3.013,0,0,0,3.01-3.01v-4.9A3.014,3.014,0,0,0,66.835,135.156Zm.261,7.912a.261.261,0,0,1-.261.261H61.854a.261.261,0,0,1-.217-.116L60,140.762a.261.261,0,0,1,0-.289l1.634-2.451a.261.261,0,0,1,.217-.116h4.981a.261.261,0,0,1,.261.261v4.9Z" transform="translate(-57.208 -135.156)"/>
          </g>
        </g>
      </g>
      <g id="Group_142804" data-name="Group 142804" transform="translate(66.915 60.942)">
        <g id="Group_142803" data-name="Group 142803">
          <g id="Group_142802" data-name="Group 142802">
            <path id="Path_209988" data-name="Path 209988" d="M126.68,156.832h-6.3a2.313,2.313,0,0,0-2.31,2.31v4.26a2.313,2.313,0,0,0,2.31,2.31h6.3a2.313,2.313,0,0,0,2.31-2.31v-4.26a2.313,2.313,0,0,0-2.31-2.31Zm-.439,6.13h-5.423v-3.381h5.423Z" transform="translate(-118.068 -156.832)"/>
          </g>
        </g>
      </g>
      <g id="Group_142806" data-name="Group 142806" transform="translate(57.04 32.012)">
        <g id="Group_142805" data-name="Group 142805">
          <path id="Path_209989" data-name="Path 209989" d="M129.407,104.219a1.374,1.374,0,0,0-1.375,1.375v1.975a4.473,4.473,0,0,1-4.467,4.467H107.324a4.473,4.473,0,0,1-4.467-4.467v-1.889a1.375,1.375,0,0,0-2.749,0v1.889a7.224,7.224,0,0,0,7.216,7.216h16.241a7.224,7.224,0,0,0,7.216-7.216v-1.975A1.374,1.374,0,0,0,129.407,104.219Z" transform="translate(-100.108 -104.219)"/>
        </g>
      </g>
      <g id="Group_142808" data-name="Group 142808" transform="translate(84.79 116)">
        <g id="Group_142740-2" data-name="Group 142740">
          <path id="Path_209962-2" data-name="Path 209962" d="M160.718,50.884a6.1,6.1,0,0,1-4.893-4.793.11.11,0,0,0-.217,0,6.1,6.1,0,0,1-4.893,4.793.107.107,0,0,0,0,.213,6.1,6.1,0,0,1,4.893,4.793.11.11,0,0,0,.217,0,6.1,6.1,0,0,1,4.893-4.793A.107.107,0,0,0,160.718,50.884Z" transform="translate(-150.622 -46)" fill="#f5c84c"/>
        </g>
      </g>
    </g>
  </g>
</svg>
