<svg xmlns="http://www.w3.org/2000/svg" width="150" height="150" viewBox="0 0 150 150">
  <g id="Layer_x0020_1" transform="translate(-0.01 -0.11)">
    <g id="_1300654895616" transform="translate(0.01 23.297)">
      <path id="Path_209803" data-name="Path 209803" d="M210.635,423.8a1.483,1.483,0,0,1-.388-.053,1.466,1.466,0,0,1-1.028-1.8,35.442,35.442,0,0,0,.032-19.505,1.469,1.469,0,1,1,2.766-.992l.029.091c5.825-.637,23.008-1.2,23.645-.978a1.469,1.469,0,0,1,.887,1.876,35.734,35.734,0,0,0,.035,19.508A1.472,1.472,0,0,1,235.2,423.8c-.555,0-18.566.1-23.68-.294a1.477,1.477,0,0,1-.881.294Z" transform="translate(-147.915 -306.368)" fill="#4d494a" fill-rule="evenodd"/>
      <path id="Path_209804" data-name="Path 209804" d="M143.869,176.129H6.151A6.145,6.145,0,0,1,.01,169.991V85.228A6.145,6.145,0,0,1,6.151,79.09H143.869a6.145,6.145,0,0,1,6.141,6.138v84.763A6.145,6.145,0,0,1,143.869,176.129Z" transform="translate(-0.01 -79.09)" fill="#231f20" fill-rule="evenodd"/>
      <path id="Path_209805" data-name="Path 209805" d="M150.928,180.5a3.219,3.219,0,0,0,3.211-3.218V92.308a3.219,3.219,0,0,0-3.211-3.218H13.221a3.219,3.219,0,0,0-3.211,3.218v84.978a3.219,3.219,0,0,0,3.211,3.218Z" transform="translate(-7.074 -86.154)" fill="#eee" fill-rule="evenodd"/>
      <g id="Group_142531" data-name="Group 142531" transform="translate(0 78.966)">
        <path id="Path_209806" data-name="Path 209806" d="M143.869,366.983H6.151A6.153,6.153,0,0,1,.01,360.829V348.91h150v11.919a6.153,6.153,0,0,1-6.141,6.153Z" transform="translate(-0.01 -348.91)" fill="#231f20" fill-rule="evenodd"/>
        <path id="Path_209807" data-name="Path 209807" d="M205.187,482.241H154a6.161,6.161,0,0,1,0-12.321h51.188a6.161,6.161,0,0,1,0,12.321Z" transform="translate(-104.593 -434.394)" fill="#231f20" fill-rule="evenodd"/>
      </g>
    </g>
    <path id="Path_209808" data-name="Path 209808" d="M152.028,85.576a11.922,11.922,0,0,1-11.758-10.152,11.207,11.207,0,0,1-13.343-11.033,11.248,11.248,0,0,1,3.03-7.692A12.037,12.037,0,0,1,123.8,46.245a11.9,11.9,0,0,1,1.9-6.473,11.967,11.967,0,0,1,4.38-16.872A11.249,11.249,0,0,1,141.076,9.531a11.143,11.143,0,0,1,2.971.4,11.183,11.183,0,0,1,18.411-7.1,11.183,11.183,0,0,1,18.411,7.1,11.2,11.2,0,0,1,14.165,10.842,11.422,11.422,0,0,1-.2,2.123,11.978,11.978,0,0,1,4.38,16.875A11.965,11.965,0,0,1,194.967,56.7,11.236,11.236,0,0,1,184.6,75.415a11.84,11.84,0,0,1-22.139,3.946,11.893,11.893,0,0,1-10.431,6.215Z" transform="translate(-87.448 0)" fill="#f37374" fill-rule="evenodd"/>
    <g id="Group_142532" data-name="Group 142532" transform="translate(73.505 1.763)">
      <path id="Path_209809" data-name="Path 209809" d="M250.993,5.74a11.279,11.279,0,0,1,1.468,1.069,11.086,11.086,0,0,1,1.468-1.069l0,79.7a12.022,12.022,0,0,1-1.465-2.1,11.989,11.989,0,0,1-1.471,2.108l0-79.706Z" transform="translate(-250.99 -5.74)" fill="#c63434" fill-rule="evenodd"/>
      <path id="Path_209810" data-name="Path 209810" d="M304.932,187.033a1.473,1.473,0,0,1-1.274-.734l-3.831-6.638a1.468,1.468,0,0,1,2.542-1.468l3.831,6.638a1.468,1.468,0,0,1-1.268,2.2Z" transform="translate(-285.35 -127.047)" fill="#c63434" fill-rule="evenodd"/>
      <path id="Path_209811" data-name="Path 209811" d="M312.047,207.613a4.469,4.469,0,0,1-3.861-2.228,4.453,4.453,0,0,1,1.629-6.086,4.456,4.456,0,1,1,2.231,8.314Z" transform="translate(-290.971 -142.052)" fill="#c63434" fill-rule="evenodd"/>
      <path id="Path_209812" data-name="Path 209812" d="M288.038,187.033a1.468,1.468,0,0,1-1.271-2.2l3.834-6.638a1.468,1.468,0,0,1,2.542,1.468l-3.834,6.638A1.464,1.464,0,0,1,288.038,187.033Z" transform="translate(-276.124 -127.047)" fill="#c63434" fill-rule="evenodd"/>
      <path id="Path_209813" data-name="Path 209813" d="M275.759,207.613a4.458,4.458,0,1,1,3.86-2.228A4.449,4.449,0,0,1,275.759,207.613Z" transform="translate(-265.34 -142.052)" fill="#c63434" fill-rule="evenodd"/>
      <path id="Path_209814" data-name="Path 209814" d="M301.1,161.951a1.468,1.468,0,0,1-1.468-1.468v-7.665a1.468,1.468,0,0,1,2.936,0v7.665A1.468,1.468,0,0,1,301.1,161.951Z" transform="translate(-285.35 -108.602)" fill="#c63434" fill-rule="evenodd"/>
      <path id="Path_209815" data-name="Path 209815" d="M293.907,139.9a4.456,4.456,0,1,1,4.456-4.456A4.462,4.462,0,0,1,293.907,139.9Z" transform="translate(-278.159 -94.22)" fill="#c63434" fill-rule="evenodd"/>
      <path id="Path_209816" data-name="Path 209816" d="M319.454,79.956a1.279,1.279,0,0,1-.15-.006,1.467,1.467,0,0,1-1.312-1.609l.775-7.627a1.468,1.468,0,1,1,2.921.3l-.775,7.627A1.469,1.469,0,0,1,319.454,79.956Z" transform="translate(-298.316 -50.707)" fill="#c63434" fill-rule="evenodd"/>
      <path id="Path_209817" data-name="Path 209817" d="M315.93,58c-.15,0-.3-.009-.452-.023a4.456,4.456,0,0,1,.446-8.889c.15,0,.3.009.452.023A4.456,4.456,0,0,1,315.93,58Z" transform="translate(-293.715 -36.363)" fill="#c63434" fill-rule="evenodd"/>
      <path id="Path_209818" data-name="Path 209818" d="M304.491,87.521a1.454,1.454,0,0,1-.857-.276l-6.218-4.483a1.468,1.468,0,0,1,1.717-2.381l6.218,4.483a1.467,1.467,0,0,1-.86,2.657Z" transform="translate(-283.356 -58.272)" fill="#c63434" fill-rule="evenodd"/>
      <path id="Path_209819" data-name="Path 209819" d="M282.824,72.883a4.456,4.456,0,1,1,3.62-1.852A4.445,4.445,0,0,1,282.824,72.883Z" transform="translate(-270.332 -46.875)" fill="#c63434" fill-rule="evenodd"/>
      <path id="Path_209820" data-name="Path 209820" d="M322.6,105.3a1.466,1.466,0,0,1-1.339-.866l-3.141-6.993a1.468,1.468,0,0,1,2.677-1.2l3.141,6.993a1.468,1.468,0,0,1-1.339,2.07Z" transform="translate(-298.317 -69.057)" fill="#c63434" fill-rule="evenodd"/>
      <path id="Path_209821" data-name="Path 209821" d="M327.134,127.2a4.455,4.455,0,0,1-1.829-8.52,4.4,4.4,0,0,1,1.823-.393,4.456,4.456,0,1,1,.006,8.913Z" transform="translate(-301.628 -85.248)" fill="#c63434" fill-rule="evenodd"/>
    </g>
  </g>
</svg>
