<svg xmlns="http://www.w3.org/2000/svg" width="150" height="121.074" viewBox="0 0 150 121.074">
  <g id="logistic-2" transform="translate(3.158 -11)">
    <g id="Group_142834" data-name="Group 142834" transform="translate(1.326 81.158)">
      <circle id="Ellipse_17" data-name="Ellipse 17" cx="6.528" cy="6.528" r="6.528" transform="translate(6.528 37.861)" fill="#6c7e99"/>
      <circle id="Ellipse_18" data-name="Ellipse 18" cx="6.528" cy="6.528" r="6.528" transform="translate(56.139 37.861)" fill="#6c7e99"/>
      <path id="Path_210147" data-name="Path 210147" d="M66.277,53.944H50.61V43.5H1V87.888H76.721V67Z" transform="translate(-1 -43.5)" fill="#d98286"/>
      <path id="Path_210148" data-name="Path 210148" d="M66.277,53.944H50.61V43.5H45.388V77.444a5.222,5.222,0,0,1-5.222,5.222H1v5.222H76.721V67Z" transform="translate(-1 -43.5)" fill="#bf7376"/>
      <path id="Path_210149" data-name="Path 210149" d="M20,47.5H35.666L46.111,60.555V81.444H20Z" transform="translate(29.611 -37.056)" fill="#d9e1e6"/>
      <path id="Path_210150" data-name="Path 210150" d="M35.666,47.5H34.622l5.123,6.4a5.222,5.222,0,0,1,1.144,3.259V71a5.222,5.222,0,0,1-5.222,5.222H20v5.222H46.111V60.555Z" transform="translate(29.611 -37.056)" fill="#c0c8cc"/>
      <path id="Path_210151" data-name="Path 210151" d="M41.278,60.555H23V47.5h7.833Z" transform="translate(34.444 -37.056)" fill="#c9e6fb"/>
      <path id="Path_210158" data-name="Path 210158" d="M30.833,47.5H27.7l4.961,6.2a2.611,2.611,0,0,1-2.039,4.243H23v2.611H41.278Z" transform="translate(34.93 -37.227)" fill="#b0dcfb"/>
    </g>
    <g id="Group_142836" data-name="Group 142836" transform="translate(-3.158 11)">
      <path id="Path_210161" data-name="Path 210161" d="M29.687,17.15,11.135,3.5,18.77,1,44.956,12.157Z" transform="translate(10.106 -1)" fill="#7083a6"/>
      <path id="Path_210159" data-name="Path 210159" d="M101.4,8.311A17.724,17.724,0,0,0,83.278,3.924L58.062,12.157,31.876,1,24.241,3.5,42.78,17.15,19.886,24.641l-14.34-9.4L3,16.076l5.17,15.81a10.8,10.8,0,0,0,12.972,7.1l31.73-8.217L41.67,65.41l10.183-3.329L73.238,24.1l26.429-8.643A4.327,4.327,0,0,0,101.4,8.311Z" transform="translate(-3 -1)" fill="#8197bf"/>
      <path id="Path_210160" data-name="Path 210160" d="M95.467,3.04C84.628,10.09,62.384,18.312,36.044,24.375,25.1,26.892,14.633,28.764,5.212,29.981A10.768,10.768,0,0,0,17.578,35.7l31.73-8.217-11.2,34.644L48.29,58.794,69.674,20.811,96.1,12.168a4.327,4.327,0,0,0,1.729-7.144A17.445,17.445,0,0,0,95.467,3.04Z" transform="translate(0.563 2.287)" fill="#7083a6"/>
    </g>
    <g id="Group_142835" data-name="Group 142835" transform="translate(73.732 20.237)">
      <path id="Path_210162" data-name="Path 210162" d="M35,47.889s18.748,16.4,18.513,35.876c2.637-1.41,3.551-4.543,7.572-4.543,5.222,0,5.222,5.222,10.444,5.222s5.222-5.222,10.444-5.222c4.047,0,4.961,3.159,7.624,4.543-.235-19.479,18.513-35.876,18.513-35.876L71.555,27Z" transform="translate(-35 1.722)" fill="#758ba6"/>
      <path id="Path_210152" data-name="Path 210152" d="M45,16H65.889V36.889H45Z" transform="translate(-18.889 -16)" fill="#ffca5e"/>
      <path id="Path_210153" data-name="Path 210153" d="M41,24H61.889V44.889H41Z" transform="translate(-25.334 -3.111)" fill="#cd9f4c"/>
      <path id="Path_210156" data-name="Path 210156" d="M49,44.366v.522H69.889V24h-.522A26.134,26.134,0,0,1,49,44.366Z" transform="translate(-12.445 -3.111)" fill="#cc9d4b"/>
      <path id="Path_210157" data-name="Path 210157" d="M41,44.366v.522H61.889V24h-.522A26.134,26.134,0,0,1,41,44.366Z" transform="translate(-25.334 -3.111)" fill="#b38a42"/>
      <path id="Path_210155" data-name="Path 210155" d="M45,36.366v.522H65.889V16h-.522A26.134,26.134,0,0,1,45,36.366Z" transform="translate(-18.889 -16)" fill="#e6b655"/>
      <path id="Path_210154" data-name="Path 210154" d="M49,24H69.889V44.889H49Z" transform="translate(-12.445 -3.111)" fill="#e6b155"/>
      <path id="Path_210163" data-name="Path 210163" d="M49,27,85.555,47.889s-18.748,16.4-18.513,35.876c-2.663-1.384-3.577-4.543-7.624-4.543-5.222,0-5.222,5.2-10.418,5.222Z" transform="translate(-12.445 1.722)" fill="#63758c"/>
      <path id="Path_210164" data-name="Path 210164" d="M89.222,56.446a9.3,9.3,0,0,1-7.05-3.376c-1.279-1.279-1.909-1.846-3.374-1.846s-2.089.567-3.371,1.846a9.081,9.081,0,0,1-14.131,0c-1.279-1.279-1.909-1.846-3.374-1.846s-2.089.567-3.394,1.849a9.1,9.1,0,0,1-14.149,0C39.089,51.79,38.47,51.224,37,51.224V46a9.327,9.327,0,0,1,7.073,3.374c1.282,1.282,1.911,1.849,3.394,1.849s2.089-.567,3.381-1.849a9.094,9.094,0,0,1,14.142,0c1.279,1.279,1.906,1.846,3.374,1.846s2.089-.567,3.374-1.846a9.079,9.079,0,0,1,14.129,0c1.279,1.279,1.906,1.846,3.371,1.846s2.089-.567,3.374-1.846A9.306,9.306,0,0,1,99.666,46v5.222c-1.467,0-2.089.567-3.374,1.846a9.306,9.306,0,0,1-7.071,3.376Z" transform="translate(-31.778 32.331)" fill="#7cb2f8"/>
    </g>
  </g>
</svg>
