<svg xmlns="http://www.w3.org/2000/svg" width="150.002" height="160" viewBox="0 0 150.002 160">
  <g id="Page-1" transform="translate(0 0.005)">
    <g id="_009---Drone-Survyeing" data-name="009---Drone-Survyeing" transform="translate(0 -0.005)">
      <path id="Shape" d="M38.992,32.214l-17.92,23.3V82.251A8.036,8.036,0,0,1,5,82.251V55.518a16.216,16.216,0,0,1,3.321-9.8L23.375,26.161,34.465,26Z" transform="translate(8.393 40.471)" fill="#7f8c8d"/>
      <path id="Shape-2" data-name="Shape" d="M72.3,55.518V82.251a8.036,8.036,0,0,1-16.072,0V55.518l-17.92-23.3L42.837,26l11.089.161L68.98,45.715A16.216,16.216,0,0,1,72.3,55.518Z" transform="translate(64.308 40.471)" fill="#7f8c8d"/>
      <path id="Shape-3" data-name="Shape" d="M29.393,39V49.714H18.679A2.679,2.679,0,0,1,16,47.036V41.679A2.679,2.679,0,0,1,18.679,39Z" transform="translate(26.858 62.305)" fill="#464f5d"/>
      <path id="Shape-4" data-name="Shape" d="M48.393,41.679v5.357a2.679,2.679,0,0,1-2.679,2.679H35V39H45.714A2.679,2.679,0,0,1,48.393,41.679Z" transform="translate(58.752 62.305)" fill="#464f5d"/>
      <path id="Rectangle-path" d="M24,28H45.429V52.108H24Z" transform="translate(40.287 43.949)" fill="#464f5d"/>
      <path id="Shape-5" data-name="Shape" d="M115.082,20.393h-1.259V9.679A2.679,2.679,0,0,0,111.145,7H100.43a2.679,2.679,0,0,0-2.679,2.679V20.393H38.822V9.679A2.679,2.679,0,0,0,36.143,7H25.429A2.679,2.679,0,0,0,22.75,9.679V20.393H21.491A17.467,17.467,0,0,0,4,37.884c0,.429.027.857.054,1.259A17.478,17.478,0,0,0,15.143,54.2l9.911,3.857L40.67,64.108l10.607,4.125a5.4,5.4,0,0,0,1.955.375H83.341a5.4,5.4,0,0,0,1.955-.375L95.9,64.108l15.616-6.054,9.911-3.857A17.473,17.473,0,0,0,132.52,39.143c.027-.4.054-.83.054-1.259a17.478,17.478,0,0,0-17.491-17.491Z" transform="translate(6.714 9.085)" fill="#f0c419"/>
      <path id="Shape-6" data-name="Shape" d="M15.679,19.75A2.679,2.679,0,0,1,13,17.072V3.679a2.679,2.679,0,1,1,5.357,0V17.072A2.679,2.679,0,0,1,15.679,19.75Z" transform="translate(21.822 -0.987)" fill="#95a5a5"/>
      <path id="Shape-7" data-name="Shape" d="M43.679,19.75A2.679,2.679,0,0,1,41,17.072V3.679a2.679,2.679,0,1,1,5.357,0V17.072A2.679,2.679,0,0,1,43.679,19.75Z" transform="translate(68.823 -0.987)" fill="#95a5a5"/>
      <path id="Shape-8" data-name="Shape" d="M1,78.465,46.537,49h53.572l45.537,29.465Z" transform="translate(1.678 78.857)" fill="#fb7b76"/>
      <path id="Shape-9" data-name="Shape" d="M132.574,29.491c0,.429-.027.857-.054,1.259h-42.8a8.036,8.036,0,0,0-8.036-8.036H54.894a8.036,8.036,0,0,0-8.036,8.036H4.054c-.027-.4-.054-.83-.054-1.259A17.467,17.467,0,0,1,21.491,12h93.591a17.478,17.478,0,0,1,17.491,17.491Z" transform="translate(6.714 17.326)" fill="#f3d55b"/>
      <rect id="Rectangle-path-2" data-name="Rectangle-path" width="43" height="32" rx="2" transform="translate(54 90.484)" fill="#7f8c8d"/>
      <ellipse id="Oval" cx="13.5" cy="13" rx="13.5" ry="13" transform="translate(61 93.49)" fill="#35495e"/>
      <path id="Shape-10" data-name="Shape" d="M27.072,9.679V20.393H11V9.679A2.679,2.679,0,0,1,13.679,7H24.393A2.679,2.679,0,0,1,27.072,9.679Z" transform="translate(18.465 9.085)" fill="#464f5d"/>
      <path id="Shape-11" data-name="Shape" d="M35.872,11.723a2.411,2.411,0,0,1-.439-.038L3.289,6.328a2.679,2.679,0,1,1,.879-5.282l31.7,5.282,31.7-5.282a2.679,2.679,0,1,1,.879,5.282L36.311,11.685a2.411,2.411,0,0,1-.439.038Z" transform="translate(1.629 -0.995)" fill="#464f5d"/>
      <path id="Shape-12" data-name="Shape" d="M55.072,9.679V20.393H39V9.679A2.679,2.679,0,0,1,41.679,7H52.393A2.679,2.679,0,0,1,55.072,9.679Z" transform="translate(65.466 9.085)" fill="#464f5d"/>
      <path id="Shape-13" data-name="Shape" d="M63.872,11.723a2.411,2.411,0,0,1-.439-.038L31.289,6.328a2.679,2.679,0,1,1,.879-5.282l31.7,5.282,31.7-5.282a2.679,2.679,0,1,1,.879,5.282L64.311,11.685a2.411,2.411,0,0,1-.439.038Z" transform="translate(48.63 -0.995)" fill="#464f5d"/>
      <g id="Group_142823" data-name="Group 142823" transform="translate(0 125.127)">
        <path id="Shape-14" data-name="Shape" d="M2.679,76.341a2.679,2.679,0,0,1-1.457-4.926L30.686,52.343A2.679,2.679,0,1,1,33.6,56.838L4.13,75.91a2.652,2.652,0,0,1-1.452.431Z" transform="translate(0 -41.468)" fill="#e64c3c"/>
        <path id="Shape-15" data-name="Shape" d="M18.13,56.059a2.679,2.679,0,0,1-1.454-4.929l4.152-2.679a2.679,2.679,0,1,1,2.9,4.5L19.58,55.63a2.663,2.663,0,0,1-1.449.429Z" transform="translate(25.935 -47.972)" fill="#e64c3c"/>
        <path id="Shape-16" data-name="Shape" d="M61.913,67.746a2.657,2.657,0,0,1-1.452-.431l-8.277-5.357a2.679,2.679,0,1,1,2.909-4.495L63.37,62.82a2.679,2.679,0,0,1-1.457,4.926Z" transform="translate(85.411 -32.873)" fill="#e64c3c"/>
        <path id="Shape-17" data-name="Shape" d="M64.556,69.461A2.652,2.652,0,0,1,63.1,69.03L38.274,52.958a2.679,2.679,0,1,1,2.909-4.495L66.013,64.535a2.679,2.679,0,0,1-1.457,4.926Z" transform="translate(62.059 -47.981)" fill="#e64c3c"/>
        <path id="Shape-18" data-name="Shape" d="M29.679,79.465A2.679,2.679,0,0,1,27,76.786V52.679a2.679,2.679,0,1,1,5.357,0V76.786A2.679,2.679,0,0,1,29.679,79.465Z" transform="translate(45.323 -44.592)" fill="#e64c3c"/>
      </g>
      <path id="Shape-19" data-name="Shape" d="M62.858,24.036a8.036,8.036,0,0,1-8.036,8.036H28.036a8.036,8.036,0,1,1,0-16.072H54.822A8.036,8.036,0,0,1,62.858,24.036Z" transform="translate(33.572 23.99)" fill="#b19046"/>
      <ellipse id="Oval-2" data-name="Oval" cx="5" cy="6" rx="5" ry="6" transform="translate(70 100.504)" fill="#3b97d3"/>
    </g>
  </g>
</svg>
