<svg xmlns="http://www.w3.org/2000/svg" width="150" height="150" viewBox="0 0 150 150">
  <g id="port" transform="translate(-0.068 -0.068)">
    <path id="Path_210102" data-name="Path 210102" d="M88.589,22.389h63.84V13.242H92.438Z" transform="translate(-36.601 -5.456)" fill="#cecece"/>
    <path id="Path_210103" data-name="Path 210103" d="M184.6,146.864h40.916v35.965H184.6Z" transform="translate(-76.322 -60.72)" fill="#cecece"/>
    <g id="Group_142824" data-name="Group 142824" transform="translate(140.401 86.144)">
      <path id="Path_210104" data-name="Path 210104" d="M239.432,146.864h8.788v35.965h-8.788Z" transform="translate(-239.432 -146.864)" fill="#e2e2e2"/>
    </g>
    <path id="Path_210105" data-name="Path 210105" d="M104.11,157.026H1.568l9.139,23.116H81.262Z" transform="translate(-0.621 -64.931)" fill="#cecece"/>
    <g id="Group_142825" data-name="Group 142825" transform="translate(0.947 92.095)">
      <path id="Path_210106" data-name="Path 210106" d="M1.568,157.026l9.139,23.116H19.5l-9.139-23.116Z" transform="translate(-1.568 -157.026)" fill="#afafaf"/>
    </g>
    <path id="Path_210107" data-name="Path 210107" d="M59.25,136.7H11.3L6.861,148.61H63.687Z" transform="translate(-2.813 -56.529)" fill="#63bce7"/>
    <g id="Group_142826" data-name="Group 142826" transform="translate(4.048 80.174)">
      <path id="Path_210108" data-name="Path 210108" d="M11.3,136.7,6.861,148.61h8.788L20.086,136.7Z" transform="translate(-6.861 -136.703)" fill="#6377e7"/>
    </g>
    <path id="Path_210109" data-name="Path 210109" d="M58.149,122.132H23.767l-3.181,8.537H61.329Z" transform="translate(-8.497 -50.501)" fill="#63bce7"/>
    <g id="Group_142827" data-name="Group 142827" transform="translate(12.089 71.631)">
      <path id="Path_210110" data-name="Path 210110" d="M23.767,122.132l-3.181,8.537h8.788l3.181-8.537Z" transform="translate(-20.586 -122.132)" fill="#6377e7"/>
    </g>
    <g id="Group_142828" data-name="Group 142828" transform="translate(12.108 84.576)">
      <path id="Path_210111" data-name="Path 210111" d="M27.6,147.32H22.171a1.552,1.552,0,0,1,0-3.1H27.6a1.552,1.552,0,0,1,0,3.1Z" transform="translate(-20.619 -144.216)" fill="#f8af23"/>
      <path id="Path_210112" data-name="Path 210112" d="M45.771,147.32H40.338a1.552,1.552,0,0,1,0-3.1h5.433a1.552,1.552,0,0,1,0,3.1Z" transform="translate(-28.142 -144.216)" fill="#f8af23"/>
      <path id="Path_210113" data-name="Path 210113" d="M63.938,147.32H58.5a1.552,1.552,0,0,1,0-3.1h5.433a1.552,1.552,0,0,1,0,3.1Z" transform="translate(-35.666 -144.216)" fill="#f8af23"/>
      <path id="Path_210114" data-name="Path 210114" d="M82.1,147.32H76.671a1.552,1.552,0,0,1,0-3.1H82.1a1.552,1.552,0,0,1,0,3.1Z" transform="translate(-43.189 -144.216)" fill="#f8af23"/>
    </g>
    <path id="Path_210115" data-name="Path 210115" d="M30.743,108.065H38.43v8.242H30.743Z" transform="translate(-12.703 -44.682)" fill="#f87023"/>
    <path id="Path_210116" data-name="Path 210116" d="M3.891,192.861l4.424-4.422a7.932,7.932,0,0,1,11.213,0l1.14,1.14a7.932,7.932,0,0,0,11.213,0l1.14-1.14a7.932,7.932,0,0,1,11.213,0l1.14,1.14a7.932,7.932,0,0,0,11.213,0l1.14-1.14a7.932,7.932,0,0,1,11.213,0l1.14,1.14a7.932,7.932,0,0,0,11.213,0l1.14-1.14a7.932,7.932,0,0,1,11.213,0l1.14,1.14a7.932,7.932,0,0,0,11.213,0l1.14-1.14a7.932,7.932,0,0,1,11.213,0l1.14,1.14a7.932,7.932,0,0,0,11.213,0l1.14-1.14a7.932,7.932,0,0,1,11.213,0l4.424,4.422a7.921,7.921,0,0,1,2.322,5.6v20.829H1.568V198.464a7.921,7.921,0,0,1,2.323-5.6Z" transform="translate(-0.621 -76.953)" fill="#63bce7"/>
    <g id="Group_142829" data-name="Group 142829" transform="translate(132.449 109.168)">
      <path id="Path_210117" data-name="Path 210117" d="M240.279,192.863l-4.422-4.422a7.925,7.925,0,0,0-10-.99,7.948,7.948,0,0,1,1.209.99l4.422,4.422a7.924,7.924,0,0,1,2.321,5.6v20.829H242.6V198.466A7.919,7.919,0,0,0,240.279,192.863Z" transform="translate(-225.86 -186.122)" fill="#63e2e7"/>
    </g>
    <g id="Group_142830" data-name="Group 142830" transform="translate(0.947 109.168)">
      <path id="Path_210118" data-name="Path 210118" d="M12.678,192.863l4.422-4.422a7.942,7.942,0,0,1,1.209-.99,7.925,7.925,0,0,0-10,.99L3.89,192.863a7.924,7.924,0,0,0-2.321,5.6v20.829h8.788V198.466A7.919,7.919,0,0,1,12.678,192.863Z" transform="translate(-1.569 -186.122)" fill="#6377e7"/>
    </g>
    <g id="Group_142831" data-name="Group 142831" transform="translate(62.874 43.056)">
      <path id="Path_210119" data-name="Path 210119" d="M107.178,136.7h18.1V148.61h-18.1Z" transform="translate(-107.178 -99.599)" fill="#f8af23"/>
      <path id="Path_210120" data-name="Path 210120" d="M138.072,136.7h18.1V148.61h-18.1Z" transform="translate(-119.972 -99.599)" fill="#f8af23"/>
      <path id="Path_210121" data-name="Path 210121" d="M122.625,73.373h18.1V85.28h-18.1Z" transform="translate(-113.575 -73.373)" fill="#f8af23"/>
    </g>
    <path id="Path_210122" data-name="Path 210122" d="M208.912,40.528h12.423v62.3H208.912Z" transform="translate(-86.392 -16.73)" fill="#cecece"/>
    <path id="Path_210123" data-name="Path 210123" d="M215.116,40.528H223.9v62.3h-8.788Z" transform="translate(-88.961 -16.73)" fill="#e2e2e2"/>
    <path id="Path_210124" data-name="Path 210124" d="M197.553,1.568h25.733V24.393H197.553Z" transform="translate(-81.688 -0.621)" fill="#f46275"/>
    <g id="Group_142832" data-name="Group 142832" transform="translate(132.81 0.947)">
      <path id="Path_210125" data-name="Path 210125" d="M226.475,1.568h8.788V24.393h-8.788Z" transform="translate(-226.475 -1.568)" fill="#f48875"/>
    </g>
    <path id="Path_210126" data-name="Path 210126" d="M127.674,65.3h12.184v4.73H127.674Z" transform="translate(-52.793 -26.989)" fill="#63bce7"/>
    <path id="Path_210127" data-name="Path 210127" d="M241.475,13.242h7.591v9.147h-7.591Z" transform="translate(-99.877 -5.456)" fill="#e2e2e2"/>
    <g id="Group_142833" data-name="Group 142833" transform="translate(0.068 0.068)">
      <path id="Path_210128" data-name="Path 210128" d="M26.983,142.715H21.551a2.431,2.431,0,1,0,0,4.862h5.432a2.431,2.431,0,1,0,0-4.862Zm0,3.1H21.551a.673.673,0,0,1,0-1.346h5.432a.673.673,0,0,1,0,1.346Z" transform="translate(-7.958 -59.087)" fill="#3f3679"/>
      <path id="Path_210129" data-name="Path 210129" d="M45.15,142.715H39.717a2.431,2.431,0,1,0,0,4.862H45.15a2.431,2.431,0,1,0,0-4.862Zm0,3.1H39.717a.673.673,0,0,1,0-1.346H45.15a.673.673,0,0,1,0,1.346Z" transform="translate(-15.481 -59.087)" fill="#3f3679"/>
      <path id="Path_210130" data-name="Path 210130" d="M63.317,142.715H57.885a2.431,2.431,0,1,0,0,4.862h5.432a2.431,2.431,0,1,0,0-4.862Zm0,3.1H57.885a.673.673,0,0,1,0-1.346h5.432a.673.673,0,0,1,0,1.346Z" transform="translate(-22.983 -59.087)" fill="#3f3679"/>
      <path id="Path_210131" data-name="Path 210131" d="M81.484,142.715H76.051a2.431,2.431,0,1,0,0,4.862h5.433a2.431,2.431,0,1,0,0-4.862Zm0,3.1H76.051a.673.673,0,0,1,0-1.346h5.433a.673.673,0,0,1,0,1.346Z" transform="translate(-30.498 -59.087)" fill="#3f3679"/>
      <path id="Path_210132" data-name="Path 210132" d="M135.378,202.631l-1.14,1.14a7.061,7.061,0,0,1-9.97,0l-1.14-1.14a8.812,8.812,0,0,0-12.457,0l-1.14,1.14a7.053,7.053,0,0,1-9.97,0l-1.14-1.14a8.823,8.823,0,0,0-12.457,0l-1.14,1.14a7.062,7.062,0,0,1-9.97,0l-1.14-1.14a8.823,8.823,0,0,0-12.457,0l-1.14,1.14a7.053,7.053,0,0,1-9.97,0L49,202.631a8.812,8.812,0,0,0-12.457,0l-1.14,1.14a7.061,7.061,0,0,1-9.97,0l-1.14-1.14a8.823,8.823,0,0,0-12.457,0,.879.879,0,1,0,1.244,1.243,7.061,7.061,0,0,1,9.97,0l1.14,1.14a8.823,8.823,0,0,0,12.457,0l1.14-1.14a7.062,7.062,0,0,1,9.97,0l1.14,1.14a8.823,8.823,0,0,0,12.457,0l1.14-1.14a7.053,7.053,0,0,1,9.97,0l1.14,1.14a8.822,8.822,0,0,0,12.457,0l1.14-1.14a7.053,7.053,0,0,1,9.97,0l1.14,1.14a8.823,8.823,0,0,0,12.457,0l1.14-1.14a7.062,7.062,0,0,1,9.97,0l1.14,1.14a8.823,8.823,0,0,0,12.457,0l1.14-1.14a7.061,7.061,0,0,1,9.97,0,.879.879,0,1,0,1.244-1.243A8.823,8.823,0,0,0,135.378,202.631Z" transform="translate(-4.836 -82.808)" fill="#3f3679"/>
      <path id="Path_210133" data-name="Path 210133" d="M135.378,219.115l-1.14,1.14a7.061,7.061,0,0,1-9.97,0l-1.14-1.14a8.812,8.812,0,0,0-12.457,0l-1.14,1.14a7.053,7.053,0,0,1-9.97,0l-1.14-1.14a8.823,8.823,0,0,0-12.457,0l-1.14,1.14a7.062,7.062,0,0,1-9.97,0l-1.14-1.14a8.823,8.823,0,0,0-12.457,0l-1.14,1.14a7.053,7.053,0,0,1-9.97,0L49,219.115a8.812,8.812,0,0,0-12.457,0l-1.14,1.14a7.061,7.061,0,0,1-9.97,0l-1.14-1.14a8.823,8.823,0,0,0-12.457,0,.879.879,0,0,0,1.244,1.243,7.061,7.061,0,0,1,9.97,0l1.14,1.14a8.823,8.823,0,0,0,12.457,0l1.14-1.14a7.062,7.062,0,0,1,9.97,0l1.14,1.14a8.823,8.823,0,0,0,12.457,0l1.14-1.14a7.053,7.053,0,0,1,9.97,0l1.14,1.14a8.822,8.822,0,0,0,12.457,0l1.14-1.14a7.053,7.053,0,0,1,9.97,0l1.14,1.14a8.823,8.823,0,0,0,12.457,0l1.14-1.14a7.062,7.062,0,0,1,9.97,0l1.14,1.14a8.823,8.823,0,0,0,12.457,0l1.14-1.14a7.061,7.061,0,0,1,9.97,0,.879.879,0,0,0,1.244-1.243A8.823,8.823,0,0,0,135.378,219.115Z" transform="translate(-4.836 -89.618)" fill="#3f3679"/>
      <path id="Path_210134" data-name="Path 210134" d="M131.454,77.638a.878.878,0,0,0-.879.879v5.152a.879.879,0,0,0,1.758,0V78.517A.879.879,0,0,0,131.454,77.638Z" transform="translate(-54.065 -32.161)" fill="#3f3679"/>
      <path id="Path_210135" data-name="Path 210135" d="M137.451,77.638a.878.878,0,0,0-.879.879v5.152a.879.879,0,0,0,1.758,0V78.517A.879.879,0,0,0,137.451,77.638Z" transform="translate(-56.546 -32.161)" fill="#3f3679"/>
      <path id="Path_210136" data-name="Path 210136" d="M143.448,77.638a.878.878,0,0,0-.879.879v5.152a.879.879,0,0,0,1.758,0V78.517A.879.879,0,0,0,143.448,77.638Z" transform="translate(-59.027 -32.161)" fill="#3f3679"/>
      <path id="Path_210137" data-name="Path 210137" d="M116.007,140.968a.878.878,0,0,0-.879.879V147a.879.879,0,1,0,1.758,0v-5.151a.878.878,0,0,0-.879-.879Z" transform="translate(-47.674 -58.363)" fill="#3f3679"/>
      <path id="Path_210138" data-name="Path 210138" d="M122,140.968a.878.878,0,0,0-.879.879V147a.879.879,0,1,0,1.758,0v-5.151a.878.878,0,0,0-.879-.879Z" transform="translate(-50.155 -58.363)" fill="#3f3679"/>
      <path id="Path_210139" data-name="Path 210139" d="M128,140.968a.878.878,0,0,0-.879.879V147a.879.879,0,1,0,1.758,0v-5.151a.878.878,0,0,0-.879-.879Z" transform="translate(-52.636 -58.363)" fill="#3f3679"/>
      <path id="Path_210140" data-name="Path 210140" d="M146.9,147.877a.878.878,0,0,0,.879-.879v-5.151a.879.879,0,0,0-1.758,0V147a.878.878,0,0,0,.879.879Z" transform="translate(-60.456 -58.363)" fill="#3f3679"/>
      <path id="Path_210141" data-name="Path 210141" d="M152.9,147.877a.878.878,0,0,0,.879-.879v-5.151a.879.879,0,0,0-1.758,0V147a.878.878,0,0,0,.879.879Z" transform="translate(-62.937 -58.363)" fill="#3f3679"/>
      <path id="Path_210142" data-name="Path 210142" d="M158.895,147.877a.878.878,0,0,0,.879-.879v-5.151a.879.879,0,0,0-1.758,0V147a.878.878,0,0,0,.879.879Z" transform="translate(-65.418 -58.363)" fill="#3f3679"/>
      <path id="Path_210143" data-name="Path 210143" d="M12.184,252.932H.947a.879.879,0,1,0,0,1.758H12.183a.879.879,0,0,0,0-1.758Z" transform="translate(-0.068 -104.69)" fill="#3f3679"/>
      <path id="Path_210144" data-name="Path 210144" d="M245.868,252.932H234.632a.879.879,0,1,0,0,1.758h11.237a.879.879,0,1,0,0-1.758Z" transform="translate(-96.747 -104.69)" fill="#3f3679"/>
      <path id="Path_210145" data-name="Path 210145" d="M144.028,252.932H30.991a.879.879,0,1,0,0,1.758H144.028a.879.879,0,1,0,0-1.758Z" transform="translate(-12.509 -104.69)" fill="#3f3679"/>
      <path id="Path_210146" data-name="Path 210146" d="M141.593,24.667a.879.879,0,0,0,.879-.879V17.824h6.717a.879.879,0,0,0,.879-.879V7.791a.879.879,0,0,0-.879-.879h-6.717V.947a.879.879,0,0,0-.879-.879H115.843a.879.879,0,0,0-.879.879V6.912H55.816a.879.879,0,0,0-.81.538L51.154,16.6a.879.879,0,0,0,.811,1.221h28.13V37.431H74.878a.879.879,0,0,0-.879.879v3.854H71.918a.879.879,0,0,0-.879.879V54.958a.879.879,0,0,0,.879.879H90.03a.879.879,0,0,0,.879-.879V43.045a.879.879,0,0,0-.879-.879H87.949V38.311a.879.879,0,0,0-.879-.879H81.853V17.824h33.111v5.964a.879.879,0,0,0,.879.879h5.78V85.25H108.248a.879.879,0,0,0-.879.879v23.536a8.786,8.786,0,0,0-1.468,1.178l-1.14,1.14a7.057,7.057,0,0,1-9.969,0l-1.14-1.14A8.747,8.747,0,0,0,88.7,108.37l15.483-15.665a.88.88,0,0,0-.626-1.5h-3.59V80.172a.879.879,0,0,0-.879-.879H62.862a.879.879,0,0,0-.879.879V91.207h-.459L57.3,79.865a.879.879,0,0,0-.824-.572h-3l-2.97-7.97a.879.879,0,0,0-.824-.572H26.623V63.382a.879.879,0,0,0-.879-.879H18.052a.879.879,0,0,0-.879.879V70.75H15.28a.88.88,0,0,0-.824.572l-2.97,7.97h-3a.88.88,0,0,0-.824.572L3.44,91.207H.947a.88.88,0,0,0-.818,1.2l7.2,18.2c-.084.077-.172.148-.254.229l-4.424,4.425A8.751,8.751,0,0,0,.068,121.5V142.34a.879.879,0,0,0,.879.879H149.188a.879.879,0,0,0,.879-.879V86.129a.879.879,0,0,0-.879-.879H135.812V24.667ZM89.149,54.08H72.8V43.924H89.149Zm-2.96-11.914H75.756V39.191H86.189Zm62.12-33.495v7.394h-5.837V8.671ZM53.288,16.065,56.4,8.671h58.565v7.394Zm63.435.879V1.827h23.99V22.908h-23.99ZM98.2,91.207H81.852V81.051H98.2ZM63.741,81.052H80.093V91.208H63.741ZM18.931,64.262h5.933v6.488H18.931Zm-3.04,8.247H49.072L51.6,79.293H13.363ZM9.1,81.052h46.76l3.784,10.156H5.317ZM2.241,92.966h99.207l-15.125,15.3a.883.883,0,0,0-.055.083,8.752,8.752,0,0,0-5.075,2.491l-1.14,1.14a7.058,7.058,0,0,1-9.97,0l-1.14-1.14a8.818,8.818,0,0,0-12.457,0l-1.14,1.14a7.057,7.057,0,0,1-9.969,0l-1.14-1.14a8.818,8.818,0,0,0-12.457,0l-1.14,1.14a7.057,7.057,0,0,1-9.969,0l-1.14-1.14A8.815,8.815,0,0,0,8.787,109.52ZM1.827,141.46V121.5a7.005,7.005,0,0,1,2.065-4.985l4.424-4.425a7.057,7.057,0,0,1,9.969,0l1.14,1.14a8.818,8.818,0,0,0,12.457,0l1.14-1.14a7.058,7.058,0,0,1,9.97,0l1.14,1.14a8.807,8.807,0,0,0,12.457,0l1.14-1.14a7.057,7.057,0,0,1,9.969,0l1.14,1.14a8.818,8.818,0,0,0,12.457,0l1.14-1.14a7.057,7.057,0,0,1,9.969,0l1.14,1.14a8.807,8.807,0,0,0,12.457,0l1.14-1.14a7.058,7.058,0,0,1,9.97,0l1.14,1.14a8.818,8.818,0,0,0,12.457,0l1.14-1.14a7.057,7.057,0,0,1,9.969,0l4.424,4.425a7,7,0,0,1,2.065,4.985v19.964H1.827Zm146.482-25.229a8.839,8.839,0,0,0-.821-.962l-4.424-4.425a8.818,8.818,0,0,0-12.457,0l-1.14,1.14a7.057,7.057,0,0,1-9.969,0l-1.14-1.14a8.812,8.812,0,0,0-9.23-2.042V87.009H148.31v29.222ZM134.054,85.25H123.382V24.667h10.672Z" transform="translate(-0.068 -0.068)" fill="#3f3679"/>
    </g>
  </g>
</svg>
