<svg xmlns="http://www.w3.org/2000/svg" width="150" height="169.651" viewBox="0 0 150 169.651">
  <g id="regulation-2" transform="translate(-29.779 0)">
    <g id="Group_142881" data-name="Group 142881" transform="translate(29.779 -0.001)">
      <path id="Path_210300" data-name="Path 210300" d="M264.213,182.366V90.86a28.789,28.789,0,0,0-28.789-28.789H186c-19.979,0-25.977,14.559-25.977,26.215v96.653c0,11.657,6,26.215,25.977,26.215h22.948s46.936-6.106,51.807-15.1A28.657,28.657,0,0,0,264.213,182.366Z" transform="translate(-116.783 -41.504)" fill="#665f75"/>
      <path id="Path_210301" data-name="Path 210301" d="M130.375,184.939V88.286a28.787,28.787,0,0,1,16.894-26.215h-16.38A28.789,28.789,0,0,0,102.1,90.86v91.505a28.789,28.789,0,0,0,28.789,28.789h16.38a28.788,28.788,0,0,1-16.894-26.215Z" transform="translate(-78.117 -41.504)" fill="#585465"/>
      <path id="Path_210302" data-name="Path 210302" d="M266.042,210.023V118.514a15.08,15.08,0,0,0-15.08-15.08H200.9c-8.8,0-17.639,7.03-17.639,11.824v98.021c0,4.794,8.7,11.824,17.639,11.824h50.061a15.08,15.08,0,0,0,15.08-15.08Z" transform="translate(-132.322 -69.161)" fill="#f0edff"/>
      <path id="Path_210303" data-name="Path 210303" d="M168.57,213.279V115.258a15.049,15.049,0,0,1,5.726-11.824H158.554a15.08,15.08,0,0,0-15.08,15.08v91.509a15.08,15.08,0,0,0,15.08,15.08H174.3a15.049,15.049,0,0,1-5.726-11.824Z" transform="translate(-105.775 -69.161)" fill="#d5d4ff"/>
      <path id="Path_210304" data-name="Path 210304" d="M272.5,20.567a12.851,12.851,0,0,0-12.6-10.285h-4.309A2.582,2.582,0,0,1,253.266,8.8a15.426,15.426,0,0,0-27.856,0,2.583,2.583,0,0,1-2.327,1.485h-.5c-11.066,1.885-9.467,25.3,2.011,25.7h35.3a12.859,12.859,0,0,0,12.6-15.419Z" transform="translate(-153.627 0.001)" fill="#f9996e"/>
      <path id="Path_210305" data-name="Path 210305" d="M204.088,31.03h-3.812a12.852,12.852,0,1,0,0,25.7H206.1c-2.54-3.445-4.166-8.714-4.166-14.623A28.037,28.037,0,0,1,204.088,31.03Z" transform="translate(-135.152 -20.748)" fill="#f38054"/>
      <circle id="Ellipse_35" data-name="Ellipse 35" cx="5.141" cy="5.141" r="5.141" transform="translate(80.562 10.282)" fill="#585465"/>
      <path id="Path_210306" data-name="Path 210306" d="M363.5,418.909h-9.4c-10.187,0-13.234,5.96-13.234,11.056v8.679h33.987v-8.387A11.35,11.35,0,0,0,363.5,418.909Z" transform="translate(-237.701 -280.103)" fill="#fb8798"/>
      <path id="Path_210307" data-name="Path 210307" d="M339.687,418.909H330.66a11.346,11.346,0,0,0-11.348,11.348v8.387h12.852v-8.679a11.726,11.726,0,0,1,7.522-11.056Z" transform="translate(-223.314 -280.103)" fill="#fb6276"/>
      <path id="Path_210308" data-name="Path 210308" d="M364.135,466.693a9,9,0,0,0-9-9H317.188c-9.089,0-11.57,4.851-11.57,9s2.224,9,11.569,9h37.951A9,9,0,0,0,364.135,466.693Z" transform="translate(-214.135 -306.039)" fill="#727beb"/>
      <path id="Path_210309" data-name="Path 210309" d="M294.4,466.693a9.526,9.526,0,0,1,6-9H289.52a9,9,0,1,0,0,17.993h10.887A9.52,9.52,0,0,1,294.4,466.693Z" transform="translate(-197.386 -306.039)" fill="#5a6cd9"/>
      <circle id="Ellipse_36" data-name="Ellipse 36" cx="5.141" cy="5.141" r="5.141" transform="translate(80.562 10.282)" fill="#585465"/>
      <path id="Path_210310" data-name="Path 210310" d="M132.72,340.189l0,0,14.95-14.953-8.732-8.732c-4.26-4.259-24.907,16.388-20.647,20.647C121.474,341.594,127.987,343.694,132.72,340.189Z" transform="translate(-88.56 -211.247)" fill="#fce299"/>
      <path id="Path_210311" data-name="Path 210311" d="M136.263,305.944l-5.81-5.81L115.5,315.087a9.877,9.877,0,0,0,.116,11.5Z" transform="translate(-85.884 -200.684)" fill="#fdcd64"/>
      <path id="Path_210312" data-name="Path 210312" d="M53.56,398.114c5.037-5.038,17.883-17.881,26.589-26.586l-8.735-8.733-6.646.657L41.833,386.387c-2.983,2.983-4.538,8.793.694,14.025a10.288,10.288,0,0,0,11.033-2.3Z" transform="translate(-36.006 -242.583)" fill="#f38054"/>
      <path id="Path_210313" data-name="Path 210313" d="M38.6,377.659l26.586-26.586-5.81-5.809L32.792,371.85a10.281,10.281,0,0,0,3.509,16.84A10.281,10.281,0,0,1,38.6,377.659Z" transform="translate(-29.779 -230.861)" fill="#e56948"/>
      <path id="Path_210314" data-name="Path 210314" d="M178.056,226.432c-9.875-6.314-32.837,17.906-25.777,32.387l26.77,26.77,29.084-29.081Z" transform="translate(-110.765 -150.715)" fill="#f38054"/>
      <path id="Path_210315" data-name="Path 210315" d="M147.659,202.108l-13.082-13.082-29.084,29.081L121.882,234.5C127.521,222.407,137.3,210.435,147.659,202.108Z" transform="translate(-80.386 -126.392)" fill="#e56948"/>
      <path id="Path_210316" data-name="Path 210316" d="M253.275,296.817a7.712,7.712,0,0,1,0,10.906L224.194,336.8A7.712,7.712,0,1,1,213.288,325.9l29.084-29.081A7.705,7.705,0,0,1,253.275,296.817Z" transform="translate(-150.926 -196.956)" fill="#f9996e"/>
      <path id="Path_210317" data-name="Path 210317" d="M121.627,165.166a7.72,7.72,0,0,1,0,10.906L92.543,205.152a7.712,7.712,0,1,1-10.906-10.906c1.83-1.831,13.5-13.5,29.084-29.081A7.71,7.71,0,0,1,121.627,165.166Z" transform="translate(-62.945 -108.927)" fill="#f38054"/>
      <path id="Path_210318" data-name="Path 210318" d="M205.325,291.421a2.563,2.563,0,0,1-1.818-.754l-3.633-3.637a2.571,2.571,0,1,1,3.637-3.634l3.633,3.637a2.571,2.571,0,0,1-1.818,4.387Z" transform="translate(-142.977 -188.99)" fill="#e56948"/>
      <path id="Path_210319" data-name="Path 210319" d="M360.672,349.044a2.571,2.571,0,0,1-1.151-4.87l5.141-2.571a2.57,2.57,0,0,1,2.3,4.6l-5.141,2.571A2.567,2.567,0,0,1,360.672,349.044Z" transform="translate(-249.245 -228.231)" fill="#7be3fe"/>
      <path id="Path_210320" data-name="Path 210320" d="M365.811,385.261h-5.141a2.571,2.571,0,0,1,0-5.141h5.141a2.571,2.571,0,1,1,0,5.141Z" transform="translate(-249.246 -254.167)" fill="#7be3fe"/>
      <g id="Group_142880" data-name="Group 142880" transform="translate(78.003 53.98)">
        <path id="Path_210321" data-name="Path 210321" d="M303.566,168.049H267.58a2.571,2.571,0,0,1,0-5.141h35.987a2.571,2.571,0,1,1,0,5.141Z" transform="translate(-265.009 -162.908)" fill="#d5d4ff"/>
        <path id="Path_210322" data-name="Path 210322" d="M303.566,206.837H267.58a2.571,2.571,0,0,1,0-5.141h35.987a2.571,2.571,0,1,1,0,5.141Z" transform="translate(-265.009 -188.844)" fill="#d5d4ff"/>
        <path id="Path_210323" data-name="Path 210323" d="M339.876,245.625H321.883a2.571,2.571,0,1,1,0-5.141h17.993a2.571,2.571,0,1,1,0,5.141Z" transform="translate(-301.319 -214.779)" fill="#d5d4ff"/>
      </g>
    </g>
  </g>
</svg>
