<svg id="smart-house" xmlns="http://www.w3.org/2000/svg" width="150" height="150" viewBox="0 0 150 150">
  <path id="Path_210272" data-name="Path 210272" d="M424.732,50.928a4.526,4.526,0,1,1-4.526-4.526A4.527,4.527,0,0,1,424.732,50.928Zm0,0" transform="translate(-293.89 -32.812)" fill="#ffd659"/>
  <path id="Path_210273" data-name="Path 210273" d="M421.621,45.625a6.723,6.723,0,1,0-8.919,6.352v13.85a2.2,2.2,0,0,0,4.393,0V51.977A6.734,6.734,0,0,0,421.621,45.625ZM414.9,47.954a2.329,2.329,0,1,1,2.329-2.329A2.332,2.332,0,0,1,414.9,47.954Zm0,0" transform="translate(-288.584 -27.509)" fill="#484b63"/>
  <path id="Path_210274" data-name="Path 210274" d="M164.3,83.162v89.266H34.512V83.162L99.4,38.117l55.837,38.76Zm0,0" transform="translate(-24.404 -26.953)" fill="#cfe0e9"/>
  <path id="Path_210275" data-name="Path 210275" d="M455.634,176.7v84.71h-9.052V170.414Zm0,0" transform="translate(-315.742 -120.458)" fill="#abbfcf"/>
  <path id="Path_210276" data-name="Path 210276" d="M224.634,339.928H180.281v-63.7a1.172,1.172,0,0,1,1.172-1.172h42.01a1.172,1.172,0,0,1,1.172,1.172Zm0,0" transform="translate(-127.458 -194.454)" fill="#7fcbca"/>
  <path id="Path_210277" data-name="Path 210277" d="M207.066,358.869V303.015a1.171,1.171,0,0,1,1.172-1.172h26.32a1.172,1.172,0,0,1,1.172,1.172v55.853Zm0,0" transform="translate(-146.398 -213.395)" fill="#50536e"/>
  <path id="Path_210278" data-name="Path 210278" d="M274.027,358.869V301.844h7.88a1.172,1.172,0,0,1,1.172,1.172v55.853Zm0,0" transform="translate(-193.744 -213.395)" fill="#484b63"/>
  <path id="Path_210279" data-name="Path 210279" d="M404.644,317H374.473V276.23a1.172,1.172,0,0,1,1.172-1.172h29Zm0,0" transform="translate(-264.752 -194.466)" fill="#7fcbca"/>
  <path id="Path_210280" data-name="Path 210280" d="M446.582,275.059h9.052v37.413h-9.052Zm0,0" transform="translate(-315.742 -194.467)" fill="#62b5b4"/>
  <path id="Path_210281" data-name="Path 210281" d="M423.582,301.844v34.094H401.254V301.844Zm0,0" transform="translate(-283.689 -213.405)" fill="#8cf2ff"/>
  <path id="Path_210282" data-name="Path 210282" d="M446.582,301.844h9.052v34.094h-9.052Zm0,0" transform="translate(-315.742 -213.405)" fill="#6bdae8"/>
  <path id="Path_210283" data-name="Path 210283" d="M145.473,490.146H4.527a4.526,4.526,0,1,1,0-9.052H145.473a4.526,4.526,0,1,1,0,9.052Zm0,0" transform="translate(0 -340.146)" fill="#ff663b"/>
  <path id="Path_210284" data-name="Path 210284" d="M474.692,481.094h-9.052a4.526,4.526,0,0,1,0,9.052h9.052a4.526,4.526,0,0,0,0-9.052Zm0,0" transform="translate(-329.218 -340.146)" fill="#e8572e"/>
  <path id="Path_210285" data-name="Path 210285" d="M150,51.951V66.57a1.172,1.172,0,0,1-1.834.967L76.705,18.607a3.019,3.019,0,0,0-3.41,0L1.834,67.537A1.172,1.172,0,0,1,0,66.57V51.951a2.342,2.342,0,0,1,1.02-1.932L73.295.529a3.015,3.015,0,0,1,3.41,0l72.275,49.49A2.34,2.34,0,0,1,150,51.951Zm0,0" fill="#ff663b"/>
  <path id="Path_210286" data-name="Path 210286" d="M150,74.062V88.68a1.172,1.172,0,0,1-1.834.967L76.705,40.718a3.023,3.023,0,0,0-3.41,0L1.834,89.647A1.172,1.172,0,0,1,0,88.68v-6.7L73.295,31.8a3.019,3.019,0,0,1,3.41,0l58.572,40.1a3.622,3.622,0,0,0,5.668-2.987V66.626l8.035,5.5A2.341,2.341,0,0,1,150,74.062Zm0,0" transform="translate(0 -22.111)" fill="#e8572e"/>
  <path id="Path_210287" data-name="Path 210287" d="M409.507,411.853H375.644a1.172,1.172,0,0,1-1.172-1.172V402.8h35.035a1.172,1.172,0,0,1,1.172,1.172v6.709A1.172,1.172,0,0,1,409.507,411.853Zm0,0" transform="translate(-264.752 -284.79)" fill="#ffd659"/>
  <path id="Path_210288" data-name="Path 210288" d="M475.068,411.853h-7.88V402.8h7.88a1.172,1.172,0,0,1,1.172,1.172v6.709A1.172,1.172,0,0,1,475.068,411.853Zm0,0" transform="translate(-330.312 -284.79)" fill="#ffbd54"/>
  <path id="Path_210289" data-name="Path 210289" d="M98.161,209.061a4.526,4.526,0,1,1-4.526-4.526A4.526,4.526,0,0,1,98.161,209.061Zm0,0" transform="translate(-63.003 -144.612)" fill="#ffd659"/>
  <path id="Path_210290" data-name="Path 210290" d="M95.054,203.758a6.723,6.723,0,1,0-8.919,6.352v12.542a2.2,2.2,0,1,0,4.393,0V210.11A6.734,6.734,0,0,0,95.054,203.758Zm-6.723,2.329a2.329,2.329,0,1,1,2.329-2.329A2.333,2.333,0,0,1,88.332,206.087Zm0,0" transform="translate(-57.7 -139.306)" fill="#484b63"/>
  <g id="Group_142879" data-name="Group 142879" transform="translate(59.527 38.248)">
    <path id="Path_210291" data-name="Path 210291" d="M242.241,179.976a13.692,13.692,0,0,0-16.471.016,2.2,2.2,0,0,0,2.649,3.505,9.3,9.3,0,0,1,11.181-.011,2.2,2.2,0,0,0,2.642-3.51Zm0,0" transform="translate(-218.534 -163.558)" fill="#ff663b"/>
    <path id="Path_210292" data-name="Path 210292" d="M237.653,157.361a19.078,19.078,0,0,0-22.961.015,2.2,2.2,0,0,0,2.649,3.505,14.685,14.685,0,0,1,17.67-.011,2.2,2.2,0,0,0,2.643-3.509Zm0,0" transform="translate(-210.701 -146.797)" fill="#ff663b"/>
    <path id="Path_210293" data-name="Path 210293" d="M233.242,135.424a24.26,24.26,0,0,0-29.2.015,2.2,2.2,0,0,0,2.649,3.505,19.866,19.866,0,0,1,23.905-.013,2.2,2.2,0,1,0,2.645-3.508Zm0,0" transform="translate(-203.171 -130.547)" fill="#ff663b"/>
  </g>
  <path id="Path_210294" data-name="Path 210294" d="M252.8,208.3a2.263,2.263,0,1,1-2.263-2.263A2.263,2.263,0,0,1,252.8,208.3Zm0,0" transform="translate(-175.536 -145.673)" fill="#e8572e"/>
  <path id="Path_210295" data-name="Path 210295" d="M64.683,317H34.512V275.059h29a1.172,1.172,0,0,1,1.172,1.172Zm0,0" transform="translate(-24.404 -194.466)" fill="#7fcbca"/>
  <path id="Path_210296" data-name="Path 210296" d="M56.838,301.844v34.094H34.512V301.844Zm0,0" transform="translate(-24.404 -213.405)" fill="#8cf2ff"/>
  <path id="Path_210297" data-name="Path 210297" d="M79.84,301.844h9.051v34.094H79.84Zm0,0" transform="translate(-56.449 -213.405)" fill="#6bdae8"/>
  <path id="Path_210298" data-name="Path 210298" d="M48.941,411.853H15.078a1.172,1.172,0,0,1-1.172-1.172v-6.709a1.172,1.172,0,0,1,1.172-1.172H50.113v7.88A1.172,1.172,0,0,1,48.941,411.853Zm0,0" transform="translate(-9.833 -284.79)" fill="#ffd659"/>
  <path id="Path_210299" data-name="Path 210299" d="M114.5,411.853h-7.879V402.8h9.051v7.88A1.172,1.172,0,0,1,114.5,411.853Zm0,0" transform="translate(-75.387 -284.79)" fill="#ffbd54"/>
</svg>
