<svg xmlns="http://www.w3.org/2000/svg" width="150" height="150" viewBox="0 0 150 150">
  <g id="Layer_29" transform="translate(-0.023 0.005)">
    <g id="Group_142821" data-name="Group 142821" transform="translate(0.023 -0.005)">
      <ellipse id="Ellipse_16" data-name="Ellipse 16" cx="61.626" cy="61.572" rx="61.626" ry="61.572" transform="translate(13.441 19.006)" fill="#55bde3"/>
      <g id="Group_142819" data-name="Group 142819" transform="translate(21.214 19.034)">
        <path id="Path_210073" data-name="Path 210073" d="M363.564,191.6l-5.823,2.837-6.118,12.739L332.058,212,322.6,199.732l10.285-14.275-2.394-5.291,8.039-8.483h.236a13.176,13.176,0,0,0,3.695-.562l1.478.236a12.72,12.72,0,0,0,1.832.118,15.162,15.162,0,0,0,9.842-3.576,61.387,61.387,0,0,1,7.951,23.7Z" transform="translate(-248.529 -137.376)" fill="#2a8078"/>
        <path id="Path_210074" data-name="Path 210074" d="M143.988,83.164l7.123,15.931-.916,13.921L135.83,118.6l-4.2-9.753-12.62,1.123-5.054-11.556s-8.217-6.355-13-8.512A34.523,34.523,0,0,1,94.6,86.3h.03a61.735,61.735,0,0,1,56.481-21.192Z" transform="translate(-87.861 -64.394)" fill="#2a8078"/>
        <path id="Path_210075" data-name="Path 210075" d="M94.6,86.3a61.815,61.815,0,0,1,56.511-21.192l-7.123,18.059,7.123,15.931-.916,13.921L135.83,118.6l-4.2-9.753-12.62,1.123-5.054-11.556Z" transform="translate(-87.861 -64.394)" fill="#2a8078"/>
        <path id="Path_210076" data-name="Path 210076" d="M165.885,274.287s5.172-.532,7.153-.857c4.877-.857,14.512,1.36,14.512,1.36l3.931,12.62-4.492,4.2L182.5,302.336l-1.655,16.256L171.56,329s-1.832-7.064-2.217-10.167-1.123-9.724-1.123-9.724l-3.783-2.128-3.754-9.931-9.783-3.163,3.458-15.487Z" transform="translate(-127.539 -211.673)" fill="#2a8078"/>
        <path id="Path_210077" data-name="Path 210077" d="M71.8,245.466l5.231-6.266,6.739,3.133v10.019H80.785Z" transform="translate(-71.8 -187.616)" fill="#2a8078"/>
      </g>
      <path id="Path_210078" data-name="Path 210078" d="M281.747,457.158l-6.029,2.985a5.936,5.936,0,0,1-7.123-3.222l-2.483-5.527a7.19,7.19,0,0,1,3.192-9.281l3.281-1.714" transform="translate(-187.06 -310.398)" fill="#f9c19b"/>
      <path id="Path_210079" data-name="Path 210079" d="M310.725,442.28l-7.093,4.581a7.5,7.5,0,0,1-9.694-3.074l-6.857-12.768a5.345,5.345,0,0,1,1.98-7.123l1.448-.887a5.363,5.363,0,0,1,7.359,1.892.029.029,0,0,0,.03.03l1.6,2.808" transform="translate(-201.826 -297.619)" fill="#f9c19b"/>
      <path id="Path_210080" data-name="Path 210080" d="M346.527,417.362l-7.98,5.172a8.458,8.458,0,0,1-10.965-3.458l-7.714-14.423a6.02,6.02,0,0,1,2.217-8.039l1.655-1a6.081,6.081,0,0,1,8.276,2.1.109.109,0,0,1,.03.089l1.832,3.162" transform="translate(-224.865 -278.258)" fill="#f9c19b"/>
      <path id="Path_210081" data-name="Path 210081" d="M395.2,386.024l-3.842,14.9a9.331,9.331,0,0,1-8.1,6.975l-.65.059a9.29,9.29,0,0,1-8.6-3.9l-8.276-11.7a7.294,7.294,0,0,1,1.389-9.872l.118-.089a7.277,7.277,0,0,1,10.226,1.123l.266.355,5.054,7.182" transform="translate(-256.764 -268.406)" fill="#f9c19b"/>
      <path id="Path_210082" data-name="Path 210082" d="M430.033,288.5l11.113,12.768c5.823,8.01-.473,16.078-2.867,17.29l-9.9,4.965a8.18,8.18,0,0,1-10.965-3.694c0-.03-.03-.03-.03-.059a7.924,7.924,0,0,1,2.808-10.019l6.414-5.556a41.979,41.979,0,0,0,2.305-7.064A85.473,85.473,0,0,0,430.033,288.5Z" transform="translate(-293.547 -203.352)" fill="#ffc9a3"/>
      <path id="Path_210083" data-name="Path 210083" d="M187.2,457.158l6.059,2.985a5.917,5.917,0,0,0,7.093-3.222l2.483-5.527a7.19,7.19,0,0,0-3.192-9.281l-3.281-1.714" transform="translate(-131.901 -310.398)" fill="#f9c19b"/>
      <path id="Path_210084" data-name="Path 210084" d="M139.1,442.28l7.093,4.581a7.489,7.489,0,0,0,9.694-3.074l6.857-12.768a5.317,5.317,0,0,0-1.98-7.123l-1.448-.887a5.363,5.363,0,0,0-7.359,1.892.029.029,0,0,1-.03.03l-1.6,2.808" transform="translate(-98.013 -297.619)" fill="#f9c19b"/>
      <path id="Path_210085" data-name="Path 210085" d="M95.9,417.334l7.98,5.172a8.458,8.458,0,0,0,10.965-3.458l7.744-14.423a6.058,6.058,0,0,0-2.246-8.039l-1.626-1a6.072,6.072,0,0,0-8.305,2.128c0,.03-.03.03-.03.059l-1.8,3.162" transform="translate(-67.576 -278.229)" fill="#f9c19b"/>
      <path id="Path_210086" data-name="Path 210086" d="M39.1,386.024l3.842,14.9a9.331,9.331,0,0,0,8.1,6.975l.65.059a9.29,9.29,0,0,0,8.6-3.9l8.276-11.7a7.294,7.294,0,0,0-1.389-9.872l-.118-.089a7.277,7.277,0,0,0-10.226,1.123l-.266.355-5.054,7.182" transform="translate(-27.551 -268.406)" fill="#f9c19b"/>
      <path id="Path_210087" data-name="Path 210087" d="M13.553,288.5,2.41,301.268c-5.793,8.01.473,16.078,2.9,17.29l9.9,4.965a8.146,8.146,0,0,0,10.936-3.694.1.1,0,0,1,.03-.059A7.881,7.881,0,0,0,23.4,309.751l-6.443-5.556a41.985,41.985,0,0,1-2.305-7.064,82.2,82.2,0,0,1-1.094-8.63Z" transform="translate(-0.023 -203.352)" fill="#ffc9a3"/>
      <path id="Path_210088" data-name="Path 210088" d="M151.717,0a15.374,15.374,0,0,0-14.069,9.192,12,12,0,0,0,7.064,21.694,11.86,11.86,0,0,0,3.665-.562,15.827,15.827,0,0,0,3.34.355,15.34,15.34,0,1,0,0-30.679Z" transform="translate(-93.517 0.005)" fill="#719b29"/>
      <path id="Path_210089" data-name="Path 210089" d="M184.8,52.3h3.547V86.023H184.8Z" transform="translate(-130.208 -36.841)" fill="#9a5645"/>
      <path id="Path_210090" data-name="Path 210090" d="M0,0H10.67V3.547H0Z" transform="translate(55.163 24.64) rotate(-40.782)" fill="#9a5645"/>
      <path id="Path_210091" data-name="Path 210091" d="M0,0H3.547V6.236H0Z" transform="translate(50.029 19.29) rotate(-61.719)" fill="#9a5645"/>
      <path id="Path_210092" data-name="Path 210092" d="M371.039,91.464A15.326,15.326,0,0,1,355.7,106.8a12.72,12.72,0,0,1-1.832-.118l-1.478-.236a13.175,13.175,0,0,1-3.694.562h-.236a12,12,0,0,1-6.827-21.694,15.34,15.34,0,0,1,29.408,6.148Z" transform="translate(-237.243 -53.601)" fill="#719b29"/>
      <path id="Path_210093" data-name="Path 210093" d="M388.8,128.5h3.547v33.723H388.8Z" transform="translate(-273.937 -90.573)" fill="#9a5645"/>
      <path id="Path_210094" data-name="Path 210094" d="M0,0H10.67V3.547H0Z" transform="translate(115.421 47.094) rotate(-40.782)" fill="#9a5645"/>
      <path id="Path_210095" data-name="Path 210095" d="M0,0H3.547V6.236H0Z" transform="translate(110.305 41.737) rotate(-61.719)" fill="#9a5645"/>
      <g id="Group_142820" data-name="Group 142820" transform="translate(30.357 120.788)">
        <path id="Path_210096" data-name="Path 210096" d="M374.282,425.537l-10.049-13.8a1.793,1.793,0,0,0-2.483-.414,1.761,1.761,0,0,0-.384,2.483l10.049,13.832a1.723,1.723,0,0,0,2.424.414c.03,0,.03-.03.059-.03A1.815,1.815,0,0,0,374.282,425.537Z" transform="translate(-284.706 -410.472)" fill="#f2b58c"/>
        <path id="Path_210097" data-name="Path 210097" d="M322.408,427.7a1.767,1.767,0,1,0-2.985,1.892l7.951,12.62a1.778,1.778,0,0,0,2.453.562,1.8,1.8,0,0,0,.562-2.453Z" transform="translate(-255.206 -421.654)" fill="#f2b58c"/>
        <path id="Path_210098" data-name="Path 210098" d="M286.035,450.118a1.774,1.774,0,0,0-3.133,1.655l5.97,11.349a1.8,1.8,0,0,0,2.394.739,1.732,1.732,0,0,0,.768-2.335c0-.03-.03-.03-.03-.059Z" transform="translate(-229.561 -437.417)" fill="#f2b58c"/>
        <path id="Path_210099" data-name="Path 210099" d="M194.474,448.128a1.8,1.8,0,0,0-2.394.739l-5.852,11.113a1.789,1.789,0,0,0,.739,2.394,1.742,1.742,0,0,0,2.364-.68c0-.03.03-.03.03-.059l5.852-11.113A1.789,1.789,0,0,0,194.474,448.128Z" transform="translate(-161.439 -436.491)" fill="#f2b58c"/>
        <path id="Path_210100" data-name="Path 210100" d="M155.459,422.394a1.813,1.813,0,0,0-2.453.591l-8.512,14.335a1.737,1.737,0,0,0,.591,2.394l.03.03a1.737,1.737,0,0,0,2.394-.591l.03-.03,8.512-14.305A1.772,1.772,0,0,0,155.459,422.394Z" transform="translate(-132 -418.324)" fill="#f2b58c"/>
        <path id="Path_210101" data-name="Path 210101" d="M113.932,409.544a1.8,1.8,0,0,0-2.483.443l-8.305,12a1.783,1.783,0,1,0,2.926,2.039l8.305-12a1.8,1.8,0,0,0-.443-2.483Z" transform="translate(-102.827 -409.227)" fill="#f2b58c"/>
      </g>
    </g>
  </g>
</svg>
