<svg xmlns="http://www.w3.org/2000/svg" width="150" height="150" viewBox="0 0 150 150">
  <g id="tourism" transform="translate(9.791 9.511)">
    <g id="Group_142815" data-name="Group 142815" transform="translate(-9.791 -9.558)">
      <circle id="Ellipse_14" data-name="Ellipse 14" cx="53.041" cy="53.041" r="53.041" transform="translate(0 75.046) rotate(-45)" fill="#66d4f1"/>
      <g id="Group_142814" data-name="Group 142814" transform="translate(21.988 21.973)">
        <path id="Path_210015" data-name="Path 210015" d="M158.184,121.973q1.493,1.467,2.87,3.046a82.837,82.837,0,0,1-17.726,5.5,118.075,118.075,0,0,1-44.57,0,82.821,82.821,0,0,1-17.726-5.5q1.374-1.58,2.87-3.046a80.708,80.708,0,0,0,15.613,4.672,114.361,114.361,0,0,0,43.056,0A80.688,80.688,0,0,0,158.184,121.973Zm15.846,35.9c.024.657.04,1.315.04,1.978s-.016,1.321-.04,1.978H68.056c-.024-.657-.04-1.315-.04-1.978s.016-1.321.04-1.978Zm-13.112,36.961q-1.383,1.579-2.888,3.043a81.221,81.221,0,0,0-15.75-4.664,114.505,114.505,0,0,0-42.475,0,81.223,81.223,0,0,0-15.75,4.664q-1.5-1.465-2.888-3.043a83.28,83.28,0,0,1,17.881-5.5,118.211,118.211,0,0,1,43.988,0A83.277,83.277,0,0,1,160.918,194.831Z" transform="translate(-68.016 -106.776)" fill="#4fc0e8" fill-rule="evenodd"/>
        <path id="Path_210016" data-name="Path 210016" d="M183.068,68.2c8.143,0,15.406,6.127,20.567,16.032,4.96,9.521,8.028,22.62,8.028,37.041s-3.068,27.52-8.028,37.041c-5.16,9.905-12.424,16.032-20.567,16.032s-15.406-6.127-20.567-16.032c-4.96-9.521-8.028-22.62-8.028-37.041C154.473,91.958,167.275,68.2,183.068,68.2Zm17.077,17.857c-4.473-8.587-10.52-13.9-17.077-13.9-13.609,0-24.642,21.989-24.642,49.114,0,13.8,2.891,26.245,7.565,35.216,4.473,8.587,10.52,13.9,17.077,13.9s12.6-5.311,17.077-13.9c4.674-8.971,7.565-21.419,7.565-35.216s-2.891-26.245-7.565-35.216Z" transform="translate(-130.041 -68.196)" fill="#4fc0e8" fill-rule="evenodd"/>
        <path id="Path_210017" data-name="Path 210017" d="M248.822,74.637h3.956V177.143h-3.956Z" transform="translate(-197.773 -72.817)" fill="#4fc0e8" fill-rule="evenodd"/>
      </g>
    </g>
    <g id="Group_142817" data-name="Group 142817" transform="translate(-2.553 70.117)">
      <path id="Path_210018" data-name="Path 210018" d="M43.177,288.235V277.529a5.158,5.158,0,0,1,5.151-5.151H55.44a5.158,5.158,0,0,1,5.151,5.151v10.705H56.635V277.529a1.2,1.2,0,0,0-1.2-1.2H48.328a1.2,1.2,0,0,0-1.2,1.2v10.705Z" transform="translate(-35.447 -272.378)" fill="#7e6451" fill-rule="evenodd"/>
      <path id="Path_210019" data-name="Path 210019" d="M18.308,319.014h27.9A2.491,2.491,0,0,1,48.7,321.5v36.961a2.491,2.491,0,0,1-2.486,2.486h-27.9a2.491,2.491,0,0,1-2.486-2.486V321.5a2.491,2.491,0,0,1,2.486-2.486Z" transform="translate(-15.822 -305.835)" fill="#937661" fill-rule="evenodd"/>
      <g id="Group_142816" data-name="Group 142816" transform="translate(3.108 19.138)">
        <path id="Path_210020" data-name="Path 210020" d="M50.851,477.4a2.628,2.628,0,1,1-2.628,2.628A2.628,2.628,0,0,1,50.851,477.4Zm-21.4,0a2.628,2.628,0,1,1-2.628,2.628A2.628,2.628,0,0,1,29.447,477.4Z" transform="translate(-26.819 -438.6)" fill="#7e6451" fill-rule="evenodd"/>
        <path id="Path_210021" data-name="Path 210021" d="M45.633,342.079a1.978,1.978,0,1,1,3.956,0v26.059a1.978,1.978,0,1,1-3.956,0Zm8.413,0a1.978,1.978,0,1,1,3.956,0v26.059a1.978,1.978,0,1,1-3.956,0Zm-16.825,0a1.978,1.978,0,1,1,3.956,0v26.059a1.978,1.978,0,1,1-3.956,0Z" transform="translate(-34.281 -340.101)" fill="#7e6451" fill-rule="evenodd"/>
      </g>
    </g>
    <g id="Group_142818" data-name="Group 142818" transform="translate(26.963 -2.335)">
      <path id="Path_210022" data-name="Path 210022" d="M250.27,41.083,215.993,32.55a.514.514,0,0,0-.395.055l-7.862,4.539a.532.532,0,0,0,.007.926L232.058,51.6l14.531.791Z" transform="translate(-182.92 -27.86)" fill="#cad0d7" fill-rule="evenodd"/>
      <path id="Path_210023" data-name="Path 210023" d="M138.743,67.01,120.789,52.369a.532.532,0,0,1,.042-.856l5.936-3.936a.518.518,0,0,1,.475-.057l17.627,6.353a.516.516,0,0,0,.447-.04l62.048-35.824c10.323-5.96,30.786,2.163,11.2,13.473l-14.05,8.112a.513.513,0,0,0-.246.314L191.145,85.6a.514.514,0,0,1-.245.314l-7.862,4.539a.532.532,0,0,1-.8-.469l.59-37.151a.533.533,0,0,0-.784-.477c-5.436,2.933-36.957,19.576-43.292,14.661l-.01-.008Z" transform="translate(-120.593 -15.999)" fill="#e4e8eb" fill-rule="evenodd"/>
    </g>
  </g>
</svg>
