<svg xmlns="http://www.w3.org/2000/svg" width="150" height="151.001" viewBox="0 0 150 151.001">
  <g id="vr" transform="translate(-31.803 -20)">
    <g id="Group_142809" data-name="Group 142809" transform="translate(55.693 20)">
      <path id="Path_209990" data-name="Path 209990" d="M218.377,49.152l-3.747,29.433h-2.477V68.867a31.51,31.51,0,0,0-1.461-9.5H174.614a27.492,27.492,0,0,1-20.141-8.747,31.524,31.524,0,0,0-5.811,18.251v9.718h-2.637l-3.747-29.433c-.566-4.464,1.548-8.626,5.355-11.692a27.671,27.671,0,0,1-.582-5.66V26.35A6.351,6.351,0,0,1,153.4,20H183.14a31.787,31.787,0,0,1,27.493,15.8C215.908,38.927,219.058,43.824,218.377,49.152Z" transform="translate(-129.219 -20)" fill="#21315f"/>
      <path id="Path_209991" data-name="Path 209991" d="M205.865,229.985v1.759H103.49v-1.759c0-.645.013-1.306.044-1.951.03-.591.057-1.2.1-1.787.044-.547.1-1.085.178-1.619.044-.468.114-.936.188-1.4a3.175,3.175,0,0,1,.044-.358c.074-.44.144-.866.235-1.306.027-.18.057-.345.087-.522.07-.329.144-.661.218-.99.087-.411.174-.81.275-1.208.03-.139.074-.275.1-.4.087-.345.188-.7.292-1.044q.131-.456.261-.908a44.905,44.905,0,0,1,2.547-6.471c.248-.509.509-1.019.771-1.512s.526-.99.818-1.483c.261-.468.536-.936.828-1.388a.078.078,0,0,1,.044-.07c.292-.468.6-.933.9-1.4.244-.358.493-.715.741-1.072a45.912,45.912,0,0,1,3.452-4.3c.349-.411.727-.81,1.106-1.2a48.426,48.426,0,0,1,3.931-3.681c.479-.4.962-.8,1.454-1.18s1.005-.756,1.515-1.129,1.019-.727,1.545-1.072,1.062-.7,1.6-1.028c.523-.316,1.046-.633,1.585-.936a.355.355,0,0,0,.074-.041c.422-.234.828-.468,1.25-.674.774-.424,1.558-.81,2.346-1.18a53.116,53.116,0,0,1,5.137-2.075,12.947,12.947,0,0,0,6.129-4.355,11.98,11.98,0,0,0,2.235-4.643c-13.036-3.729-22.594-15.2-22.594-28.683v-18.34a28.625,28.625,0,0,1,5.811-17.224,28.275,28.275,0,0,0,20.141,8.255h36.078a28.2,28.2,0,0,1,1.461,8.969v18.34c0,13.476-9.555,24.947-22.584,28.679a12.086,12.086,0,0,0,2.221,4.646,13.117,13.117,0,0,0,6.13,4.355,52.95,52.95,0,0,1,5.137,2.075c.788.37,1.575.756,2.346,1.18.422.206.828.44,1.25.674a.36.36,0,0,0,.074.041c.54.3,1.062.62,1.588.936s1.076.67,1.6,1.028,1.032.7,1.542,1.072,1.019.744,1.515,1.129.975.782,1.454,1.18a48.3,48.3,0,0,1,3.931,3.681c.378.386.757.784,1.106,1.2a45.287,45.287,0,0,1,3.452,4.3l.744,1.072c.3.468.61.933.9,1.4a.072.072,0,0,1,.044.07c.292.453.566.92.831,1.388.288.494.553.987.814,1.483s.523,1,.771,1.512a44.908,44.908,0,0,1,2.547,6.471c.087.3.174.6.265.908.1.342.2.7.288,1.044.03.123.074.259.1.4.1.4.188.8.275,1.208l.221.99c.026.177.057.342.087.522.087.44.158.866.231,1.306a2.549,2.549,0,0,1,.043.358c.074.465.147.933.191,1.4.071.534.131,1.072.175,1.619.044.591.07,1.2.1,1.787C205.851,228.679,205.865,229.34,205.865,229.985Z" transform="translate(-103.49 -80.742)" fill="#f2b7a2"/>
      <path id="Path_209992" data-name="Path 209992" d="M245.032,319.383a23.715,23.715,0,0,1-22.77,0,12.912,12.912,0,0,0,2.228-4.921,31.749,31.749,0,0,0,9.157,1.354,31.281,31.281,0,0,0,9.172-1.369A13.056,13.056,0,0,0,245.032,319.383Z" transform="translate(-182.459 -215.773)" fill="#da795c"/>
      <path id="Path_209993" data-name="Path 209993" d="M205.865,388.5v1.584H103.489V388.5c0-.582.015-1.175.044-1.757.029-.532.059-1.076.1-1.608.044-.495.1-.977.175-1.46.044-.421.117-.841.189-1.262a2.4,2.4,0,0,1,.044-.322c.073-.4.146-.779.233-1.175.029-.161.058-.309.087-.47q.11-.445.218-.891c.087-.371.175-.73.276-1.089.029-.124.073-.247.1-.359.087-.309.189-.631.291-.94l.262-.816a38.273,38.273,0,0,1,2.548-5.827c.247-.458.51-.916.772-1.361s.524-.89.815-1.336c.262-.421.539-.841.83-1.25a.068.068,0,0,1,.044-.062c.291-.421.6-.841.9-1.262l.743-.965a42.266,42.266,0,0,1,3.45-3.872c.35-.371.728-.73,1.107-1.076a46.846,46.846,0,0,1,3.931-3.316c.481-.359.961-.718,1.456-1.064s1-.681,1.514-1.015,1.019-.656,1.543-.965,1.063-.631,1.6-.928,1.049-.569,1.587-.841a.35.35,0,0,0,.073-.037c.422-.21.83-.421,1.252-.606.772-.384,1.558-.73,2.344-1.064,3.669,7.559,12.434,12.879,22.654,12.879s18.984-5.32,22.653-12.879c.786.334,1.572.681,2.344,1.064.422.186.83.4,1.252.606a.338.338,0,0,0,.073.037c.539.272,1.063.557,1.586.841.539.3,1.077.606,1.6.928s1.034.631,1.543.965,1.019.668,1.514,1.015.976.705,1.456,1.064a46.686,46.686,0,0,1,3.931,3.316c.379.346.757.705,1.107,1.076a42.28,42.28,0,0,1,3.45,3.872l.742.965c.306.421.612.841.9,1.262a.068.068,0,0,1,.043.062c.291.408.568.829.83,1.25.291.445.553.891.816,1.336s.524.9.771,1.361a38.275,38.275,0,0,1,2.548,5.827q.132.408.262.816c.1.309.2.631.291.94.029.111.073.235.1.359.1.359.189.718.276,1.089l.219.891c.029.161.058.309.087.47.087.4.16.779.233,1.175a2.453,2.453,0,0,1,.044.322c.072.421.145.841.189,1.262.073.483.132.965.175,1.46.044.532.072,1.076.1,1.608C205.85,387.324,205.865,387.918,205.865,388.5Z" transform="translate(-103.489 -239.081)" fill="#e67445"/>
    </g>
    <g id="Group_142810" data-name="Group 142810" transform="translate(66.255 64.759)">
      <path id="Path_209994" data-name="Path 209994" d="M353.044,185.532h-6.579a2.2,2.2,0,0,1-2.2-2.2V168.864a2.2,2.2,0,0,1,2.2-2.2h6.579a2.2,2.2,0,0,1,2.2,2.2v14.472A2.2,2.2,0,0,1,353.044,185.532Z" transform="translate(-274.14 -162.276)" fill="#ebc847"/>
      <path id="Path_209995" data-name="Path 209995" d="M143.779,185.532H137.2a2.2,2.2,0,0,1-2.2-2.2V168.864a2.2,2.2,0,0,1,2.2-2.2h6.579a2.2,2.2,0,0,1,2.2,2.2v14.472A2.2,2.2,0,0,1,143.779,185.532Z" transform="translate(-135.003 -162.276)" fill="#ebc847"/>
      <path id="Path_209996" data-name="Path 209996" d="M221.5,155.757v23.256a2.194,2.194,0,0,1-2.2,2.2H195.381a2.168,2.168,0,0,1-2.122-1.634,7.016,7.016,0,0,0-13.645,0,2.168,2.168,0,0,1-2.122,1.634H153.57a2.194,2.194,0,0,1-2.2-2.2V155.757a2.2,2.2,0,0,1,2.2-2.2h65.736A2.2,2.2,0,0,1,221.5,155.757Z" transform="translate(-145.888 -153.561)" fill="#4e73de"/>
      <path id="Path_209997" data-name="Path 209997" d="M225.824,166.667v18.864H205.682a11.831,11.831,0,0,0-.558-1.16,11.309,11.309,0,0,0-5.284-4.853,11.432,11.432,0,0,0-15.223,6.013H164.48V166.667Z" transform="translate(-154.602 -162.275)" fill="#8cabff"/>
      <path id="Path_209998" data-name="Path 209998" d="M192.678,166.667l-18.864,18.864H167.7l18.864-18.864Z" transform="translate(-156.745 -162.275)" fill="#d9e5ff"/>
      <path id="Path_209999" data-name="Path 209999" d="M219.856,166.667l-18.864,18.864h-3.053L216.8,166.667Z" transform="translate(-176.848 -162.275)" fill="#d9e5ff"/>
      <path id="Path_210000" data-name="Path 210000" d="M288.958,166.667l-15.381,15.381a11.289,11.289,0,0,0-3.58-2.53l12.855-12.851h6.105Z" transform="translate(-224.758 -162.275)" fill="#d9e5ff"/>
      <path id="Path_210001" data-name="Path 210001" d="M306.464,166.666v.057L287.657,185.53h-1.335a11.839,11.839,0,0,0-.558-1.16l17.7-17.7h3Z" transform="translate(-235.241 -162.274)" fill="#d9e5ff"/>
    </g>
    <g id="Group_142812" data-name="Group 142812" transform="translate(31.803 67.615)">
      <g id="Group_142811" data-name="Group 142811" transform="translate(0 0)" opacity="0.47">
        <path id="Path_210002" data-name="Path 210002" d="M157.98,213.143c14.659,4.439,23.823,10.762,23.823,17.779,0,13.432-33.579,24.32-75,24.32s-75-10.888-75-24.32c0-7.017,9.164-13.34,23.823-17.779v-51.06C40.967,166.522,31.8,172.844,31.8,179.861c0,13.432,33.579,24.32,75,24.32s75-10.888,75-24.32c0-7.017-9.164-13.34-23.823-17.778v51.06Z" transform="translate(-31.803 -162.083)" fill="#4e73de"/>
        <path id="Path_210003" data-name="Path 210003" d="M181.8,215.134V266.2c0,13.431-33.575,24.319-75,24.319s-75-10.888-75-24.319V215.134c0,7.014,9.164,13.339,23.82,17.775,13.4,4.058,31.4,6.544,51.178,6.544s37.775-2.486,51.178-6.544C172.641,228.473,181.8,222.148,181.8,215.134Z" transform="translate(-31.806 -197.356)" fill="#94a9e3"/>
      </g>
      <path id="Path_210004" data-name="Path 210004" d="M357.1,322.667H344.209a1.676,1.676,0,0,1,0-3.351H357.1a1.676,1.676,0,1,1,0,3.351Z" transform="translate(-238.608 -266.624)" fill="#fff"/>
      <path id="Path_210005" data-name="Path 210005" d="M364.8,341.458H344.209a1.676,1.676,0,1,1,0-3.351H364.8a1.676,1.676,0,1,1,0,3.351Z" transform="translate(-238.667 -279.118)" fill="#fff"/>
      <path id="Path_210006" data-name="Path 210006" d="M136.737,375.014H122.785a1.676,1.676,0,1,1,0-3.351h13.952a1.676,1.676,0,1,1,0,3.351Z" transform="translate(-91.241 -301.429)" fill="#2babaa"/>
      <path id="Path_210007" data-name="Path 210007" d="M136.737,393.806H122.785a1.676,1.676,0,0,1,0-3.351h13.952a1.676,1.676,0,1,1,0,3.351Z" transform="translate(-91.241 -313.923)" fill="#2babaa"/>
    </g>
    <g id="Group_142813" data-name="Group 142813" transform="translate(90.383 118.317)">
      <path id="Path_210008" data-name="Path 210008" d="M208.678,321.859A1.676,1.676,0,0,1,207,320.183v-5.129a1.676,1.676,0,0,1,1.676-1.676h5.112a1.676,1.676,0,1,1,0,3.351h-3.436v3.453A1.676,1.676,0,0,1,208.678,321.859Z" transform="translate(-207.002 -313.379)" fill="#4e73de"/>
      <path id="Path_210009" data-name="Path 210009" d="M213.854,395.016h-5.177A1.676,1.676,0,0,1,207,393.341V388.2a1.676,1.676,0,1,1,3.351,0v3.462h3.5a1.676,1.676,0,1,1,0,3.351Z" transform="translate(-207.002 -362.014)" fill="#4e73de"/>
      <path id="Path_210010" data-name="Path 210010" d="M286.981,395.016h-5.129a1.676,1.676,0,1,1,0-3.351h3.453V388.2a1.676,1.676,0,1,1,3.351,0v5.138A1.676,1.676,0,0,1,286.981,395.016Z" transform="translate(-255.655 -362.014)" fill="#4e73de"/>
      <path id="Path_210011" data-name="Path 210011" d="M286.9,321.859a1.676,1.676,0,0,1-1.676-1.676V316.73h-3.493a1.676,1.676,0,0,1,0-3.351H286.9a1.676,1.676,0,0,1,1.676,1.676v5.129A1.676,1.676,0,0,1,286.9,321.859Z" transform="translate(-255.575 -313.379)" fill="#4e73de"/>
      <path id="Path_210012" data-name="Path 210012" d="M239.572,353.117l-.027,9.649-8.4-4.848.027-9.648Z" transform="translate(-223.056 -336.577)" fill="#678fff"/>
      <path id="Path_210013" data-name="Path 210013" d="M256.232,353.056l8.394-4.878-.027,9.649-8.395,4.878Z" transform="translate(-239.716 -336.516)" fill="#8cabff"/>
      <path id="Path_210014" data-name="Path 210014" d="M231.229,338.591l8.395-4.879,8.4,4.848-8.394,4.878Z" transform="translate(-223.11 -326.898)" fill="#7da0ef"/>
    </g>
  </g>
</svg>
